M48
; DRILL file {KiCad 8.0.5} date 2024-11-15T02:35:06-0300
; FORMAT={-:-/ absolute / metric / decimal}
; #@! TF.CreationDate,2024-11-15T02:35:06-03:00
; #@! TF.GenerationSoftware,Kicad,Pcbnew,8.0.5
; #@! TF.FileFunction,Plated,1,2,PTH
FMAT,2
METRIC
; #@! TA.AperFunction,Plated,PTH,ComponentDrill
T1C0.700
; #@! TA.AperFunction,Plated,PTH,ComponentDrill
T2C0.800
; #@! TA.AperFunction,Plated,PTH,ComponentDrill
T3C1.000
; #@! TA.AperFunction,Plated,PTH,ComponentDrill
T4C1.200
; #@! TA.AperFunction,Plated,PTH,ComponentDrill
T5C1.300
; #@! TA.AperFunction,Plated,PTH,ComponentDrill
T6C1.520
%
G90
G05
T1
X120.3Y-104.6
X133.5Y-80.0
X139.1Y-81.6
X157.7Y-94.5
X165.3Y-76.0
T2
X122.09Y-93.4
X122.19Y-89.2
X123.79Y-82.4
X124.7Y-96.69
X124.7Y-104.31
X125.89Y-108.1
X125.89Y-112.2
X128.7Y-96.69
X128.7Y-104.31
X129.71Y-93.4
X129.81Y-89.2
X131.41Y-82.4
X132.9Y-86.6
X132.9Y-89.14
X132.9Y-91.68
X132.9Y-94.22
X133.305Y-74.7
X133.51Y-108.1
X133.51Y-112.2
X133.59Y-100.3
X135.805Y-74.7
X139.15Y-77.7
X140.52Y-86.6
X140.52Y-89.14
X140.52Y-91.68
X140.52Y-94.22
X141.21Y-100.3
X142.94Y-81.15
X143.49Y-84.5
X143.8Y-89.25
X143.8Y-91.75
X144.0Y-77.7
X146.5Y-72.7
X146.5Y-77.7
X147.09Y-94.4
X147.19Y-88.5
X150.56Y-81.15
X150.9Y-72.6
X150.9Y-77.6
X151.11Y-84.5
X154.71Y-94.4
X154.81Y-88.5
X155.005Y-74.2
X157.505Y-74.2
X157.9Y-83.58
X157.9Y-91.2
X163.934Y-82.075
X163.934Y-84.615
X163.934Y-87.155
X163.934Y-89.695
X163.934Y-92.235
X163.934Y-94.775
X163.934Y-97.315
X167.0Y-101.2
X171.554Y-82.075
X171.554Y-84.615
X171.554Y-87.155
X171.554Y-89.695
X171.554Y-92.235
X171.554Y-94.775
X171.554Y-97.315
X172.2Y-101.2
T3
X136.66Y-104.3
X139.2Y-104.3
X141.74Y-104.3
T4
X145.35Y-107.3
X158.05Y-107.3
T5
X147.2Y-112.6
X152.2Y-112.6
X157.2Y-112.6
T6
X132.88Y-67.39
X137.96Y-67.39
X143.04Y-67.39
X148.12Y-67.39
X153.2Y-67.39
X158.28Y-67.39
M30
