%TF.GenerationSoftware,KiCad,Pcbnew,8.0.4*%
%TF.CreationDate,2024-11-22T17:56:22-03:00*%
%TF.ProjectId,pcb_pwm,7063625f-7077-46d2-9e6b-696361645f70,rev?*%
%TF.SameCoordinates,Original*%
%TF.FileFunction,Copper,L2,Bot*%
%TF.FilePolarity,Positive*%
%FSLAX46Y46*%
G04 Gerber Fmt 4.6, Leading zero omitted, Abs format (unit mm)*
G04 Created by KiCad (PCBNEW 8.0.4) date 2024-11-22 17:56:22*
%MOMM*%
%LPD*%
G01*
G04 APERTURE LIST*
%TA.AperFunction,ComponentPad*%
%ADD10R,1.800000X1.800000*%
%TD*%
%TA.AperFunction,ComponentPad*%
%ADD11R,1.600000X1.600000*%
%TD*%
%TA.AperFunction,ComponentPad*%
%ADD12O,1.600000X1.600000*%
%TD*%
%TA.AperFunction,ComponentPad*%
%ADD13C,1.600000*%
%TD*%
%TA.AperFunction,ComponentPad*%
%ADD14R,2.400000X2.400000*%
%TD*%
%TA.AperFunction,ComponentPad*%
%ADD15O,2.400000X2.400000*%
%TD*%
%TA.AperFunction,ComponentPad*%
%ADD16R,1.700000X1.700000*%
%TD*%
%TA.AperFunction,ComponentPad*%
%ADD17O,1.700000X1.700000*%
%TD*%
%TA.AperFunction,ComponentPad*%
%ADD18R,3.000000X3.000000*%
%TD*%
%TA.AperFunction,ComponentPad*%
%ADD19C,3.000000*%
%TD*%
%TA.AperFunction,ComponentPad*%
%ADD20C,2.340000*%
%TD*%
%TA.AperFunction,Conductor*%
%ADD21C,1.000000*%
%TD*%
G04 APERTURE END LIST*
D10*
%TO.P,TP3,1,1*%
%TO.N,Vtriang*%
X139100000Y-81600000D03*
%TD*%
D11*
%TO.P,U1,1*%
%TO.N,Verr*%
X132900000Y-86600000D03*
D12*
%TO.P,U1,2,-*%
%TO.N,Net-(U1A--)*%
X132900000Y-89140000D03*
%TO.P,U1,3,+*%
%TO.N,Net-(U1A-+)*%
X132900000Y-91680000D03*
%TO.P,U1,4,V-*%
%TO.N,-Vcc*%
X132900000Y-94220000D03*
%TO.P,U1,5,+*%
%TO.N,0*%
X140520000Y-94220000D03*
%TO.P,U1,6,-*%
%TO.N,Net-(U1B--)*%
X140520000Y-91680000D03*
%TO.P,U1,7*%
%TO.N,Vtriang*%
X140520000Y-89140000D03*
%TO.P,U1,8,V+*%
%TO.N,Vcc*%
X140520000Y-86600000D03*
%TD*%
D13*
%TO.P,,2*%
%TO.N,0*%
X144000000Y-77700000D03*
%TD*%
%TO.P,R6,1*%
%TO.N,Vcc*%
X141210000Y-100300000D03*
D12*
%TO.P,R6,2*%
%TO.N,Net-(J2-Pin_3)*%
X133590000Y-100300000D03*
%TD*%
D11*
%TO.P,U2,1*%
%TO.N,Vo*%
X163934315Y-82075000D03*
D12*
%TO.P,U2,2*%
%TO.N,Vcuad*%
X163934315Y-84615000D03*
%TO.P,U2,3,V+*%
%TO.N,Vcc*%
X163934315Y-87155000D03*
%TO.P,U2,4,-*%
%TO.N,Net-(U2A--)*%
X163934315Y-89695000D03*
%TO.P,U2,5,+*%
%TO.N,0*%
X163934315Y-92235000D03*
%TO.P,U2,6,-*%
%TO.N,Verr*%
X163934315Y-94775000D03*
%TO.P,U2,7,+*%
%TO.N,Vtriang*%
X163934315Y-97315000D03*
%TO.P,U2,8,-*%
%TO.N,Net-(U2D--)*%
X171554315Y-97315000D03*
%TO.P,U2,9,+*%
%TO.N,0*%
X171554315Y-94775000D03*
%TO.P,U2,10,-*%
%TO.N,Net-(U2C--)*%
X171554315Y-92235000D03*
%TO.P,U2,11,+*%
%TO.N,0*%
X171554315Y-89695000D03*
%TO.P,U2,12,V-*%
%TO.N,-Vcc*%
X171554315Y-87155000D03*
%TO.P,U2,13*%
%TO.N,Net-(U2C--)*%
X171554315Y-84615000D03*
%TO.P,U2,14*%
%TO.N,Net-(U2D--)*%
X171554315Y-82075000D03*
%TD*%
D13*
%TO.P,R4,1*%
%TO.N,Vtriang*%
X147190000Y-88500000D03*
D12*
%TO.P,R4,2*%
%TO.N,Net-(U2A--)*%
X154810000Y-88500000D03*
%TD*%
D13*
%TO.P,R11,1*%
%TO.N,Verr*%
X131410000Y-82400000D03*
D12*
%TO.P,R11,2*%
%TO.N,Net-(U1A--)*%
X123790000Y-82400000D03*
%TD*%
D13*
%TO.P,R3,1*%
%TO.N,Vcuad*%
X157900000Y-91200000D03*
D12*
%TO.P,R3,2*%
%TO.N,Net-(U2A--)*%
X157900000Y-83580000D03*
%TD*%
D10*
%TO.P,TP4,1,1*%
%TO.N,Vcomp*%
X120300000Y-104600000D03*
%TD*%
D13*
%TO.P,C3,1*%
%TO.N,Vcc*%
X150900000Y-72600000D03*
%TO.P,C3,2*%
%TO.N,0*%
X150900000Y-77600000D03*
%TD*%
D14*
%TO.P,D1,1,K*%
%TO.N,Vo*%
X158050000Y-107300000D03*
D15*
%TO.P,D1,2,A*%
%TO.N,0*%
X145350000Y-107300000D03*
%TD*%
D13*
%TO.P,R14,1*%
%TO.N,Net-(R14-Pad1)*%
X125990000Y-114150000D03*
D12*
%TO.P,R14,2*%
%TO.N,0*%
X133610000Y-114150000D03*
%TD*%
D13*
%TO.P,R1,1*%
%TO.N,Vcuad*%
X151110000Y-84500000D03*
D12*
%TO.P,R1,2*%
%TO.N,Vcc*%
X143490000Y-84500000D03*
%TD*%
D13*
%TO.P,R2,1*%
%TO.N,Vo*%
X150560000Y-81150000D03*
D12*
%TO.P,R2,2*%
%TO.N,Vcc*%
X142940000Y-81150000D03*
%TD*%
D13*
%TO.P,R13,1*%
%TO.N,Net-(U1A-+)*%
X124700000Y-96690000D03*
D12*
%TO.P,R13,2*%
%TO.N,Vcomp*%
X124700000Y-104310000D03*
%TD*%
D10*
%TO.P,TP1,1,1*%
%TO.N,Vo*%
X165300000Y-76000000D03*
%TD*%
%TO.P,TP2,1,1*%
%TO.N,Vcuad*%
X157700000Y-94500000D03*
%TD*%
D13*
%TO.P,,2*%
%TO.N,0*%
X167000000Y-101200000D03*
%TD*%
%TO.P,R8,1*%
%TO.N,Net-(J2-Pin_1)*%
X128700000Y-104310000D03*
D12*
%TO.P,R8,2*%
%TO.N,Vsin*%
X128700000Y-96690000D03*
%TD*%
D16*
%TO.P,J2,1,Pin_1*%
%TO.N,Net-(J2-Pin_1)*%
X136660000Y-104300000D03*
D17*
%TO.P,J2,2,Pin_2*%
%TO.N,Vcomp*%
X139200000Y-104300000D03*
%TO.P,J2,3,Pin_3*%
%TO.N,Net-(J2-Pin_3)*%
X141740000Y-104300000D03*
%TD*%
D13*
%TO.P,R12,1*%
%TO.N,Net-(U1A-+)*%
X129710000Y-93400000D03*
D12*
%TO.P,R12,2*%
%TO.N,0*%
X122090000Y-93400000D03*
%TD*%
D10*
%TO.P,TP5,1,1*%
%TO.N,Verr*%
X133500000Y-80000000D03*
%TD*%
D13*
%TO.P,,2*%
%TO.N,0*%
X172200000Y-101200000D03*
%TD*%
D11*
%TO.P,C2,1*%
%TO.N,Vcc*%
X157505112Y-74200000D03*
D13*
%TO.P,C2,2*%
%TO.N,0*%
X155005112Y-74200000D03*
%TD*%
%TO.P,R9,1*%
%TO.N,Net-(J2-Pin_1)*%
X133510000Y-108100000D03*
D12*
%TO.P,R9,2*%
%TO.N,Net-(R14-Pad1)*%
X125890000Y-108100000D03*
%TD*%
D13*
%TO.P,C1,1*%
%TO.N,Vtriang*%
X143800000Y-89250000D03*
%TO.P,C1,2*%
%TO.N,Net-(U1B--)*%
X143800000Y-91750000D03*
%TD*%
%TO.P,R5,1*%
%TO.N,Net-(U1B--)*%
X147090000Y-94400000D03*
D12*
%TO.P,R5,2*%
%TO.N,Vcuad*%
X154710000Y-94400000D03*
%TD*%
D13*
%TO.P,R10,1*%
%TO.N,Net-(U1A--)*%
X129810000Y-88100000D03*
D12*
%TO.P,R10,2*%
%TO.N,Vref*%
X122190000Y-88100000D03*
%TD*%
D18*
%TO.P,J3,1,Pin_1*%
%TO.N,0*%
X158280000Y-67390000D03*
D19*
%TO.P,J3,2,Pin_2*%
%TO.N,Vcc*%
X153200000Y-67390000D03*
%TO.P,J3,3,Pin_3*%
%TO.N,-Vcc*%
X148120000Y-67390000D03*
%TO.P,J3,4,Pin_4*%
%TO.N,Vsin*%
X143040000Y-67390000D03*
%TO.P,J3,5,Pin_5*%
%TO.N,Vref*%
X137960000Y-67390000D03*
%TO.P,J3,6,Pin_6*%
%TO.N,N/C*%
X132880000Y-67390000D03*
%TD*%
D20*
%TO.P,RV1,1,1*%
%TO.N,Net-(J2-Pin_3)*%
X147200000Y-112600000D03*
%TO.P,RV1,2,2*%
%TO.N,0*%
X152200000Y-112600000D03*
%TO.P,RV1,3,3*%
X157200000Y-112600000D03*
%TD*%
D13*
%TO.P,,2*%
%TO.N,0*%
X139150000Y-77700000D03*
%TD*%
%TO.P,C4,1*%
%TO.N,-Vcc*%
X146500000Y-72700000D03*
%TO.P,C4,2*%
%TO.N,0*%
X146500000Y-77700000D03*
%TD*%
D11*
%TO.P,C5,1*%
%TO.N,-Vcc*%
X135805113Y-74700000D03*
D13*
%TO.P,C5,2*%
%TO.N,0*%
X133305113Y-74700000D03*
%TD*%
D21*
%TO.N,Net-(U1B--)*%
X140590000Y-91750000D02*
X140520000Y-91680000D01*
X144440000Y-91750000D02*
X147090000Y-94400000D01*
X143800000Y-91750000D02*
X140590000Y-91750000D01*
X143800000Y-91750000D02*
X144440000Y-91750000D01*
%TO.N,Vcc*%
X153100000Y-86300000D02*
X152900000Y-86500000D01*
X157505112Y-72400000D02*
X157505112Y-74200000D01*
X150900000Y-93260252D02*
X149090000Y-91450252D01*
X161900000Y-97086573D02*
X160986573Y-98000000D01*
X159784315Y-81050000D02*
X156238226Y-81050000D01*
X153200000Y-72081370D02*
X153200000Y-67390000D01*
X153094113Y-84194113D02*
X153100000Y-84200000D01*
X154000000Y-90400000D02*
X156012994Y-90400000D01*
X141600000Y-79810000D02*
X141600000Y-75200000D01*
X152981370Y-72300000D02*
X153200000Y-72081370D01*
X149090000Y-87190000D02*
X146400000Y-84500000D01*
X157112994Y-89300000D02*
X158687006Y-89300000D01*
X153100000Y-84200000D02*
X153100000Y-86300000D01*
X150900000Y-72600000D02*
X152681370Y-72600000D01*
X136177006Y-100200000D02*
X141110000Y-100200000D01*
X153581370Y-71700000D02*
X156805112Y-71700000D01*
X156805112Y-71700000D02*
X157505112Y-72400000D01*
X121737258Y-101900000D02*
X128614112Y-101900000D01*
X147310000Y-61500000D02*
X124200000Y-61500000D01*
X160986573Y-98000000D02*
X150900000Y-98000000D01*
X152910000Y-89310000D02*
X154000000Y-90400000D01*
X160434315Y-84786370D02*
X160434315Y-81700000D01*
X132114112Y-98400000D02*
X134377006Y-98400000D01*
X156238226Y-81050000D02*
X153094113Y-84194113D01*
X156012994Y-90400000D02*
X157112994Y-89300000D01*
X150900000Y-98000000D02*
X150900000Y-93260252D01*
X152981370Y-72300000D02*
X153581370Y-71700000D01*
X141110000Y-100200000D02*
X141210000Y-100300000D01*
X134377006Y-98400000D02*
X136177006Y-100200000D01*
X158687006Y-89300000D02*
X161900000Y-92512994D01*
X152681370Y-72600000D02*
X152981370Y-72300000D01*
X142200000Y-74600000D02*
X148418630Y-74600000D01*
X152900000Y-86500000D02*
X152910000Y-86510000D01*
X141390000Y-86600000D02*
X143490000Y-84500000D01*
X114500000Y-94662742D02*
X121737258Y-101900000D01*
X148418630Y-74600000D02*
X150068630Y-72950000D01*
X149090000Y-91450252D02*
X149090000Y-87190000D01*
X153200000Y-67390000D02*
X147310000Y-61500000D01*
X114500000Y-71200000D02*
X114500000Y-94662742D01*
X128614112Y-101900000D02*
X132114112Y-98400000D01*
X161900000Y-92512994D02*
X161900000Y-97086573D01*
X162802945Y-87155000D02*
X160434315Y-84786370D01*
X140520000Y-86600000D02*
X141390000Y-86600000D01*
X146400000Y-84500000D02*
X143490000Y-84500000D01*
X141600000Y-75200000D02*
X142200000Y-74600000D01*
X143490000Y-81700000D02*
X141600000Y-79810000D01*
X143490000Y-84500000D02*
X143490000Y-81700000D01*
X160434315Y-81700000D02*
X159784315Y-81050000D01*
X152910000Y-86510000D02*
X152910000Y-89310000D01*
X124200000Y-61500000D02*
X114500000Y-71200000D01*
X163934315Y-87155000D02*
X162802945Y-87155000D01*
%TO.N,0*%
X155050000Y-73950000D02*
X155400000Y-74300000D01*
%TO.N,Vo*%
X151612742Y-81150000D02*
X150560000Y-81150000D01*
X158050000Y-107300000D02*
X158150000Y-107200000D01*
X158150000Y-107200000D02*
X170450000Y-107200000D01*
X176800000Y-100850000D02*
X176800000Y-80600000D01*
X165300000Y-76000000D02*
X164547057Y-76000000D01*
X155050000Y-77850000D02*
X154981371Y-77781371D01*
X164547057Y-76000000D02*
X162697057Y-77850000D01*
X172200000Y-76000000D02*
X165300000Y-76000000D01*
X176800000Y-80600000D02*
X172200000Y-76000000D01*
X154981371Y-77781371D02*
X151612742Y-81150000D01*
X170450000Y-107200000D02*
X176800000Y-100850000D01*
X162697057Y-77850000D02*
X155050000Y-77850000D01*
X162697057Y-77850000D02*
X163934315Y-79087258D01*
X163934315Y-79087258D02*
X163934315Y-82075000D01*
%TO.N,Vsin*%
X118900000Y-94537258D02*
X118900000Y-91850000D01*
X130400000Y-70000000D02*
X140430000Y-70000000D01*
X118900000Y-91850000D02*
X120450000Y-90300000D01*
X128700000Y-96690000D02*
X126800000Y-98590000D01*
X140430000Y-70000000D02*
X143040000Y-67390000D01*
X123777006Y-90300000D02*
X124090000Y-89987006D01*
X124090000Y-87090000D02*
X122950000Y-85950000D01*
X119300000Y-85950000D02*
X119300000Y-81100000D01*
X124090000Y-89987006D02*
X124090000Y-87090000D01*
X122950000Y-85950000D02*
X119300000Y-85950000D01*
X120450000Y-90300000D02*
X123777006Y-90300000D01*
X122952742Y-98590000D02*
X118900000Y-94537258D01*
X126800000Y-98590000D02*
X122952742Y-98590000D01*
X119300000Y-81100000D02*
X130400000Y-70000000D01*
%TO.N,Net-(J2-Pin_3)*%
X141740000Y-104300000D02*
X141740000Y-108990000D01*
X141740000Y-108990000D02*
X144170000Y-111420000D01*
X146020000Y-111420000D02*
X147200000Y-112600000D01*
X141740000Y-103097919D02*
X140992081Y-102350000D01*
X141740000Y-103097919D02*
X141740000Y-104300000D01*
X135640000Y-102350000D02*
X133590000Y-100300000D01*
X144170000Y-111420000D02*
X146020000Y-111420000D01*
X140992081Y-102350000D02*
X135640000Y-102350000D01*
%TO.N,Net-(U1A-+)*%
X129710000Y-93400000D02*
X131430000Y-91680000D01*
X131430000Y-91680000D02*
X132900000Y-91680000D01*
X128190000Y-93200000D02*
X129510000Y-93200000D01*
X129510000Y-93200000D02*
X129710000Y-93400000D01*
X124700000Y-96690000D02*
X128190000Y-93200000D01*
%TO.N,Net-(U1A--)*%
X129870000Y-88160000D02*
X129810000Y-88100000D01*
X132900000Y-89140000D02*
X129870000Y-89140000D01*
X129870000Y-89140000D02*
X129870000Y-88160000D01*
X126200000Y-82400000D02*
X129810000Y-86010000D01*
X123790000Y-82400000D02*
X126200000Y-82400000D01*
X129810000Y-88100000D02*
X129810000Y-86010000D01*
%TO.N,-Vcc*%
X122400000Y-100300000D02*
X116100000Y-94000000D01*
X168550000Y-89750000D02*
X168550000Y-98800000D01*
X171554315Y-87155000D02*
X171145000Y-87155000D01*
X168550000Y-98800000D02*
X169600000Y-99850000D01*
X171145000Y-87155000D02*
X168550000Y-89750000D01*
X169600000Y-99850000D02*
X169600000Y-102800000D01*
X169600000Y-102800000D02*
X168500000Y-103900000D01*
X142200000Y-98400000D02*
X137080000Y-98400000D01*
X116100000Y-72200000D02*
X125200000Y-63100000D01*
X146500000Y-72700000D02*
X136800000Y-72700000D01*
X168500000Y-103900000D02*
X147700000Y-103900000D01*
X143830000Y-63100000D02*
X148120000Y-67390000D01*
X137080000Y-98400000D02*
X132900000Y-94220000D01*
X127951370Y-100300000D02*
X122400000Y-100300000D01*
X148120000Y-67390000D02*
X148120000Y-71080000D01*
X136800000Y-72700000D02*
X135805113Y-73694887D01*
X125200000Y-63100000D02*
X143830000Y-63100000D01*
X147700000Y-103900000D02*
X142200000Y-98400000D01*
X132900000Y-94220000D02*
X132900000Y-95351370D01*
X135805113Y-73694887D02*
X135805113Y-74700000D01*
X132900000Y-95351370D02*
X127951370Y-100300000D01*
X116100000Y-94000000D02*
X116100000Y-72200000D01*
X148120000Y-71080000D02*
X146500000Y-72700000D01*
%TO.N,Net-(J2-Pin_1)*%
X133600000Y-104310000D02*
X128700000Y-104310000D01*
X133510000Y-104400000D02*
X133600000Y-104310000D01*
X133600000Y-104310000D02*
X136650000Y-104310000D01*
X133510000Y-108100000D02*
X133510000Y-104400000D01*
X136650000Y-104310000D02*
X136660000Y-104300000D01*
%TO.N,Net-(U2A--)*%
X157800000Y-87700001D02*
X160200001Y-87700001D01*
X157900000Y-87600001D02*
X157800000Y-87700001D01*
X157900000Y-83580000D02*
X157900000Y-87600001D01*
X160200001Y-87700001D02*
X162195000Y-89695000D01*
X162195000Y-89695000D02*
X163934315Y-89695000D01*
X154810000Y-88500000D02*
X155609999Y-87700001D01*
X155609999Y-87700001D02*
X157800000Y-87700001D01*
%TO.N,Net-(R14-Pad1)*%
X125990000Y-108200000D02*
X125890000Y-108100000D01*
X125990000Y-114150000D02*
X125990000Y-108200000D01*
%TO.N,Vref*%
X117700000Y-87300000D02*
X117700000Y-72862742D01*
X122190000Y-88100000D02*
X118500000Y-88100000D01*
X118500000Y-88100000D02*
X117700000Y-87300000D01*
X125862742Y-64700000D02*
X135270000Y-64700000D01*
X117700000Y-72862742D02*
X125862742Y-64700000D01*
X135270000Y-64700000D02*
X137960000Y-67390000D01*
%TO.N,Net-(U2D--)*%
X171701321Y-82075000D02*
X171554315Y-82075000D01*
X175200000Y-93816321D02*
X175200000Y-85573679D01*
X171554315Y-97315000D02*
X171701321Y-97315000D01*
X175200000Y-85573679D02*
X171701321Y-82075000D01*
X171701321Y-97315000D02*
X175200000Y-93816321D01*
%TO.N,Net-(U2C--)*%
X171554315Y-92235000D02*
X172765000Y-92235000D01*
X172765000Y-92235000D02*
X173600000Y-91400000D01*
X173600000Y-91400000D02*
X173600000Y-86513679D01*
X171701321Y-84615000D02*
X171554315Y-84615000D01*
X173600000Y-86513679D02*
X171701321Y-84615000D01*
%TO.N,Vtriang*%
X143800000Y-89250000D02*
X146440000Y-89250000D01*
X148990000Y-98390000D02*
X148990000Y-94000000D01*
X138600000Y-82100000D02*
X139100000Y-81600000D01*
X148990000Y-93612994D02*
X148990000Y-94000000D01*
X138600000Y-88351370D02*
X138600000Y-82100000D01*
X147190000Y-88500000D02*
X147190000Y-91812994D01*
X140630000Y-89250000D02*
X140520000Y-89140000D01*
X146440000Y-89250000D02*
X147190000Y-88500000D01*
X161649315Y-99600000D02*
X150200000Y-99600000D01*
X143800000Y-89250000D02*
X140630000Y-89250000D01*
X139388630Y-89140000D02*
X138600000Y-88351370D01*
X140520000Y-89140000D02*
X139388630Y-89140000D01*
X163934315Y-97315000D02*
X161649315Y-99600000D01*
X147190000Y-91812994D02*
X148990000Y-93612994D01*
X150200000Y-99600000D02*
X148990000Y-98390000D01*
%TO.N,Vcuad*%
X154302490Y-94400000D02*
X154710000Y-94400000D01*
X150690000Y-84920000D02*
X150690000Y-90787510D01*
X151110000Y-84500000D02*
X151110000Y-83915484D01*
X157900000Y-91200000D02*
X157900000Y-94300000D01*
X151110000Y-83915484D02*
X155575484Y-79450000D01*
X151110000Y-84500000D02*
X150690000Y-84920000D01*
X154810000Y-94500000D02*
X154710000Y-94400000D01*
X150690000Y-90787510D02*
X154302490Y-94400000D01*
X162034315Y-79450000D02*
X162034315Y-83975000D01*
X162034315Y-83975000D02*
X162674315Y-84615000D01*
X162674315Y-84615000D02*
X163934315Y-84615000D01*
X157700000Y-94500000D02*
X154810000Y-94500000D01*
X157900000Y-94300000D02*
X157700000Y-94500000D01*
X155575484Y-79450000D02*
X162034315Y-79450000D01*
%TO.N,Verr*%
X142862742Y-96800000D02*
X147262742Y-101200000D01*
X133500000Y-80000000D02*
X133500000Y-80310000D01*
X134800000Y-88352994D02*
X134800000Y-93857258D01*
X137742742Y-96800000D02*
X142862742Y-96800000D01*
X132900000Y-86600000D02*
X133047006Y-86600000D01*
X134800000Y-93857258D02*
X137742742Y-96800000D01*
X165834315Y-95543630D02*
X165065685Y-94775000D01*
X132900000Y-86600000D02*
X132900000Y-83890000D01*
X133047006Y-86600000D02*
X134800000Y-88352994D01*
X165065685Y-94775000D02*
X163934315Y-94775000D01*
X165834315Y-98102006D02*
X165834315Y-95543630D01*
X162736321Y-101200000D02*
X165834315Y-98102006D01*
X132900000Y-83890000D02*
X131410000Y-82400000D01*
X133500000Y-80310000D02*
X131410000Y-82400000D01*
X147262742Y-101200000D02*
X162736321Y-101200000D01*
%TO.N,Vcomp*%
X125831370Y-104310000D02*
X131521370Y-110000000D01*
X124700000Y-104310000D02*
X120590000Y-104310000D01*
X131521370Y-110000000D02*
X134400000Y-110000000D01*
X134400000Y-110000000D02*
X139200000Y-105200000D01*
X139200000Y-105200000D02*
X139200000Y-104300000D01*
X124700000Y-104310000D02*
X125831370Y-104310000D01*
X120590000Y-104310000D02*
X120300000Y-104600000D01*
%TD*%
%TA.AperFunction,Conductor*%
%TO.N,0*%
G36*
X177442539Y-59620185D02*
G01*
X177488294Y-59672989D01*
X177499500Y-59724500D01*
X177499500Y-79443796D01*
X177479815Y-79510835D01*
X177427011Y-79556590D01*
X177357853Y-79566534D01*
X177294297Y-79537509D01*
X177287819Y-79531477D01*
X172916930Y-75160588D01*
X172916928Y-75160586D01*
X172776788Y-75058768D01*
X172622445Y-74980127D01*
X172457701Y-74926598D01*
X172457699Y-74926597D01*
X172457698Y-74926597D01*
X172326271Y-74905781D01*
X172286611Y-74899500D01*
X172286610Y-74899500D01*
X166849781Y-74899500D01*
X166782742Y-74879815D01*
X166736987Y-74827011D01*
X166735220Y-74822952D01*
X166724537Y-74797161D01*
X166724536Y-74797160D01*
X166724536Y-74797159D01*
X166628282Y-74671718D01*
X166502841Y-74575464D01*
X166496267Y-74572741D01*
X166356762Y-74514956D01*
X166356760Y-74514955D01*
X166239370Y-74499501D01*
X166239367Y-74499500D01*
X166239361Y-74499500D01*
X166239354Y-74499500D01*
X164360636Y-74499500D01*
X164243246Y-74514953D01*
X164243237Y-74514956D01*
X164097160Y-74575463D01*
X163971718Y-74671718D01*
X163875463Y-74797160D01*
X163814956Y-74943237D01*
X163814955Y-74943239D01*
X163799501Y-75060629D01*
X163799500Y-75060645D01*
X163799500Y-75139852D01*
X163779815Y-75206891D01*
X163763181Y-75227533D01*
X162277534Y-76713181D01*
X162216211Y-76746666D01*
X162189853Y-76749500D01*
X155386531Y-76749500D01*
X155348213Y-76743431D01*
X155239072Y-76707969D01*
X155067982Y-76680871D01*
X154894760Y-76680871D01*
X154855099Y-76687152D01*
X154723673Y-76707968D01*
X154558923Y-76761499D01*
X154404582Y-76840139D01*
X154327536Y-76896117D01*
X154264443Y-76941957D01*
X154264441Y-76941959D01*
X154264440Y-76941959D01*
X151331874Y-79874524D01*
X151270551Y-79908009D01*
X151200859Y-79903025D01*
X151185176Y-79895898D01*
X151124509Y-79863067D01*
X151124506Y-79863065D01*
X151124503Y-79863064D01*
X151124500Y-79863063D01*
X151124498Y-79863062D01*
X150904984Y-79787702D01*
X150733282Y-79759050D01*
X150676049Y-79749500D01*
X150443951Y-79749500D01*
X150398164Y-79757140D01*
X150215015Y-79787702D01*
X149995504Y-79863061D01*
X149995495Y-79863064D01*
X149791371Y-79973531D01*
X149791365Y-79973535D01*
X149608222Y-80116081D01*
X149608219Y-80116084D01*
X149451016Y-80286852D01*
X149324075Y-80481151D01*
X149230842Y-80693699D01*
X149173866Y-80918691D01*
X149173864Y-80918702D01*
X149154700Y-81149993D01*
X149154700Y-81150006D01*
X149173864Y-81381297D01*
X149173866Y-81381308D01*
X149230842Y-81606300D01*
X149324075Y-81818848D01*
X149451016Y-82013147D01*
X149451019Y-82013151D01*
X149451021Y-82013153D01*
X149608216Y-82183913D01*
X149608219Y-82183915D01*
X149608222Y-82183918D01*
X149791365Y-82326464D01*
X149791371Y-82326468D01*
X149791374Y-82326470D01*
X149995497Y-82436936D01*
X150058506Y-82458567D01*
X150215015Y-82512297D01*
X150215017Y-82512297D01*
X150215019Y-82512298D01*
X150443951Y-82550500D01*
X150443952Y-82550500D01*
X150619279Y-82550500D01*
X150686318Y-82570185D01*
X150732073Y-82622989D01*
X150742017Y-82692147D01*
X150712992Y-82755703D01*
X150706960Y-82762181D01*
X150393072Y-83076070D01*
X150270588Y-83198553D01*
X150270588Y-83198554D01*
X150270586Y-83198556D01*
X150232142Y-83251470D01*
X150168768Y-83338695D01*
X150090128Y-83493035D01*
X150090127Y-83493039D01*
X150074882Y-83539953D01*
X150048184Y-83585612D01*
X150001019Y-83636849D01*
X149874075Y-83831151D01*
X149780842Y-84043699D01*
X149723866Y-84268691D01*
X149723864Y-84268703D01*
X149713670Y-84391732D01*
X149700580Y-84437785D01*
X149670128Y-84497551D01*
X149670126Y-84497557D01*
X149616597Y-84662302D01*
X149589500Y-84833389D01*
X149589500Y-85833796D01*
X149569815Y-85900835D01*
X149517011Y-85946590D01*
X149447853Y-85956534D01*
X149384297Y-85927509D01*
X149377819Y-85921477D01*
X147116930Y-83660588D01*
X147116928Y-83660586D01*
X146976788Y-83558768D01*
X146822445Y-83480127D01*
X146657701Y-83426598D01*
X146657699Y-83426597D01*
X146657698Y-83426597D01*
X146526271Y-83405781D01*
X146486611Y-83399500D01*
X146486610Y-83399500D01*
X144714500Y-83399500D01*
X144647461Y-83379815D01*
X144601706Y-83327011D01*
X144590500Y-83275500D01*
X144590500Y-81613389D01*
X144563402Y-81442302D01*
X144563402Y-81442299D01*
X144509873Y-81277555D01*
X144431232Y-81123212D01*
X144352124Y-81014330D01*
X144328867Y-80951685D01*
X144326134Y-80918695D01*
X144269157Y-80693700D01*
X144266445Y-80687518D01*
X144175924Y-80481151D01*
X144048983Y-80286852D01*
X144048980Y-80286849D01*
X144048979Y-80286847D01*
X143891784Y-80116087D01*
X143891779Y-80116083D01*
X143891777Y-80116081D01*
X143708634Y-79973535D01*
X143708628Y-79973531D01*
X143504504Y-79863064D01*
X143504495Y-79863061D01*
X143284983Y-79787702D01*
X143142993Y-79764008D01*
X143080108Y-79733557D01*
X143075722Y-79729380D01*
X142736819Y-79390477D01*
X142703334Y-79329154D01*
X142700500Y-79302796D01*
X142700500Y-78503880D01*
X142720185Y-78436841D01*
X142772989Y-78391086D01*
X142842147Y-78381142D01*
X142905703Y-78410167D01*
X142919379Y-78425333D01*
X142920974Y-78425472D01*
X143600000Y-77746446D01*
X143600000Y-77752661D01*
X143627259Y-77854394D01*
X143679920Y-77945606D01*
X143754394Y-78020080D01*
X143845606Y-78072741D01*
X143947339Y-78100000D01*
X143953553Y-78100000D01*
X143274526Y-78779025D01*
X143347513Y-78830132D01*
X143347521Y-78830136D01*
X143553668Y-78926264D01*
X143553682Y-78926269D01*
X143773389Y-78985139D01*
X143773400Y-78985141D01*
X143999998Y-79004966D01*
X144000002Y-79004966D01*
X144226599Y-78985141D01*
X144226610Y-78985139D01*
X144446317Y-78926269D01*
X144446331Y-78926264D01*
X144652478Y-78830136D01*
X144725471Y-78779024D01*
X144046447Y-78100000D01*
X144052661Y-78100000D01*
X144154394Y-78072741D01*
X144245606Y-78020080D01*
X144320080Y-77945606D01*
X144372741Y-77854394D01*
X144400000Y-77752661D01*
X144400000Y-77746447D01*
X145079024Y-78425471D01*
X145130135Y-78352480D01*
X145137617Y-78336435D01*
X145183789Y-78283995D01*
X145250982Y-78264842D01*
X145317863Y-78285057D01*
X145362383Y-78336435D01*
X145369865Y-78352481D01*
X145420974Y-78425472D01*
X146100000Y-77746446D01*
X146100000Y-77752661D01*
X146127259Y-77854394D01*
X146179920Y-77945606D01*
X146254394Y-78020080D01*
X146345606Y-78072741D01*
X146447339Y-78100000D01*
X146453553Y-78100000D01*
X145774526Y-78779025D01*
X145847513Y-78830132D01*
X145847521Y-78830136D01*
X146053668Y-78926264D01*
X146053682Y-78926269D01*
X146273389Y-78985139D01*
X146273400Y-78985141D01*
X146499998Y-79004966D01*
X146500002Y-79004966D01*
X146726599Y-78985141D01*
X146726610Y-78985139D01*
X146946317Y-78926269D01*
X146946331Y-78926264D01*
X147152478Y-78830136D01*
X147225471Y-78779024D01*
X146546447Y-78100000D01*
X146552661Y-78100000D01*
X146654394Y-78072741D01*
X146745606Y-78020080D01*
X146820080Y-77945606D01*
X146872741Y-77854394D01*
X146900000Y-77752661D01*
X146900000Y-77746447D01*
X147579024Y-78425471D01*
X147630136Y-78352478D01*
X147726264Y-78146331D01*
X147726269Y-78146317D01*
X147785139Y-77926610D01*
X147785141Y-77926599D01*
X147804966Y-77700002D01*
X147804966Y-77699997D01*
X147796217Y-77599997D01*
X149595034Y-77599997D01*
X149595034Y-77600002D01*
X149614858Y-77826599D01*
X149614860Y-77826610D01*
X149673730Y-78046317D01*
X149673735Y-78046331D01*
X149769863Y-78252478D01*
X149820974Y-78325472D01*
X150500000Y-77646446D01*
X150500000Y-77652661D01*
X150527259Y-77754394D01*
X150579920Y-77845606D01*
X150654394Y-77920080D01*
X150745606Y-77972741D01*
X150847339Y-78000000D01*
X150853553Y-78000000D01*
X150174526Y-78679025D01*
X150247513Y-78730132D01*
X150247521Y-78730136D01*
X150453668Y-78826264D01*
X150453682Y-78826269D01*
X150673389Y-78885139D01*
X150673400Y-78885141D01*
X150899998Y-78904966D01*
X150900002Y-78904966D01*
X151126599Y-78885141D01*
X151126610Y-78885139D01*
X151346317Y-78826269D01*
X151346331Y-78826264D01*
X151552478Y-78730136D01*
X151625471Y-78679024D01*
X150946447Y-78000000D01*
X150952661Y-78000000D01*
X151054394Y-77972741D01*
X151145606Y-77920080D01*
X151220080Y-77845606D01*
X151272741Y-77754394D01*
X151300000Y-77652661D01*
X151300000Y-77646447D01*
X151979024Y-78325471D01*
X152030136Y-78252478D01*
X152126264Y-78046331D01*
X152126269Y-78046317D01*
X152185139Y-77826610D01*
X152185141Y-77826599D01*
X152204966Y-77600002D01*
X152204966Y-77599997D01*
X152185141Y-77373400D01*
X152185139Y-77373389D01*
X152126269Y-77153682D01*
X152126264Y-77153668D01*
X152030136Y-76947521D01*
X152030132Y-76947513D01*
X151979025Y-76874526D01*
X151300000Y-77553551D01*
X151300000Y-77547339D01*
X151272741Y-77445606D01*
X151220080Y-77354394D01*
X151145606Y-77279920D01*
X151054394Y-77227259D01*
X150952661Y-77200000D01*
X150946448Y-77200000D01*
X151625472Y-76520974D01*
X151552478Y-76469863D01*
X151346331Y-76373735D01*
X151346317Y-76373730D01*
X151126610Y-76314860D01*
X151126599Y-76314858D01*
X150900002Y-76295034D01*
X150899998Y-76295034D01*
X150673400Y-76314858D01*
X150673389Y-76314860D01*
X150453682Y-76373730D01*
X150453673Y-76373734D01*
X150247516Y-76469866D01*
X150247512Y-76469868D01*
X150174526Y-76520973D01*
X150174526Y-76520974D01*
X150853553Y-77200000D01*
X150847339Y-77200000D01*
X150745606Y-77227259D01*
X150654394Y-77279920D01*
X150579920Y-77354394D01*
X150527259Y-77445606D01*
X150500000Y-77547339D01*
X150500000Y-77553552D01*
X149820974Y-76874526D01*
X149820973Y-76874526D01*
X149769868Y-76947512D01*
X149769866Y-76947516D01*
X149673734Y-77153673D01*
X149673730Y-77153682D01*
X149614860Y-77373389D01*
X149614858Y-77373400D01*
X149595034Y-77599997D01*
X147796217Y-77599997D01*
X147785141Y-77473400D01*
X147785139Y-77473389D01*
X147726269Y-77253682D01*
X147726264Y-77253668D01*
X147630136Y-77047521D01*
X147630132Y-77047513D01*
X147579025Y-76974526D01*
X146900000Y-77653551D01*
X146900000Y-77647339D01*
X146872741Y-77545606D01*
X146820080Y-77454394D01*
X146745606Y-77379920D01*
X146654394Y-77327259D01*
X146552661Y-77300000D01*
X146546448Y-77300000D01*
X147225472Y-76620974D01*
X147152478Y-76569863D01*
X146946331Y-76473735D01*
X146946317Y-76473730D01*
X146726610Y-76414860D01*
X146726599Y-76414858D01*
X146500002Y-76395034D01*
X146499998Y-76395034D01*
X146273400Y-76414858D01*
X146273389Y-76414860D01*
X146053682Y-76473730D01*
X146053673Y-76473734D01*
X145847516Y-76569866D01*
X145847512Y-76569868D01*
X145774526Y-76620973D01*
X145774526Y-76620974D01*
X146453553Y-77300000D01*
X146447339Y-77300000D01*
X146345606Y-77327259D01*
X146254394Y-77379920D01*
X146179920Y-77454394D01*
X146127259Y-77545606D01*
X146100000Y-77647339D01*
X146100000Y-77653552D01*
X145420974Y-76974526D01*
X145420973Y-76974526D01*
X145369868Y-77047512D01*
X145369865Y-77047518D01*
X145362381Y-77063568D01*
X145316208Y-77116006D01*
X145249014Y-77135157D01*
X145182133Y-77114940D01*
X145137618Y-77063566D01*
X145130134Y-77047517D01*
X145130132Y-77047513D01*
X145079025Y-76974526D01*
X144400000Y-77653551D01*
X144400000Y-77647339D01*
X144372741Y-77545606D01*
X144320080Y-77454394D01*
X144245606Y-77379920D01*
X144154394Y-77327259D01*
X144052661Y-77300000D01*
X144046448Y-77300000D01*
X144725472Y-76620974D01*
X144652478Y-76569863D01*
X144446331Y-76473735D01*
X144446317Y-76473730D01*
X144226610Y-76414860D01*
X144226599Y-76414858D01*
X144000002Y-76395034D01*
X143999998Y-76395034D01*
X143773400Y-76414858D01*
X143773389Y-76414860D01*
X143553682Y-76473730D01*
X143553673Y-76473734D01*
X143347516Y-76569866D01*
X143347512Y-76569868D01*
X143274526Y-76620973D01*
X143274526Y-76620974D01*
X143953553Y-77300000D01*
X143947339Y-77300000D01*
X143845606Y-77327259D01*
X143754394Y-77379920D01*
X143679920Y-77454394D01*
X143627259Y-77545606D01*
X143600000Y-77647339D01*
X143600000Y-77653552D01*
X142920974Y-76974526D01*
X142916466Y-76974920D01*
X142871497Y-77010866D01*
X142801999Y-77018058D01*
X142739644Y-76986535D01*
X142704231Y-76926305D01*
X142700500Y-76896117D01*
X142700500Y-75824500D01*
X142720185Y-75757461D01*
X142772989Y-75711706D01*
X142824500Y-75700500D01*
X148505240Y-75700500D01*
X148505241Y-75700500D01*
X148676331Y-75673402D01*
X148841075Y-75619873D01*
X148995418Y-75541232D01*
X149135558Y-75439414D01*
X150559296Y-74015674D01*
X150620617Y-73982191D01*
X150667381Y-73981048D01*
X150783951Y-74000500D01*
X150783952Y-74000500D01*
X151016048Y-74000500D01*
X151016049Y-74000500D01*
X151244981Y-73962298D01*
X151464503Y-73886936D01*
X151668626Y-73776470D01*
X151668634Y-73776464D01*
X151732640Y-73726647D01*
X151797634Y-73701004D01*
X151808802Y-73700500D01*
X152767980Y-73700500D01*
X152767981Y-73700500D01*
X152939071Y-73673402D01*
X153103815Y-73619873D01*
X153258158Y-73541232D01*
X153398298Y-73439414D01*
X153820784Y-73016928D01*
X154000893Y-72836819D01*
X154062216Y-72803334D01*
X154088574Y-72800500D01*
X154370959Y-72800500D01*
X154437998Y-72820185D01*
X154483753Y-72872989D01*
X154493697Y-72942147D01*
X154464672Y-73005703D01*
X154423364Y-73036882D01*
X154352628Y-73069866D01*
X154352624Y-73069868D01*
X154279638Y-73120973D01*
X154279638Y-73120974D01*
X154958665Y-73800000D01*
X154952451Y-73800000D01*
X154850718Y-73827259D01*
X154759506Y-73879920D01*
X154685032Y-73954394D01*
X154632371Y-74045606D01*
X154605112Y-74147339D01*
X154605112Y-74153552D01*
X153926086Y-73474526D01*
X153926085Y-73474526D01*
X153874980Y-73547512D01*
X153874978Y-73547516D01*
X153778846Y-73753673D01*
X153778842Y-73753682D01*
X153719972Y-73973389D01*
X153719970Y-73973400D01*
X153700146Y-74199997D01*
X153700146Y-74200002D01*
X153719970Y-74426599D01*
X153719972Y-74426610D01*
X153778842Y-74646317D01*
X153778847Y-74646331D01*
X153874975Y-74852478D01*
X153926086Y-74925472D01*
X154605112Y-74246446D01*
X154605112Y-74252661D01*
X154632371Y-74354394D01*
X154685032Y-74445606D01*
X154759506Y-74520080D01*
X154850718Y-74572741D01*
X154952451Y-74600000D01*
X154958665Y-74600000D01*
X154279638Y-75279025D01*
X154352625Y-75330132D01*
X154352633Y-75330136D01*
X154558780Y-75426264D01*
X154558794Y-75426269D01*
X154778501Y-75485139D01*
X154778512Y-75485141D01*
X155005110Y-75504966D01*
X155005114Y-75504966D01*
X155231711Y-75485141D01*
X155231722Y-75485139D01*
X155451429Y-75426269D01*
X155451443Y-75426264D01*
X155657590Y-75330136D01*
X155730583Y-75279024D01*
X155051559Y-74600000D01*
X155057773Y-74600000D01*
X155159506Y-74572741D01*
X155250718Y-74520080D01*
X155325192Y-74445606D01*
X155377853Y-74354394D01*
X155405112Y-74252661D01*
X155405112Y-74246448D01*
X156068293Y-74909629D01*
X156101778Y-74970952D01*
X156104612Y-74997307D01*
X156104612Y-75039362D01*
X156120065Y-75156753D01*
X156120068Y-75156762D01*
X156134338Y-75191214D01*
X156180576Y-75302841D01*
X156276830Y-75428282D01*
X156402271Y-75524536D01*
X156548350Y-75585044D01*
X156665751Y-75600500D01*
X158344472Y-75600499D01*
X158344475Y-75600499D01*
X158461865Y-75585046D01*
X158461869Y-75585044D01*
X158461874Y-75585044D01*
X158607953Y-75524536D01*
X158733394Y-75428282D01*
X158829648Y-75302841D01*
X158890156Y-75156762D01*
X158905612Y-75039361D01*
X158905611Y-73360640D01*
X158905611Y-73360639D01*
X158905611Y-73360636D01*
X158890158Y-73243246D01*
X158890156Y-73243239D01*
X158890156Y-73243238D01*
X158829648Y-73097159D01*
X158733394Y-72971718D01*
X158733392Y-72971717D01*
X158733392Y-72971716D01*
X158654126Y-72910894D01*
X158612923Y-72854466D01*
X158605612Y-72812518D01*
X158605612Y-72313389D01*
X158578514Y-72142302D01*
X158578514Y-72142299D01*
X158524985Y-71977555D01*
X158446344Y-71823212D01*
X158344526Y-71683072D01*
X158222040Y-71560586D01*
X157522040Y-70860586D01*
X157381900Y-70758768D01*
X157227557Y-70680127D01*
X157062813Y-70626598D01*
X157062811Y-70626597D01*
X157062810Y-70626597D01*
X156931383Y-70605781D01*
X156891723Y-70599500D01*
X156891722Y-70599500D01*
X154424500Y-70599500D01*
X154357461Y-70579815D01*
X154311706Y-70527011D01*
X154300500Y-70475500D01*
X154300500Y-69248886D01*
X154320185Y-69181847D01*
X154360070Y-69142939D01*
X154414147Y-69110055D01*
X154637053Y-68928708D01*
X154833189Y-68718698D01*
X154998901Y-68483936D01*
X155131104Y-68228797D01*
X155227334Y-67958032D01*
X155285798Y-67676686D01*
X155305408Y-67390000D01*
X155285798Y-67103314D01*
X155227334Y-66821968D01*
X155131105Y-66551206D01*
X155131106Y-66551206D01*
X154998901Y-66296064D01*
X154833187Y-66061299D01*
X154754554Y-65977105D01*
X154637053Y-65851292D01*
X154625822Y-65842155D01*
X156280000Y-65842155D01*
X156280000Y-67140000D01*
X157560936Y-67140000D01*
X157549207Y-67168316D01*
X157520000Y-67315147D01*
X157520000Y-67464853D01*
X157549207Y-67611684D01*
X157560936Y-67640000D01*
X156280000Y-67640000D01*
X156280000Y-68937844D01*
X156286401Y-68997372D01*
X156286403Y-68997379D01*
X156336645Y-69132086D01*
X156336649Y-69132093D01*
X156422809Y-69247187D01*
X156422812Y-69247190D01*
X156537906Y-69333350D01*
X156537913Y-69333354D01*
X156672620Y-69383596D01*
X156672627Y-69383598D01*
X156732155Y-69389999D01*
X156732172Y-69390000D01*
X158030000Y-69390000D01*
X158030000Y-68109064D01*
X158058316Y-68120793D01*
X158205147Y-68150000D01*
X158354853Y-68150000D01*
X158501684Y-68120793D01*
X158530000Y-68109064D01*
X158530000Y-69390000D01*
X159827828Y-69390000D01*
X159827844Y-69389999D01*
X159887372Y-69383598D01*
X159887379Y-69383596D01*
X160022086Y-69333354D01*
X160022093Y-69333350D01*
X160137187Y-69247190D01*
X160137190Y-69247187D01*
X160223350Y-69132093D01*
X160223354Y-69132086D01*
X160273596Y-68997379D01*
X160273598Y-68997372D01*
X160279999Y-68937844D01*
X160280000Y-68937827D01*
X160280000Y-67640000D01*
X158999064Y-67640000D01*
X159010793Y-67611684D01*
X159040000Y-67464853D01*
X159040000Y-67315147D01*
X159010793Y-67168316D01*
X158999064Y-67140000D01*
X160280000Y-67140000D01*
X160280000Y-65842172D01*
X160279999Y-65842155D01*
X160273598Y-65782627D01*
X160273596Y-65782620D01*
X160223354Y-65647913D01*
X160223350Y-65647906D01*
X160137190Y-65532812D01*
X160137187Y-65532809D01*
X160022093Y-65446649D01*
X160022086Y-65446645D01*
X159887379Y-65396403D01*
X159887372Y-65396401D01*
X159827844Y-65390000D01*
X158530000Y-65390000D01*
X158530000Y-66670935D01*
X158501684Y-66659207D01*
X158354853Y-66630000D01*
X158205147Y-66630000D01*
X158058316Y-66659207D01*
X158030000Y-66670935D01*
X158030000Y-65390000D01*
X156732155Y-65390000D01*
X156672627Y-65396401D01*
X156672620Y-65396403D01*
X156537913Y-65446645D01*
X156537906Y-65446649D01*
X156422812Y-65532809D01*
X156422809Y-65532812D01*
X156336649Y-65647906D01*
X156336645Y-65647913D01*
X156286403Y-65782620D01*
X156286401Y-65782627D01*
X156280000Y-65842155D01*
X154625822Y-65842155D01*
X154414147Y-65669945D01*
X154414146Y-65669944D01*
X154168617Y-65520634D01*
X153905063Y-65406158D01*
X153905061Y-65406157D01*
X153905058Y-65406156D01*
X153775578Y-65369877D01*
X153628364Y-65328630D01*
X153628359Y-65328629D01*
X153628358Y-65328629D01*
X153486018Y-65309064D01*
X153343679Y-65289500D01*
X153343678Y-65289500D01*
X153056322Y-65289500D01*
X153056321Y-65289500D01*
X152957346Y-65303104D01*
X152771642Y-65328629D01*
X152771640Y-65328629D01*
X152767446Y-65329206D01*
X152767236Y-65327679D01*
X152704052Y-65322552D01*
X152660813Y-65294471D01*
X148026930Y-60660588D01*
X148026928Y-60660586D01*
X147886788Y-60558768D01*
X147732445Y-60480127D01*
X147567701Y-60426598D01*
X147567699Y-60426597D01*
X147567698Y-60426597D01*
X147419997Y-60403204D01*
X147396611Y-60399500D01*
X124113389Y-60399500D01*
X124113385Y-60399500D01*
X124089993Y-60403204D01*
X123942304Y-60426596D01*
X123942302Y-60426596D01*
X123942299Y-60426597D01*
X123859927Y-60453362D01*
X123777550Y-60480128D01*
X123623210Y-60558769D01*
X123623201Y-60558775D01*
X123521395Y-60632740D01*
X123521396Y-60632741D01*
X123483073Y-60660584D01*
X113660588Y-70483069D01*
X113660588Y-70483070D01*
X113660586Y-70483072D01*
X113628662Y-70527011D01*
X113558768Y-70623211D01*
X113480128Y-70777552D01*
X113426597Y-70942302D01*
X113399500Y-71113389D01*
X113399500Y-94749352D01*
X113421979Y-94891284D01*
X113426598Y-94920443D01*
X113480127Y-95085187D01*
X113558768Y-95239530D01*
X113660586Y-95379670D01*
X121020330Y-102739414D01*
X121160470Y-102841232D01*
X121207147Y-102865015D01*
X121257943Y-102912990D01*
X121274738Y-102980811D01*
X121252201Y-103046945D01*
X121197486Y-103090397D01*
X121150852Y-103099500D01*
X119360636Y-103099500D01*
X119243246Y-103114953D01*
X119243237Y-103114956D01*
X119097160Y-103175463D01*
X118971718Y-103271718D01*
X118875463Y-103397160D01*
X118814956Y-103543237D01*
X118814955Y-103543239D01*
X118799501Y-103660629D01*
X118799500Y-103660645D01*
X118799500Y-105539363D01*
X118814953Y-105656753D01*
X118814956Y-105656762D01*
X118861936Y-105770183D01*
X118875464Y-105802841D01*
X118971718Y-105928282D01*
X119097159Y-106024536D01*
X119243238Y-106085044D01*
X119360639Y-106100500D01*
X121239360Y-106100499D01*
X121239363Y-106100499D01*
X121356753Y-106085046D01*
X121356757Y-106085044D01*
X121356762Y-106085044D01*
X121502841Y-106024536D01*
X121628282Y-105928282D01*
X121724536Y-105802841D01*
X121785044Y-105656762D01*
X121800500Y-105539361D01*
X121800500Y-105534500D01*
X121820185Y-105467461D01*
X121872989Y-105421706D01*
X121924500Y-105410500D01*
X123791198Y-105410500D01*
X123858237Y-105430185D01*
X123867360Y-105436647D01*
X123931365Y-105486464D01*
X123931371Y-105486468D01*
X123931374Y-105486470D01*
X124135497Y-105596936D01*
X124209808Y-105622447D01*
X124355015Y-105672297D01*
X124355017Y-105672297D01*
X124355019Y-105672298D01*
X124583951Y-105710500D01*
X124583952Y-105710500D01*
X124816048Y-105710500D01*
X124816049Y-105710500D01*
X125044981Y-105672298D01*
X125046671Y-105671718D01*
X125053439Y-105669394D01*
X125264503Y-105596936D01*
X125376195Y-105536490D01*
X125444522Y-105521896D01*
X125509895Y-105546559D01*
X125522893Y-105557865D01*
X126568258Y-106603230D01*
X126601743Y-106664553D01*
X126596759Y-106734245D01*
X126554887Y-106790178D01*
X126489423Y-106814595D01*
X126440314Y-106808192D01*
X126234984Y-106737702D01*
X126063282Y-106709050D01*
X126006049Y-106699500D01*
X125773951Y-106699500D01*
X125728164Y-106707140D01*
X125545015Y-106737702D01*
X125325504Y-106813061D01*
X125325495Y-106813064D01*
X125121371Y-106923531D01*
X125121365Y-106923535D01*
X124938222Y-107066081D01*
X124938219Y-107066084D01*
X124938216Y-107066086D01*
X124938216Y-107066087D01*
X124879267Y-107130122D01*
X124781016Y-107236852D01*
X124654075Y-107431151D01*
X124560842Y-107643699D01*
X124503866Y-107868691D01*
X124503864Y-107868702D01*
X124484700Y-108099993D01*
X124484700Y-108100006D01*
X124503864Y-108331297D01*
X124503866Y-108331308D01*
X124560842Y-108556300D01*
X124654075Y-108768848D01*
X124781016Y-108963147D01*
X124781019Y-108963151D01*
X124781021Y-108963153D01*
X124856731Y-109045396D01*
X124887652Y-109108049D01*
X124889500Y-109129377D01*
X124889500Y-113236951D01*
X124869815Y-113303990D01*
X124869309Y-113304772D01*
X124754075Y-113481151D01*
X124660842Y-113693699D01*
X124603866Y-113918691D01*
X124603864Y-113918702D01*
X124584700Y-114149993D01*
X124584700Y-114150006D01*
X124603864Y-114381297D01*
X124603866Y-114381308D01*
X124660842Y-114606300D01*
X124754075Y-114818848D01*
X124881016Y-115013147D01*
X124881019Y-115013151D01*
X124881021Y-115013153D01*
X125038216Y-115183913D01*
X125038219Y-115183915D01*
X125038222Y-115183918D01*
X125221365Y-115326464D01*
X125221371Y-115326468D01*
X125221374Y-115326470D01*
X125425497Y-115436936D01*
X125539487Y-115476068D01*
X125645015Y-115512297D01*
X125645017Y-115512297D01*
X125645019Y-115512298D01*
X125873951Y-115550500D01*
X125873952Y-115550500D01*
X126106048Y-115550500D01*
X126106049Y-115550500D01*
X126334981Y-115512298D01*
X126554503Y-115436936D01*
X126758626Y-115326470D01*
X126941784Y-115183913D01*
X127098979Y-115013153D01*
X127225924Y-114818849D01*
X127319157Y-114606300D01*
X127376134Y-114381305D01*
X127376135Y-114381297D01*
X127395300Y-114150006D01*
X127395300Y-114149993D01*
X127376135Y-113918702D01*
X127376133Y-113918691D01*
X127371400Y-113899999D01*
X132331127Y-113899999D01*
X132331128Y-113900000D01*
X133294314Y-113900000D01*
X133289920Y-113904394D01*
X133237259Y-113995606D01*
X133210000Y-114097339D01*
X133210000Y-114202661D01*
X133237259Y-114304394D01*
X133289920Y-114395606D01*
X133294314Y-114400000D01*
X132331128Y-114400000D01*
X132383730Y-114596317D01*
X132383734Y-114596326D01*
X132479865Y-114802482D01*
X132610342Y-114988820D01*
X132771179Y-115149657D01*
X132957517Y-115280134D01*
X133163673Y-115376265D01*
X133163682Y-115376269D01*
X133359999Y-115428872D01*
X133360000Y-115428871D01*
X133360000Y-114465686D01*
X133364394Y-114470080D01*
X133455606Y-114522741D01*
X133557339Y-114550000D01*
X133662661Y-114550000D01*
X133764394Y-114522741D01*
X133855606Y-114470080D01*
X133860000Y-114465686D01*
X133860000Y-115428872D01*
X134056317Y-115376269D01*
X134056326Y-115376265D01*
X134262482Y-115280134D01*
X134448820Y-115149657D01*
X134609657Y-114988820D01*
X134740134Y-114802482D01*
X134836265Y-114596326D01*
X134836269Y-114596317D01*
X134888872Y-114400000D01*
X133925686Y-114400000D01*
X133930080Y-114395606D01*
X133982741Y-114304394D01*
X134010000Y-114202661D01*
X134010000Y-114097339D01*
X133982741Y-113995606D01*
X133930080Y-113904394D01*
X133925686Y-113900000D01*
X134888872Y-113900000D01*
X134888872Y-113899999D01*
X134836269Y-113703682D01*
X134836265Y-113703673D01*
X134740134Y-113497517D01*
X134609657Y-113311179D01*
X134448820Y-113150342D01*
X134262482Y-113019865D01*
X134056328Y-112923734D01*
X133860000Y-112871127D01*
X133860000Y-113834314D01*
X133855606Y-113829920D01*
X133764394Y-113777259D01*
X133662661Y-113750000D01*
X133557339Y-113750000D01*
X133455606Y-113777259D01*
X133364394Y-113829920D01*
X133360000Y-113834314D01*
X133360000Y-112871127D01*
X133163671Y-112923734D01*
X132957517Y-113019865D01*
X132771179Y-113150342D01*
X132610342Y-113311179D01*
X132479865Y-113497517D01*
X132383734Y-113703673D01*
X132383730Y-113703682D01*
X132331127Y-113899999D01*
X127371400Y-113899999D01*
X127319157Y-113693699D01*
X127225924Y-113481151D01*
X127110691Y-113304772D01*
X127090503Y-113237883D01*
X127090500Y-113236951D01*
X127090500Y-108859985D01*
X127110185Y-108792946D01*
X127110693Y-108792161D01*
X127121006Y-108776376D01*
X127125924Y-108768849D01*
X127219157Y-108556300D01*
X127276134Y-108331305D01*
X127280932Y-108273402D01*
X127295300Y-108100006D01*
X127295300Y-108099993D01*
X127276135Y-107868702D01*
X127276133Y-107868691D01*
X127225414Y-107668408D01*
X127219157Y-107643700D01*
X127179427Y-107553126D01*
X127170525Y-107483829D01*
X127200502Y-107420716D01*
X127259841Y-107383829D01*
X127329703Y-107384879D01*
X127380665Y-107415637D01*
X130804442Y-110839414D01*
X130944582Y-110941232D01*
X131098920Y-111019871D01*
X131098928Y-111019875D01*
X131186184Y-111048225D01*
X131229815Y-111062402D01*
X131263669Y-111073402D01*
X131434759Y-111100500D01*
X131434760Y-111100500D01*
X134486610Y-111100500D01*
X134486611Y-111100500D01*
X134657701Y-111073402D01*
X134822445Y-111019873D01*
X134976788Y-110941232D01*
X135116928Y-110839414D01*
X140039414Y-105916928D01*
X140141232Y-105776788D01*
X140219873Y-105622445D01*
X140273402Y-105457701D01*
X140300500Y-105286611D01*
X140300500Y-105286587D01*
X140300614Y-105285144D01*
X140300816Y-105284613D01*
X140301262Y-105281799D01*
X140301852Y-105281892D01*
X140325492Y-105219854D01*
X140332994Y-105210889D01*
X140348571Y-105193969D01*
X140366193Y-105166995D01*
X140419337Y-105121641D01*
X140488568Y-105112217D01*
X140551904Y-105141718D01*
X140573804Y-105166992D01*
X140591427Y-105193966D01*
X140591430Y-105193970D01*
X140606730Y-105210590D01*
X140637652Y-105273245D01*
X140639500Y-105294573D01*
X140639500Y-108903389D01*
X140639500Y-109076611D01*
X140666598Y-109247701D01*
X140720127Y-109412445D01*
X140798768Y-109566788D01*
X140900586Y-109706928D01*
X143453072Y-112259414D01*
X143593212Y-112361232D01*
X143747555Y-112439873D01*
X143912299Y-112493402D01*
X144083389Y-112520500D01*
X144256611Y-112520500D01*
X145303522Y-112520500D01*
X145370561Y-112540185D01*
X145416316Y-112592989D01*
X145427175Y-112635234D01*
X145444363Y-112864609D01*
X145444364Y-112864614D01*
X145444364Y-112864618D01*
X145444365Y-112864619D01*
X145453180Y-112903243D01*
X145503410Y-113123313D01*
X145503412Y-113123322D01*
X145503414Y-113123327D01*
X145600361Y-113370345D01*
X145733042Y-113600155D01*
X145898492Y-113807623D01*
X146093016Y-113988114D01*
X146312268Y-114137598D01*
X146551350Y-114252734D01*
X146804922Y-114330950D01*
X146804923Y-114330950D01*
X146804926Y-114330951D01*
X147067311Y-114370499D01*
X147067316Y-114370499D01*
X147067319Y-114370500D01*
X147067320Y-114370500D01*
X147332680Y-114370500D01*
X147332681Y-114370500D01*
X147332688Y-114370499D01*
X147595073Y-114330951D01*
X147595074Y-114330950D01*
X147595078Y-114330950D01*
X147848650Y-114252734D01*
X148043466Y-114158916D01*
X148087725Y-114137602D01*
X148087725Y-114137601D01*
X148087733Y-114137598D01*
X148306984Y-113988114D01*
X148501508Y-113807623D01*
X148666958Y-113600155D01*
X148799639Y-113370345D01*
X148896586Y-113123327D01*
X148955635Y-112864619D01*
X148975465Y-112600000D01*
X148975465Y-112599995D01*
X150525317Y-112599995D01*
X150525317Y-112600004D01*
X150544021Y-112849597D01*
X150544021Y-112849599D01*
X150599714Y-113093607D01*
X150599720Y-113093626D01*
X150691163Y-113326618D01*
X150816311Y-113543381D01*
X150816318Y-113543392D01*
X150854799Y-113591645D01*
X150854800Y-113591645D01*
X151598958Y-112847487D01*
X151623978Y-112907890D01*
X151695112Y-113014351D01*
X151785649Y-113104888D01*
X151892110Y-113176022D01*
X151952511Y-113201041D01*
X151208403Y-113945148D01*
X151362658Y-114050317D01*
X151362666Y-114050322D01*
X151588167Y-114158916D01*
X151588165Y-114158916D01*
X151827346Y-114232694D01*
X151827352Y-114232696D01*
X152074843Y-114269999D01*
X152074852Y-114270000D01*
X152325148Y-114270000D01*
X152325156Y-114269999D01*
X152572647Y-114232696D01*
X152572653Y-114232694D01*
X152811833Y-114158916D01*
X153037334Y-114050322D01*
X153037344Y-114050315D01*
X153191595Y-113945148D01*
X152447489Y-113201041D01*
X152507890Y-113176022D01*
X152614351Y-113104888D01*
X152704888Y-113014351D01*
X152776022Y-112907890D01*
X152801041Y-112847488D01*
X153545197Y-113591645D01*
X153545198Y-113591644D01*
X153583690Y-113543379D01*
X153708836Y-113326618D01*
X153800279Y-113093626D01*
X153800285Y-113093607D01*
X153855978Y-112849599D01*
X153855978Y-112849597D01*
X153874683Y-112600004D01*
X153874683Y-112599995D01*
X155525317Y-112599995D01*
X155525317Y-112600004D01*
X155544021Y-112849597D01*
X155544021Y-112849599D01*
X155599714Y-113093607D01*
X155599720Y-113093626D01*
X155691163Y-113326618D01*
X155816311Y-113543381D01*
X155816318Y-113543392D01*
X155854799Y-113591645D01*
X155854800Y-113591645D01*
X156598958Y-112847487D01*
X156623978Y-112907890D01*
X156695112Y-113014351D01*
X156785649Y-113104888D01*
X156892110Y-113176022D01*
X156952511Y-113201041D01*
X156208403Y-113945148D01*
X156362658Y-114050317D01*
X156362666Y-114050322D01*
X156588167Y-114158916D01*
X156588165Y-114158916D01*
X156827346Y-114232694D01*
X156827352Y-114232696D01*
X157074843Y-114269999D01*
X157074852Y-114270000D01*
X157325148Y-114270000D01*
X157325156Y-114269999D01*
X157572647Y-114232696D01*
X157572653Y-114232694D01*
X157811833Y-114158916D01*
X158037334Y-114050322D01*
X158037344Y-114050315D01*
X158191595Y-113945148D01*
X157447489Y-113201041D01*
X157507890Y-113176022D01*
X157614351Y-113104888D01*
X157704888Y-113014351D01*
X157776022Y-112907890D01*
X157801041Y-112847488D01*
X158545197Y-113591645D01*
X158545198Y-113591644D01*
X158583690Y-113543379D01*
X158708836Y-113326618D01*
X158800279Y-113093626D01*
X158800285Y-113093607D01*
X158855978Y-112849599D01*
X158855978Y-112849597D01*
X158874683Y-112600004D01*
X158874683Y-112599995D01*
X158855978Y-112350402D01*
X158855978Y-112350400D01*
X158800285Y-112106392D01*
X158800279Y-112106373D01*
X158708836Y-111873381D01*
X158583688Y-111656618D01*
X158583681Y-111656607D01*
X158545199Y-111608354D01*
X158545198Y-111608353D01*
X157801041Y-112352510D01*
X157776022Y-112292110D01*
X157704888Y-112185649D01*
X157614351Y-112095112D01*
X157507890Y-112023978D01*
X157447488Y-111998958D01*
X158191595Y-111254850D01*
X158037335Y-111149678D01*
X158037334Y-111149677D01*
X157811832Y-111041083D01*
X157811834Y-111041083D01*
X157572653Y-110967305D01*
X157572647Y-110967303D01*
X157325156Y-110930000D01*
X157074843Y-110930000D01*
X156827352Y-110967303D01*
X156827346Y-110967305D01*
X156588166Y-111041083D01*
X156362664Y-111149679D01*
X156362651Y-111149686D01*
X156208403Y-111254849D01*
X156952512Y-111998958D01*
X156892110Y-112023978D01*
X156785649Y-112095112D01*
X156695112Y-112185649D01*
X156623978Y-112292110D01*
X156598958Y-112352511D01*
X155854800Y-111608354D01*
X155816311Y-111656617D01*
X155691163Y-111873381D01*
X155599720Y-112106373D01*
X155599714Y-112106392D01*
X155544021Y-112350400D01*
X155544021Y-112350402D01*
X155525317Y-112599995D01*
X153874683Y-112599995D01*
X153855978Y-112350402D01*
X153855978Y-112350400D01*
X153800285Y-112106392D01*
X153800279Y-112106373D01*
X153708836Y-111873381D01*
X153583688Y-111656618D01*
X153583681Y-111656607D01*
X153545199Y-111608354D01*
X153545198Y-111608353D01*
X152801041Y-112352510D01*
X152776022Y-112292110D01*
X152704888Y-112185649D01*
X152614351Y-112095112D01*
X152507890Y-112023978D01*
X152447488Y-111998958D01*
X153191595Y-111254850D01*
X153037335Y-111149678D01*
X153037334Y-111149677D01*
X152811832Y-111041083D01*
X152811834Y-111041083D01*
X152572653Y-110967305D01*
X152572647Y-110967303D01*
X152325156Y-110930000D01*
X152074843Y-110930000D01*
X151827352Y-110967303D01*
X151827346Y-110967305D01*
X151588166Y-111041083D01*
X151362664Y-111149679D01*
X151362651Y-111149686D01*
X151208403Y-111254849D01*
X151952512Y-111998958D01*
X151892110Y-112023978D01*
X151785649Y-112095112D01*
X151695112Y-112185649D01*
X151623978Y-112292110D01*
X151598958Y-112352512D01*
X150854800Y-111608354D01*
X150816311Y-111656617D01*
X150691163Y-111873381D01*
X150599720Y-112106373D01*
X150599714Y-112106392D01*
X150544021Y-112350400D01*
X150544021Y-112350402D01*
X150525317Y-112599995D01*
X148975465Y-112599995D01*
X148969507Y-112520500D01*
X148955636Y-112335390D01*
X148955635Y-112335385D01*
X148955635Y-112335381D01*
X148896586Y-112076673D01*
X148799639Y-111829655D01*
X148666958Y-111599845D01*
X148501508Y-111392377D01*
X148306984Y-111211886D01*
X148215742Y-111149678D01*
X148087736Y-111062404D01*
X148087725Y-111062397D01*
X147848655Y-110947268D01*
X147848636Y-110947261D01*
X147595083Y-110869051D01*
X147595073Y-110869048D01*
X147332688Y-110829500D01*
X147332681Y-110829500D01*
X147067319Y-110829500D01*
X147067311Y-110829500D01*
X147058412Y-110830842D01*
X146989187Y-110821369D01*
X146952250Y-110795908D01*
X146736930Y-110580588D01*
X146736928Y-110580586D01*
X146596788Y-110478768D01*
X146442445Y-110400127D01*
X146277701Y-110346598D01*
X146277699Y-110346597D01*
X146277698Y-110346597D01*
X146146271Y-110325781D01*
X146106611Y-110319500D01*
X146106610Y-110319500D01*
X144677204Y-110319500D01*
X144610165Y-110299815D01*
X144589523Y-110283181D01*
X142876819Y-108570477D01*
X142843334Y-108509154D01*
X142840500Y-108482796D01*
X142840500Y-107050000D01*
X143663968Y-107050000D01*
X144801518Y-107050000D01*
X144790889Y-107068409D01*
X144750000Y-107221009D01*
X144750000Y-107378991D01*
X144790889Y-107531591D01*
X144801518Y-107550000D01*
X143663968Y-107550000D01*
X143664274Y-107554079D01*
X143664275Y-107554086D01*
X143720967Y-107802475D01*
X143720973Y-107802494D01*
X143814058Y-108039671D01*
X143814057Y-108039671D01*
X143941455Y-108260328D01*
X144100320Y-108459540D01*
X144287097Y-108632842D01*
X144497616Y-108776371D01*
X144497624Y-108776376D01*
X144727176Y-108886921D01*
X144727174Y-108886921D01*
X144970652Y-108962024D01*
X144970660Y-108962026D01*
X145100000Y-108981520D01*
X145100000Y-107848482D01*
X145118409Y-107859111D01*
X145271009Y-107900000D01*
X145428991Y-107900000D01*
X145581591Y-107859111D01*
X145600000Y-107848482D01*
X145600000Y-108981519D01*
X145729339Y-108962026D01*
X145729347Y-108962024D01*
X145972824Y-108886921D01*
X146202376Y-108776376D01*
X146202377Y-108776375D01*
X146412905Y-108632840D01*
X146599679Y-108459540D01*
X146758544Y-108260328D01*
X146885941Y-108039671D01*
X146979026Y-107802494D01*
X146979032Y-107802475D01*
X147035724Y-107554086D01*
X147035725Y-107554079D01*
X147036032Y-107550000D01*
X145898482Y-107550000D01*
X145909111Y-107531591D01*
X145950000Y-107378991D01*
X145950000Y-107221009D01*
X145909111Y-107068409D01*
X145898482Y-107050000D01*
X147036031Y-107050000D01*
X147035725Y-107045920D01*
X147035724Y-107045913D01*
X146979032Y-106797524D01*
X146979026Y-106797505D01*
X146885941Y-106560328D01*
X146885942Y-106560328D01*
X146758544Y-106339671D01*
X146599679Y-106140459D01*
X146412905Y-105967159D01*
X146202377Y-105823624D01*
X146202376Y-105823623D01*
X145972823Y-105713078D01*
X145972825Y-105713078D01*
X145729354Y-105637977D01*
X145729348Y-105637976D01*
X145600000Y-105618479D01*
X145600000Y-106751517D01*
X145581591Y-106740889D01*
X145428991Y-106700000D01*
X145271009Y-106700000D01*
X145118409Y-106740889D01*
X145100000Y-106751517D01*
X145100000Y-105618479D01*
X144970651Y-105637976D01*
X144970645Y-105637977D01*
X144727175Y-105713078D01*
X144497624Y-105823623D01*
X144497616Y-105823628D01*
X144287097Y-105967157D01*
X144100320Y-106140459D01*
X143941455Y-106339671D01*
X143814058Y-106560328D01*
X143720973Y-106797505D01*
X143720967Y-106797524D01*
X143664275Y-107045913D01*
X143664274Y-107045920D01*
X143663968Y-107050000D01*
X142840500Y-107050000D01*
X142840500Y-105294573D01*
X142860185Y-105227534D01*
X142873270Y-105210590D01*
X142888571Y-105193969D01*
X143020049Y-104992728D01*
X143116610Y-104772591D01*
X143175620Y-104539563D01*
X143195471Y-104300000D01*
X143175620Y-104060437D01*
X143116610Y-103827409D01*
X143020049Y-103607272D01*
X142888571Y-103406031D01*
X142873268Y-103389407D01*
X142842348Y-103326752D01*
X142840500Y-103305426D01*
X142840500Y-103011308D01*
X142838788Y-103000500D01*
X142813402Y-102840218D01*
X142780649Y-102739414D01*
X142759873Y-102675473D01*
X142759871Y-102675470D01*
X142759871Y-102675468D01*
X142681231Y-102521130D01*
X142669487Y-102504966D01*
X142579414Y-102380991D01*
X141899134Y-101700711D01*
X141865649Y-101639388D01*
X141870633Y-101569696D01*
X141912505Y-101513763D01*
X141927793Y-101503978D01*
X141978626Y-101476470D01*
X142005330Y-101455686D01*
X142042701Y-101426599D01*
X142161784Y-101333913D01*
X142318979Y-101163153D01*
X142445924Y-100968849D01*
X142539157Y-100756300D01*
X142578696Y-100600161D01*
X142614234Y-100540009D01*
X142676655Y-100508617D01*
X142746138Y-100515955D01*
X142786582Y-100542924D01*
X146860586Y-104616928D01*
X146983072Y-104739414D01*
X147123212Y-104841232D01*
X147196133Y-104878387D01*
X147277550Y-104919871D01*
X147277552Y-104919871D01*
X147277555Y-104919873D01*
X147442299Y-104973403D01*
X147589996Y-104996795D01*
X147613389Y-105000500D01*
X168586610Y-105000500D01*
X168586611Y-105000500D01*
X168757701Y-104973402D01*
X168922445Y-104919873D01*
X169076788Y-104841232D01*
X169216928Y-104739414D01*
X170439414Y-103516928D01*
X170541232Y-103376788D01*
X170619873Y-103222445D01*
X170673402Y-103057701D01*
X170700500Y-102886611D01*
X170700500Y-102713389D01*
X170700500Y-101568480D01*
X170720185Y-101501441D01*
X170772989Y-101455686D01*
X170842147Y-101445742D01*
X170905703Y-101474767D01*
X170943477Y-101533545D01*
X170944275Y-101536387D01*
X170973730Y-101646317D01*
X170973735Y-101646331D01*
X171069863Y-101852478D01*
X171120974Y-101925472D01*
X171800000Y-101246446D01*
X171800000Y-101252661D01*
X171827259Y-101354394D01*
X171879920Y-101445606D01*
X171954394Y-101520080D01*
X172045606Y-101572741D01*
X172147339Y-101600000D01*
X172153553Y-101600000D01*
X171474526Y-102279025D01*
X171547513Y-102330132D01*
X171547521Y-102330136D01*
X171753668Y-102426264D01*
X171753682Y-102426269D01*
X171973389Y-102485139D01*
X171973400Y-102485141D01*
X172199998Y-102504966D01*
X172200002Y-102504966D01*
X172426599Y-102485141D01*
X172426610Y-102485139D01*
X172646317Y-102426269D01*
X172646331Y-102426264D01*
X172852478Y-102330136D01*
X172925471Y-102279024D01*
X172246447Y-101600000D01*
X172252661Y-101600000D01*
X172354394Y-101572741D01*
X172445606Y-101520080D01*
X172520080Y-101445606D01*
X172572741Y-101354394D01*
X172600000Y-101252661D01*
X172600000Y-101246447D01*
X173279024Y-101925471D01*
X173330136Y-101852478D01*
X173426264Y-101646331D01*
X173426269Y-101646317D01*
X173485139Y-101426610D01*
X173485141Y-101426599D01*
X173504966Y-101200002D01*
X173504966Y-101199997D01*
X173485141Y-100973400D01*
X173485139Y-100973389D01*
X173426269Y-100753682D01*
X173426264Y-100753668D01*
X173330136Y-100547521D01*
X173330132Y-100547513D01*
X173279025Y-100474526D01*
X172600000Y-101153551D01*
X172600000Y-101147339D01*
X172572741Y-101045606D01*
X172520080Y-100954394D01*
X172445606Y-100879920D01*
X172354394Y-100827259D01*
X172252661Y-100800000D01*
X172246448Y-100800000D01*
X172925472Y-100120974D01*
X172852478Y-100069863D01*
X172646331Y-99973735D01*
X172646317Y-99973730D01*
X172426610Y-99914860D01*
X172426599Y-99914858D01*
X172200002Y-99895034D01*
X172199998Y-99895034D01*
X171973400Y-99914858D01*
X171973389Y-99914860D01*
X171753682Y-99973730D01*
X171753673Y-99973734D01*
X171547516Y-100069866D01*
X171547512Y-100069868D01*
X171474526Y-100120973D01*
X171474526Y-100120974D01*
X172153553Y-100800000D01*
X172147339Y-100800000D01*
X172045606Y-100827259D01*
X171954394Y-100879920D01*
X171879920Y-100954394D01*
X171827259Y-101045606D01*
X171800000Y-101147339D01*
X171800000Y-101153552D01*
X171120974Y-100474526D01*
X171120973Y-100474526D01*
X171069868Y-100547512D01*
X171069866Y-100547516D01*
X170973734Y-100753673D01*
X170973731Y-100753679D01*
X170944275Y-100863613D01*
X170907910Y-100923273D01*
X170845063Y-100953802D01*
X170775687Y-100945507D01*
X170721809Y-100901022D01*
X170700535Y-100834470D01*
X170700500Y-100831519D01*
X170700500Y-99763389D01*
X170673402Y-99592301D01*
X170673402Y-99592299D01*
X170648912Y-99516928D01*
X170619873Y-99427554D01*
X170619873Y-99427553D01*
X170541231Y-99273211D01*
X170439414Y-99133072D01*
X169686819Y-98380477D01*
X169653334Y-98319154D01*
X169650500Y-98292796D01*
X169650500Y-90257203D01*
X169670185Y-90190164D01*
X169686814Y-90169527D01*
X171275362Y-88580978D01*
X171336683Y-88547495D01*
X171383446Y-88546352D01*
X171438266Y-88555500D01*
X171438269Y-88555500D01*
X171670363Y-88555500D01*
X171670364Y-88555500D01*
X171899296Y-88517298D01*
X172118818Y-88441936D01*
X172316483Y-88334964D01*
X172384811Y-88320370D01*
X172450183Y-88345033D01*
X172491844Y-88401123D01*
X172499500Y-88444020D01*
X172499500Y-90892794D01*
X172479815Y-90959833D01*
X172463181Y-90980475D01*
X172428671Y-91014985D01*
X172367348Y-91048470D01*
X172297656Y-91043486D01*
X172281975Y-91036360D01*
X172181406Y-90981935D01*
X172118819Y-90948064D01*
X172118810Y-90948061D01*
X171899299Y-90872702D01*
X171706835Y-90840586D01*
X171670364Y-90834500D01*
X171438266Y-90834500D01*
X171401795Y-90840586D01*
X171209330Y-90872702D01*
X170989819Y-90948061D01*
X170989810Y-90948064D01*
X170785686Y-91058531D01*
X170785680Y-91058535D01*
X170602537Y-91201081D01*
X170602534Y-91201084D01*
X170602531Y-91201086D01*
X170602531Y-91201087D01*
X170567249Y-91239414D01*
X170445331Y-91371852D01*
X170318390Y-91566151D01*
X170225157Y-91778699D01*
X170168181Y-92003691D01*
X170168179Y-92003702D01*
X170149015Y-92234993D01*
X170149015Y-92235006D01*
X170168179Y-92466297D01*
X170168181Y-92466308D01*
X170225157Y-92691300D01*
X170318390Y-92903848D01*
X170445331Y-93098147D01*
X170445334Y-93098151D01*
X170445336Y-93098153D01*
X170602531Y-93268913D01*
X170602534Y-93268915D01*
X170602537Y-93268918D01*
X170785680Y-93411464D01*
X170785686Y-93411468D01*
X170785689Y-93411470D01*
X170989812Y-93521936D01*
X171084359Y-93554394D01*
X171209330Y-93597297D01*
X171209332Y-93597297D01*
X171209334Y-93597298D01*
X171438266Y-93635500D01*
X171438267Y-93635500D01*
X171670363Y-93635500D01*
X171670364Y-93635500D01*
X171899296Y-93597298D01*
X172118818Y-93521936D01*
X172322941Y-93411470D01*
X172322949Y-93411464D01*
X172386955Y-93361647D01*
X172451949Y-93336004D01*
X172463117Y-93335500D01*
X172851610Y-93335500D01*
X172851611Y-93335500D01*
X173022701Y-93308402D01*
X173187445Y-93254873D01*
X173341788Y-93176232D01*
X173481928Y-93074414D01*
X173887819Y-92668523D01*
X173949142Y-92635038D01*
X174018834Y-92640022D01*
X174074767Y-92681894D01*
X174099184Y-92747358D01*
X174099500Y-92756204D01*
X174099500Y-93309117D01*
X174079815Y-93376156D01*
X174063181Y-93396798D01*
X171581798Y-95878181D01*
X171520475Y-95911666D01*
X171494117Y-95914500D01*
X171438266Y-95914500D01*
X171392479Y-95922140D01*
X171209330Y-95952702D01*
X170989819Y-96028061D01*
X170989810Y-96028064D01*
X170785686Y-96138531D01*
X170785680Y-96138535D01*
X170602537Y-96281081D01*
X170602534Y-96281084D01*
X170445331Y-96451852D01*
X170318390Y-96646151D01*
X170225157Y-96858699D01*
X170168181Y-97083691D01*
X170168179Y-97083702D01*
X170149015Y-97314993D01*
X170149015Y-97315006D01*
X170168179Y-97546297D01*
X170168181Y-97546308D01*
X170225157Y-97771300D01*
X170318390Y-97983848D01*
X170445331Y-98178147D01*
X170445334Y-98178151D01*
X170445336Y-98178153D01*
X170602531Y-98348913D01*
X170602534Y-98348915D01*
X170602537Y-98348918D01*
X170785680Y-98491464D01*
X170785686Y-98491468D01*
X170785689Y-98491470D01*
X170989812Y-98601936D01*
X171103802Y-98641068D01*
X171209330Y-98677297D01*
X171209332Y-98677297D01*
X171209334Y-98677298D01*
X171438266Y-98715500D01*
X171438267Y-98715500D01*
X171670363Y-98715500D01*
X171670364Y-98715500D01*
X171899296Y-98677298D01*
X172118818Y-98601936D01*
X172322941Y-98491470D01*
X172506099Y-98348913D01*
X172663294Y-98178153D01*
X172790239Y-97983849D01*
X172883472Y-97771300D01*
X172902934Y-97694442D01*
X172935457Y-97637204D01*
X175487821Y-95084841D01*
X175549142Y-95051358D01*
X175618834Y-95056342D01*
X175674767Y-95098214D01*
X175699184Y-95163678D01*
X175699500Y-95172524D01*
X175699500Y-100342796D01*
X175679815Y-100409835D01*
X175663181Y-100430477D01*
X170030477Y-106063181D01*
X169969154Y-106096666D01*
X169942796Y-106099500D01*
X159964361Y-106099500D01*
X159897322Y-106079815D01*
X159851567Y-106027011D01*
X159841422Y-105991683D01*
X159835046Y-105943246D01*
X159835044Y-105943239D01*
X159835044Y-105943238D01*
X159774536Y-105797159D01*
X159678282Y-105671718D01*
X159552841Y-105575464D01*
X159510353Y-105557865D01*
X159406762Y-105514956D01*
X159406760Y-105514955D01*
X159289370Y-105499501D01*
X159289367Y-105499500D01*
X159289361Y-105499500D01*
X159289354Y-105499500D01*
X156810636Y-105499500D01*
X156693246Y-105514953D01*
X156693237Y-105514956D01*
X156547160Y-105575463D01*
X156421718Y-105671718D01*
X156325463Y-105797160D01*
X156264956Y-105943237D01*
X156264955Y-105943239D01*
X156249501Y-106060629D01*
X156249500Y-106060645D01*
X156249500Y-108539363D01*
X156264953Y-108656753D01*
X156264956Y-108656762D01*
X156311383Y-108768848D01*
X156325464Y-108802841D01*
X156421718Y-108928282D01*
X156547159Y-109024536D01*
X156693238Y-109085044D01*
X156810639Y-109100500D01*
X159289360Y-109100499D01*
X159289363Y-109100499D01*
X159406753Y-109085046D01*
X159406757Y-109085044D01*
X159406762Y-109085044D01*
X159552841Y-109024536D01*
X159678282Y-108928282D01*
X159774536Y-108802841D01*
X159835044Y-108656762D01*
X159850500Y-108539361D01*
X159850500Y-108424500D01*
X159870185Y-108357461D01*
X159922989Y-108311706D01*
X159974500Y-108300500D01*
X170536610Y-108300500D01*
X170536611Y-108300500D01*
X170707701Y-108273402D01*
X170872445Y-108219873D01*
X171026788Y-108141232D01*
X171166928Y-108039414D01*
X177287819Y-101918523D01*
X177349142Y-101885038D01*
X177418834Y-101890022D01*
X177474767Y-101931894D01*
X177499184Y-101997358D01*
X177499500Y-102006204D01*
X177499500Y-118775500D01*
X177479815Y-118842539D01*
X177427011Y-118888294D01*
X177375500Y-118899500D01*
X111624500Y-118899500D01*
X111557461Y-118879815D01*
X111511706Y-118827011D01*
X111500500Y-118775500D01*
X111500500Y-59724500D01*
X111520185Y-59657461D01*
X111572989Y-59611706D01*
X111624500Y-59600500D01*
X177375500Y-59600500D01*
X177442539Y-59620185D01*
G37*
%TD.AperFunction*%
%TA.AperFunction,Conductor*%
G36*
X171759835Y-77120185D02*
G01*
X171780477Y-77136819D01*
X175663181Y-81019523D01*
X175696666Y-81080846D01*
X175699500Y-81107204D01*
X175699500Y-84217475D01*
X175679815Y-84284514D01*
X175627011Y-84330269D01*
X175557853Y-84340213D01*
X175494297Y-84311188D01*
X175487819Y-84305156D01*
X172935459Y-81752796D01*
X172902934Y-81695555D01*
X172883472Y-81618700D01*
X172790239Y-81406151D01*
X172774001Y-81381297D01*
X172663298Y-81211852D01*
X172663295Y-81211849D01*
X172663294Y-81211847D01*
X172506099Y-81041087D01*
X172506094Y-81041083D01*
X172506092Y-81041081D01*
X172322949Y-80898535D01*
X172322943Y-80898531D01*
X172118819Y-80788064D01*
X172118810Y-80788061D01*
X171899299Y-80712702D01*
X171727597Y-80684050D01*
X171670364Y-80674500D01*
X171438266Y-80674500D01*
X171392479Y-80682140D01*
X171209330Y-80712702D01*
X170989819Y-80788061D01*
X170989810Y-80788064D01*
X170785686Y-80898531D01*
X170785680Y-80898535D01*
X170602537Y-81041081D01*
X170602534Y-81041084D01*
X170602531Y-81041086D01*
X170602531Y-81041087D01*
X170543582Y-81105122D01*
X170445331Y-81211852D01*
X170318390Y-81406151D01*
X170225157Y-81618699D01*
X170168181Y-81843691D01*
X170168179Y-81843702D01*
X170149015Y-82074993D01*
X170149015Y-82075006D01*
X170168179Y-82306297D01*
X170168181Y-82306308D01*
X170225157Y-82531300D01*
X170318390Y-82743848D01*
X170445331Y-82938147D01*
X170445334Y-82938151D01*
X170445336Y-82938153D01*
X170602531Y-83108913D01*
X170602534Y-83108915D01*
X170602537Y-83108918D01*
X170780133Y-83247147D01*
X170820946Y-83303857D01*
X170824621Y-83373630D01*
X170789989Y-83434313D01*
X170780133Y-83442853D01*
X170602537Y-83581081D01*
X170602534Y-83581084D01*
X170602531Y-83581086D01*
X170602531Y-83581087D01*
X170597133Y-83586951D01*
X170445331Y-83751852D01*
X170318390Y-83946151D01*
X170225157Y-84158699D01*
X170168181Y-84383691D01*
X170168179Y-84383702D01*
X170149015Y-84614993D01*
X170149015Y-84615006D01*
X170168179Y-84846297D01*
X170168181Y-84846308D01*
X170225157Y-85071300D01*
X170318390Y-85283848D01*
X170445331Y-85478147D01*
X170445334Y-85478151D01*
X170445336Y-85478153D01*
X170602531Y-85648913D01*
X170602534Y-85648915D01*
X170602537Y-85648918D01*
X170780133Y-85787147D01*
X170820946Y-85843857D01*
X170824621Y-85913630D01*
X170789989Y-85974313D01*
X170780133Y-85982853D01*
X170602537Y-86121081D01*
X170602534Y-86121084D01*
X170445335Y-86291847D01*
X170440160Y-86299768D01*
X170424039Y-86319617D01*
X167833072Y-88910586D01*
X167710588Y-89033069D01*
X167710588Y-89033070D01*
X167710586Y-89033072D01*
X167672185Y-89085926D01*
X167608768Y-89173211D01*
X167530128Y-89327552D01*
X167476597Y-89492302D01*
X167464655Y-89567701D01*
X167449500Y-89663389D01*
X167449500Y-98713389D01*
X167449500Y-98886611D01*
X167476598Y-99057701D01*
X167530127Y-99222445D01*
X167608768Y-99376788D01*
X167710586Y-99516928D01*
X167710588Y-99516930D01*
X168463181Y-100269523D01*
X168496666Y-100330846D01*
X168499500Y-100357204D01*
X168499500Y-100831519D01*
X168479815Y-100898558D01*
X168427011Y-100944313D01*
X168357853Y-100954257D01*
X168294297Y-100925232D01*
X168256523Y-100866454D01*
X168255725Y-100863613D01*
X168226268Y-100753679D01*
X168226264Y-100753668D01*
X168130136Y-100547521D01*
X168130132Y-100547513D01*
X168079025Y-100474526D01*
X167400000Y-101153551D01*
X167400000Y-101147339D01*
X167372741Y-101045606D01*
X167320080Y-100954394D01*
X167245606Y-100879920D01*
X167154394Y-100827259D01*
X167052661Y-100800000D01*
X167046448Y-100800000D01*
X167725472Y-100120974D01*
X167652478Y-100069863D01*
X167446331Y-99973735D01*
X167446317Y-99973730D01*
X167226610Y-99914860D01*
X167226599Y-99914858D01*
X167000002Y-99895034D01*
X166999998Y-99895034D01*
X166773400Y-99914858D01*
X166773389Y-99914860D01*
X166553682Y-99973730D01*
X166553673Y-99973734D01*
X166347516Y-100069866D01*
X166347512Y-100069868D01*
X166274526Y-100120973D01*
X166274526Y-100120974D01*
X166953553Y-100800000D01*
X166947339Y-100800000D01*
X166845606Y-100827259D01*
X166754394Y-100879920D01*
X166679920Y-100954394D01*
X166627259Y-101045606D01*
X166600000Y-101147339D01*
X166600000Y-101153552D01*
X165920974Y-100474526D01*
X165920973Y-100474526D01*
X165869868Y-100547512D01*
X165869866Y-100547516D01*
X165773734Y-100753673D01*
X165773730Y-100753682D01*
X165714860Y-100973389D01*
X165714858Y-100973400D01*
X165695034Y-101199997D01*
X165695034Y-101200002D01*
X165714858Y-101426599D01*
X165714860Y-101426610D01*
X165773730Y-101646317D01*
X165773735Y-101646331D01*
X165869863Y-101852478D01*
X165920974Y-101925472D01*
X166600000Y-101246446D01*
X166600000Y-101252661D01*
X166627259Y-101354394D01*
X166679920Y-101445606D01*
X166754394Y-101520080D01*
X166845606Y-101572741D01*
X166947339Y-101600000D01*
X166953553Y-101600000D01*
X166274526Y-102279025D01*
X166347513Y-102330132D01*
X166347521Y-102330136D01*
X166553668Y-102426264D01*
X166553682Y-102426269D01*
X166773389Y-102485139D01*
X166773400Y-102485141D01*
X166999998Y-102504966D01*
X167000002Y-102504966D01*
X167226599Y-102485141D01*
X167226610Y-102485139D01*
X167446317Y-102426269D01*
X167446331Y-102426264D01*
X167652478Y-102330136D01*
X167725471Y-102279024D01*
X167046447Y-101600000D01*
X167052661Y-101600000D01*
X167154394Y-101572741D01*
X167245606Y-101520080D01*
X167320080Y-101445606D01*
X167372741Y-101354394D01*
X167400000Y-101252661D01*
X167400000Y-101246447D01*
X168079024Y-101925471D01*
X168130136Y-101852478D01*
X168226264Y-101646331D01*
X168226269Y-101646317D01*
X168255725Y-101536387D01*
X168292090Y-101476726D01*
X168354937Y-101446197D01*
X168424312Y-101454492D01*
X168478190Y-101498977D01*
X168499465Y-101565529D01*
X168499500Y-101568480D01*
X168499500Y-102292796D01*
X168479815Y-102359835D01*
X168463181Y-102380477D01*
X168080477Y-102763181D01*
X168019154Y-102796666D01*
X167992796Y-102799500D01*
X148207204Y-102799500D01*
X148140165Y-102779815D01*
X148119523Y-102763181D01*
X147868523Y-102512181D01*
X147835038Y-102450858D01*
X147840022Y-102381166D01*
X147881894Y-102325233D01*
X147947358Y-102300816D01*
X147956204Y-102300500D01*
X162822931Y-102300500D01*
X162822932Y-102300500D01*
X162994022Y-102273402D01*
X163158766Y-102219873D01*
X163313109Y-102141232D01*
X163453249Y-102039414D01*
X166673729Y-98818934D01*
X166775547Y-98678794D01*
X166854188Y-98524451D01*
X166907717Y-98359707D01*
X166934815Y-98188617D01*
X166934815Y-98015395D01*
X166934815Y-95457019D01*
X166907717Y-95285929D01*
X166854188Y-95121185D01*
X166775547Y-94966842D01*
X166673729Y-94826702D01*
X166551243Y-94704216D01*
X165782613Y-93935586D01*
X165642473Y-93833768D01*
X165488130Y-93755127D01*
X165323386Y-93701598D01*
X165323384Y-93701597D01*
X165323383Y-93701597D01*
X165191956Y-93680781D01*
X165152296Y-93674500D01*
X165152295Y-93674500D01*
X164843117Y-93674500D01*
X164776078Y-93654815D01*
X164766955Y-93648353D01*
X164702949Y-93598535D01*
X164702943Y-93598531D01*
X164498819Y-93488064D01*
X164498810Y-93488061D01*
X164279299Y-93412702D01*
X164082215Y-93379815D01*
X164050364Y-93374500D01*
X163818266Y-93374500D01*
X163786415Y-93379815D01*
X163589330Y-93412702D01*
X163369819Y-93488061D01*
X163369805Y-93488067D01*
X163183517Y-93588881D01*
X163115189Y-93603476D01*
X163049817Y-93578813D01*
X163008156Y-93522722D01*
X163000500Y-93479826D01*
X163000500Y-92426383D01*
X162973402Y-92255293D01*
X162919873Y-92090549D01*
X162841232Y-91936206D01*
X162739414Y-91796066D01*
X162616928Y-91673580D01*
X161939158Y-90995810D01*
X161905673Y-90934487D01*
X161910657Y-90864795D01*
X161952529Y-90808862D01*
X162017993Y-90784445D01*
X162046236Y-90785655D01*
X162108389Y-90795500D01*
X162108390Y-90795500D01*
X162281611Y-90795500D01*
X163025513Y-90795500D01*
X163092552Y-90815185D01*
X163101675Y-90821647D01*
X163165680Y-90871464D01*
X163165686Y-90871468D01*
X163165689Y-90871470D01*
X163369812Y-90981936D01*
X163483802Y-91021068D01*
X163589330Y-91057297D01*
X163589332Y-91057297D01*
X163589334Y-91057298D01*
X163818266Y-91095500D01*
X163818267Y-91095500D01*
X164050363Y-91095500D01*
X164050364Y-91095500D01*
X164279296Y-91057298D01*
X164498818Y-90981936D01*
X164702941Y-90871470D01*
X164886099Y-90728913D01*
X165043294Y-90558153D01*
X165170239Y-90363849D01*
X165263472Y-90151300D01*
X165320449Y-89926305D01*
X165320450Y-89926297D01*
X165339615Y-89695006D01*
X165339615Y-89694993D01*
X165320450Y-89463702D01*
X165320448Y-89463691D01*
X165263472Y-89238699D01*
X165170239Y-89026151D01*
X165043298Y-88831852D01*
X165043295Y-88831849D01*
X165043294Y-88831847D01*
X164886099Y-88661087D01*
X164708495Y-88522853D01*
X164667683Y-88466143D01*
X164664008Y-88396370D01*
X164698639Y-88335687D01*
X164708496Y-88327146D01*
X164717202Y-88320370D01*
X164886099Y-88188913D01*
X165043294Y-88018153D01*
X165170239Y-87823849D01*
X165263472Y-87611300D01*
X165320449Y-87386305D01*
X165320450Y-87386297D01*
X165339615Y-87155006D01*
X165339615Y-87154993D01*
X165320450Y-86923702D01*
X165320448Y-86923691D01*
X165263472Y-86698699D01*
X165170239Y-86486151D01*
X165043298Y-86291852D01*
X165043295Y-86291849D01*
X165043294Y-86291847D01*
X164886099Y-86121087D01*
X164708495Y-85982853D01*
X164667683Y-85926143D01*
X164664008Y-85856370D01*
X164698639Y-85795687D01*
X164708496Y-85787146D01*
X164886099Y-85648913D01*
X165043294Y-85478153D01*
X165170239Y-85283849D01*
X165263472Y-85071300D01*
X165320449Y-84846305D01*
X165320450Y-84846297D01*
X165339615Y-84615006D01*
X165339615Y-84614993D01*
X165320450Y-84383702D01*
X165320448Y-84383691D01*
X165263472Y-84158699D01*
X165170239Y-83946151D01*
X165043298Y-83751852D01*
X165043295Y-83751849D01*
X165043294Y-83751847D01*
X164927035Y-83625556D01*
X164896115Y-83562904D01*
X164903975Y-83493478D01*
X164948122Y-83439323D01*
X164970811Y-83427016D01*
X165037156Y-83399536D01*
X165162597Y-83303282D01*
X165258851Y-83177841D01*
X165319359Y-83031762D01*
X165334815Y-82914361D01*
X165334814Y-81235640D01*
X165334814Y-81235636D01*
X165319361Y-81118246D01*
X165319359Y-81118241D01*
X165319359Y-81118238D01*
X165258851Y-80972159D01*
X165162597Y-80846718D01*
X165162595Y-80846717D01*
X165162595Y-80846716D01*
X165083329Y-80785894D01*
X165042126Y-80729466D01*
X165034815Y-80687518D01*
X165034815Y-79000647D01*
X165032359Y-78985139D01*
X165007717Y-78829557D01*
X164954188Y-78664813D01*
X164875547Y-78510470D01*
X164773729Y-78370330D01*
X164651243Y-78247844D01*
X164341079Y-77937680D01*
X164307594Y-77876357D01*
X164312578Y-77806665D01*
X164341075Y-77762322D01*
X164566580Y-77536817D01*
X164627903Y-77503333D01*
X164654261Y-77500499D01*
X166239363Y-77500499D01*
X166356753Y-77485046D01*
X166356757Y-77485044D01*
X166356762Y-77485044D01*
X166502841Y-77424536D01*
X166628282Y-77328282D01*
X166724536Y-77202841D01*
X166735220Y-77177048D01*
X166779061Y-77122644D01*
X166845355Y-77100579D01*
X166849781Y-77100500D01*
X171692796Y-77100500D01*
X171759835Y-77120185D01*
G37*
%TD.AperFunction*%
%TA.AperFunction,Conductor*%
G36*
X143389835Y-64220185D02*
G01*
X143410477Y-64236819D01*
X146028620Y-66854962D01*
X146062105Y-66916285D01*
X146062346Y-66967870D01*
X146034201Y-67103317D01*
X146014592Y-67390000D01*
X146034201Y-67676680D01*
X146092666Y-67958034D01*
X146092667Y-67958037D01*
X146188894Y-68228793D01*
X146188893Y-68228793D01*
X146321098Y-68483935D01*
X146486812Y-68718700D01*
X146523379Y-68757853D01*
X146680975Y-68926597D01*
X146682950Y-68928711D01*
X146905846Y-69110050D01*
X146905850Y-69110053D01*
X146905853Y-69110055D01*
X146959929Y-69142939D01*
X147006980Y-69194588D01*
X147019500Y-69248886D01*
X147019500Y-70572795D01*
X146999815Y-70639834D01*
X146983181Y-70660476D01*
X146364276Y-71279380D01*
X146302953Y-71312865D01*
X146297005Y-71314008D01*
X146155016Y-71337702D01*
X145935504Y-71413061D01*
X145935495Y-71413064D01*
X145731371Y-71523531D01*
X145731365Y-71523535D01*
X145667360Y-71573353D01*
X145602366Y-71598996D01*
X145591198Y-71599500D01*
X136713389Y-71599500D01*
X136673728Y-71605781D01*
X136542302Y-71626597D01*
X136377552Y-71680128D01*
X136223211Y-71758768D01*
X136148062Y-71813368D01*
X136083070Y-71860587D01*
X134965701Y-72977956D01*
X134965701Y-72977957D01*
X134965699Y-72977959D01*
X134945542Y-73005703D01*
X134863881Y-73118098D01*
X134785240Y-73272440D01*
X134777127Y-73297410D01*
X134737688Y-73355084D01*
X134706660Y-73373646D01*
X134702272Y-73375463D01*
X134702271Y-73375464D01*
X134576832Y-73471716D01*
X134480576Y-73597160D01*
X134420069Y-73743237D01*
X134420068Y-73743239D01*
X134404614Y-73860629D01*
X134404613Y-73860645D01*
X134404613Y-73902690D01*
X134384928Y-73969729D01*
X134368294Y-73990371D01*
X133705113Y-74653552D01*
X133705113Y-74647339D01*
X133677854Y-74545606D01*
X133625193Y-74454394D01*
X133550719Y-74379920D01*
X133459507Y-74327259D01*
X133357774Y-74300000D01*
X133351561Y-74300000D01*
X134030585Y-73620974D01*
X133957591Y-73569863D01*
X133751444Y-73473735D01*
X133751430Y-73473730D01*
X133531723Y-73414860D01*
X133531712Y-73414858D01*
X133305115Y-73395034D01*
X133305111Y-73395034D01*
X133078513Y-73414858D01*
X133078502Y-73414860D01*
X132858795Y-73473730D01*
X132858786Y-73473734D01*
X132652629Y-73569866D01*
X132652625Y-73569868D01*
X132579639Y-73620973D01*
X132579639Y-73620974D01*
X133258666Y-74300000D01*
X133252452Y-74300000D01*
X133150719Y-74327259D01*
X133059507Y-74379920D01*
X132985033Y-74454394D01*
X132932372Y-74545606D01*
X132905113Y-74647339D01*
X132905113Y-74653552D01*
X132226087Y-73974526D01*
X132226086Y-73974526D01*
X132174981Y-74047512D01*
X132174979Y-74047516D01*
X132078847Y-74253673D01*
X132078843Y-74253682D01*
X132019973Y-74473389D01*
X132019971Y-74473400D01*
X132000147Y-74699997D01*
X132000147Y-74700002D01*
X132019971Y-74926599D01*
X132019973Y-74926610D01*
X132078843Y-75146317D01*
X132078848Y-75146331D01*
X132174976Y-75352478D01*
X132226087Y-75425472D01*
X132905113Y-74746446D01*
X132905113Y-74752661D01*
X132932372Y-74854394D01*
X132985033Y-74945606D01*
X133059507Y-75020080D01*
X133150719Y-75072741D01*
X133252452Y-75100000D01*
X133258666Y-75100000D01*
X132579639Y-75779025D01*
X132652626Y-75830132D01*
X132652634Y-75830136D01*
X132858781Y-75926264D01*
X132858795Y-75926269D01*
X133078502Y-75985139D01*
X133078513Y-75985141D01*
X133305111Y-76004966D01*
X133305115Y-76004966D01*
X133531712Y-75985141D01*
X133531723Y-75985139D01*
X133751430Y-75926269D01*
X133751444Y-75926264D01*
X133957591Y-75830136D01*
X134030584Y-75779024D01*
X133351560Y-75100000D01*
X133357774Y-75100000D01*
X133459507Y-75072741D01*
X133550719Y-75020080D01*
X133625193Y-74945606D01*
X133677854Y-74854394D01*
X133705113Y-74752661D01*
X133705113Y-74746448D01*
X134368294Y-75409629D01*
X134401779Y-75470952D01*
X134404613Y-75497307D01*
X134404613Y-75539362D01*
X134420066Y-75656753D01*
X134420069Y-75656762D01*
X134480577Y-75802841D01*
X134576831Y-75928282D01*
X134702272Y-76024536D01*
X134848351Y-76085044D01*
X134965752Y-76100500D01*
X136644473Y-76100499D01*
X136644476Y-76100499D01*
X136761866Y-76085046D01*
X136761870Y-76085044D01*
X136761875Y-76085044D01*
X136907954Y-76024536D01*
X137033395Y-75928282D01*
X137129649Y-75802841D01*
X137190157Y-75656762D01*
X137205613Y-75539361D01*
X137205612Y-73924499D01*
X137225297Y-73857461D01*
X137278100Y-73811706D01*
X137329612Y-73800500D01*
X141143796Y-73800500D01*
X141210835Y-73820185D01*
X141256590Y-73872989D01*
X141266534Y-73942147D01*
X141237509Y-74005703D01*
X141231477Y-74012181D01*
X140760588Y-74483069D01*
X140760588Y-74483070D01*
X140760586Y-74483072D01*
X140748650Y-74499501D01*
X140658768Y-74623211D01*
X140580128Y-74777552D01*
X140526597Y-74942302D01*
X140499500Y-75113389D01*
X140499500Y-76967526D01*
X140479815Y-77034565D01*
X140427011Y-77080320D01*
X140357853Y-77090264D01*
X140294297Y-77061239D01*
X140273926Y-77038650D01*
X140229025Y-76974526D01*
X139550000Y-77653551D01*
X139550000Y-77647339D01*
X139522741Y-77545606D01*
X139470080Y-77454394D01*
X139395606Y-77379920D01*
X139304394Y-77327259D01*
X139202661Y-77300000D01*
X139196448Y-77300000D01*
X139875472Y-76620974D01*
X139802478Y-76569863D01*
X139596331Y-76473735D01*
X139596317Y-76473730D01*
X139376610Y-76414860D01*
X139376599Y-76414858D01*
X139150002Y-76395034D01*
X139149998Y-76395034D01*
X138923400Y-76414858D01*
X138923389Y-76414860D01*
X138703682Y-76473730D01*
X138703673Y-76473734D01*
X138497516Y-76569866D01*
X138497512Y-76569868D01*
X138424526Y-76620973D01*
X138424526Y-76620974D01*
X139103553Y-77300000D01*
X139097339Y-77300000D01*
X138995606Y-77327259D01*
X138904394Y-77379920D01*
X138829920Y-77454394D01*
X138777259Y-77545606D01*
X138750000Y-77647339D01*
X138750000Y-77653552D01*
X138070974Y-76974526D01*
X138070973Y-76974526D01*
X138019868Y-77047512D01*
X138019866Y-77047516D01*
X137923734Y-77253673D01*
X137923730Y-77253682D01*
X137864860Y-77473389D01*
X137864858Y-77473400D01*
X137845034Y-77699997D01*
X137845034Y-77700002D01*
X137864858Y-77926599D01*
X137864860Y-77926610D01*
X137923730Y-78146317D01*
X137923735Y-78146331D01*
X138019863Y-78352478D01*
X138070974Y-78425472D01*
X138750000Y-77746446D01*
X138750000Y-77752661D01*
X138777259Y-77854394D01*
X138829920Y-77945606D01*
X138904394Y-78020080D01*
X138995606Y-78072741D01*
X139097339Y-78100000D01*
X139103553Y-78100000D01*
X138424526Y-78779025D01*
X138497513Y-78830132D01*
X138497521Y-78830136D01*
X138703668Y-78926264D01*
X138703682Y-78926269D01*
X138923389Y-78985139D01*
X138923400Y-78985141D01*
X139149998Y-79004966D01*
X139150002Y-79004966D01*
X139376599Y-78985141D01*
X139376610Y-78985139D01*
X139596317Y-78926269D01*
X139596331Y-78926264D01*
X139802478Y-78830136D01*
X139875471Y-78779024D01*
X139196447Y-78100000D01*
X139202661Y-78100000D01*
X139304394Y-78072741D01*
X139395606Y-78020080D01*
X139470080Y-77945606D01*
X139522741Y-77854394D01*
X139550000Y-77752661D01*
X139550000Y-77746447D01*
X140229024Y-78425472D01*
X140273926Y-78361348D01*
X140328503Y-78317723D01*
X140398002Y-78310531D01*
X140460356Y-78342054D01*
X140495769Y-78402284D01*
X140499500Y-78432472D01*
X140499500Y-79896610D01*
X140526597Y-80067695D01*
X140527098Y-80069783D01*
X140527057Y-80070600D01*
X140527360Y-80072513D01*
X140526958Y-80072576D01*
X140523603Y-80139565D01*
X140482936Y-80196380D01*
X140418008Y-80222190D01*
X140349433Y-80208800D01*
X140331035Y-80197098D01*
X140302842Y-80175464D01*
X140156762Y-80114956D01*
X140156760Y-80114955D01*
X140039370Y-80099501D01*
X140039367Y-80099500D01*
X140039361Y-80099500D01*
X140039354Y-80099500D01*
X138160636Y-80099500D01*
X138043246Y-80114953D01*
X138043237Y-80114956D01*
X137897160Y-80175463D01*
X137771718Y-80271718D01*
X137675463Y-80397160D01*
X137614956Y-80543237D01*
X137614955Y-80543239D01*
X137599501Y-80660629D01*
X137599500Y-80660645D01*
X137599500Y-81609762D01*
X137585986Y-81666055D01*
X137580127Y-81677552D01*
X137580125Y-81677558D01*
X137526597Y-81842301D01*
X137499538Y-82013147D01*
X137499500Y-82013389D01*
X137499500Y-88264759D01*
X137499500Y-88437981D01*
X137501282Y-88449232D01*
X137512942Y-88522854D01*
X137526598Y-88609071D01*
X137580127Y-88773815D01*
X137658768Y-88928158D01*
X137760586Y-89068298D01*
X138671702Y-89979414D01*
X138811842Y-90081232D01*
X138966184Y-90159873D01*
X139062697Y-90191232D01*
X139096813Y-90202317D01*
X139130928Y-90213402D01*
X139216474Y-90226951D01*
X139302019Y-90240500D01*
X139611198Y-90240500D01*
X139678237Y-90260185D01*
X139687361Y-90266647D01*
X139745819Y-90312147D01*
X139786632Y-90368857D01*
X139790306Y-90438630D01*
X139755674Y-90499313D01*
X139745818Y-90507853D01*
X139568222Y-90646081D01*
X139568219Y-90646084D01*
X139568216Y-90646086D01*
X139568216Y-90646087D01*
X139550706Y-90665108D01*
X139411016Y-90816852D01*
X139284075Y-91011151D01*
X139190842Y-91223699D01*
X139133866Y-91448691D01*
X139133864Y-91448702D01*
X139114700Y-91679993D01*
X139114700Y-91680006D01*
X139133864Y-91911297D01*
X139133866Y-91911308D01*
X139190842Y-92136300D01*
X139284075Y-92348848D01*
X139411016Y-92543147D01*
X139411019Y-92543151D01*
X139411021Y-92543153D01*
X139568216Y-92713913D01*
X139568219Y-92713915D01*
X139568222Y-92713918D01*
X139751365Y-92856464D01*
X139751371Y-92856468D01*
X139751374Y-92856470D01*
X139955497Y-92966936D01*
X140033866Y-92993840D01*
X140175015Y-93042297D01*
X140175017Y-93042297D01*
X140175019Y-93042298D01*
X140403951Y-93080500D01*
X140403952Y-93080500D01*
X140636048Y-93080500D01*
X140636049Y-93080500D01*
X140864981Y-93042298D01*
X141084503Y-92966936D01*
X141272043Y-92865444D01*
X141331058Y-92850500D01*
X142891198Y-92850500D01*
X142958237Y-92870185D01*
X142967360Y-92876647D01*
X143031365Y-92926464D01*
X143031371Y-92926468D01*
X143031374Y-92926470D01*
X143235497Y-93036936D01*
X143324702Y-93067560D01*
X143455015Y-93112297D01*
X143455017Y-93112297D01*
X143455019Y-93112298D01*
X143683951Y-93150500D01*
X143683952Y-93150500D01*
X143916048Y-93150500D01*
X143916049Y-93150500D01*
X144144981Y-93112298D01*
X144146936Y-93111626D01*
X144147782Y-93111588D01*
X144149940Y-93111042D01*
X144150052Y-93111485D01*
X144216731Y-93108473D01*
X144274883Y-93141225D01*
X145666204Y-94532546D01*
X145699689Y-94593869D01*
X145702099Y-94609987D01*
X145703864Y-94631296D01*
X145703866Y-94631308D01*
X145760842Y-94856300D01*
X145854075Y-95068848D01*
X145981016Y-95263147D01*
X145981019Y-95263151D01*
X145981021Y-95263153D01*
X146138216Y-95433913D01*
X146138219Y-95433915D01*
X146138222Y-95433918D01*
X146321365Y-95576464D01*
X146321371Y-95576468D01*
X146321374Y-95576470D01*
X146468482Y-95656081D01*
X146512338Y-95679815D01*
X146525497Y-95686936D01*
X146571827Y-95702841D01*
X146745015Y-95762297D01*
X146745017Y-95762297D01*
X146745019Y-95762298D01*
X146973951Y-95800500D01*
X146973952Y-95800500D01*
X147206048Y-95800500D01*
X147206049Y-95800500D01*
X147434981Y-95762298D01*
X147654503Y-95686936D01*
X147706483Y-95658805D01*
X147774809Y-95644210D01*
X147840181Y-95668872D01*
X147881843Y-95724962D01*
X147889500Y-95767860D01*
X147889500Y-98303389D01*
X147889500Y-98476611D01*
X147897077Y-98524451D01*
X147909349Y-98601936D01*
X147916598Y-98647701D01*
X147970127Y-98812445D01*
X148048768Y-98966788D01*
X148150586Y-99106928D01*
X148150588Y-99106930D01*
X148931477Y-99887819D01*
X148964962Y-99949142D01*
X148959978Y-100018834D01*
X148918106Y-100074767D01*
X148852642Y-100099184D01*
X148843796Y-100099500D01*
X147769946Y-100099500D01*
X147702907Y-100079815D01*
X147682265Y-100063181D01*
X143579672Y-95960588D01*
X143579670Y-95960586D01*
X143439530Y-95858768D01*
X143285187Y-95780127D01*
X143120443Y-95726598D01*
X143120441Y-95726597D01*
X143120440Y-95726597D01*
X142970447Y-95702841D01*
X142949353Y-95699500D01*
X142949352Y-95699500D01*
X138249946Y-95699500D01*
X138182907Y-95679815D01*
X138162265Y-95663181D01*
X135936819Y-93437735D01*
X135903334Y-93376412D01*
X135900500Y-93350054D01*
X135900500Y-88266383D01*
X135896175Y-88239078D01*
X135873402Y-88095293D01*
X135819873Y-87930549D01*
X135741232Y-87776206D01*
X135639414Y-87636066D01*
X135516928Y-87513580D01*
X134336818Y-86333470D01*
X134303333Y-86272147D01*
X134300499Y-86245789D01*
X134300499Y-85760636D01*
X134285046Y-85643246D01*
X134285044Y-85643239D01*
X134285044Y-85643238D01*
X134224536Y-85497159D01*
X134128282Y-85371718D01*
X134128280Y-85371717D01*
X134128280Y-85371716D01*
X134049014Y-85310894D01*
X134007811Y-85254466D01*
X134000500Y-85212518D01*
X134000500Y-83803389D01*
X133992337Y-83751852D01*
X133973402Y-83632299D01*
X133955260Y-83576464D01*
X133949510Y-83558767D01*
X133919874Y-83467556D01*
X133919873Y-83467553D01*
X133859309Y-83348691D01*
X133841232Y-83313212D01*
X133739414Y-83173072D01*
X133054022Y-82487680D01*
X133020537Y-82426357D01*
X133025521Y-82356665D01*
X133054018Y-82312323D01*
X133829523Y-81536817D01*
X133890846Y-81503333D01*
X133917204Y-81500499D01*
X134439363Y-81500499D01*
X134556753Y-81485046D01*
X134556757Y-81485044D01*
X134556762Y-81485044D01*
X134702841Y-81424536D01*
X134828282Y-81328282D01*
X134924536Y-81202841D01*
X134985044Y-81056762D01*
X135000500Y-80939361D01*
X135000499Y-79060640D01*
X135000499Y-79060639D01*
X135000499Y-79060636D01*
X134985046Y-78943246D01*
X134985044Y-78943239D01*
X134985044Y-78943238D01*
X134924536Y-78797159D01*
X134828282Y-78671718D01*
X134702841Y-78575464D01*
X134556762Y-78514956D01*
X134556760Y-78514955D01*
X134439370Y-78499501D01*
X134439367Y-78499500D01*
X134439361Y-78499500D01*
X134439354Y-78499500D01*
X132560636Y-78499500D01*
X132443246Y-78514953D01*
X132443237Y-78514956D01*
X132297160Y-78575463D01*
X132171718Y-78671718D01*
X132075463Y-78797160D01*
X132014956Y-78943237D01*
X132014955Y-78943239D01*
X132006829Y-79004966D01*
X131999501Y-79060636D01*
X131999500Y-79060645D01*
X131999500Y-80202795D01*
X131979815Y-80269834D01*
X131963181Y-80290476D01*
X131274276Y-80979380D01*
X131212953Y-81012865D01*
X131207005Y-81014008D01*
X131065016Y-81037702D01*
X130845504Y-81113061D01*
X130845495Y-81113064D01*
X130641371Y-81223531D01*
X130641365Y-81223535D01*
X130458222Y-81366081D01*
X130458219Y-81366084D01*
X130458216Y-81366086D01*
X130458216Y-81366087D01*
X130444215Y-81381296D01*
X130301016Y-81536852D01*
X130174075Y-81731151D01*
X130080842Y-81943699D01*
X130023866Y-82168691D01*
X130023864Y-82168702D01*
X130004700Y-82399993D01*
X130004700Y-82400006D01*
X130023864Y-82631297D01*
X130023866Y-82631308D01*
X130080842Y-82856300D01*
X130174075Y-83068848D01*
X130301016Y-83263147D01*
X130301019Y-83263151D01*
X130301021Y-83263153D01*
X130458216Y-83433913D01*
X130458219Y-83433915D01*
X130458222Y-83433918D01*
X130641365Y-83576464D01*
X130641371Y-83576468D01*
X130641374Y-83576470D01*
X130845497Y-83686936D01*
X131065019Y-83762298D01*
X131207006Y-83785990D01*
X131269889Y-83816440D01*
X131274276Y-83820618D01*
X131763181Y-84309523D01*
X131796666Y-84370846D01*
X131799500Y-84397204D01*
X131799500Y-85212518D01*
X131779815Y-85279557D01*
X131750986Y-85310894D01*
X131671719Y-85371716D01*
X131575463Y-85497160D01*
X131514956Y-85643237D01*
X131514955Y-85643239D01*
X131499501Y-85760629D01*
X131499501Y-85760636D01*
X131499500Y-85760645D01*
X131499500Y-87439363D01*
X131514953Y-87556753D01*
X131514956Y-87556762D01*
X131550966Y-87643699D01*
X131575464Y-87702841D01*
X131671718Y-87828282D01*
X131671720Y-87828283D01*
X131676666Y-87834729D01*
X131675511Y-87835614D01*
X131704740Y-87889142D01*
X131699756Y-87958834D01*
X131657884Y-88014767D01*
X131592420Y-88039184D01*
X131583574Y-88039500D01*
X131324437Y-88039500D01*
X131257398Y-88019815D01*
X131211643Y-87967011D01*
X131200861Y-87925742D01*
X131196134Y-87868695D01*
X131187533Y-87834729D01*
X131139157Y-87643699D01*
X131045924Y-87431151D01*
X130930691Y-87254772D01*
X130910503Y-87187883D01*
X130910500Y-87186951D01*
X130910500Y-85923389D01*
X130904758Y-85887133D01*
X130883402Y-85752299D01*
X130829873Y-85587555D01*
X130751232Y-85433212D01*
X130649414Y-85293072D01*
X130526928Y-85170586D01*
X126916928Y-81560586D01*
X126776788Y-81458768D01*
X126622445Y-81380127D01*
X126457701Y-81326598D01*
X126457699Y-81326597D01*
X126457698Y-81326597D01*
X126326271Y-81305781D01*
X126286611Y-81299500D01*
X126286610Y-81299500D01*
X124698802Y-81299500D01*
X124631763Y-81279815D01*
X124622640Y-81273353D01*
X124558634Y-81223535D01*
X124558628Y-81223531D01*
X124354504Y-81113064D01*
X124354495Y-81113061D01*
X124134984Y-81037702D01*
X123963282Y-81009050D01*
X123906049Y-80999500D01*
X123673951Y-80999500D01*
X123628164Y-81007140D01*
X123445015Y-81037702D01*
X123225504Y-81113061D01*
X123225495Y-81113064D01*
X123021371Y-81223531D01*
X123021365Y-81223535D01*
X122838222Y-81366081D01*
X122838219Y-81366084D01*
X122838216Y-81366086D01*
X122838216Y-81366087D01*
X122824215Y-81381296D01*
X122681016Y-81536852D01*
X122554075Y-81731151D01*
X122460842Y-81943699D01*
X122403866Y-82168691D01*
X122403864Y-82168702D01*
X122384700Y-82399993D01*
X122384700Y-82400006D01*
X122403864Y-82631297D01*
X122403866Y-82631308D01*
X122460842Y-82856300D01*
X122554075Y-83068848D01*
X122681016Y-83263147D01*
X122681019Y-83263151D01*
X122681021Y-83263153D01*
X122838216Y-83433913D01*
X122838219Y-83433915D01*
X122838222Y-83433918D01*
X123021365Y-83576464D01*
X123021371Y-83576468D01*
X123021374Y-83576470D01*
X123225497Y-83686936D01*
X123339487Y-83726068D01*
X123445015Y-83762297D01*
X123445017Y-83762297D01*
X123445019Y-83762298D01*
X123673951Y-83800500D01*
X123673952Y-83800500D01*
X123906048Y-83800500D01*
X123906049Y-83800500D01*
X124134981Y-83762298D01*
X124354503Y-83686936D01*
X124558626Y-83576470D01*
X124558634Y-83576464D01*
X124622640Y-83526647D01*
X124687634Y-83501004D01*
X124698802Y-83500500D01*
X125692796Y-83500500D01*
X125759835Y-83520185D01*
X125780477Y-83536819D01*
X128673181Y-86429523D01*
X128706666Y-86490846D01*
X128709500Y-86517204D01*
X128709500Y-87186951D01*
X128689815Y-87253990D01*
X128689309Y-87254772D01*
X128574075Y-87431151D01*
X128480842Y-87643699D01*
X128423866Y-87868691D01*
X128423864Y-87868702D01*
X128404700Y-88099993D01*
X128404700Y-88100006D01*
X128423864Y-88331297D01*
X128423866Y-88331308D01*
X128480842Y-88556300D01*
X128574075Y-88768848D01*
X128701018Y-88963150D01*
X128736730Y-89001943D01*
X128767652Y-89064598D01*
X128769500Y-89085926D01*
X128769500Y-89226610D01*
X128790431Y-89358768D01*
X128796598Y-89397701D01*
X128850127Y-89562445D01*
X128928768Y-89716788D01*
X129030586Y-89856928D01*
X129153072Y-89979414D01*
X129293212Y-90081232D01*
X129447555Y-90159873D01*
X129612299Y-90213402D01*
X129783389Y-90240500D01*
X131991198Y-90240500D01*
X132058237Y-90260185D01*
X132067361Y-90266647D01*
X132125819Y-90312147D01*
X132166632Y-90368857D01*
X132170306Y-90438630D01*
X132135674Y-90499313D01*
X132125819Y-90507853D01*
X132067361Y-90553353D01*
X132002367Y-90578996D01*
X131991198Y-90579500D01*
X131516610Y-90579500D01*
X131343389Y-90579500D01*
X131281426Y-90589314D01*
X131172298Y-90606598D01*
X131007549Y-90660128D01*
X130853211Y-90738768D01*
X130812424Y-90768402D01*
X130713072Y-90840586D01*
X130713070Y-90840588D01*
X130713069Y-90840588D01*
X129574276Y-91979380D01*
X129512953Y-92012865D01*
X129507005Y-92014008D01*
X129365016Y-92037702D01*
X129204580Y-92092781D01*
X129164317Y-92099500D01*
X128276610Y-92099500D01*
X128103389Y-92099500D01*
X128023741Y-92112115D01*
X127932298Y-92126598D01*
X127767549Y-92180128D01*
X127613211Y-92258768D01*
X127548420Y-92305842D01*
X127473072Y-92360586D01*
X127473070Y-92360588D01*
X127473069Y-92360588D01*
X124564276Y-95269380D01*
X124502953Y-95302865D01*
X124497005Y-95304008D01*
X124355016Y-95327702D01*
X124135504Y-95403061D01*
X124135495Y-95403064D01*
X123931371Y-95513531D01*
X123931365Y-95513535D01*
X123748222Y-95656081D01*
X123748219Y-95656084D01*
X123591016Y-95826852D01*
X123464075Y-96021151D01*
X123370842Y-96233699D01*
X123313866Y-96458691D01*
X123313864Y-96458702D01*
X123294700Y-96689993D01*
X123294700Y-96690006D01*
X123313864Y-96921297D01*
X123313866Y-96921308D01*
X123363874Y-97118782D01*
X123361249Y-97188602D01*
X123321293Y-97245920D01*
X123256691Y-97272536D01*
X123187955Y-97260002D01*
X123155987Y-97236903D01*
X120036819Y-94117735D01*
X120003334Y-94056412D01*
X120000500Y-94030054D01*
X120000500Y-93149999D01*
X120811127Y-93149999D01*
X120811128Y-93150000D01*
X121774314Y-93150000D01*
X121769920Y-93154394D01*
X121717259Y-93245606D01*
X121690000Y-93347339D01*
X121690000Y-93452661D01*
X121717259Y-93554394D01*
X121769920Y-93645606D01*
X121774314Y-93650000D01*
X120811128Y-93650000D01*
X120863730Y-93846317D01*
X120863734Y-93846326D01*
X120959865Y-94052482D01*
X121090342Y-94238820D01*
X121251179Y-94399657D01*
X121437517Y-94530134D01*
X121643673Y-94626265D01*
X121643682Y-94626269D01*
X121839999Y-94678872D01*
X121840000Y-94678871D01*
X121840000Y-93715686D01*
X121844394Y-93720080D01*
X121935606Y-93772741D01*
X122037339Y-93800000D01*
X122142661Y-93800000D01*
X122244394Y-93772741D01*
X122335606Y-93720080D01*
X122340000Y-93715686D01*
X122340000Y-94678872D01*
X122536317Y-94626269D01*
X122536326Y-94626265D01*
X122742482Y-94530134D01*
X122928820Y-94399657D01*
X123089657Y-94238820D01*
X123220134Y-94052482D01*
X123316265Y-93846326D01*
X123316269Y-93846317D01*
X123368872Y-93650000D01*
X122405686Y-93650000D01*
X122410080Y-93645606D01*
X122462741Y-93554394D01*
X122490000Y-93452661D01*
X122490000Y-93347339D01*
X122462741Y-93245606D01*
X122410080Y-93154394D01*
X122405686Y-93150000D01*
X123368872Y-93150000D01*
X123368872Y-93149999D01*
X123316269Y-92953682D01*
X123316265Y-92953673D01*
X123220134Y-92747517D01*
X123089657Y-92561179D01*
X122928820Y-92400342D01*
X122742482Y-92269865D01*
X122536328Y-92173734D01*
X122340000Y-92121127D01*
X122340000Y-93084314D01*
X122335606Y-93079920D01*
X122244394Y-93027259D01*
X122142661Y-93000000D01*
X122037339Y-93000000D01*
X121935606Y-93027259D01*
X121844394Y-93079920D01*
X121840000Y-93084314D01*
X121840000Y-92121127D01*
X121643671Y-92173734D01*
X121437517Y-92269865D01*
X121251179Y-92400342D01*
X121090342Y-92561179D01*
X120959865Y-92747517D01*
X120863734Y-92953673D01*
X120863730Y-92953682D01*
X120811127Y-93149999D01*
X120000500Y-93149999D01*
X120000500Y-92357204D01*
X120020185Y-92290165D01*
X120036819Y-92269523D01*
X120869523Y-91436819D01*
X120930846Y-91403334D01*
X120957204Y-91400500D01*
X123863616Y-91400500D01*
X123863617Y-91400500D01*
X124034707Y-91373402D01*
X124199451Y-91319873D01*
X124353794Y-91241232D01*
X124493934Y-91139414D01*
X124929414Y-90703934D01*
X125031232Y-90563794D01*
X125109873Y-90409452D01*
X125163402Y-90244707D01*
X125190500Y-90073617D01*
X125190500Y-89900396D01*
X125190500Y-87003389D01*
X125163402Y-86832299D01*
X125140101Y-86760587D01*
X125140101Y-86760586D01*
X125109874Y-86667556D01*
X125109873Y-86667553D01*
X125031231Y-86513211D01*
X125014982Y-86490846D01*
X124929414Y-86373072D01*
X123666928Y-85110586D01*
X123526788Y-85008768D01*
X123372445Y-84930127D01*
X123207701Y-84876598D01*
X123207699Y-84876597D01*
X123207698Y-84876597D01*
X123076271Y-84855781D01*
X123036611Y-84849500D01*
X123036610Y-84849500D01*
X120524500Y-84849500D01*
X120457461Y-84829815D01*
X120411706Y-84777011D01*
X120400500Y-84725500D01*
X120400500Y-81607204D01*
X120420185Y-81540165D01*
X120436819Y-81519523D01*
X130819523Y-71136819D01*
X130880846Y-71103334D01*
X130907204Y-71100500D01*
X140516610Y-71100500D01*
X140516611Y-71100500D01*
X140687701Y-71073402D01*
X140852445Y-71019873D01*
X141006788Y-70941232D01*
X141146928Y-70839414D01*
X142500814Y-69485526D01*
X142562135Y-69452043D01*
X142607301Y-69451837D01*
X142607445Y-69450794D01*
X142611641Y-69451370D01*
X142611642Y-69451371D01*
X142745761Y-69469805D01*
X142896321Y-69490500D01*
X142896322Y-69490500D01*
X143183679Y-69490500D01*
X143219851Y-69485528D01*
X143468358Y-69451371D01*
X143745058Y-69373844D01*
X143858015Y-69324779D01*
X144008617Y-69259365D01*
X144008620Y-69259363D01*
X144008625Y-69259361D01*
X144254147Y-69110055D01*
X144477053Y-68928708D01*
X144673189Y-68718698D01*
X144838901Y-68483936D01*
X144971104Y-68228797D01*
X145067334Y-67958032D01*
X145125798Y-67676686D01*
X145145408Y-67390000D01*
X145125798Y-67103314D01*
X145067334Y-66821968D01*
X144971105Y-66551206D01*
X144971106Y-66551206D01*
X144838901Y-66296064D01*
X144673187Y-66061299D01*
X144594554Y-65977105D01*
X144477053Y-65851292D01*
X144254147Y-65669945D01*
X144254146Y-65669944D01*
X144008617Y-65520634D01*
X143745063Y-65406158D01*
X143745061Y-65406157D01*
X143745058Y-65406156D01*
X143615578Y-65369877D01*
X143468364Y-65328630D01*
X143468359Y-65328629D01*
X143468358Y-65328629D01*
X143326018Y-65309064D01*
X143183679Y-65289500D01*
X143183678Y-65289500D01*
X142896322Y-65289500D01*
X142896321Y-65289500D01*
X142611642Y-65328629D01*
X142611635Y-65328630D01*
X142403861Y-65386845D01*
X142334942Y-65406156D01*
X142334939Y-65406156D01*
X142334936Y-65406158D01*
X142334935Y-65406158D01*
X142071382Y-65520634D01*
X141825853Y-65669944D01*
X141602950Y-65851289D01*
X141406812Y-66061299D01*
X141241098Y-66296064D01*
X141108894Y-66551206D01*
X141012667Y-66821962D01*
X141012666Y-66821965D01*
X140954201Y-67103319D01*
X140934592Y-67390000D01*
X140954201Y-67676680D01*
X140954201Y-67676684D01*
X140954202Y-67676686D01*
X140982346Y-67812127D01*
X140976713Y-67881768D01*
X140948621Y-67925035D01*
X140010477Y-68863181D01*
X139949154Y-68896666D01*
X139922796Y-68899500D01*
X139704875Y-68899500D01*
X139637836Y-68879815D01*
X139592081Y-68827011D01*
X139582137Y-68757853D01*
X139603570Y-68703992D01*
X139663341Y-68619314D01*
X139758901Y-68483936D01*
X139891104Y-68228797D01*
X139987334Y-67958032D01*
X140045798Y-67676686D01*
X140065408Y-67390000D01*
X140045798Y-67103314D01*
X139987334Y-66821968D01*
X139891105Y-66551206D01*
X139891106Y-66551206D01*
X139758901Y-66296064D01*
X139593187Y-66061299D01*
X139514554Y-65977105D01*
X139397053Y-65851292D01*
X139174147Y-65669945D01*
X139174146Y-65669944D01*
X138928617Y-65520634D01*
X138665063Y-65406158D01*
X138665061Y-65406157D01*
X138665058Y-65406156D01*
X138535578Y-65369877D01*
X138388364Y-65328630D01*
X138388359Y-65328629D01*
X138388358Y-65328629D01*
X138246018Y-65309064D01*
X138103679Y-65289500D01*
X138103678Y-65289500D01*
X137816322Y-65289500D01*
X137816321Y-65289500D01*
X137717346Y-65303104D01*
X137531642Y-65328629D01*
X137531640Y-65328629D01*
X137527446Y-65329206D01*
X137527236Y-65327679D01*
X137464052Y-65322552D01*
X137420813Y-65294471D01*
X136538523Y-64412181D01*
X136505038Y-64350858D01*
X136510022Y-64281166D01*
X136551894Y-64225233D01*
X136617358Y-64200816D01*
X136626204Y-64200500D01*
X143322796Y-64200500D01*
X143389835Y-64220185D01*
G37*
%TD.AperFunction*%
%TA.AperFunction,Conductor*%
G36*
X156223802Y-72820185D02*
G01*
X156269557Y-72872989D01*
X156279501Y-72942147D01*
X156255139Y-72999986D01*
X156180576Y-73097157D01*
X156120068Y-73243237D01*
X156120067Y-73243239D01*
X156104613Y-73360629D01*
X156104613Y-73360636D01*
X156104612Y-73360645D01*
X156104612Y-73402690D01*
X156084927Y-73469729D01*
X156068293Y-73490371D01*
X155405112Y-74153552D01*
X155405112Y-74147339D01*
X155377853Y-74045606D01*
X155325192Y-73954394D01*
X155250718Y-73879920D01*
X155159506Y-73827259D01*
X155057773Y-73800000D01*
X155051560Y-73800000D01*
X155730584Y-73120974D01*
X155657592Y-73069864D01*
X155586861Y-73036882D01*
X155534422Y-72990710D01*
X155515270Y-72923516D01*
X155535486Y-72856635D01*
X155588651Y-72811301D01*
X155639266Y-72800500D01*
X156156763Y-72800500D01*
X156223802Y-72820185D01*
G37*
%TD.AperFunction*%
%TD*%
M02*
