M48
; DRILL file {KiCad 8.0.4} date 2024-11-15T10:11:08-0300
; FORMAT={-:-/ absolute / inch / decimal}
; #@! TF.CreationDate,2024-11-15T10:11:08-03:00
; #@! TF.GenerationSoftware,Kicad,Pcbnew,8.0.4
; #@! TF.FileFunction,Plated,1,2,PTH
FMAT,2
INCH
; #@! TA.AperFunction,Plated,PTH,ComponentDrill
T1C0.0315
; #@! TA.AperFunction,Plated,PTH,ComponentDrill
T2C0.0394
; #@! TA.AperFunction,Plated,PTH,ComponentDrill
T3C0.0472
; #@! TA.AperFunction,Plated,PTH,ComponentDrill
T4C0.0512
; #@! TA.AperFunction,Plated,PTH,ComponentDrill
T5C0.0598
%
G90
G05
T1
X4.8067Y-3.6772
X4.8106Y-3.4685
X4.8736Y-3.2441
X4.9094Y-3.8067
X4.9094Y-4.1067
X4.9563Y-4.2559
X4.9602Y-4.4941
X5.0669Y-3.8067
X5.0669Y-4.1067
X5.1067Y-3.6772
X5.1106Y-3.4685
X5.1736Y-3.2441
X5.2323Y-3.4094
X5.2323Y-3.5094
X5.2323Y-3.6094
X5.2323Y-3.7094
X5.2482Y-2.9409
X5.2563Y-4.2559
X5.2594Y-3.9488
X5.2602Y-4.4941
X5.3467Y-2.9409
X5.4783Y-3.0591
X5.5323Y-3.4094
X5.5323Y-3.5094
X5.5323Y-3.6094
X5.5323Y-3.7094
X5.5594Y-3.9488
X5.6276Y-3.1949
X5.6492Y-3.3268
X5.6614Y-3.5138
X5.6614Y-3.6122
X5.6693Y-3.0591
X5.7677Y-2.8622
X5.7677Y-3.0591
X5.7909Y-3.7165
X5.7949Y-3.4843
X5.9276Y-3.1949
X5.9409Y-2.8583
X5.9409Y-3.0551
X5.9492Y-3.3268
X6.0909Y-3.7165
X6.0949Y-3.4843
X6.1026Y-2.9213
X6.201Y-2.9213
X6.2165Y-3.2906
X6.2165Y-3.5906
X6.4541Y-3.2313
X6.4541Y-3.3313
X6.4541Y-3.4313
X6.4541Y-3.5313
X6.4541Y-3.6313
X6.4541Y-3.7313
X6.4541Y-3.8313
X6.5748Y-3.9843
X6.7541Y-3.2313
X6.7541Y-3.3313
X6.7541Y-3.4313
X6.7541Y-3.5313
X6.7541Y-3.6313
X6.7541Y-3.7313
X6.7541Y-3.8313
X6.7795Y-3.9843
T2
X4.7362Y-4.1181
X5.2559Y-3.1496
X5.3803Y-4.1063
X5.4764Y-3.2126
X5.4803Y-4.1063
X5.5803Y-4.1063
X6.2087Y-3.7205
X6.5079Y-2.9921
T3
X5.7224Y-4.2244
X6.2224Y-4.2244
T4
X5.7953Y-4.4331
X5.9921Y-4.4331
X6.189Y-4.4331
T5
X5.2315Y-2.6531
X5.4315Y-2.6531
X5.6315Y-2.6531
X5.8315Y-2.6531
X6.0315Y-2.6531
X6.2315Y-2.6531
M30
