%TF.GenerationSoftware,KiCad,Pcbnew,8.0.5*%
%TF.CreationDate,2024-10-01T13:09:18-03:00*%
%TF.ProjectId,dce-pcb-v1,6463652d-7063-4622-9d76-312e6b696361,rev?*%
%TF.SameCoordinates,Original*%
%TF.FileFunction,Legend,Top*%
%TF.FilePolarity,Positive*%
%FSLAX46Y46*%
G04 Gerber Fmt 4.6, Leading zero omitted, Abs format (unit mm)*
G04 Created by KiCad (PCBNEW 8.0.5) date 2024-10-01 13:09:18*
%MOMM*%
%LPD*%
G01*
G04 APERTURE LIST*
%ADD10C,0.175000*%
%ADD11C,0.125000*%
%ADD12C,0.150000*%
%ADD13C,0.120000*%
G04 APERTURE END LIST*
D10*
X187763702Y-48566092D02*
X187720845Y-48608950D01*
X187720845Y-48608950D02*
X187592273Y-48651807D01*
X187592273Y-48651807D02*
X187506559Y-48651807D01*
X187506559Y-48651807D02*
X187377988Y-48608950D01*
X187377988Y-48608950D02*
X187292273Y-48523235D01*
X187292273Y-48523235D02*
X187249416Y-48437521D01*
X187249416Y-48437521D02*
X187206559Y-48266092D01*
X187206559Y-48266092D02*
X187206559Y-48137521D01*
X187206559Y-48137521D02*
X187249416Y-47966092D01*
X187249416Y-47966092D02*
X187292273Y-47880378D01*
X187292273Y-47880378D02*
X187377988Y-47794664D01*
X187377988Y-47794664D02*
X187506559Y-47751807D01*
X187506559Y-47751807D02*
X187592273Y-47751807D01*
X187592273Y-47751807D02*
X187720845Y-47794664D01*
X187720845Y-47794664D02*
X187763702Y-47837521D01*
X188149416Y-48651807D02*
X188149416Y-48051807D01*
X188149416Y-47751807D02*
X188106559Y-47794664D01*
X188106559Y-47794664D02*
X188149416Y-47837521D01*
X188149416Y-47837521D02*
X188192273Y-47794664D01*
X188192273Y-47794664D02*
X188149416Y-47751807D01*
X188149416Y-47751807D02*
X188149416Y-47837521D01*
X188577987Y-48651807D02*
X188577987Y-48051807D01*
X188577987Y-48223235D02*
X188620844Y-48137521D01*
X188620844Y-48137521D02*
X188663702Y-48094664D01*
X188663702Y-48094664D02*
X188749416Y-48051807D01*
X188749416Y-48051807D02*
X188835130Y-48051807D01*
X189520845Y-48608950D02*
X189435130Y-48651807D01*
X189435130Y-48651807D02*
X189263702Y-48651807D01*
X189263702Y-48651807D02*
X189177987Y-48608950D01*
X189177987Y-48608950D02*
X189135130Y-48566092D01*
X189135130Y-48566092D02*
X189092273Y-48480378D01*
X189092273Y-48480378D02*
X189092273Y-48223235D01*
X189092273Y-48223235D02*
X189135130Y-48137521D01*
X189135130Y-48137521D02*
X189177987Y-48094664D01*
X189177987Y-48094664D02*
X189263702Y-48051807D01*
X189263702Y-48051807D02*
X189435130Y-48051807D01*
X189435130Y-48051807D02*
X189520845Y-48094664D01*
X190292274Y-48051807D02*
X190292274Y-48651807D01*
X189906559Y-48051807D02*
X189906559Y-48523235D01*
X189906559Y-48523235D02*
X189949416Y-48608950D01*
X189949416Y-48608950D02*
X190035131Y-48651807D01*
X190035131Y-48651807D02*
X190163702Y-48651807D01*
X190163702Y-48651807D02*
X190249416Y-48608950D01*
X190249416Y-48608950D02*
X190292274Y-48566092D01*
X190720845Y-48651807D02*
X190720845Y-48051807D01*
X190720845Y-47751807D02*
X190677988Y-47794664D01*
X190677988Y-47794664D02*
X190720845Y-47837521D01*
X190720845Y-47837521D02*
X190763702Y-47794664D01*
X190763702Y-47794664D02*
X190720845Y-47751807D01*
X190720845Y-47751807D02*
X190720845Y-47837521D01*
X191020845Y-48051807D02*
X191363702Y-48051807D01*
X191149416Y-47751807D02*
X191149416Y-48523235D01*
X191149416Y-48523235D02*
X191192273Y-48608950D01*
X191192273Y-48608950D02*
X191277988Y-48651807D01*
X191277988Y-48651807D02*
X191363702Y-48651807D01*
X191792274Y-48651807D02*
X191706559Y-48608950D01*
X191706559Y-48608950D02*
X191663702Y-48566092D01*
X191663702Y-48566092D02*
X191620845Y-48480378D01*
X191620845Y-48480378D02*
X191620845Y-48223235D01*
X191620845Y-48223235D02*
X191663702Y-48137521D01*
X191663702Y-48137521D02*
X191706559Y-48094664D01*
X191706559Y-48094664D02*
X191792274Y-48051807D01*
X191792274Y-48051807D02*
X191920845Y-48051807D01*
X191920845Y-48051807D02*
X192006559Y-48094664D01*
X192006559Y-48094664D02*
X192049417Y-48137521D01*
X192049417Y-48137521D02*
X192092274Y-48223235D01*
X192092274Y-48223235D02*
X192092274Y-48480378D01*
X192092274Y-48480378D02*
X192049417Y-48566092D01*
X192049417Y-48566092D02*
X192006559Y-48608950D01*
X192006559Y-48608950D02*
X191920845Y-48651807D01*
X191920845Y-48651807D02*
X191792274Y-48651807D01*
X193592274Y-48651807D02*
X193163702Y-48651807D01*
X193163702Y-48651807D02*
X193163702Y-47751807D01*
X193892273Y-48651807D02*
X193892273Y-47751807D01*
X193892273Y-47751807D02*
X194106559Y-47751807D01*
X194106559Y-47751807D02*
X194235130Y-47794664D01*
X194235130Y-47794664D02*
X194320845Y-47880378D01*
X194320845Y-47880378D02*
X194363702Y-47966092D01*
X194363702Y-47966092D02*
X194406559Y-48137521D01*
X194406559Y-48137521D02*
X194406559Y-48266092D01*
X194406559Y-48266092D02*
X194363702Y-48437521D01*
X194363702Y-48437521D02*
X194320845Y-48523235D01*
X194320845Y-48523235D02*
X194235130Y-48608950D01*
X194235130Y-48608950D02*
X194106559Y-48651807D01*
X194106559Y-48651807D02*
X193892273Y-48651807D01*
X194963702Y-47751807D02*
X195135130Y-47751807D01*
X195135130Y-47751807D02*
X195220845Y-47794664D01*
X195220845Y-47794664D02*
X195306559Y-47880378D01*
X195306559Y-47880378D02*
X195349416Y-48051807D01*
X195349416Y-48051807D02*
X195349416Y-48351807D01*
X195349416Y-48351807D02*
X195306559Y-48523235D01*
X195306559Y-48523235D02*
X195220845Y-48608950D01*
X195220845Y-48608950D02*
X195135130Y-48651807D01*
X195135130Y-48651807D02*
X194963702Y-48651807D01*
X194963702Y-48651807D02*
X194877988Y-48608950D01*
X194877988Y-48608950D02*
X194792273Y-48523235D01*
X194792273Y-48523235D02*
X194749416Y-48351807D01*
X194749416Y-48351807D02*
X194749416Y-48051807D01*
X194749416Y-48051807D02*
X194792273Y-47880378D01*
X194792273Y-47880378D02*
X194877988Y-47794664D01*
X194877988Y-47794664D02*
X194963702Y-47751807D01*
X196335130Y-47751807D02*
X196892273Y-47751807D01*
X196892273Y-47751807D02*
X196592273Y-48094664D01*
X196592273Y-48094664D02*
X196720844Y-48094664D01*
X196720844Y-48094664D02*
X196806559Y-48137521D01*
X196806559Y-48137521D02*
X196849416Y-48180378D01*
X196849416Y-48180378D02*
X196892273Y-48266092D01*
X196892273Y-48266092D02*
X196892273Y-48480378D01*
X196892273Y-48480378D02*
X196849416Y-48566092D01*
X196849416Y-48566092D02*
X196806559Y-48608950D01*
X196806559Y-48608950D02*
X196720844Y-48651807D01*
X196720844Y-48651807D02*
X196463701Y-48651807D01*
X196463701Y-48651807D02*
X196377987Y-48608950D01*
X196377987Y-48608950D02*
X196335130Y-48566092D01*
X197277987Y-48566092D02*
X197320844Y-48608950D01*
X197320844Y-48608950D02*
X197277987Y-48651807D01*
X197277987Y-48651807D02*
X197235130Y-48608950D01*
X197235130Y-48608950D02*
X197277987Y-48566092D01*
X197277987Y-48566092D02*
X197277987Y-48651807D01*
X197620844Y-47751807D02*
X198177987Y-47751807D01*
X198177987Y-47751807D02*
X197877987Y-48094664D01*
X197877987Y-48094664D02*
X198006558Y-48094664D01*
X198006558Y-48094664D02*
X198092273Y-48137521D01*
X198092273Y-48137521D02*
X198135130Y-48180378D01*
X198135130Y-48180378D02*
X198177987Y-48266092D01*
X198177987Y-48266092D02*
X198177987Y-48480378D01*
X198177987Y-48480378D02*
X198135130Y-48566092D01*
X198135130Y-48566092D02*
X198092273Y-48608950D01*
X198092273Y-48608950D02*
X198006558Y-48651807D01*
X198006558Y-48651807D02*
X197749415Y-48651807D01*
X197749415Y-48651807D02*
X197663701Y-48608950D01*
X197663701Y-48608950D02*
X197620844Y-48566092D01*
X198435130Y-47751807D02*
X198735130Y-48651807D01*
X198735130Y-48651807D02*
X199035130Y-47751807D01*
X199977987Y-47708950D02*
X199206559Y-48866092D01*
X200706559Y-47751807D02*
X200277987Y-47751807D01*
X200277987Y-47751807D02*
X200235130Y-48180378D01*
X200235130Y-48180378D02*
X200277987Y-48137521D01*
X200277987Y-48137521D02*
X200363702Y-48094664D01*
X200363702Y-48094664D02*
X200577987Y-48094664D01*
X200577987Y-48094664D02*
X200663702Y-48137521D01*
X200663702Y-48137521D02*
X200706559Y-48180378D01*
X200706559Y-48180378D02*
X200749416Y-48266092D01*
X200749416Y-48266092D02*
X200749416Y-48480378D01*
X200749416Y-48480378D02*
X200706559Y-48566092D01*
X200706559Y-48566092D02*
X200663702Y-48608950D01*
X200663702Y-48608950D02*
X200577987Y-48651807D01*
X200577987Y-48651807D02*
X200363702Y-48651807D01*
X200363702Y-48651807D02*
X200277987Y-48608950D01*
X200277987Y-48608950D02*
X200235130Y-48566092D01*
X201006559Y-47751807D02*
X201306559Y-48651807D01*
X201306559Y-48651807D02*
X201606559Y-47751807D01*
X187720845Y-49243614D02*
X187635131Y-49200757D01*
X187635131Y-49200757D02*
X187506559Y-49200757D01*
X187506559Y-49200757D02*
X187377988Y-49243614D01*
X187377988Y-49243614D02*
X187292273Y-49329328D01*
X187292273Y-49329328D02*
X187249416Y-49415042D01*
X187249416Y-49415042D02*
X187206559Y-49586471D01*
X187206559Y-49586471D02*
X187206559Y-49715042D01*
X187206559Y-49715042D02*
X187249416Y-49886471D01*
X187249416Y-49886471D02*
X187292273Y-49972185D01*
X187292273Y-49972185D02*
X187377988Y-50057900D01*
X187377988Y-50057900D02*
X187506559Y-50100757D01*
X187506559Y-50100757D02*
X187592273Y-50100757D01*
X187592273Y-50100757D02*
X187720845Y-50057900D01*
X187720845Y-50057900D02*
X187763702Y-50015042D01*
X187763702Y-50015042D02*
X187763702Y-49715042D01*
X187763702Y-49715042D02*
X187592273Y-49715042D01*
X188149416Y-50100757D02*
X188149416Y-49500757D01*
X188149416Y-49672185D02*
X188192273Y-49586471D01*
X188192273Y-49586471D02*
X188235131Y-49543614D01*
X188235131Y-49543614D02*
X188320845Y-49500757D01*
X188320845Y-49500757D02*
X188406559Y-49500757D01*
X189092274Y-49500757D02*
X189092274Y-50100757D01*
X188706559Y-49500757D02*
X188706559Y-49972185D01*
X188706559Y-49972185D02*
X188749416Y-50057900D01*
X188749416Y-50057900D02*
X188835131Y-50100757D01*
X188835131Y-50100757D02*
X188963702Y-50100757D01*
X188963702Y-50100757D02*
X189049416Y-50057900D01*
X189049416Y-50057900D02*
X189092274Y-50015042D01*
X189520845Y-49500757D02*
X189520845Y-50400757D01*
X189520845Y-49543614D02*
X189606560Y-49500757D01*
X189606560Y-49500757D02*
X189777988Y-49500757D01*
X189777988Y-49500757D02*
X189863702Y-49543614D01*
X189863702Y-49543614D02*
X189906560Y-49586471D01*
X189906560Y-49586471D02*
X189949417Y-49672185D01*
X189949417Y-49672185D02*
X189949417Y-49929328D01*
X189949417Y-49929328D02*
X189906560Y-50015042D01*
X189906560Y-50015042D02*
X189863702Y-50057900D01*
X189863702Y-50057900D02*
X189777988Y-50100757D01*
X189777988Y-50100757D02*
X189606560Y-50100757D01*
X189606560Y-50100757D02*
X189520845Y-50057900D01*
X190463703Y-50100757D02*
X190377988Y-50057900D01*
X190377988Y-50057900D02*
X190335131Y-50015042D01*
X190335131Y-50015042D02*
X190292274Y-49929328D01*
X190292274Y-49929328D02*
X190292274Y-49672185D01*
X190292274Y-49672185D02*
X190335131Y-49586471D01*
X190335131Y-49586471D02*
X190377988Y-49543614D01*
X190377988Y-49543614D02*
X190463703Y-49500757D01*
X190463703Y-49500757D02*
X190592274Y-49500757D01*
X190592274Y-49500757D02*
X190677988Y-49543614D01*
X190677988Y-49543614D02*
X190720846Y-49586471D01*
X190720846Y-49586471D02*
X190763703Y-49672185D01*
X190763703Y-49672185D02*
X190763703Y-49929328D01*
X190763703Y-49929328D02*
X190720846Y-50015042D01*
X190720846Y-50015042D02*
X190677988Y-50057900D01*
X190677988Y-50057900D02*
X190592274Y-50100757D01*
X190592274Y-50100757D02*
X190463703Y-50100757D01*
X192263703Y-49200757D02*
X191835131Y-49200757D01*
X191835131Y-49200757D02*
X191792274Y-49629328D01*
X191792274Y-49629328D02*
X191835131Y-49586471D01*
X191835131Y-49586471D02*
X191920846Y-49543614D01*
X191920846Y-49543614D02*
X192135131Y-49543614D01*
X192135131Y-49543614D02*
X192220846Y-49586471D01*
X192220846Y-49586471D02*
X192263703Y-49629328D01*
X192263703Y-49629328D02*
X192306560Y-49715042D01*
X192306560Y-49715042D02*
X192306560Y-49929328D01*
X192306560Y-49929328D02*
X192263703Y-50015042D01*
X192263703Y-50015042D02*
X192220846Y-50057900D01*
X192220846Y-50057900D02*
X192135131Y-50100757D01*
X192135131Y-50100757D02*
X191920846Y-50100757D01*
X191920846Y-50100757D02*
X191835131Y-50057900D01*
X191835131Y-50057900D02*
X191792274Y-50015042D01*
D11*
X200120071Y-88010621D02*
X200720071Y-87810621D01*
X200720071Y-87810621D02*
X200120071Y-87610621D01*
X200720071Y-87410620D02*
X200320071Y-87410620D01*
X200434357Y-87410620D02*
X200377214Y-87382049D01*
X200377214Y-87382049D02*
X200348642Y-87353478D01*
X200348642Y-87353478D02*
X200320071Y-87296335D01*
X200320071Y-87296335D02*
X200320071Y-87239192D01*
X200691500Y-86810620D02*
X200720071Y-86867763D01*
X200720071Y-86867763D02*
X200720071Y-86982049D01*
X200720071Y-86982049D02*
X200691500Y-87039191D01*
X200691500Y-87039191D02*
X200634357Y-87067763D01*
X200634357Y-87067763D02*
X200405785Y-87067763D01*
X200405785Y-87067763D02*
X200348642Y-87039191D01*
X200348642Y-87039191D02*
X200320071Y-86982049D01*
X200320071Y-86982049D02*
X200320071Y-86867763D01*
X200320071Y-86867763D02*
X200348642Y-86810620D01*
X200348642Y-86810620D02*
X200405785Y-86782049D01*
X200405785Y-86782049D02*
X200462928Y-86782049D01*
X200462928Y-86782049D02*
X200520071Y-87067763D01*
X200320071Y-86610620D02*
X200320071Y-86382048D01*
X200720071Y-86524905D02*
X200205785Y-86524905D01*
X200205785Y-86524905D02*
X200148642Y-86496334D01*
X200148642Y-86496334D02*
X200120071Y-86439191D01*
X200120071Y-86439191D02*
X200120071Y-86382048D01*
X200120071Y-84439191D02*
X200720071Y-84239191D01*
X200720071Y-84239191D02*
X200120071Y-84039191D01*
X200691500Y-83867762D02*
X200720071Y-83810619D01*
X200720071Y-83810619D02*
X200720071Y-83696333D01*
X200720071Y-83696333D02*
X200691500Y-83639190D01*
X200691500Y-83639190D02*
X200634357Y-83610619D01*
X200634357Y-83610619D02*
X200605785Y-83610619D01*
X200605785Y-83610619D02*
X200548642Y-83639190D01*
X200548642Y-83639190D02*
X200520071Y-83696333D01*
X200520071Y-83696333D02*
X200520071Y-83782048D01*
X200520071Y-83782048D02*
X200491500Y-83839190D01*
X200491500Y-83839190D02*
X200434357Y-83867762D01*
X200434357Y-83867762D02*
X200405785Y-83867762D01*
X200405785Y-83867762D02*
X200348642Y-83839190D01*
X200348642Y-83839190D02*
X200320071Y-83782048D01*
X200320071Y-83782048D02*
X200320071Y-83696333D01*
X200320071Y-83696333D02*
X200348642Y-83639190D01*
X200691500Y-83124905D02*
X200720071Y-83182048D01*
X200720071Y-83182048D02*
X200720071Y-83296334D01*
X200720071Y-83296334D02*
X200691500Y-83353476D01*
X200691500Y-83353476D02*
X200634357Y-83382048D01*
X200634357Y-83382048D02*
X200405785Y-83382048D01*
X200405785Y-83382048D02*
X200348642Y-83353476D01*
X200348642Y-83353476D02*
X200320071Y-83296334D01*
X200320071Y-83296334D02*
X200320071Y-83182048D01*
X200320071Y-83182048D02*
X200348642Y-83124905D01*
X200348642Y-83124905D02*
X200405785Y-83096334D01*
X200405785Y-83096334D02*
X200462928Y-83096334D01*
X200462928Y-83096334D02*
X200520071Y-83382048D01*
X200720071Y-82753476D02*
X200691500Y-82810619D01*
X200691500Y-82810619D02*
X200634357Y-82839190D01*
X200634357Y-82839190D02*
X200120071Y-82839190D01*
X200120071Y-80782047D02*
X200720071Y-80582047D01*
X200720071Y-80582047D02*
X200120071Y-80382047D01*
X200720071Y-80182046D02*
X200320071Y-80182046D01*
X200434357Y-80182046D02*
X200377214Y-80153475D01*
X200377214Y-80153475D02*
X200348642Y-80124904D01*
X200348642Y-80124904D02*
X200320071Y-80067761D01*
X200320071Y-80067761D02*
X200320071Y-80010618D01*
X200691500Y-79582046D02*
X200720071Y-79639189D01*
X200720071Y-79639189D02*
X200720071Y-79753475D01*
X200720071Y-79753475D02*
X200691500Y-79810617D01*
X200691500Y-79810617D02*
X200634357Y-79839189D01*
X200634357Y-79839189D02*
X200405785Y-79839189D01*
X200405785Y-79839189D02*
X200348642Y-79810617D01*
X200348642Y-79810617D02*
X200320071Y-79753475D01*
X200320071Y-79753475D02*
X200320071Y-79639189D01*
X200320071Y-79639189D02*
X200348642Y-79582046D01*
X200348642Y-79582046D02*
X200405785Y-79553475D01*
X200405785Y-79553475D02*
X200462928Y-79553475D01*
X200462928Y-79553475D02*
X200520071Y-79839189D01*
X200320071Y-79039189D02*
X200805785Y-79039189D01*
X200805785Y-79039189D02*
X200862928Y-79067760D01*
X200862928Y-79067760D02*
X200891500Y-79096331D01*
X200891500Y-79096331D02*
X200920071Y-79153474D01*
X200920071Y-79153474D02*
X200920071Y-79239189D01*
X200920071Y-79239189D02*
X200891500Y-79296331D01*
X200691500Y-79039189D02*
X200720071Y-79096331D01*
X200720071Y-79096331D02*
X200720071Y-79210617D01*
X200720071Y-79210617D02*
X200691500Y-79267760D01*
X200691500Y-79267760D02*
X200662928Y-79296331D01*
X200662928Y-79296331D02*
X200605785Y-79324903D01*
X200605785Y-79324903D02*
X200434357Y-79324903D01*
X200434357Y-79324903D02*
X200377214Y-79296331D01*
X200377214Y-79296331D02*
X200348642Y-79267760D01*
X200348642Y-79267760D02*
X200320071Y-79210617D01*
X200320071Y-79210617D02*
X200320071Y-79096331D01*
X200320071Y-79096331D02*
X200348642Y-79039189D01*
X200491500Y-77382045D02*
X200491500Y-76924903D01*
X200720071Y-77153474D02*
X200262928Y-77153474D01*
X200120071Y-76724903D02*
X200720071Y-76524903D01*
X200720071Y-76524903D02*
X200120071Y-76324903D01*
X200720071Y-76124902D02*
X200120071Y-76124902D01*
X200120071Y-76124902D02*
X200120071Y-75896331D01*
X200120071Y-75896331D02*
X200148642Y-75839188D01*
X200148642Y-75839188D02*
X200177214Y-75810617D01*
X200177214Y-75810617D02*
X200234357Y-75782045D01*
X200234357Y-75782045D02*
X200320071Y-75782045D01*
X200320071Y-75782045D02*
X200377214Y-75810617D01*
X200377214Y-75810617D02*
X200405785Y-75839188D01*
X200405785Y-75839188D02*
X200434357Y-75896331D01*
X200434357Y-75896331D02*
X200434357Y-76124902D01*
X200491500Y-74153473D02*
X200491500Y-73696331D01*
X200120071Y-73496331D02*
X200720071Y-73296331D01*
X200720071Y-73296331D02*
X200120071Y-73096331D01*
X200720071Y-72896330D02*
X200120071Y-72896330D01*
X200120071Y-72896330D02*
X200120071Y-72667759D01*
X200120071Y-72667759D02*
X200148642Y-72610616D01*
X200148642Y-72610616D02*
X200177214Y-72582045D01*
X200177214Y-72582045D02*
X200234357Y-72553473D01*
X200234357Y-72553473D02*
X200320071Y-72553473D01*
X200320071Y-72553473D02*
X200377214Y-72582045D01*
X200377214Y-72582045D02*
X200405785Y-72610616D01*
X200405785Y-72610616D02*
X200434357Y-72667759D01*
X200434357Y-72667759D02*
X200434357Y-72896330D01*
X200148642Y-70153473D02*
X200120071Y-70210616D01*
X200120071Y-70210616D02*
X200120071Y-70296330D01*
X200120071Y-70296330D02*
X200148642Y-70382044D01*
X200148642Y-70382044D02*
X200205785Y-70439187D01*
X200205785Y-70439187D02*
X200262928Y-70467758D01*
X200262928Y-70467758D02*
X200377214Y-70496330D01*
X200377214Y-70496330D02*
X200462928Y-70496330D01*
X200462928Y-70496330D02*
X200577214Y-70467758D01*
X200577214Y-70467758D02*
X200634357Y-70439187D01*
X200634357Y-70439187D02*
X200691500Y-70382044D01*
X200691500Y-70382044D02*
X200720071Y-70296330D01*
X200720071Y-70296330D02*
X200720071Y-70239187D01*
X200720071Y-70239187D02*
X200691500Y-70153473D01*
X200691500Y-70153473D02*
X200662928Y-70124901D01*
X200662928Y-70124901D02*
X200462928Y-70124901D01*
X200462928Y-70124901D02*
X200462928Y-70239187D01*
X200720071Y-69867758D02*
X200120071Y-69867758D01*
X200120071Y-69867758D02*
X200720071Y-69524901D01*
X200720071Y-69524901D02*
X200120071Y-69524901D01*
X200720071Y-69239187D02*
X200120071Y-69239187D01*
X200120071Y-69239187D02*
X200120071Y-69096330D01*
X200120071Y-69096330D02*
X200148642Y-69010616D01*
X200148642Y-69010616D02*
X200205785Y-68953473D01*
X200205785Y-68953473D02*
X200262928Y-68924902D01*
X200262928Y-68924902D02*
X200377214Y-68896330D01*
X200377214Y-68896330D02*
X200462928Y-68896330D01*
X200462928Y-68896330D02*
X200577214Y-68924902D01*
X200577214Y-68924902D02*
X200634357Y-68953473D01*
X200634357Y-68953473D02*
X200691500Y-69010616D01*
X200691500Y-69010616D02*
X200720071Y-69096330D01*
X200720071Y-69096330D02*
X200720071Y-69239187D01*
D12*
X176758207Y-51632390D02*
X176682017Y-51594295D01*
X176682017Y-51594295D02*
X176567731Y-51594295D01*
X176567731Y-51594295D02*
X176453445Y-51632390D01*
X176453445Y-51632390D02*
X176377255Y-51708580D01*
X176377255Y-51708580D02*
X176339160Y-51784771D01*
X176339160Y-51784771D02*
X176301064Y-51937152D01*
X176301064Y-51937152D02*
X176301064Y-52051438D01*
X176301064Y-52051438D02*
X176339160Y-52203819D01*
X176339160Y-52203819D02*
X176377255Y-52280009D01*
X176377255Y-52280009D02*
X176453445Y-52356200D01*
X176453445Y-52356200D02*
X176567731Y-52394295D01*
X176567731Y-52394295D02*
X176643922Y-52394295D01*
X176643922Y-52394295D02*
X176758207Y-52356200D01*
X176758207Y-52356200D02*
X176796303Y-52318104D01*
X176796303Y-52318104D02*
X176796303Y-52051438D01*
X176796303Y-52051438D02*
X176643922Y-52051438D01*
X177139160Y-52394295D02*
X177139160Y-51594295D01*
X177139160Y-51594295D02*
X177596303Y-52394295D01*
X177596303Y-52394295D02*
X177596303Y-51594295D01*
X177977255Y-52394295D02*
X177977255Y-51594295D01*
X177977255Y-51594295D02*
X178167731Y-51594295D01*
X178167731Y-51594295D02*
X178282017Y-51632390D01*
X178282017Y-51632390D02*
X178358207Y-51708580D01*
X178358207Y-51708580D02*
X178396302Y-51784771D01*
X178396302Y-51784771D02*
X178434398Y-51937152D01*
X178434398Y-51937152D02*
X178434398Y-52051438D01*
X178434398Y-52051438D02*
X178396302Y-52203819D01*
X178396302Y-52203819D02*
X178358207Y-52280009D01*
X178358207Y-52280009D02*
X178282017Y-52356200D01*
X178282017Y-52356200D02*
X178167731Y-52394295D01*
X178167731Y-52394295D02*
X177977255Y-52394295D01*
X180491541Y-51594295D02*
X180758208Y-52394295D01*
X180758208Y-52394295D02*
X181024874Y-51594295D01*
X181405826Y-52394295D02*
X181329636Y-52356200D01*
X181329636Y-52356200D02*
X181291541Y-52318104D01*
X181291541Y-52318104D02*
X181253445Y-52241914D01*
X181253445Y-52241914D02*
X181253445Y-52013342D01*
X181253445Y-52013342D02*
X181291541Y-51937152D01*
X181291541Y-51937152D02*
X181329636Y-51899057D01*
X181329636Y-51899057D02*
X181405826Y-51860961D01*
X181405826Y-51860961D02*
X181520112Y-51860961D01*
X181520112Y-51860961D02*
X181596303Y-51899057D01*
X181596303Y-51899057D02*
X181634398Y-51937152D01*
X181634398Y-51937152D02*
X181672493Y-52013342D01*
X181672493Y-52013342D02*
X181672493Y-52241914D01*
X181672493Y-52241914D02*
X181634398Y-52318104D01*
X181634398Y-52318104D02*
X181596303Y-52356200D01*
X181596303Y-52356200D02*
X181520112Y-52394295D01*
X181520112Y-52394295D02*
X181405826Y-52394295D01*
X126304819Y-81967857D02*
X125828628Y-82301190D01*
X126304819Y-82539285D02*
X125304819Y-82539285D01*
X125304819Y-82539285D02*
X125304819Y-82158333D01*
X125304819Y-82158333D02*
X125352438Y-82063095D01*
X125352438Y-82063095D02*
X125400057Y-82015476D01*
X125400057Y-82015476D02*
X125495295Y-81967857D01*
X125495295Y-81967857D02*
X125638152Y-81967857D01*
X125638152Y-81967857D02*
X125733390Y-82015476D01*
X125733390Y-82015476D02*
X125781009Y-82063095D01*
X125781009Y-82063095D02*
X125828628Y-82158333D01*
X125828628Y-82158333D02*
X125828628Y-82539285D01*
X125400057Y-81586904D02*
X125352438Y-81539285D01*
X125352438Y-81539285D02*
X125304819Y-81444047D01*
X125304819Y-81444047D02*
X125304819Y-81205952D01*
X125304819Y-81205952D02*
X125352438Y-81110714D01*
X125352438Y-81110714D02*
X125400057Y-81063095D01*
X125400057Y-81063095D02*
X125495295Y-81015476D01*
X125495295Y-81015476D02*
X125590533Y-81015476D01*
X125590533Y-81015476D02*
X125733390Y-81063095D01*
X125733390Y-81063095D02*
X126304819Y-81634523D01*
X126304819Y-81634523D02*
X126304819Y-81015476D01*
X125304819Y-80110714D02*
X125304819Y-80586904D01*
X125304819Y-80586904D02*
X125781009Y-80634523D01*
X125781009Y-80634523D02*
X125733390Y-80586904D01*
X125733390Y-80586904D02*
X125685771Y-80491666D01*
X125685771Y-80491666D02*
X125685771Y-80253571D01*
X125685771Y-80253571D02*
X125733390Y-80158333D01*
X125733390Y-80158333D02*
X125781009Y-80110714D01*
X125781009Y-80110714D02*
X125876247Y-80063095D01*
X125876247Y-80063095D02*
X126114342Y-80063095D01*
X126114342Y-80063095D02*
X126209580Y-80110714D01*
X126209580Y-80110714D02*
X126257200Y-80158333D01*
X126257200Y-80158333D02*
X126304819Y-80253571D01*
X126304819Y-80253571D02*
X126304819Y-80491666D01*
X126304819Y-80491666D02*
X126257200Y-80586904D01*
X126257200Y-80586904D02*
X126209580Y-80634523D01*
X151714819Y-57092857D02*
X151238628Y-57426190D01*
X151714819Y-57664285D02*
X150714819Y-57664285D01*
X150714819Y-57664285D02*
X150714819Y-57283333D01*
X150714819Y-57283333D02*
X150762438Y-57188095D01*
X150762438Y-57188095D02*
X150810057Y-57140476D01*
X150810057Y-57140476D02*
X150905295Y-57092857D01*
X150905295Y-57092857D02*
X151048152Y-57092857D01*
X151048152Y-57092857D02*
X151143390Y-57140476D01*
X151143390Y-57140476D02*
X151191009Y-57188095D01*
X151191009Y-57188095D02*
X151238628Y-57283333D01*
X151238628Y-57283333D02*
X151238628Y-57664285D01*
X150810057Y-56711904D02*
X150762438Y-56664285D01*
X150762438Y-56664285D02*
X150714819Y-56569047D01*
X150714819Y-56569047D02*
X150714819Y-56330952D01*
X150714819Y-56330952D02*
X150762438Y-56235714D01*
X150762438Y-56235714D02*
X150810057Y-56188095D01*
X150810057Y-56188095D02*
X150905295Y-56140476D01*
X150905295Y-56140476D02*
X151000533Y-56140476D01*
X151000533Y-56140476D02*
X151143390Y-56188095D01*
X151143390Y-56188095D02*
X151714819Y-56759523D01*
X151714819Y-56759523D02*
X151714819Y-56140476D01*
X150714819Y-55521428D02*
X150714819Y-55426190D01*
X150714819Y-55426190D02*
X150762438Y-55330952D01*
X150762438Y-55330952D02*
X150810057Y-55283333D01*
X150810057Y-55283333D02*
X150905295Y-55235714D01*
X150905295Y-55235714D02*
X151095771Y-55188095D01*
X151095771Y-55188095D02*
X151333866Y-55188095D01*
X151333866Y-55188095D02*
X151524342Y-55235714D01*
X151524342Y-55235714D02*
X151619580Y-55283333D01*
X151619580Y-55283333D02*
X151667200Y-55330952D01*
X151667200Y-55330952D02*
X151714819Y-55426190D01*
X151714819Y-55426190D02*
X151714819Y-55521428D01*
X151714819Y-55521428D02*
X151667200Y-55616666D01*
X151667200Y-55616666D02*
X151619580Y-55664285D01*
X151619580Y-55664285D02*
X151524342Y-55711904D01*
X151524342Y-55711904D02*
X151333866Y-55759523D01*
X151333866Y-55759523D02*
X151095771Y-55759523D01*
X151095771Y-55759523D02*
X150905295Y-55711904D01*
X150905295Y-55711904D02*
X150810057Y-55664285D01*
X150810057Y-55664285D02*
X150762438Y-55616666D01*
X150762438Y-55616666D02*
X150714819Y-55521428D01*
X147985714Y-65554819D02*
X148319047Y-66554819D01*
X148319047Y-66554819D02*
X148652380Y-65554819D01*
X149128571Y-66554819D02*
X149033333Y-66507200D01*
X149033333Y-66507200D02*
X148985714Y-66459580D01*
X148985714Y-66459580D02*
X148938095Y-66364342D01*
X148938095Y-66364342D02*
X148938095Y-66078628D01*
X148938095Y-66078628D02*
X148985714Y-65983390D01*
X148985714Y-65983390D02*
X149033333Y-65935771D01*
X149033333Y-65935771D02*
X149128571Y-65888152D01*
X149128571Y-65888152D02*
X149271428Y-65888152D01*
X149271428Y-65888152D02*
X149366666Y-65935771D01*
X149366666Y-65935771D02*
X149414285Y-65983390D01*
X149414285Y-65983390D02*
X149461904Y-66078628D01*
X149461904Y-66078628D02*
X149461904Y-66364342D01*
X149461904Y-66364342D02*
X149414285Y-66459580D01*
X149414285Y-66459580D02*
X149366666Y-66507200D01*
X149366666Y-66507200D02*
X149271428Y-66554819D01*
X149271428Y-66554819D02*
X149128571Y-66554819D01*
X149890476Y-65888152D02*
X149890476Y-66888152D01*
X149890476Y-65935771D02*
X149985714Y-65888152D01*
X149985714Y-65888152D02*
X150176190Y-65888152D01*
X150176190Y-65888152D02*
X150271428Y-65935771D01*
X150271428Y-65935771D02*
X150319047Y-65983390D01*
X150319047Y-65983390D02*
X150366666Y-66078628D01*
X150366666Y-66078628D02*
X150366666Y-66364342D01*
X150366666Y-66364342D02*
X150319047Y-66459580D01*
X150319047Y-66459580D02*
X150271428Y-66507200D01*
X150271428Y-66507200D02*
X150176190Y-66554819D01*
X150176190Y-66554819D02*
X149985714Y-66554819D01*
X149985714Y-66554819D02*
X149890476Y-66507200D01*
X151319047Y-66554819D02*
X150747619Y-66554819D01*
X151033333Y-66554819D02*
X151033333Y-65554819D01*
X151033333Y-65554819D02*
X150938095Y-65697676D01*
X150938095Y-65697676D02*
X150842857Y-65792914D01*
X150842857Y-65792914D02*
X150747619Y-65840533D01*
X127379761Y-64600057D02*
X127284523Y-64552438D01*
X127284523Y-64552438D02*
X127189285Y-64457200D01*
X127189285Y-64457200D02*
X127046428Y-64314342D01*
X127046428Y-64314342D02*
X126951190Y-64266723D01*
X126951190Y-64266723D02*
X126855952Y-64266723D01*
X126903571Y-64504819D02*
X126808333Y-64457200D01*
X126808333Y-64457200D02*
X126713095Y-64361961D01*
X126713095Y-64361961D02*
X126665476Y-64171485D01*
X126665476Y-64171485D02*
X126665476Y-63838152D01*
X126665476Y-63838152D02*
X126713095Y-63647676D01*
X126713095Y-63647676D02*
X126808333Y-63552438D01*
X126808333Y-63552438D02*
X126903571Y-63504819D01*
X126903571Y-63504819D02*
X127094047Y-63504819D01*
X127094047Y-63504819D02*
X127189285Y-63552438D01*
X127189285Y-63552438D02*
X127284523Y-63647676D01*
X127284523Y-63647676D02*
X127332142Y-63838152D01*
X127332142Y-63838152D02*
X127332142Y-64171485D01*
X127332142Y-64171485D02*
X127284523Y-64361961D01*
X127284523Y-64361961D02*
X127189285Y-64457200D01*
X127189285Y-64457200D02*
X127094047Y-64504819D01*
X127094047Y-64504819D02*
X126903571Y-64504819D01*
X128189285Y-63838152D02*
X128189285Y-64504819D01*
X127951190Y-63457200D02*
X127713095Y-64171485D01*
X127713095Y-64171485D02*
X128332142Y-64171485D01*
X138979762Y-75956819D02*
X139313095Y-76956819D01*
X139313095Y-76956819D02*
X139646428Y-75956819D01*
X139836905Y-76290152D02*
X140217857Y-76290152D01*
X139979762Y-76956819D02*
X139979762Y-76099676D01*
X139979762Y-76099676D02*
X140027381Y-76004438D01*
X140027381Y-76004438D02*
X140122619Y-75956819D01*
X140122619Y-75956819D02*
X140217857Y-75956819D01*
X141075000Y-76956819D02*
X140503572Y-76956819D01*
X140789286Y-76956819D02*
X140789286Y-75956819D01*
X140789286Y-75956819D02*
X140694048Y-76099676D01*
X140694048Y-76099676D02*
X140598810Y-76194914D01*
X140598810Y-76194914D02*
X140503572Y-76242533D01*
X142354819Y-79442857D02*
X141878628Y-79776190D01*
X142354819Y-80014285D02*
X141354819Y-80014285D01*
X141354819Y-80014285D02*
X141354819Y-79633333D01*
X141354819Y-79633333D02*
X141402438Y-79538095D01*
X141402438Y-79538095D02*
X141450057Y-79490476D01*
X141450057Y-79490476D02*
X141545295Y-79442857D01*
X141545295Y-79442857D02*
X141688152Y-79442857D01*
X141688152Y-79442857D02*
X141783390Y-79490476D01*
X141783390Y-79490476D02*
X141831009Y-79538095D01*
X141831009Y-79538095D02*
X141878628Y-79633333D01*
X141878628Y-79633333D02*
X141878628Y-80014285D01*
X142354819Y-78490476D02*
X142354819Y-79061904D01*
X142354819Y-78776190D02*
X141354819Y-78776190D01*
X141354819Y-78776190D02*
X141497676Y-78871428D01*
X141497676Y-78871428D02*
X141592914Y-78966666D01*
X141592914Y-78966666D02*
X141640533Y-79061904D01*
X142354819Y-77538095D02*
X142354819Y-78109523D01*
X142354819Y-77823809D02*
X141354819Y-77823809D01*
X141354819Y-77823809D02*
X141497676Y-77919047D01*
X141497676Y-77919047D02*
X141592914Y-78014285D01*
X141592914Y-78014285D02*
X141640533Y-78109523D01*
X128980952Y-53114819D02*
X128647619Y-52638628D01*
X128409524Y-53114819D02*
X128409524Y-52114819D01*
X128409524Y-52114819D02*
X128790476Y-52114819D01*
X128790476Y-52114819D02*
X128885714Y-52162438D01*
X128885714Y-52162438D02*
X128933333Y-52210057D01*
X128933333Y-52210057D02*
X128980952Y-52305295D01*
X128980952Y-52305295D02*
X128980952Y-52448152D01*
X128980952Y-52448152D02*
X128933333Y-52543390D01*
X128933333Y-52543390D02*
X128885714Y-52591009D01*
X128885714Y-52591009D02*
X128790476Y-52638628D01*
X128790476Y-52638628D02*
X128409524Y-52638628D01*
X129409524Y-52591009D02*
X129742857Y-52591009D01*
X129885714Y-53114819D02*
X129409524Y-53114819D01*
X129409524Y-53114819D02*
X129409524Y-52114819D01*
X129409524Y-52114819D02*
X129885714Y-52114819D01*
X130838095Y-53114819D02*
X130266667Y-53114819D01*
X130552381Y-53114819D02*
X130552381Y-52114819D01*
X130552381Y-52114819D02*
X130457143Y-52257676D01*
X130457143Y-52257676D02*
X130361905Y-52352914D01*
X130361905Y-52352914D02*
X130266667Y-52400533D01*
X130588095Y-48829819D02*
X130921428Y-49829819D01*
X130921428Y-49829819D02*
X131254761Y-48829819D01*
X132016666Y-49829819D02*
X132016666Y-48829819D01*
X132016666Y-49782200D02*
X131921428Y-49829819D01*
X131921428Y-49829819D02*
X131730952Y-49829819D01*
X131730952Y-49829819D02*
X131635714Y-49782200D01*
X131635714Y-49782200D02*
X131588095Y-49734580D01*
X131588095Y-49734580D02*
X131540476Y-49639342D01*
X131540476Y-49639342D02*
X131540476Y-49353628D01*
X131540476Y-49353628D02*
X131588095Y-49258390D01*
X131588095Y-49258390D02*
X131635714Y-49210771D01*
X131635714Y-49210771D02*
X131730952Y-49163152D01*
X131730952Y-49163152D02*
X131921428Y-49163152D01*
X131921428Y-49163152D02*
X132016666Y-49210771D01*
X133016666Y-49829819D02*
X132445238Y-49829819D01*
X132730952Y-49829819D02*
X132730952Y-48829819D01*
X132730952Y-48829819D02*
X132635714Y-48972676D01*
X132635714Y-48972676D02*
X132540476Y-49067914D01*
X132540476Y-49067914D02*
X132445238Y-49115533D01*
X149954819Y-75892857D02*
X149478628Y-76226190D01*
X149954819Y-76464285D02*
X148954819Y-76464285D01*
X148954819Y-76464285D02*
X148954819Y-76083333D01*
X148954819Y-76083333D02*
X149002438Y-75988095D01*
X149002438Y-75988095D02*
X149050057Y-75940476D01*
X149050057Y-75940476D02*
X149145295Y-75892857D01*
X149145295Y-75892857D02*
X149288152Y-75892857D01*
X149288152Y-75892857D02*
X149383390Y-75940476D01*
X149383390Y-75940476D02*
X149431009Y-75988095D01*
X149431009Y-75988095D02*
X149478628Y-76083333D01*
X149478628Y-76083333D02*
X149478628Y-76464285D01*
X149954819Y-74940476D02*
X149954819Y-75511904D01*
X149954819Y-75226190D02*
X148954819Y-75226190D01*
X148954819Y-75226190D02*
X149097676Y-75321428D01*
X149097676Y-75321428D02*
X149192914Y-75416666D01*
X149192914Y-75416666D02*
X149240533Y-75511904D01*
X148954819Y-74321428D02*
X148954819Y-74226190D01*
X148954819Y-74226190D02*
X149002438Y-74130952D01*
X149002438Y-74130952D02*
X149050057Y-74083333D01*
X149050057Y-74083333D02*
X149145295Y-74035714D01*
X149145295Y-74035714D02*
X149335771Y-73988095D01*
X149335771Y-73988095D02*
X149573866Y-73988095D01*
X149573866Y-73988095D02*
X149764342Y-74035714D01*
X149764342Y-74035714D02*
X149859580Y-74083333D01*
X149859580Y-74083333D02*
X149907200Y-74130952D01*
X149907200Y-74130952D02*
X149954819Y-74226190D01*
X149954819Y-74226190D02*
X149954819Y-74321428D01*
X149954819Y-74321428D02*
X149907200Y-74416666D01*
X149907200Y-74416666D02*
X149859580Y-74464285D01*
X149859580Y-74464285D02*
X149764342Y-74511904D01*
X149764342Y-74511904D02*
X149573866Y-74559523D01*
X149573866Y-74559523D02*
X149335771Y-74559523D01*
X149335771Y-74559523D02*
X149145295Y-74511904D01*
X149145295Y-74511904D02*
X149050057Y-74464285D01*
X149050057Y-74464285D02*
X149002438Y-74416666D01*
X149002438Y-74416666D02*
X148954819Y-74321428D01*
X174533333Y-74494819D02*
X174200000Y-74018628D01*
X173961905Y-74494819D02*
X173961905Y-73494819D01*
X173961905Y-73494819D02*
X174342857Y-73494819D01*
X174342857Y-73494819D02*
X174438095Y-73542438D01*
X174438095Y-73542438D02*
X174485714Y-73590057D01*
X174485714Y-73590057D02*
X174533333Y-73685295D01*
X174533333Y-73685295D02*
X174533333Y-73828152D01*
X174533333Y-73828152D02*
X174485714Y-73923390D01*
X174485714Y-73923390D02*
X174438095Y-73971009D01*
X174438095Y-73971009D02*
X174342857Y-74018628D01*
X174342857Y-74018628D02*
X173961905Y-74018628D01*
X175104762Y-73923390D02*
X175009524Y-73875771D01*
X175009524Y-73875771D02*
X174961905Y-73828152D01*
X174961905Y-73828152D02*
X174914286Y-73732914D01*
X174914286Y-73732914D02*
X174914286Y-73685295D01*
X174914286Y-73685295D02*
X174961905Y-73590057D01*
X174961905Y-73590057D02*
X175009524Y-73542438D01*
X175009524Y-73542438D02*
X175104762Y-73494819D01*
X175104762Y-73494819D02*
X175295238Y-73494819D01*
X175295238Y-73494819D02*
X175390476Y-73542438D01*
X175390476Y-73542438D02*
X175438095Y-73590057D01*
X175438095Y-73590057D02*
X175485714Y-73685295D01*
X175485714Y-73685295D02*
X175485714Y-73732914D01*
X175485714Y-73732914D02*
X175438095Y-73828152D01*
X175438095Y-73828152D02*
X175390476Y-73875771D01*
X175390476Y-73875771D02*
X175295238Y-73923390D01*
X175295238Y-73923390D02*
X175104762Y-73923390D01*
X175104762Y-73923390D02*
X175009524Y-73971009D01*
X175009524Y-73971009D02*
X174961905Y-74018628D01*
X174961905Y-74018628D02*
X174914286Y-74113866D01*
X174914286Y-74113866D02*
X174914286Y-74304342D01*
X174914286Y-74304342D02*
X174961905Y-74399580D01*
X174961905Y-74399580D02*
X175009524Y-74447200D01*
X175009524Y-74447200D02*
X175104762Y-74494819D01*
X175104762Y-74494819D02*
X175295238Y-74494819D01*
X175295238Y-74494819D02*
X175390476Y-74447200D01*
X175390476Y-74447200D02*
X175438095Y-74399580D01*
X175438095Y-74399580D02*
X175485714Y-74304342D01*
X175485714Y-74304342D02*
X175485714Y-74113866D01*
X175485714Y-74113866D02*
X175438095Y-74018628D01*
X175438095Y-74018628D02*
X175390476Y-73971009D01*
X175390476Y-73971009D02*
X175295238Y-73923390D01*
X151154819Y-71042857D02*
X150678628Y-71376190D01*
X151154819Y-71614285D02*
X150154819Y-71614285D01*
X150154819Y-71614285D02*
X150154819Y-71233333D01*
X150154819Y-71233333D02*
X150202438Y-71138095D01*
X150202438Y-71138095D02*
X150250057Y-71090476D01*
X150250057Y-71090476D02*
X150345295Y-71042857D01*
X150345295Y-71042857D02*
X150488152Y-71042857D01*
X150488152Y-71042857D02*
X150583390Y-71090476D01*
X150583390Y-71090476D02*
X150631009Y-71138095D01*
X150631009Y-71138095D02*
X150678628Y-71233333D01*
X150678628Y-71233333D02*
X150678628Y-71614285D01*
X150250057Y-70661904D02*
X150202438Y-70614285D01*
X150202438Y-70614285D02*
X150154819Y-70519047D01*
X150154819Y-70519047D02*
X150154819Y-70280952D01*
X150154819Y-70280952D02*
X150202438Y-70185714D01*
X150202438Y-70185714D02*
X150250057Y-70138095D01*
X150250057Y-70138095D02*
X150345295Y-70090476D01*
X150345295Y-70090476D02*
X150440533Y-70090476D01*
X150440533Y-70090476D02*
X150583390Y-70138095D01*
X150583390Y-70138095D02*
X151154819Y-70709523D01*
X151154819Y-70709523D02*
X151154819Y-70090476D01*
X151154819Y-69138095D02*
X151154819Y-69709523D01*
X151154819Y-69423809D02*
X150154819Y-69423809D01*
X150154819Y-69423809D02*
X150297676Y-69519047D01*
X150297676Y-69519047D02*
X150392914Y-69614285D01*
X150392914Y-69614285D02*
X150440533Y-69709523D01*
X184666666Y-88104819D02*
X184666666Y-88819104D01*
X184666666Y-88819104D02*
X184619047Y-88961961D01*
X184619047Y-88961961D02*
X184523809Y-89057200D01*
X184523809Y-89057200D02*
X184380952Y-89104819D01*
X184380952Y-89104819D02*
X184285714Y-89104819D01*
X185047619Y-88104819D02*
X185666666Y-88104819D01*
X185666666Y-88104819D02*
X185333333Y-88485771D01*
X185333333Y-88485771D02*
X185476190Y-88485771D01*
X185476190Y-88485771D02*
X185571428Y-88533390D01*
X185571428Y-88533390D02*
X185619047Y-88581009D01*
X185619047Y-88581009D02*
X185666666Y-88676247D01*
X185666666Y-88676247D02*
X185666666Y-88914342D01*
X185666666Y-88914342D02*
X185619047Y-89009580D01*
X185619047Y-89009580D02*
X185571428Y-89057200D01*
X185571428Y-89057200D02*
X185476190Y-89104819D01*
X185476190Y-89104819D02*
X185190476Y-89104819D01*
X185190476Y-89104819D02*
X185095238Y-89057200D01*
X185095238Y-89057200D02*
X185047619Y-89009580D01*
X151714819Y-53171428D02*
X151238628Y-53504761D01*
X151714819Y-53742856D02*
X150714819Y-53742856D01*
X150714819Y-53742856D02*
X150714819Y-53361904D01*
X150714819Y-53361904D02*
X150762438Y-53266666D01*
X150762438Y-53266666D02*
X150810057Y-53219047D01*
X150810057Y-53219047D02*
X150905295Y-53171428D01*
X150905295Y-53171428D02*
X151048152Y-53171428D01*
X151048152Y-53171428D02*
X151143390Y-53219047D01*
X151143390Y-53219047D02*
X151191009Y-53266666D01*
X151191009Y-53266666D02*
X151238628Y-53361904D01*
X151238628Y-53361904D02*
X151238628Y-53742856D01*
X151667200Y-52790475D02*
X151714819Y-52695237D01*
X151714819Y-52695237D02*
X151714819Y-52504761D01*
X151714819Y-52504761D02*
X151667200Y-52409523D01*
X151667200Y-52409523D02*
X151571961Y-52361904D01*
X151571961Y-52361904D02*
X151524342Y-52361904D01*
X151524342Y-52361904D02*
X151429104Y-52409523D01*
X151429104Y-52409523D02*
X151381485Y-52504761D01*
X151381485Y-52504761D02*
X151381485Y-52647618D01*
X151381485Y-52647618D02*
X151333866Y-52742856D01*
X151333866Y-52742856D02*
X151238628Y-52790475D01*
X151238628Y-52790475D02*
X151191009Y-52790475D01*
X151191009Y-52790475D02*
X151095771Y-52742856D01*
X151095771Y-52742856D02*
X151048152Y-52647618D01*
X151048152Y-52647618D02*
X151048152Y-52504761D01*
X151048152Y-52504761D02*
X151095771Y-52409523D01*
X151714819Y-51409523D02*
X151714819Y-51980951D01*
X151714819Y-51695237D02*
X150714819Y-51695237D01*
X150714819Y-51695237D02*
X150857676Y-51790475D01*
X150857676Y-51790475D02*
X150952914Y-51885713D01*
X150952914Y-51885713D02*
X151000533Y-51980951D01*
X146457142Y-69104819D02*
X146123809Y-68628628D01*
X145885714Y-69104819D02*
X145885714Y-68104819D01*
X145885714Y-68104819D02*
X146266666Y-68104819D01*
X146266666Y-68104819D02*
X146361904Y-68152438D01*
X146361904Y-68152438D02*
X146409523Y-68200057D01*
X146409523Y-68200057D02*
X146457142Y-68295295D01*
X146457142Y-68295295D02*
X146457142Y-68438152D01*
X146457142Y-68438152D02*
X146409523Y-68533390D01*
X146409523Y-68533390D02*
X146361904Y-68581009D01*
X146361904Y-68581009D02*
X146266666Y-68628628D01*
X146266666Y-68628628D02*
X145885714Y-68628628D01*
X147409523Y-69104819D02*
X146838095Y-69104819D01*
X147123809Y-69104819D02*
X147123809Y-68104819D01*
X147123809Y-68104819D02*
X147028571Y-68247676D01*
X147028571Y-68247676D02*
X146933333Y-68342914D01*
X146933333Y-68342914D02*
X146838095Y-68390533D01*
X147980952Y-68533390D02*
X147885714Y-68485771D01*
X147885714Y-68485771D02*
X147838095Y-68438152D01*
X147838095Y-68438152D02*
X147790476Y-68342914D01*
X147790476Y-68342914D02*
X147790476Y-68295295D01*
X147790476Y-68295295D02*
X147838095Y-68200057D01*
X147838095Y-68200057D02*
X147885714Y-68152438D01*
X147885714Y-68152438D02*
X147980952Y-68104819D01*
X147980952Y-68104819D02*
X148171428Y-68104819D01*
X148171428Y-68104819D02*
X148266666Y-68152438D01*
X148266666Y-68152438D02*
X148314285Y-68200057D01*
X148314285Y-68200057D02*
X148361904Y-68295295D01*
X148361904Y-68295295D02*
X148361904Y-68342914D01*
X148361904Y-68342914D02*
X148314285Y-68438152D01*
X148314285Y-68438152D02*
X148266666Y-68485771D01*
X148266666Y-68485771D02*
X148171428Y-68533390D01*
X148171428Y-68533390D02*
X147980952Y-68533390D01*
X147980952Y-68533390D02*
X147885714Y-68581009D01*
X147885714Y-68581009D02*
X147838095Y-68628628D01*
X147838095Y-68628628D02*
X147790476Y-68723866D01*
X147790476Y-68723866D02*
X147790476Y-68914342D01*
X147790476Y-68914342D02*
X147838095Y-69009580D01*
X147838095Y-69009580D02*
X147885714Y-69057200D01*
X147885714Y-69057200D02*
X147980952Y-69104819D01*
X147980952Y-69104819D02*
X148171428Y-69104819D01*
X148171428Y-69104819D02*
X148266666Y-69057200D01*
X148266666Y-69057200D02*
X148314285Y-69009580D01*
X148314285Y-69009580D02*
X148361904Y-68914342D01*
X148361904Y-68914342D02*
X148361904Y-68723866D01*
X148361904Y-68723866D02*
X148314285Y-68628628D01*
X148314285Y-68628628D02*
X148266666Y-68581009D01*
X148266666Y-68581009D02*
X148171428Y-68533390D01*
X132030952Y-53094819D02*
X131697619Y-52618628D01*
X131459524Y-53094819D02*
X131459524Y-52094819D01*
X131459524Y-52094819D02*
X131840476Y-52094819D01*
X131840476Y-52094819D02*
X131935714Y-52142438D01*
X131935714Y-52142438D02*
X131983333Y-52190057D01*
X131983333Y-52190057D02*
X132030952Y-52285295D01*
X132030952Y-52285295D02*
X132030952Y-52428152D01*
X132030952Y-52428152D02*
X131983333Y-52523390D01*
X131983333Y-52523390D02*
X131935714Y-52571009D01*
X131935714Y-52571009D02*
X131840476Y-52618628D01*
X131840476Y-52618628D02*
X131459524Y-52618628D01*
X132459524Y-52571009D02*
X132792857Y-52571009D01*
X132935714Y-53094819D02*
X132459524Y-53094819D01*
X132459524Y-53094819D02*
X132459524Y-52094819D01*
X132459524Y-52094819D02*
X132935714Y-52094819D01*
X133316667Y-52190057D02*
X133364286Y-52142438D01*
X133364286Y-52142438D02*
X133459524Y-52094819D01*
X133459524Y-52094819D02*
X133697619Y-52094819D01*
X133697619Y-52094819D02*
X133792857Y-52142438D01*
X133792857Y-52142438D02*
X133840476Y-52190057D01*
X133840476Y-52190057D02*
X133888095Y-52285295D01*
X133888095Y-52285295D02*
X133888095Y-52380533D01*
X133888095Y-52380533D02*
X133840476Y-52523390D01*
X133840476Y-52523390D02*
X133269048Y-53094819D01*
X133269048Y-53094819D02*
X133888095Y-53094819D01*
X134429761Y-48300057D02*
X134334523Y-48252438D01*
X134334523Y-48252438D02*
X134239285Y-48157200D01*
X134239285Y-48157200D02*
X134096428Y-48014342D01*
X134096428Y-48014342D02*
X134001190Y-47966723D01*
X134001190Y-47966723D02*
X133905952Y-47966723D01*
X133953571Y-48204819D02*
X133858333Y-48157200D01*
X133858333Y-48157200D02*
X133763095Y-48061961D01*
X133763095Y-48061961D02*
X133715476Y-47871485D01*
X133715476Y-47871485D02*
X133715476Y-47538152D01*
X133715476Y-47538152D02*
X133763095Y-47347676D01*
X133763095Y-47347676D02*
X133858333Y-47252438D01*
X133858333Y-47252438D02*
X133953571Y-47204819D01*
X133953571Y-47204819D02*
X134144047Y-47204819D01*
X134144047Y-47204819D02*
X134239285Y-47252438D01*
X134239285Y-47252438D02*
X134334523Y-47347676D01*
X134334523Y-47347676D02*
X134382142Y-47538152D01*
X134382142Y-47538152D02*
X134382142Y-47871485D01*
X134382142Y-47871485D02*
X134334523Y-48061961D01*
X134334523Y-48061961D02*
X134239285Y-48157200D01*
X134239285Y-48157200D02*
X134144047Y-48204819D01*
X134144047Y-48204819D02*
X133953571Y-48204819D01*
X134715476Y-47204819D02*
X135382142Y-47204819D01*
X135382142Y-47204819D02*
X134953571Y-48204819D01*
X184936904Y-56402438D02*
X184841666Y-56354819D01*
X184841666Y-56354819D02*
X184698809Y-56354819D01*
X184698809Y-56354819D02*
X184555952Y-56402438D01*
X184555952Y-56402438D02*
X184460714Y-56497676D01*
X184460714Y-56497676D02*
X184413095Y-56592914D01*
X184413095Y-56592914D02*
X184365476Y-56783390D01*
X184365476Y-56783390D02*
X184365476Y-56926247D01*
X184365476Y-56926247D02*
X184413095Y-57116723D01*
X184413095Y-57116723D02*
X184460714Y-57211961D01*
X184460714Y-57211961D02*
X184555952Y-57307200D01*
X184555952Y-57307200D02*
X184698809Y-57354819D01*
X184698809Y-57354819D02*
X184794047Y-57354819D01*
X184794047Y-57354819D02*
X184936904Y-57307200D01*
X184936904Y-57307200D02*
X184984523Y-57259580D01*
X184984523Y-57259580D02*
X184984523Y-56926247D01*
X184984523Y-56926247D02*
X184794047Y-56926247D01*
X185413095Y-57354819D02*
X185413095Y-56354819D01*
X185413095Y-56354819D02*
X185984523Y-57354819D01*
X185984523Y-57354819D02*
X185984523Y-56354819D01*
X186460714Y-57354819D02*
X186460714Y-56354819D01*
X186460714Y-56354819D02*
X186698809Y-56354819D01*
X186698809Y-56354819D02*
X186841666Y-56402438D01*
X186841666Y-56402438D02*
X186936904Y-56497676D01*
X186936904Y-56497676D02*
X186984523Y-56592914D01*
X186984523Y-56592914D02*
X187032142Y-56783390D01*
X187032142Y-56783390D02*
X187032142Y-56926247D01*
X187032142Y-56926247D02*
X186984523Y-57116723D01*
X186984523Y-57116723D02*
X186936904Y-57211961D01*
X186936904Y-57211961D02*
X186841666Y-57307200D01*
X186841666Y-57307200D02*
X186698809Y-57354819D01*
X186698809Y-57354819D02*
X186460714Y-57354819D01*
X187413095Y-56450057D02*
X187460714Y-56402438D01*
X187460714Y-56402438D02*
X187555952Y-56354819D01*
X187555952Y-56354819D02*
X187794047Y-56354819D01*
X187794047Y-56354819D02*
X187889285Y-56402438D01*
X187889285Y-56402438D02*
X187936904Y-56450057D01*
X187936904Y-56450057D02*
X187984523Y-56545295D01*
X187984523Y-56545295D02*
X187984523Y-56640533D01*
X187984523Y-56640533D02*
X187936904Y-56783390D01*
X187936904Y-56783390D02*
X187365476Y-57354819D01*
X187365476Y-57354819D02*
X187984523Y-57354819D01*
X189959580Y-65561554D02*
X190007200Y-65609173D01*
X190007200Y-65609173D02*
X190054819Y-65752030D01*
X190054819Y-65752030D02*
X190054819Y-65847268D01*
X190054819Y-65847268D02*
X190007200Y-65990125D01*
X190007200Y-65990125D02*
X189911961Y-66085363D01*
X189911961Y-66085363D02*
X189816723Y-66132982D01*
X189816723Y-66132982D02*
X189626247Y-66180601D01*
X189626247Y-66180601D02*
X189483390Y-66180601D01*
X189483390Y-66180601D02*
X189292914Y-66132982D01*
X189292914Y-66132982D02*
X189197676Y-66085363D01*
X189197676Y-66085363D02*
X189102438Y-65990125D01*
X189102438Y-65990125D02*
X189054819Y-65847268D01*
X189054819Y-65847268D02*
X189054819Y-65752030D01*
X189054819Y-65752030D02*
X189102438Y-65609173D01*
X189102438Y-65609173D02*
X189150057Y-65561554D01*
X189388152Y-64704411D02*
X190054819Y-64704411D01*
X189007200Y-64942506D02*
X189721485Y-65180601D01*
X189721485Y-65180601D02*
X189721485Y-64561554D01*
X142104819Y-64042857D02*
X141628628Y-64376190D01*
X142104819Y-64614285D02*
X141104819Y-64614285D01*
X141104819Y-64614285D02*
X141104819Y-64233333D01*
X141104819Y-64233333D02*
X141152438Y-64138095D01*
X141152438Y-64138095D02*
X141200057Y-64090476D01*
X141200057Y-64090476D02*
X141295295Y-64042857D01*
X141295295Y-64042857D02*
X141438152Y-64042857D01*
X141438152Y-64042857D02*
X141533390Y-64090476D01*
X141533390Y-64090476D02*
X141581009Y-64138095D01*
X141581009Y-64138095D02*
X141628628Y-64233333D01*
X141628628Y-64233333D02*
X141628628Y-64614285D01*
X142104819Y-63090476D02*
X142104819Y-63661904D01*
X142104819Y-63376190D02*
X141104819Y-63376190D01*
X141104819Y-63376190D02*
X141247676Y-63471428D01*
X141247676Y-63471428D02*
X141342914Y-63566666D01*
X141342914Y-63566666D02*
X141390533Y-63661904D01*
X141104819Y-62233333D02*
X141104819Y-62423809D01*
X141104819Y-62423809D02*
X141152438Y-62519047D01*
X141152438Y-62519047D02*
X141200057Y-62566666D01*
X141200057Y-62566666D02*
X141342914Y-62661904D01*
X141342914Y-62661904D02*
X141533390Y-62709523D01*
X141533390Y-62709523D02*
X141914342Y-62709523D01*
X141914342Y-62709523D02*
X142009580Y-62661904D01*
X142009580Y-62661904D02*
X142057200Y-62614285D01*
X142057200Y-62614285D02*
X142104819Y-62519047D01*
X142104819Y-62519047D02*
X142104819Y-62328571D01*
X142104819Y-62328571D02*
X142057200Y-62233333D01*
X142057200Y-62233333D02*
X142009580Y-62185714D01*
X142009580Y-62185714D02*
X141914342Y-62138095D01*
X141914342Y-62138095D02*
X141676247Y-62138095D01*
X141676247Y-62138095D02*
X141581009Y-62185714D01*
X141581009Y-62185714D02*
X141533390Y-62233333D01*
X141533390Y-62233333D02*
X141485771Y-62328571D01*
X141485771Y-62328571D02*
X141485771Y-62519047D01*
X141485771Y-62519047D02*
X141533390Y-62614285D01*
X141533390Y-62614285D02*
X141581009Y-62661904D01*
X141581009Y-62661904D02*
X141676247Y-62709523D01*
X176633333Y-73654819D02*
X176300000Y-73178628D01*
X176061905Y-73654819D02*
X176061905Y-72654819D01*
X176061905Y-72654819D02*
X176442857Y-72654819D01*
X176442857Y-72654819D02*
X176538095Y-72702438D01*
X176538095Y-72702438D02*
X176585714Y-72750057D01*
X176585714Y-72750057D02*
X176633333Y-72845295D01*
X176633333Y-72845295D02*
X176633333Y-72988152D01*
X176633333Y-72988152D02*
X176585714Y-73083390D01*
X176585714Y-73083390D02*
X176538095Y-73131009D01*
X176538095Y-73131009D02*
X176442857Y-73178628D01*
X176442857Y-73178628D02*
X176061905Y-73178628D01*
X177538095Y-72654819D02*
X177061905Y-72654819D01*
X177061905Y-72654819D02*
X177014286Y-73131009D01*
X177014286Y-73131009D02*
X177061905Y-73083390D01*
X177061905Y-73083390D02*
X177157143Y-73035771D01*
X177157143Y-73035771D02*
X177395238Y-73035771D01*
X177395238Y-73035771D02*
X177490476Y-73083390D01*
X177490476Y-73083390D02*
X177538095Y-73131009D01*
X177538095Y-73131009D02*
X177585714Y-73226247D01*
X177585714Y-73226247D02*
X177585714Y-73464342D01*
X177585714Y-73464342D02*
X177538095Y-73559580D01*
X177538095Y-73559580D02*
X177490476Y-73607200D01*
X177490476Y-73607200D02*
X177395238Y-73654819D01*
X177395238Y-73654819D02*
X177157143Y-73654819D01*
X177157143Y-73654819D02*
X177061905Y-73607200D01*
X177061905Y-73607200D02*
X177014286Y-73559580D01*
X180083333Y-73604819D02*
X179750000Y-73128628D01*
X179511905Y-73604819D02*
X179511905Y-72604819D01*
X179511905Y-72604819D02*
X179892857Y-72604819D01*
X179892857Y-72604819D02*
X179988095Y-72652438D01*
X179988095Y-72652438D02*
X180035714Y-72700057D01*
X180035714Y-72700057D02*
X180083333Y-72795295D01*
X180083333Y-72795295D02*
X180083333Y-72938152D01*
X180083333Y-72938152D02*
X180035714Y-73033390D01*
X180035714Y-73033390D02*
X179988095Y-73081009D01*
X179988095Y-73081009D02*
X179892857Y-73128628D01*
X179892857Y-73128628D02*
X179511905Y-73128628D01*
X180464286Y-72700057D02*
X180511905Y-72652438D01*
X180511905Y-72652438D02*
X180607143Y-72604819D01*
X180607143Y-72604819D02*
X180845238Y-72604819D01*
X180845238Y-72604819D02*
X180940476Y-72652438D01*
X180940476Y-72652438D02*
X180988095Y-72700057D01*
X180988095Y-72700057D02*
X181035714Y-72795295D01*
X181035714Y-72795295D02*
X181035714Y-72890533D01*
X181035714Y-72890533D02*
X180988095Y-73033390D01*
X180988095Y-73033390D02*
X180416667Y-73604819D01*
X180416667Y-73604819D02*
X181035714Y-73604819D01*
X167683333Y-74754819D02*
X167350000Y-74278628D01*
X167111905Y-74754819D02*
X167111905Y-73754819D01*
X167111905Y-73754819D02*
X167492857Y-73754819D01*
X167492857Y-73754819D02*
X167588095Y-73802438D01*
X167588095Y-73802438D02*
X167635714Y-73850057D01*
X167635714Y-73850057D02*
X167683333Y-73945295D01*
X167683333Y-73945295D02*
X167683333Y-74088152D01*
X167683333Y-74088152D02*
X167635714Y-74183390D01*
X167635714Y-74183390D02*
X167588095Y-74231009D01*
X167588095Y-74231009D02*
X167492857Y-74278628D01*
X167492857Y-74278628D02*
X167111905Y-74278628D01*
X168540476Y-74088152D02*
X168540476Y-74754819D01*
X168302381Y-73707200D02*
X168064286Y-74421485D01*
X168064286Y-74421485D02*
X168683333Y-74421485D01*
X124533333Y-65079819D02*
X124200000Y-64603628D01*
X123961905Y-65079819D02*
X123961905Y-64079819D01*
X123961905Y-64079819D02*
X124342857Y-64079819D01*
X124342857Y-64079819D02*
X124438095Y-64127438D01*
X124438095Y-64127438D02*
X124485714Y-64175057D01*
X124485714Y-64175057D02*
X124533333Y-64270295D01*
X124533333Y-64270295D02*
X124533333Y-64413152D01*
X124533333Y-64413152D02*
X124485714Y-64508390D01*
X124485714Y-64508390D02*
X124438095Y-64556009D01*
X124438095Y-64556009D02*
X124342857Y-64603628D01*
X124342857Y-64603628D02*
X123961905Y-64603628D01*
X125485714Y-65079819D02*
X124914286Y-65079819D01*
X125200000Y-65079819D02*
X125200000Y-64079819D01*
X125200000Y-64079819D02*
X125104762Y-64222676D01*
X125104762Y-64222676D02*
X125009524Y-64317914D01*
X125009524Y-64317914D02*
X124914286Y-64365533D01*
X139359580Y-72136666D02*
X139407200Y-72184285D01*
X139407200Y-72184285D02*
X139454819Y-72327142D01*
X139454819Y-72327142D02*
X139454819Y-72422380D01*
X139454819Y-72422380D02*
X139407200Y-72565237D01*
X139407200Y-72565237D02*
X139311961Y-72660475D01*
X139311961Y-72660475D02*
X139216723Y-72708094D01*
X139216723Y-72708094D02*
X139026247Y-72755713D01*
X139026247Y-72755713D02*
X138883390Y-72755713D01*
X138883390Y-72755713D02*
X138692914Y-72708094D01*
X138692914Y-72708094D02*
X138597676Y-72660475D01*
X138597676Y-72660475D02*
X138502438Y-72565237D01*
X138502438Y-72565237D02*
X138454819Y-72422380D01*
X138454819Y-72422380D02*
X138454819Y-72327142D01*
X138454819Y-72327142D02*
X138502438Y-72184285D01*
X138502438Y-72184285D02*
X138550057Y-72136666D01*
X138454819Y-71803332D02*
X138454819Y-71184285D01*
X138454819Y-71184285D02*
X138835771Y-71517618D01*
X138835771Y-71517618D02*
X138835771Y-71374761D01*
X138835771Y-71374761D02*
X138883390Y-71279523D01*
X138883390Y-71279523D02*
X138931009Y-71231904D01*
X138931009Y-71231904D02*
X139026247Y-71184285D01*
X139026247Y-71184285D02*
X139264342Y-71184285D01*
X139264342Y-71184285D02*
X139359580Y-71231904D01*
X139359580Y-71231904D02*
X139407200Y-71279523D01*
X139407200Y-71279523D02*
X139454819Y-71374761D01*
X139454819Y-71374761D02*
X139454819Y-71660475D01*
X139454819Y-71660475D02*
X139407200Y-71755713D01*
X139407200Y-71755713D02*
X139359580Y-71803332D01*
X142807142Y-92264819D02*
X142473809Y-91788628D01*
X142235714Y-92264819D02*
X142235714Y-91264819D01*
X142235714Y-91264819D02*
X142616666Y-91264819D01*
X142616666Y-91264819D02*
X142711904Y-91312438D01*
X142711904Y-91312438D02*
X142759523Y-91360057D01*
X142759523Y-91360057D02*
X142807142Y-91455295D01*
X142807142Y-91455295D02*
X142807142Y-91598152D01*
X142807142Y-91598152D02*
X142759523Y-91693390D01*
X142759523Y-91693390D02*
X142711904Y-91741009D01*
X142711904Y-91741009D02*
X142616666Y-91788628D01*
X142616666Y-91788628D02*
X142235714Y-91788628D01*
X143759523Y-92264819D02*
X143188095Y-92264819D01*
X143473809Y-92264819D02*
X143473809Y-91264819D01*
X143473809Y-91264819D02*
X143378571Y-91407676D01*
X143378571Y-91407676D02*
X143283333Y-91502914D01*
X143283333Y-91502914D02*
X143188095Y-91550533D01*
X144092857Y-91264819D02*
X144711904Y-91264819D01*
X144711904Y-91264819D02*
X144378571Y-91645771D01*
X144378571Y-91645771D02*
X144521428Y-91645771D01*
X144521428Y-91645771D02*
X144616666Y-91693390D01*
X144616666Y-91693390D02*
X144664285Y-91741009D01*
X144664285Y-91741009D02*
X144711904Y-91836247D01*
X144711904Y-91836247D02*
X144711904Y-92074342D01*
X144711904Y-92074342D02*
X144664285Y-92169580D01*
X144664285Y-92169580D02*
X144616666Y-92217200D01*
X144616666Y-92217200D02*
X144521428Y-92264819D01*
X144521428Y-92264819D02*
X144235714Y-92264819D01*
X144235714Y-92264819D02*
X144140476Y-92217200D01*
X144140476Y-92217200D02*
X144092857Y-92169580D01*
X170864819Y-57092857D02*
X170388628Y-57426190D01*
X170864819Y-57664285D02*
X169864819Y-57664285D01*
X169864819Y-57664285D02*
X169864819Y-57283333D01*
X169864819Y-57283333D02*
X169912438Y-57188095D01*
X169912438Y-57188095D02*
X169960057Y-57140476D01*
X169960057Y-57140476D02*
X170055295Y-57092857D01*
X170055295Y-57092857D02*
X170198152Y-57092857D01*
X170198152Y-57092857D02*
X170293390Y-57140476D01*
X170293390Y-57140476D02*
X170341009Y-57188095D01*
X170341009Y-57188095D02*
X170388628Y-57283333D01*
X170388628Y-57283333D02*
X170388628Y-57664285D01*
X169960057Y-56711904D02*
X169912438Y-56664285D01*
X169912438Y-56664285D02*
X169864819Y-56569047D01*
X169864819Y-56569047D02*
X169864819Y-56330952D01*
X169864819Y-56330952D02*
X169912438Y-56235714D01*
X169912438Y-56235714D02*
X169960057Y-56188095D01*
X169960057Y-56188095D02*
X170055295Y-56140476D01*
X170055295Y-56140476D02*
X170150533Y-56140476D01*
X170150533Y-56140476D02*
X170293390Y-56188095D01*
X170293390Y-56188095D02*
X170864819Y-56759523D01*
X170864819Y-56759523D02*
X170864819Y-56140476D01*
X169864819Y-55807142D02*
X169864819Y-55188095D01*
X169864819Y-55188095D02*
X170245771Y-55521428D01*
X170245771Y-55521428D02*
X170245771Y-55378571D01*
X170245771Y-55378571D02*
X170293390Y-55283333D01*
X170293390Y-55283333D02*
X170341009Y-55235714D01*
X170341009Y-55235714D02*
X170436247Y-55188095D01*
X170436247Y-55188095D02*
X170674342Y-55188095D01*
X170674342Y-55188095D02*
X170769580Y-55235714D01*
X170769580Y-55235714D02*
X170817200Y-55283333D01*
X170817200Y-55283333D02*
X170864819Y-55378571D01*
X170864819Y-55378571D02*
X170864819Y-55664285D01*
X170864819Y-55664285D02*
X170817200Y-55759523D01*
X170817200Y-55759523D02*
X170769580Y-55807142D01*
X171183333Y-74504819D02*
X170850000Y-74028628D01*
X170611905Y-74504819D02*
X170611905Y-73504819D01*
X170611905Y-73504819D02*
X170992857Y-73504819D01*
X170992857Y-73504819D02*
X171088095Y-73552438D01*
X171088095Y-73552438D02*
X171135714Y-73600057D01*
X171135714Y-73600057D02*
X171183333Y-73695295D01*
X171183333Y-73695295D02*
X171183333Y-73838152D01*
X171183333Y-73838152D02*
X171135714Y-73933390D01*
X171135714Y-73933390D02*
X171088095Y-73981009D01*
X171088095Y-73981009D02*
X170992857Y-74028628D01*
X170992857Y-74028628D02*
X170611905Y-74028628D01*
X171516667Y-73504819D02*
X172183333Y-73504819D01*
X172183333Y-73504819D02*
X171754762Y-74504819D01*
X133104761Y-73560057D02*
X133009523Y-73512438D01*
X133009523Y-73512438D02*
X132914285Y-73417200D01*
X132914285Y-73417200D02*
X132771428Y-73274342D01*
X132771428Y-73274342D02*
X132676190Y-73226723D01*
X132676190Y-73226723D02*
X132580952Y-73226723D01*
X132628571Y-73464819D02*
X132533333Y-73417200D01*
X132533333Y-73417200D02*
X132438095Y-73321961D01*
X132438095Y-73321961D02*
X132390476Y-73131485D01*
X132390476Y-73131485D02*
X132390476Y-72798152D01*
X132390476Y-72798152D02*
X132438095Y-72607676D01*
X132438095Y-72607676D02*
X132533333Y-72512438D01*
X132533333Y-72512438D02*
X132628571Y-72464819D01*
X132628571Y-72464819D02*
X132819047Y-72464819D01*
X132819047Y-72464819D02*
X132914285Y-72512438D01*
X132914285Y-72512438D02*
X133009523Y-72607676D01*
X133009523Y-72607676D02*
X133057142Y-72798152D01*
X133057142Y-72798152D02*
X133057142Y-73131485D01*
X133057142Y-73131485D02*
X133009523Y-73321961D01*
X133009523Y-73321961D02*
X132914285Y-73417200D01*
X132914285Y-73417200D02*
X132819047Y-73464819D01*
X132819047Y-73464819D02*
X132628571Y-73464819D01*
X133914285Y-72464819D02*
X133723809Y-72464819D01*
X133723809Y-72464819D02*
X133628571Y-72512438D01*
X133628571Y-72512438D02*
X133580952Y-72560057D01*
X133580952Y-72560057D02*
X133485714Y-72702914D01*
X133485714Y-72702914D02*
X133438095Y-72893390D01*
X133438095Y-72893390D02*
X133438095Y-73274342D01*
X133438095Y-73274342D02*
X133485714Y-73369580D01*
X133485714Y-73369580D02*
X133533333Y-73417200D01*
X133533333Y-73417200D02*
X133628571Y-73464819D01*
X133628571Y-73464819D02*
X133819047Y-73464819D01*
X133819047Y-73464819D02*
X133914285Y-73417200D01*
X133914285Y-73417200D02*
X133961904Y-73369580D01*
X133961904Y-73369580D02*
X134009523Y-73274342D01*
X134009523Y-73274342D02*
X134009523Y-73036247D01*
X134009523Y-73036247D02*
X133961904Y-72941009D01*
X133961904Y-72941009D02*
X133914285Y-72893390D01*
X133914285Y-72893390D02*
X133819047Y-72845771D01*
X133819047Y-72845771D02*
X133628571Y-72845771D01*
X133628571Y-72845771D02*
X133533333Y-72893390D01*
X133533333Y-72893390D02*
X133485714Y-72941009D01*
X133485714Y-72941009D02*
X133438095Y-73036247D01*
X191059580Y-83386666D02*
X191107200Y-83434285D01*
X191107200Y-83434285D02*
X191154819Y-83577142D01*
X191154819Y-83577142D02*
X191154819Y-83672380D01*
X191154819Y-83672380D02*
X191107200Y-83815237D01*
X191107200Y-83815237D02*
X191011961Y-83910475D01*
X191011961Y-83910475D02*
X190916723Y-83958094D01*
X190916723Y-83958094D02*
X190726247Y-84005713D01*
X190726247Y-84005713D02*
X190583390Y-84005713D01*
X190583390Y-84005713D02*
X190392914Y-83958094D01*
X190392914Y-83958094D02*
X190297676Y-83910475D01*
X190297676Y-83910475D02*
X190202438Y-83815237D01*
X190202438Y-83815237D02*
X190154819Y-83672380D01*
X190154819Y-83672380D02*
X190154819Y-83577142D01*
X190154819Y-83577142D02*
X190202438Y-83434285D01*
X190202438Y-83434285D02*
X190250057Y-83386666D01*
X190154819Y-82529523D02*
X190154819Y-82719999D01*
X190154819Y-82719999D02*
X190202438Y-82815237D01*
X190202438Y-82815237D02*
X190250057Y-82862856D01*
X190250057Y-82862856D02*
X190392914Y-82958094D01*
X190392914Y-82958094D02*
X190583390Y-83005713D01*
X190583390Y-83005713D02*
X190964342Y-83005713D01*
X190964342Y-83005713D02*
X191059580Y-82958094D01*
X191059580Y-82958094D02*
X191107200Y-82910475D01*
X191107200Y-82910475D02*
X191154819Y-82815237D01*
X191154819Y-82815237D02*
X191154819Y-82624761D01*
X191154819Y-82624761D02*
X191107200Y-82529523D01*
X191107200Y-82529523D02*
X191059580Y-82481904D01*
X191059580Y-82481904D02*
X190964342Y-82434285D01*
X190964342Y-82434285D02*
X190726247Y-82434285D01*
X190726247Y-82434285D02*
X190631009Y-82481904D01*
X190631009Y-82481904D02*
X190583390Y-82529523D01*
X190583390Y-82529523D02*
X190535771Y-82624761D01*
X190535771Y-82624761D02*
X190535771Y-82815237D01*
X190535771Y-82815237D02*
X190583390Y-82910475D01*
X190583390Y-82910475D02*
X190631009Y-82958094D01*
X190631009Y-82958094D02*
X190726247Y-83005713D01*
X190009580Y-71266666D02*
X190057200Y-71314285D01*
X190057200Y-71314285D02*
X190104819Y-71457142D01*
X190104819Y-71457142D02*
X190104819Y-71552380D01*
X190104819Y-71552380D02*
X190057200Y-71695237D01*
X190057200Y-71695237D02*
X189961961Y-71790475D01*
X189961961Y-71790475D02*
X189866723Y-71838094D01*
X189866723Y-71838094D02*
X189676247Y-71885713D01*
X189676247Y-71885713D02*
X189533390Y-71885713D01*
X189533390Y-71885713D02*
X189342914Y-71838094D01*
X189342914Y-71838094D02*
X189247676Y-71790475D01*
X189247676Y-71790475D02*
X189152438Y-71695237D01*
X189152438Y-71695237D02*
X189104819Y-71552380D01*
X189104819Y-71552380D02*
X189104819Y-71457142D01*
X189104819Y-71457142D02*
X189152438Y-71314285D01*
X189152438Y-71314285D02*
X189200057Y-71266666D01*
X189104819Y-70361904D02*
X189104819Y-70838094D01*
X189104819Y-70838094D02*
X189581009Y-70885713D01*
X189581009Y-70885713D02*
X189533390Y-70838094D01*
X189533390Y-70838094D02*
X189485771Y-70742856D01*
X189485771Y-70742856D02*
X189485771Y-70504761D01*
X189485771Y-70504761D02*
X189533390Y-70409523D01*
X189533390Y-70409523D02*
X189581009Y-70361904D01*
X189581009Y-70361904D02*
X189676247Y-70314285D01*
X189676247Y-70314285D02*
X189914342Y-70314285D01*
X189914342Y-70314285D02*
X190009580Y-70361904D01*
X190009580Y-70361904D02*
X190057200Y-70409523D01*
X190057200Y-70409523D02*
X190104819Y-70504761D01*
X190104819Y-70504761D02*
X190104819Y-70742856D01*
X190104819Y-70742856D02*
X190057200Y-70838094D01*
X190057200Y-70838094D02*
X190009580Y-70885713D01*
X166164819Y-57092857D02*
X165688628Y-57426190D01*
X166164819Y-57664285D02*
X165164819Y-57664285D01*
X165164819Y-57664285D02*
X165164819Y-57283333D01*
X165164819Y-57283333D02*
X165212438Y-57188095D01*
X165212438Y-57188095D02*
X165260057Y-57140476D01*
X165260057Y-57140476D02*
X165355295Y-57092857D01*
X165355295Y-57092857D02*
X165498152Y-57092857D01*
X165498152Y-57092857D02*
X165593390Y-57140476D01*
X165593390Y-57140476D02*
X165641009Y-57188095D01*
X165641009Y-57188095D02*
X165688628Y-57283333D01*
X165688628Y-57283333D02*
X165688628Y-57664285D01*
X165260057Y-56711904D02*
X165212438Y-56664285D01*
X165212438Y-56664285D02*
X165164819Y-56569047D01*
X165164819Y-56569047D02*
X165164819Y-56330952D01*
X165164819Y-56330952D02*
X165212438Y-56235714D01*
X165212438Y-56235714D02*
X165260057Y-56188095D01*
X165260057Y-56188095D02*
X165355295Y-56140476D01*
X165355295Y-56140476D02*
X165450533Y-56140476D01*
X165450533Y-56140476D02*
X165593390Y-56188095D01*
X165593390Y-56188095D02*
X166164819Y-56759523D01*
X166164819Y-56759523D02*
X166164819Y-56140476D01*
X165260057Y-55759523D02*
X165212438Y-55711904D01*
X165212438Y-55711904D02*
X165164819Y-55616666D01*
X165164819Y-55616666D02*
X165164819Y-55378571D01*
X165164819Y-55378571D02*
X165212438Y-55283333D01*
X165212438Y-55283333D02*
X165260057Y-55235714D01*
X165260057Y-55235714D02*
X165355295Y-55188095D01*
X165355295Y-55188095D02*
X165450533Y-55188095D01*
X165450533Y-55188095D02*
X165593390Y-55235714D01*
X165593390Y-55235714D02*
X166164819Y-55807142D01*
X166164819Y-55807142D02*
X166164819Y-55188095D01*
X178766666Y-60914819D02*
X178766666Y-61629104D01*
X178766666Y-61629104D02*
X178719047Y-61771961D01*
X178719047Y-61771961D02*
X178623809Y-61867200D01*
X178623809Y-61867200D02*
X178480952Y-61914819D01*
X178480952Y-61914819D02*
X178385714Y-61914819D01*
X179195238Y-61010057D02*
X179242857Y-60962438D01*
X179242857Y-60962438D02*
X179338095Y-60914819D01*
X179338095Y-60914819D02*
X179576190Y-60914819D01*
X179576190Y-60914819D02*
X179671428Y-60962438D01*
X179671428Y-60962438D02*
X179719047Y-61010057D01*
X179719047Y-61010057D02*
X179766666Y-61105295D01*
X179766666Y-61105295D02*
X179766666Y-61200533D01*
X179766666Y-61200533D02*
X179719047Y-61343390D01*
X179719047Y-61343390D02*
X179147619Y-61914819D01*
X179147619Y-61914819D02*
X179766666Y-61914819D01*
X191177142Y-61119580D02*
X191129523Y-61167200D01*
X191129523Y-61167200D02*
X190986666Y-61214819D01*
X190986666Y-61214819D02*
X190891428Y-61214819D01*
X190891428Y-61214819D02*
X190748571Y-61167200D01*
X190748571Y-61167200D02*
X190653333Y-61071961D01*
X190653333Y-61071961D02*
X190605714Y-60976723D01*
X190605714Y-60976723D02*
X190558095Y-60786247D01*
X190558095Y-60786247D02*
X190558095Y-60643390D01*
X190558095Y-60643390D02*
X190605714Y-60452914D01*
X190605714Y-60452914D02*
X190653333Y-60357676D01*
X190653333Y-60357676D02*
X190748571Y-60262438D01*
X190748571Y-60262438D02*
X190891428Y-60214819D01*
X190891428Y-60214819D02*
X190986666Y-60214819D01*
X190986666Y-60214819D02*
X191129523Y-60262438D01*
X191129523Y-60262438D02*
X191177142Y-60310057D01*
X192129523Y-61214819D02*
X191558095Y-61214819D01*
X191843809Y-61214819D02*
X191843809Y-60214819D01*
X191843809Y-60214819D02*
X191748571Y-60357676D01*
X191748571Y-60357676D02*
X191653333Y-60452914D01*
X191653333Y-60452914D02*
X191558095Y-60500533D01*
X192748571Y-60214819D02*
X192843809Y-60214819D01*
X192843809Y-60214819D02*
X192939047Y-60262438D01*
X192939047Y-60262438D02*
X192986666Y-60310057D01*
X192986666Y-60310057D02*
X193034285Y-60405295D01*
X193034285Y-60405295D02*
X193081904Y-60595771D01*
X193081904Y-60595771D02*
X193081904Y-60833866D01*
X193081904Y-60833866D02*
X193034285Y-61024342D01*
X193034285Y-61024342D02*
X192986666Y-61119580D01*
X192986666Y-61119580D02*
X192939047Y-61167200D01*
X192939047Y-61167200D02*
X192843809Y-61214819D01*
X192843809Y-61214819D02*
X192748571Y-61214819D01*
X192748571Y-61214819D02*
X192653333Y-61167200D01*
X192653333Y-61167200D02*
X192605714Y-61119580D01*
X192605714Y-61119580D02*
X192558095Y-61024342D01*
X192558095Y-61024342D02*
X192510476Y-60833866D01*
X192510476Y-60833866D02*
X192510476Y-60595771D01*
X192510476Y-60595771D02*
X192558095Y-60405295D01*
X192558095Y-60405295D02*
X192605714Y-60310057D01*
X192605714Y-60310057D02*
X192653333Y-60262438D01*
X192653333Y-60262438D02*
X192748571Y-60214819D01*
X163853333Y-89574819D02*
X163520000Y-89098628D01*
X163281905Y-89574819D02*
X163281905Y-88574819D01*
X163281905Y-88574819D02*
X163662857Y-88574819D01*
X163662857Y-88574819D02*
X163758095Y-88622438D01*
X163758095Y-88622438D02*
X163805714Y-88670057D01*
X163805714Y-88670057D02*
X163853333Y-88765295D01*
X163853333Y-88765295D02*
X163853333Y-88908152D01*
X163853333Y-88908152D02*
X163805714Y-89003390D01*
X163805714Y-89003390D02*
X163758095Y-89051009D01*
X163758095Y-89051009D02*
X163662857Y-89098628D01*
X163662857Y-89098628D02*
X163281905Y-89098628D01*
X164186667Y-88574819D02*
X164805714Y-88574819D01*
X164805714Y-88574819D02*
X164472381Y-88955771D01*
X164472381Y-88955771D02*
X164615238Y-88955771D01*
X164615238Y-88955771D02*
X164710476Y-89003390D01*
X164710476Y-89003390D02*
X164758095Y-89051009D01*
X164758095Y-89051009D02*
X164805714Y-89146247D01*
X164805714Y-89146247D02*
X164805714Y-89384342D01*
X164805714Y-89384342D02*
X164758095Y-89479580D01*
X164758095Y-89479580D02*
X164710476Y-89527200D01*
X164710476Y-89527200D02*
X164615238Y-89574819D01*
X164615238Y-89574819D02*
X164329524Y-89574819D01*
X164329524Y-89574819D02*
X164234286Y-89527200D01*
X164234286Y-89527200D02*
X164186667Y-89479580D01*
X136879761Y-92550057D02*
X136784523Y-92502438D01*
X136784523Y-92502438D02*
X136689285Y-92407200D01*
X136689285Y-92407200D02*
X136546428Y-92264342D01*
X136546428Y-92264342D02*
X136451190Y-92216723D01*
X136451190Y-92216723D02*
X136355952Y-92216723D01*
X136403571Y-92454819D02*
X136308333Y-92407200D01*
X136308333Y-92407200D02*
X136213095Y-92311961D01*
X136213095Y-92311961D02*
X136165476Y-92121485D01*
X136165476Y-92121485D02*
X136165476Y-91788152D01*
X136165476Y-91788152D02*
X136213095Y-91597676D01*
X136213095Y-91597676D02*
X136308333Y-91502438D01*
X136308333Y-91502438D02*
X136403571Y-91454819D01*
X136403571Y-91454819D02*
X136594047Y-91454819D01*
X136594047Y-91454819D02*
X136689285Y-91502438D01*
X136689285Y-91502438D02*
X136784523Y-91597676D01*
X136784523Y-91597676D02*
X136832142Y-91788152D01*
X136832142Y-91788152D02*
X136832142Y-92121485D01*
X136832142Y-92121485D02*
X136784523Y-92311961D01*
X136784523Y-92311961D02*
X136689285Y-92407200D01*
X136689285Y-92407200D02*
X136594047Y-92454819D01*
X136594047Y-92454819D02*
X136403571Y-92454819D01*
X137165476Y-91454819D02*
X137784523Y-91454819D01*
X137784523Y-91454819D02*
X137451190Y-91835771D01*
X137451190Y-91835771D02*
X137594047Y-91835771D01*
X137594047Y-91835771D02*
X137689285Y-91883390D01*
X137689285Y-91883390D02*
X137736904Y-91931009D01*
X137736904Y-91931009D02*
X137784523Y-92026247D01*
X137784523Y-92026247D02*
X137784523Y-92264342D01*
X137784523Y-92264342D02*
X137736904Y-92359580D01*
X137736904Y-92359580D02*
X137689285Y-92407200D01*
X137689285Y-92407200D02*
X137594047Y-92454819D01*
X137594047Y-92454819D02*
X137308333Y-92454819D01*
X137308333Y-92454819D02*
X137213095Y-92407200D01*
X137213095Y-92407200D02*
X137165476Y-92359580D01*
X146177142Y-92414819D02*
X145843809Y-91938628D01*
X145605714Y-92414819D02*
X145605714Y-91414819D01*
X145605714Y-91414819D02*
X145986666Y-91414819D01*
X145986666Y-91414819D02*
X146081904Y-91462438D01*
X146081904Y-91462438D02*
X146129523Y-91510057D01*
X146129523Y-91510057D02*
X146177142Y-91605295D01*
X146177142Y-91605295D02*
X146177142Y-91748152D01*
X146177142Y-91748152D02*
X146129523Y-91843390D01*
X146129523Y-91843390D02*
X146081904Y-91891009D01*
X146081904Y-91891009D02*
X145986666Y-91938628D01*
X145986666Y-91938628D02*
X145605714Y-91938628D01*
X147129523Y-92414819D02*
X146558095Y-92414819D01*
X146843809Y-92414819D02*
X146843809Y-91414819D01*
X146843809Y-91414819D02*
X146748571Y-91557676D01*
X146748571Y-91557676D02*
X146653333Y-91652914D01*
X146653333Y-91652914D02*
X146558095Y-91700533D01*
X147986666Y-91748152D02*
X147986666Y-92414819D01*
X147748571Y-91367200D02*
X147510476Y-92081485D01*
X147510476Y-92081485D02*
X148129523Y-92081485D01*
X162383333Y-84254819D02*
X162050000Y-83778628D01*
X161811905Y-84254819D02*
X161811905Y-83254819D01*
X161811905Y-83254819D02*
X162192857Y-83254819D01*
X162192857Y-83254819D02*
X162288095Y-83302438D01*
X162288095Y-83302438D02*
X162335714Y-83350057D01*
X162335714Y-83350057D02*
X162383333Y-83445295D01*
X162383333Y-83445295D02*
X162383333Y-83588152D01*
X162383333Y-83588152D02*
X162335714Y-83683390D01*
X162335714Y-83683390D02*
X162288095Y-83731009D01*
X162288095Y-83731009D02*
X162192857Y-83778628D01*
X162192857Y-83778628D02*
X161811905Y-83778628D01*
X163240476Y-83254819D02*
X163050000Y-83254819D01*
X163050000Y-83254819D02*
X162954762Y-83302438D01*
X162954762Y-83302438D02*
X162907143Y-83350057D01*
X162907143Y-83350057D02*
X162811905Y-83492914D01*
X162811905Y-83492914D02*
X162764286Y-83683390D01*
X162764286Y-83683390D02*
X162764286Y-84064342D01*
X162764286Y-84064342D02*
X162811905Y-84159580D01*
X162811905Y-84159580D02*
X162859524Y-84207200D01*
X162859524Y-84207200D02*
X162954762Y-84254819D01*
X162954762Y-84254819D02*
X163145238Y-84254819D01*
X163145238Y-84254819D02*
X163240476Y-84207200D01*
X163240476Y-84207200D02*
X163288095Y-84159580D01*
X163288095Y-84159580D02*
X163335714Y-84064342D01*
X163335714Y-84064342D02*
X163335714Y-83826247D01*
X163335714Y-83826247D02*
X163288095Y-83731009D01*
X163288095Y-83731009D02*
X163240476Y-83683390D01*
X163240476Y-83683390D02*
X163145238Y-83635771D01*
X163145238Y-83635771D02*
X162954762Y-83635771D01*
X162954762Y-83635771D02*
X162859524Y-83683390D01*
X162859524Y-83683390D02*
X162811905Y-83731009D01*
X162811905Y-83731009D02*
X162764286Y-83826247D01*
X144529761Y-54225057D02*
X144434523Y-54177438D01*
X144434523Y-54177438D02*
X144339285Y-54082200D01*
X144339285Y-54082200D02*
X144196428Y-53939342D01*
X144196428Y-53939342D02*
X144101190Y-53891723D01*
X144101190Y-53891723D02*
X144005952Y-53891723D01*
X144053571Y-54129819D02*
X143958333Y-54082200D01*
X143958333Y-54082200D02*
X143863095Y-53986961D01*
X143863095Y-53986961D02*
X143815476Y-53796485D01*
X143815476Y-53796485D02*
X143815476Y-53463152D01*
X143815476Y-53463152D02*
X143863095Y-53272676D01*
X143863095Y-53272676D02*
X143958333Y-53177438D01*
X143958333Y-53177438D02*
X144053571Y-53129819D01*
X144053571Y-53129819D02*
X144244047Y-53129819D01*
X144244047Y-53129819D02*
X144339285Y-53177438D01*
X144339285Y-53177438D02*
X144434523Y-53272676D01*
X144434523Y-53272676D02*
X144482142Y-53463152D01*
X144482142Y-53463152D02*
X144482142Y-53796485D01*
X144482142Y-53796485D02*
X144434523Y-53986961D01*
X144434523Y-53986961D02*
X144339285Y-54082200D01*
X144339285Y-54082200D02*
X144244047Y-54129819D01*
X144244047Y-54129819D02*
X144053571Y-54129819D01*
X144958333Y-54129819D02*
X145148809Y-54129819D01*
X145148809Y-54129819D02*
X145244047Y-54082200D01*
X145244047Y-54082200D02*
X145291666Y-54034580D01*
X145291666Y-54034580D02*
X145386904Y-53891723D01*
X145386904Y-53891723D02*
X145434523Y-53701247D01*
X145434523Y-53701247D02*
X145434523Y-53320295D01*
X145434523Y-53320295D02*
X145386904Y-53225057D01*
X145386904Y-53225057D02*
X145339285Y-53177438D01*
X145339285Y-53177438D02*
X145244047Y-53129819D01*
X145244047Y-53129819D02*
X145053571Y-53129819D01*
X145053571Y-53129819D02*
X144958333Y-53177438D01*
X144958333Y-53177438D02*
X144910714Y-53225057D01*
X144910714Y-53225057D02*
X144863095Y-53320295D01*
X144863095Y-53320295D02*
X144863095Y-53558390D01*
X144863095Y-53558390D02*
X144910714Y-53653628D01*
X144910714Y-53653628D02*
X144958333Y-53701247D01*
X144958333Y-53701247D02*
X145053571Y-53748866D01*
X145053571Y-53748866D02*
X145244047Y-53748866D01*
X145244047Y-53748866D02*
X145339285Y-53701247D01*
X145339285Y-53701247D02*
X145386904Y-53653628D01*
X145386904Y-53653628D02*
X145434523Y-53558390D01*
X149954819Y-78866666D02*
X149478628Y-79199999D01*
X149954819Y-79438094D02*
X148954819Y-79438094D01*
X148954819Y-79438094D02*
X148954819Y-79057142D01*
X148954819Y-79057142D02*
X149002438Y-78961904D01*
X149002438Y-78961904D02*
X149050057Y-78914285D01*
X149050057Y-78914285D02*
X149145295Y-78866666D01*
X149145295Y-78866666D02*
X149288152Y-78866666D01*
X149288152Y-78866666D02*
X149383390Y-78914285D01*
X149383390Y-78914285D02*
X149431009Y-78961904D01*
X149431009Y-78961904D02*
X149478628Y-79057142D01*
X149478628Y-79057142D02*
X149478628Y-79438094D01*
X149954819Y-78390475D02*
X149954819Y-78199999D01*
X149954819Y-78199999D02*
X149907200Y-78104761D01*
X149907200Y-78104761D02*
X149859580Y-78057142D01*
X149859580Y-78057142D02*
X149716723Y-77961904D01*
X149716723Y-77961904D02*
X149526247Y-77914285D01*
X149526247Y-77914285D02*
X149145295Y-77914285D01*
X149145295Y-77914285D02*
X149050057Y-77961904D01*
X149050057Y-77961904D02*
X149002438Y-78009523D01*
X149002438Y-78009523D02*
X148954819Y-78104761D01*
X148954819Y-78104761D02*
X148954819Y-78295237D01*
X148954819Y-78295237D02*
X149002438Y-78390475D01*
X149002438Y-78390475D02*
X149050057Y-78438094D01*
X149050057Y-78438094D02*
X149145295Y-78485713D01*
X149145295Y-78485713D02*
X149383390Y-78485713D01*
X149383390Y-78485713D02*
X149478628Y-78438094D01*
X149478628Y-78438094D02*
X149526247Y-78390475D01*
X149526247Y-78390475D02*
X149573866Y-78295237D01*
X149573866Y-78295237D02*
X149573866Y-78104761D01*
X149573866Y-78104761D02*
X149526247Y-78009523D01*
X149526247Y-78009523D02*
X149478628Y-77961904D01*
X149478628Y-77961904D02*
X149383390Y-77914285D01*
X139507142Y-92264819D02*
X139173809Y-91788628D01*
X138935714Y-92264819D02*
X138935714Y-91264819D01*
X138935714Y-91264819D02*
X139316666Y-91264819D01*
X139316666Y-91264819D02*
X139411904Y-91312438D01*
X139411904Y-91312438D02*
X139459523Y-91360057D01*
X139459523Y-91360057D02*
X139507142Y-91455295D01*
X139507142Y-91455295D02*
X139507142Y-91598152D01*
X139507142Y-91598152D02*
X139459523Y-91693390D01*
X139459523Y-91693390D02*
X139411904Y-91741009D01*
X139411904Y-91741009D02*
X139316666Y-91788628D01*
X139316666Y-91788628D02*
X138935714Y-91788628D01*
X140459523Y-92264819D02*
X139888095Y-92264819D01*
X140173809Y-92264819D02*
X140173809Y-91264819D01*
X140173809Y-91264819D02*
X140078571Y-91407676D01*
X140078571Y-91407676D02*
X139983333Y-91502914D01*
X139983333Y-91502914D02*
X139888095Y-91550533D01*
X140840476Y-91360057D02*
X140888095Y-91312438D01*
X140888095Y-91312438D02*
X140983333Y-91264819D01*
X140983333Y-91264819D02*
X141221428Y-91264819D01*
X141221428Y-91264819D02*
X141316666Y-91312438D01*
X141316666Y-91312438D02*
X141364285Y-91360057D01*
X141364285Y-91360057D02*
X141411904Y-91455295D01*
X141411904Y-91455295D02*
X141411904Y-91550533D01*
X141411904Y-91550533D02*
X141364285Y-91693390D01*
X141364285Y-91693390D02*
X140792857Y-92264819D01*
X140792857Y-92264819D02*
X141411904Y-92264819D01*
X190879580Y-76306666D02*
X190927200Y-76354285D01*
X190927200Y-76354285D02*
X190974819Y-76497142D01*
X190974819Y-76497142D02*
X190974819Y-76592380D01*
X190974819Y-76592380D02*
X190927200Y-76735237D01*
X190927200Y-76735237D02*
X190831961Y-76830475D01*
X190831961Y-76830475D02*
X190736723Y-76878094D01*
X190736723Y-76878094D02*
X190546247Y-76925713D01*
X190546247Y-76925713D02*
X190403390Y-76925713D01*
X190403390Y-76925713D02*
X190212914Y-76878094D01*
X190212914Y-76878094D02*
X190117676Y-76830475D01*
X190117676Y-76830475D02*
X190022438Y-76735237D01*
X190022438Y-76735237D02*
X189974819Y-76592380D01*
X189974819Y-76592380D02*
X189974819Y-76497142D01*
X189974819Y-76497142D02*
X190022438Y-76354285D01*
X190022438Y-76354285D02*
X190070057Y-76306666D01*
X190974819Y-75830475D02*
X190974819Y-75639999D01*
X190974819Y-75639999D02*
X190927200Y-75544761D01*
X190927200Y-75544761D02*
X190879580Y-75497142D01*
X190879580Y-75497142D02*
X190736723Y-75401904D01*
X190736723Y-75401904D02*
X190546247Y-75354285D01*
X190546247Y-75354285D02*
X190165295Y-75354285D01*
X190165295Y-75354285D02*
X190070057Y-75401904D01*
X190070057Y-75401904D02*
X190022438Y-75449523D01*
X190022438Y-75449523D02*
X189974819Y-75544761D01*
X189974819Y-75544761D02*
X189974819Y-75735237D01*
X189974819Y-75735237D02*
X190022438Y-75830475D01*
X190022438Y-75830475D02*
X190070057Y-75878094D01*
X190070057Y-75878094D02*
X190165295Y-75925713D01*
X190165295Y-75925713D02*
X190403390Y-75925713D01*
X190403390Y-75925713D02*
X190498628Y-75878094D01*
X190498628Y-75878094D02*
X190546247Y-75830475D01*
X190546247Y-75830475D02*
X190593866Y-75735237D01*
X190593866Y-75735237D02*
X190593866Y-75544761D01*
X190593866Y-75544761D02*
X190546247Y-75449523D01*
X190546247Y-75449523D02*
X190498628Y-75401904D01*
X190498628Y-75401904D02*
X190403390Y-75354285D01*
X154754819Y-68201904D02*
X155564342Y-68201904D01*
X155564342Y-68201904D02*
X155659580Y-68154285D01*
X155659580Y-68154285D02*
X155707200Y-68106666D01*
X155707200Y-68106666D02*
X155754819Y-68011428D01*
X155754819Y-68011428D02*
X155754819Y-67820952D01*
X155754819Y-67820952D02*
X155707200Y-67725714D01*
X155707200Y-67725714D02*
X155659580Y-67678095D01*
X155659580Y-67678095D02*
X155564342Y-67630476D01*
X155564342Y-67630476D02*
X154754819Y-67630476D01*
X155754819Y-66630476D02*
X155754819Y-67201904D01*
X155754819Y-66916190D02*
X154754819Y-66916190D01*
X154754819Y-66916190D02*
X154897676Y-67011428D01*
X154897676Y-67011428D02*
X154992914Y-67106666D01*
X154992914Y-67106666D02*
X155040533Y-67201904D01*
X126329761Y-92275057D02*
X126234523Y-92227438D01*
X126234523Y-92227438D02*
X126139285Y-92132200D01*
X126139285Y-92132200D02*
X125996428Y-91989342D01*
X125996428Y-91989342D02*
X125901190Y-91941723D01*
X125901190Y-91941723D02*
X125805952Y-91941723D01*
X125853571Y-92179819D02*
X125758333Y-92132200D01*
X125758333Y-92132200D02*
X125663095Y-92036961D01*
X125663095Y-92036961D02*
X125615476Y-91846485D01*
X125615476Y-91846485D02*
X125615476Y-91513152D01*
X125615476Y-91513152D02*
X125663095Y-91322676D01*
X125663095Y-91322676D02*
X125758333Y-91227438D01*
X125758333Y-91227438D02*
X125853571Y-91179819D01*
X125853571Y-91179819D02*
X126044047Y-91179819D01*
X126044047Y-91179819D02*
X126139285Y-91227438D01*
X126139285Y-91227438D02*
X126234523Y-91322676D01*
X126234523Y-91322676D02*
X126282142Y-91513152D01*
X126282142Y-91513152D02*
X126282142Y-91846485D01*
X126282142Y-91846485D02*
X126234523Y-92036961D01*
X126234523Y-92036961D02*
X126139285Y-92132200D01*
X126139285Y-92132200D02*
X126044047Y-92179819D01*
X126044047Y-92179819D02*
X125853571Y-92179819D01*
X127234523Y-92179819D02*
X126663095Y-92179819D01*
X126948809Y-92179819D02*
X126948809Y-91179819D01*
X126948809Y-91179819D02*
X126853571Y-91322676D01*
X126853571Y-91322676D02*
X126758333Y-91417914D01*
X126758333Y-91417914D02*
X126663095Y-91465533D01*
X153157142Y-91254819D02*
X152823809Y-90778628D01*
X152585714Y-91254819D02*
X152585714Y-90254819D01*
X152585714Y-90254819D02*
X152966666Y-90254819D01*
X152966666Y-90254819D02*
X153061904Y-90302438D01*
X153061904Y-90302438D02*
X153109523Y-90350057D01*
X153109523Y-90350057D02*
X153157142Y-90445295D01*
X153157142Y-90445295D02*
X153157142Y-90588152D01*
X153157142Y-90588152D02*
X153109523Y-90683390D01*
X153109523Y-90683390D02*
X153061904Y-90731009D01*
X153061904Y-90731009D02*
X152966666Y-90778628D01*
X152966666Y-90778628D02*
X152585714Y-90778628D01*
X154109523Y-91254819D02*
X153538095Y-91254819D01*
X153823809Y-91254819D02*
X153823809Y-90254819D01*
X153823809Y-90254819D02*
X153728571Y-90397676D01*
X153728571Y-90397676D02*
X153633333Y-90492914D01*
X153633333Y-90492914D02*
X153538095Y-90540533D01*
X155014285Y-90254819D02*
X154538095Y-90254819D01*
X154538095Y-90254819D02*
X154490476Y-90731009D01*
X154490476Y-90731009D02*
X154538095Y-90683390D01*
X154538095Y-90683390D02*
X154633333Y-90635771D01*
X154633333Y-90635771D02*
X154871428Y-90635771D01*
X154871428Y-90635771D02*
X154966666Y-90683390D01*
X154966666Y-90683390D02*
X155014285Y-90731009D01*
X155014285Y-90731009D02*
X155061904Y-90826247D01*
X155061904Y-90826247D02*
X155061904Y-91064342D01*
X155061904Y-91064342D02*
X155014285Y-91159580D01*
X155014285Y-91159580D02*
X154966666Y-91207200D01*
X154966666Y-91207200D02*
X154871428Y-91254819D01*
X154871428Y-91254819D02*
X154633333Y-91254819D01*
X154633333Y-91254819D02*
X154538095Y-91207200D01*
X154538095Y-91207200D02*
X154490476Y-91159580D01*
X150490476Y-82104819D02*
X150490476Y-81104819D01*
X150490476Y-81104819D02*
X150823809Y-81819104D01*
X150823809Y-81819104D02*
X151157142Y-81104819D01*
X151157142Y-81104819D02*
X151157142Y-82104819D01*
X152157142Y-82104819D02*
X151585714Y-82104819D01*
X151871428Y-82104819D02*
X151871428Y-81104819D01*
X151871428Y-81104819D02*
X151776190Y-81247676D01*
X151776190Y-81247676D02*
X151680952Y-81342914D01*
X151680952Y-81342914D02*
X151585714Y-81390533D01*
X151714819Y-60342857D02*
X151238628Y-60676190D01*
X151714819Y-60914285D02*
X150714819Y-60914285D01*
X150714819Y-60914285D02*
X150714819Y-60533333D01*
X150714819Y-60533333D02*
X150762438Y-60438095D01*
X150762438Y-60438095D02*
X150810057Y-60390476D01*
X150810057Y-60390476D02*
X150905295Y-60342857D01*
X150905295Y-60342857D02*
X151048152Y-60342857D01*
X151048152Y-60342857D02*
X151143390Y-60390476D01*
X151143390Y-60390476D02*
X151191009Y-60438095D01*
X151191009Y-60438095D02*
X151238628Y-60533333D01*
X151238628Y-60533333D02*
X151238628Y-60914285D01*
X151714819Y-59390476D02*
X151714819Y-59961904D01*
X151714819Y-59676190D02*
X150714819Y-59676190D01*
X150714819Y-59676190D02*
X150857676Y-59771428D01*
X150857676Y-59771428D02*
X150952914Y-59866666D01*
X150952914Y-59866666D02*
X151000533Y-59961904D01*
X151714819Y-58914285D02*
X151714819Y-58723809D01*
X151714819Y-58723809D02*
X151667200Y-58628571D01*
X151667200Y-58628571D02*
X151619580Y-58580952D01*
X151619580Y-58580952D02*
X151476723Y-58485714D01*
X151476723Y-58485714D02*
X151286247Y-58438095D01*
X151286247Y-58438095D02*
X150905295Y-58438095D01*
X150905295Y-58438095D02*
X150810057Y-58485714D01*
X150810057Y-58485714D02*
X150762438Y-58533333D01*
X150762438Y-58533333D02*
X150714819Y-58628571D01*
X150714819Y-58628571D02*
X150714819Y-58819047D01*
X150714819Y-58819047D02*
X150762438Y-58914285D01*
X150762438Y-58914285D02*
X150810057Y-58961904D01*
X150810057Y-58961904D02*
X150905295Y-59009523D01*
X150905295Y-59009523D02*
X151143390Y-59009523D01*
X151143390Y-59009523D02*
X151238628Y-58961904D01*
X151238628Y-58961904D02*
X151286247Y-58914285D01*
X151286247Y-58914285D02*
X151333866Y-58819047D01*
X151333866Y-58819047D02*
X151333866Y-58628571D01*
X151333866Y-58628571D02*
X151286247Y-58533333D01*
X151286247Y-58533333D02*
X151238628Y-58485714D01*
X151238628Y-58485714D02*
X151143390Y-58438095D01*
X127404761Y-73460057D02*
X127309523Y-73412438D01*
X127309523Y-73412438D02*
X127214285Y-73317200D01*
X127214285Y-73317200D02*
X127071428Y-73174342D01*
X127071428Y-73174342D02*
X126976190Y-73126723D01*
X126976190Y-73126723D02*
X126880952Y-73126723D01*
X126928571Y-73364819D02*
X126833333Y-73317200D01*
X126833333Y-73317200D02*
X126738095Y-73221961D01*
X126738095Y-73221961D02*
X126690476Y-73031485D01*
X126690476Y-73031485D02*
X126690476Y-72698152D01*
X126690476Y-72698152D02*
X126738095Y-72507676D01*
X126738095Y-72507676D02*
X126833333Y-72412438D01*
X126833333Y-72412438D02*
X126928571Y-72364819D01*
X126928571Y-72364819D02*
X127119047Y-72364819D01*
X127119047Y-72364819D02*
X127214285Y-72412438D01*
X127214285Y-72412438D02*
X127309523Y-72507676D01*
X127309523Y-72507676D02*
X127357142Y-72698152D01*
X127357142Y-72698152D02*
X127357142Y-73031485D01*
X127357142Y-73031485D02*
X127309523Y-73221961D01*
X127309523Y-73221961D02*
X127214285Y-73317200D01*
X127214285Y-73317200D02*
X127119047Y-73364819D01*
X127119047Y-73364819D02*
X126928571Y-73364819D01*
X127738095Y-72460057D02*
X127785714Y-72412438D01*
X127785714Y-72412438D02*
X127880952Y-72364819D01*
X127880952Y-72364819D02*
X128119047Y-72364819D01*
X128119047Y-72364819D02*
X128214285Y-72412438D01*
X128214285Y-72412438D02*
X128261904Y-72460057D01*
X128261904Y-72460057D02*
X128309523Y-72555295D01*
X128309523Y-72555295D02*
X128309523Y-72650533D01*
X128309523Y-72650533D02*
X128261904Y-72793390D01*
X128261904Y-72793390D02*
X127690476Y-73364819D01*
X127690476Y-73364819D02*
X128309523Y-73364819D01*
X133004761Y-64780057D02*
X132909523Y-64732438D01*
X132909523Y-64732438D02*
X132814285Y-64637200D01*
X132814285Y-64637200D02*
X132671428Y-64494342D01*
X132671428Y-64494342D02*
X132576190Y-64446723D01*
X132576190Y-64446723D02*
X132480952Y-64446723D01*
X132528571Y-64684819D02*
X132433333Y-64637200D01*
X132433333Y-64637200D02*
X132338095Y-64541961D01*
X132338095Y-64541961D02*
X132290476Y-64351485D01*
X132290476Y-64351485D02*
X132290476Y-64018152D01*
X132290476Y-64018152D02*
X132338095Y-63827676D01*
X132338095Y-63827676D02*
X132433333Y-63732438D01*
X132433333Y-63732438D02*
X132528571Y-63684819D01*
X132528571Y-63684819D02*
X132719047Y-63684819D01*
X132719047Y-63684819D02*
X132814285Y-63732438D01*
X132814285Y-63732438D02*
X132909523Y-63827676D01*
X132909523Y-63827676D02*
X132957142Y-64018152D01*
X132957142Y-64018152D02*
X132957142Y-64351485D01*
X132957142Y-64351485D02*
X132909523Y-64541961D01*
X132909523Y-64541961D02*
X132814285Y-64637200D01*
X132814285Y-64637200D02*
X132719047Y-64684819D01*
X132719047Y-64684819D02*
X132528571Y-64684819D01*
X133861904Y-63684819D02*
X133385714Y-63684819D01*
X133385714Y-63684819D02*
X133338095Y-64161009D01*
X133338095Y-64161009D02*
X133385714Y-64113390D01*
X133385714Y-64113390D02*
X133480952Y-64065771D01*
X133480952Y-64065771D02*
X133719047Y-64065771D01*
X133719047Y-64065771D02*
X133814285Y-64113390D01*
X133814285Y-64113390D02*
X133861904Y-64161009D01*
X133861904Y-64161009D02*
X133909523Y-64256247D01*
X133909523Y-64256247D02*
X133909523Y-64494342D01*
X133909523Y-64494342D02*
X133861904Y-64589580D01*
X133861904Y-64589580D02*
X133814285Y-64637200D01*
X133814285Y-64637200D02*
X133719047Y-64684819D01*
X133719047Y-64684819D02*
X133480952Y-64684819D01*
X133480952Y-64684819D02*
X133385714Y-64637200D01*
X133385714Y-64637200D02*
X133338095Y-64589580D01*
X122861904Y-55754438D02*
X122766666Y-55706819D01*
X122766666Y-55706819D02*
X122623809Y-55706819D01*
X122623809Y-55706819D02*
X122480952Y-55754438D01*
X122480952Y-55754438D02*
X122385714Y-55849676D01*
X122385714Y-55849676D02*
X122338095Y-55944914D01*
X122338095Y-55944914D02*
X122290476Y-56135390D01*
X122290476Y-56135390D02*
X122290476Y-56278247D01*
X122290476Y-56278247D02*
X122338095Y-56468723D01*
X122338095Y-56468723D02*
X122385714Y-56563961D01*
X122385714Y-56563961D02*
X122480952Y-56659200D01*
X122480952Y-56659200D02*
X122623809Y-56706819D01*
X122623809Y-56706819D02*
X122719047Y-56706819D01*
X122719047Y-56706819D02*
X122861904Y-56659200D01*
X122861904Y-56659200D02*
X122909523Y-56611580D01*
X122909523Y-56611580D02*
X122909523Y-56278247D01*
X122909523Y-56278247D02*
X122719047Y-56278247D01*
X123338095Y-56706819D02*
X123338095Y-55706819D01*
X123338095Y-55706819D02*
X123909523Y-56706819D01*
X123909523Y-56706819D02*
X123909523Y-55706819D01*
X124385714Y-56706819D02*
X124385714Y-55706819D01*
X124385714Y-55706819D02*
X124623809Y-55706819D01*
X124623809Y-55706819D02*
X124766666Y-55754438D01*
X124766666Y-55754438D02*
X124861904Y-55849676D01*
X124861904Y-55849676D02*
X124909523Y-55944914D01*
X124909523Y-55944914D02*
X124957142Y-56135390D01*
X124957142Y-56135390D02*
X124957142Y-56278247D01*
X124957142Y-56278247D02*
X124909523Y-56468723D01*
X124909523Y-56468723D02*
X124861904Y-56563961D01*
X124861904Y-56563961D02*
X124766666Y-56659200D01*
X124766666Y-56659200D02*
X124623809Y-56706819D01*
X124623809Y-56706819D02*
X124385714Y-56706819D01*
X125909523Y-56706819D02*
X125338095Y-56706819D01*
X125623809Y-56706819D02*
X125623809Y-55706819D01*
X125623809Y-55706819D02*
X125528571Y-55849676D01*
X125528571Y-55849676D02*
X125433333Y-55944914D01*
X125433333Y-55944914D02*
X125338095Y-55992533D01*
X195956666Y-65904819D02*
X195956666Y-66619104D01*
X195956666Y-66619104D02*
X195909047Y-66761961D01*
X195909047Y-66761961D02*
X195813809Y-66857200D01*
X195813809Y-66857200D02*
X195670952Y-66904819D01*
X195670952Y-66904819D02*
X195575714Y-66904819D01*
X196956666Y-66904819D02*
X196385238Y-66904819D01*
X196670952Y-66904819D02*
X196670952Y-65904819D01*
X196670952Y-65904819D02*
X196575714Y-66047676D01*
X196575714Y-66047676D02*
X196480476Y-66142914D01*
X196480476Y-66142914D02*
X196385238Y-66190533D01*
X146307142Y-56354819D02*
X145973809Y-55878628D01*
X145735714Y-56354819D02*
X145735714Y-55354819D01*
X145735714Y-55354819D02*
X146116666Y-55354819D01*
X146116666Y-55354819D02*
X146211904Y-55402438D01*
X146211904Y-55402438D02*
X146259523Y-55450057D01*
X146259523Y-55450057D02*
X146307142Y-55545295D01*
X146307142Y-55545295D02*
X146307142Y-55688152D01*
X146307142Y-55688152D02*
X146259523Y-55783390D01*
X146259523Y-55783390D02*
X146211904Y-55831009D01*
X146211904Y-55831009D02*
X146116666Y-55878628D01*
X146116666Y-55878628D02*
X145735714Y-55878628D01*
X147259523Y-56354819D02*
X146688095Y-56354819D01*
X146973809Y-56354819D02*
X146973809Y-55354819D01*
X146973809Y-55354819D02*
X146878571Y-55497676D01*
X146878571Y-55497676D02*
X146783333Y-55592914D01*
X146783333Y-55592914D02*
X146688095Y-55640533D01*
X147592857Y-55354819D02*
X148259523Y-55354819D01*
X148259523Y-55354819D02*
X147830952Y-56354819D01*
X190999580Y-79036666D02*
X191047200Y-79084285D01*
X191047200Y-79084285D02*
X191094819Y-79227142D01*
X191094819Y-79227142D02*
X191094819Y-79322380D01*
X191094819Y-79322380D02*
X191047200Y-79465237D01*
X191047200Y-79465237D02*
X190951961Y-79560475D01*
X190951961Y-79560475D02*
X190856723Y-79608094D01*
X190856723Y-79608094D02*
X190666247Y-79655713D01*
X190666247Y-79655713D02*
X190523390Y-79655713D01*
X190523390Y-79655713D02*
X190332914Y-79608094D01*
X190332914Y-79608094D02*
X190237676Y-79560475D01*
X190237676Y-79560475D02*
X190142438Y-79465237D01*
X190142438Y-79465237D02*
X190094819Y-79322380D01*
X190094819Y-79322380D02*
X190094819Y-79227142D01*
X190094819Y-79227142D02*
X190142438Y-79084285D01*
X190142438Y-79084285D02*
X190190057Y-79036666D01*
X190190057Y-78655713D02*
X190142438Y-78608094D01*
X190142438Y-78608094D02*
X190094819Y-78512856D01*
X190094819Y-78512856D02*
X190094819Y-78274761D01*
X190094819Y-78274761D02*
X190142438Y-78179523D01*
X190142438Y-78179523D02*
X190190057Y-78131904D01*
X190190057Y-78131904D02*
X190285295Y-78084285D01*
X190285295Y-78084285D02*
X190380533Y-78084285D01*
X190380533Y-78084285D02*
X190523390Y-78131904D01*
X190523390Y-78131904D02*
X191094819Y-78703332D01*
X191094819Y-78703332D02*
X191094819Y-78084285D01*
X151504761Y-48100057D02*
X151409523Y-48052438D01*
X151409523Y-48052438D02*
X151314285Y-47957200D01*
X151314285Y-47957200D02*
X151171428Y-47814342D01*
X151171428Y-47814342D02*
X151076190Y-47766723D01*
X151076190Y-47766723D02*
X150980952Y-47766723D01*
X151028571Y-48004819D02*
X150933333Y-47957200D01*
X150933333Y-47957200D02*
X150838095Y-47861961D01*
X150838095Y-47861961D02*
X150790476Y-47671485D01*
X150790476Y-47671485D02*
X150790476Y-47338152D01*
X150790476Y-47338152D02*
X150838095Y-47147676D01*
X150838095Y-47147676D02*
X150933333Y-47052438D01*
X150933333Y-47052438D02*
X151028571Y-47004819D01*
X151028571Y-47004819D02*
X151219047Y-47004819D01*
X151219047Y-47004819D02*
X151314285Y-47052438D01*
X151314285Y-47052438D02*
X151409523Y-47147676D01*
X151409523Y-47147676D02*
X151457142Y-47338152D01*
X151457142Y-47338152D02*
X151457142Y-47671485D01*
X151457142Y-47671485D02*
X151409523Y-47861961D01*
X151409523Y-47861961D02*
X151314285Y-47957200D01*
X151314285Y-47957200D02*
X151219047Y-48004819D01*
X151219047Y-48004819D02*
X151028571Y-48004819D01*
X152028571Y-47433390D02*
X151933333Y-47385771D01*
X151933333Y-47385771D02*
X151885714Y-47338152D01*
X151885714Y-47338152D02*
X151838095Y-47242914D01*
X151838095Y-47242914D02*
X151838095Y-47195295D01*
X151838095Y-47195295D02*
X151885714Y-47100057D01*
X151885714Y-47100057D02*
X151933333Y-47052438D01*
X151933333Y-47052438D02*
X152028571Y-47004819D01*
X152028571Y-47004819D02*
X152219047Y-47004819D01*
X152219047Y-47004819D02*
X152314285Y-47052438D01*
X152314285Y-47052438D02*
X152361904Y-47100057D01*
X152361904Y-47100057D02*
X152409523Y-47195295D01*
X152409523Y-47195295D02*
X152409523Y-47242914D01*
X152409523Y-47242914D02*
X152361904Y-47338152D01*
X152361904Y-47338152D02*
X152314285Y-47385771D01*
X152314285Y-47385771D02*
X152219047Y-47433390D01*
X152219047Y-47433390D02*
X152028571Y-47433390D01*
X152028571Y-47433390D02*
X151933333Y-47481009D01*
X151933333Y-47481009D02*
X151885714Y-47528628D01*
X151885714Y-47528628D02*
X151838095Y-47623866D01*
X151838095Y-47623866D02*
X151838095Y-47814342D01*
X151838095Y-47814342D02*
X151885714Y-47909580D01*
X151885714Y-47909580D02*
X151933333Y-47957200D01*
X151933333Y-47957200D02*
X152028571Y-48004819D01*
X152028571Y-48004819D02*
X152219047Y-48004819D01*
X152219047Y-48004819D02*
X152314285Y-47957200D01*
X152314285Y-47957200D02*
X152361904Y-47909580D01*
X152361904Y-47909580D02*
X152409523Y-47814342D01*
X152409523Y-47814342D02*
X152409523Y-47623866D01*
X152409523Y-47623866D02*
X152361904Y-47528628D01*
X152361904Y-47528628D02*
X152314285Y-47481009D01*
X152314285Y-47481009D02*
X152219047Y-47433390D01*
X139808333Y-65009580D02*
X139760714Y-65057200D01*
X139760714Y-65057200D02*
X139617857Y-65104819D01*
X139617857Y-65104819D02*
X139522619Y-65104819D01*
X139522619Y-65104819D02*
X139379762Y-65057200D01*
X139379762Y-65057200D02*
X139284524Y-64961961D01*
X139284524Y-64961961D02*
X139236905Y-64866723D01*
X139236905Y-64866723D02*
X139189286Y-64676247D01*
X139189286Y-64676247D02*
X139189286Y-64533390D01*
X139189286Y-64533390D02*
X139236905Y-64342914D01*
X139236905Y-64342914D02*
X139284524Y-64247676D01*
X139284524Y-64247676D02*
X139379762Y-64152438D01*
X139379762Y-64152438D02*
X139522619Y-64104819D01*
X139522619Y-64104819D02*
X139617857Y-64104819D01*
X139617857Y-64104819D02*
X139760714Y-64152438D01*
X139760714Y-64152438D02*
X139808333Y-64200057D01*
X140760714Y-65104819D02*
X140189286Y-65104819D01*
X140475000Y-65104819D02*
X140475000Y-64104819D01*
X140475000Y-64104819D02*
X140379762Y-64247676D01*
X140379762Y-64247676D02*
X140284524Y-64342914D01*
X140284524Y-64342914D02*
X140189286Y-64390533D01*
X136454819Y-60647619D02*
X135978628Y-60980952D01*
X136454819Y-61219047D02*
X135454819Y-61219047D01*
X135454819Y-61219047D02*
X135454819Y-60838095D01*
X135454819Y-60838095D02*
X135502438Y-60742857D01*
X135502438Y-60742857D02*
X135550057Y-60695238D01*
X135550057Y-60695238D02*
X135645295Y-60647619D01*
X135645295Y-60647619D02*
X135788152Y-60647619D01*
X135788152Y-60647619D02*
X135883390Y-60695238D01*
X135883390Y-60695238D02*
X135931009Y-60742857D01*
X135931009Y-60742857D02*
X135978628Y-60838095D01*
X135978628Y-60838095D02*
X135978628Y-61219047D01*
X136407200Y-59790476D02*
X136454819Y-59885714D01*
X136454819Y-59885714D02*
X136454819Y-60076190D01*
X136454819Y-60076190D02*
X136407200Y-60171428D01*
X136407200Y-60171428D02*
X136359580Y-60219047D01*
X136359580Y-60219047D02*
X136264342Y-60266666D01*
X136264342Y-60266666D02*
X135978628Y-60266666D01*
X135978628Y-60266666D02*
X135883390Y-60219047D01*
X135883390Y-60219047D02*
X135835771Y-60171428D01*
X135835771Y-60171428D02*
X135788152Y-60076190D01*
X135788152Y-60076190D02*
X135788152Y-59885714D01*
X135788152Y-59885714D02*
X135835771Y-59790476D01*
X135788152Y-59361904D02*
X136788152Y-59361904D01*
X135835771Y-59361904D02*
X135788152Y-59266666D01*
X135788152Y-59266666D02*
X135788152Y-59076190D01*
X135788152Y-59076190D02*
X135835771Y-58980952D01*
X135835771Y-58980952D02*
X135883390Y-58933333D01*
X135883390Y-58933333D02*
X135978628Y-58885714D01*
X135978628Y-58885714D02*
X136264342Y-58885714D01*
X136264342Y-58885714D02*
X136359580Y-58933333D01*
X136359580Y-58933333D02*
X136407200Y-58980952D01*
X136407200Y-58980952D02*
X136454819Y-59076190D01*
X136454819Y-59076190D02*
X136454819Y-59266666D01*
X136454819Y-59266666D02*
X136407200Y-59361904D01*
X136454819Y-57933333D02*
X136454819Y-58504761D01*
X136454819Y-58219047D02*
X135454819Y-58219047D01*
X135454819Y-58219047D02*
X135597676Y-58314285D01*
X135597676Y-58314285D02*
X135692914Y-58409523D01*
X135692914Y-58409523D02*
X135740533Y-58504761D01*
X126354819Y-85017857D02*
X125878628Y-85351190D01*
X126354819Y-85589285D02*
X125354819Y-85589285D01*
X125354819Y-85589285D02*
X125354819Y-85208333D01*
X125354819Y-85208333D02*
X125402438Y-85113095D01*
X125402438Y-85113095D02*
X125450057Y-85065476D01*
X125450057Y-85065476D02*
X125545295Y-85017857D01*
X125545295Y-85017857D02*
X125688152Y-85017857D01*
X125688152Y-85017857D02*
X125783390Y-85065476D01*
X125783390Y-85065476D02*
X125831009Y-85113095D01*
X125831009Y-85113095D02*
X125878628Y-85208333D01*
X125878628Y-85208333D02*
X125878628Y-85589285D01*
X125450057Y-84636904D02*
X125402438Y-84589285D01*
X125402438Y-84589285D02*
X125354819Y-84494047D01*
X125354819Y-84494047D02*
X125354819Y-84255952D01*
X125354819Y-84255952D02*
X125402438Y-84160714D01*
X125402438Y-84160714D02*
X125450057Y-84113095D01*
X125450057Y-84113095D02*
X125545295Y-84065476D01*
X125545295Y-84065476D02*
X125640533Y-84065476D01*
X125640533Y-84065476D02*
X125783390Y-84113095D01*
X125783390Y-84113095D02*
X126354819Y-84684523D01*
X126354819Y-84684523D02*
X126354819Y-84065476D01*
X125688152Y-83208333D02*
X126354819Y-83208333D01*
X125307200Y-83446428D02*
X126021485Y-83684523D01*
X126021485Y-83684523D02*
X126021485Y-83065476D01*
D13*
%TO.C,R25*%
X128080000Y-79930000D02*
X134620000Y-79930000D01*
X128080000Y-80260000D02*
X128080000Y-79930000D01*
X128080000Y-82340000D02*
X128080000Y-82670000D01*
X128080000Y-82670000D02*
X134620000Y-82670000D01*
X134620000Y-79930000D02*
X134620000Y-80260000D01*
X134620000Y-82670000D02*
X134620000Y-82340000D01*
%TO.C,R20*%
X153460000Y-55080000D02*
X160000000Y-55080000D01*
X153460000Y-55410000D02*
X153460000Y-55080000D01*
X153460000Y-57490000D02*
X153460000Y-57820000D01*
X153460000Y-57820000D02*
X160000000Y-57820000D01*
X160000000Y-55080000D02*
X160000000Y-55410000D01*
X160000000Y-57820000D02*
X160000000Y-57490000D01*
%TO.C,Vop1*%
X148940000Y-67190000D02*
X150360000Y-67190000D01*
X148940000Y-68610000D02*
X148940000Y-67190000D01*
X150360000Y-67190000D02*
X150360000Y-68610000D01*
X150360000Y-68610000D02*
X148940000Y-68610000D01*
%TO.C,Q4*%
X131275000Y-69000000D02*
X131275000Y-65150000D01*
X126975000Y-67060000D02*
G75*
G02*
X128476193Y-64703600I2600000J0D01*
G01*
X128476193Y-69416400D02*
G75*
G02*
X126975000Y-67060000I1098807J2356400D01*
G01*
X130687264Y-64757617D02*
G75*
G02*
X131275000Y-65150000I-1112264J-2302383D01*
G01*
X131275000Y-69000000D02*
G75*
G02*
X130697045Y-69382631I-1700000J1940000D01*
G01*
%TO.C,Vf1*%
X139365000Y-77240000D02*
X140785000Y-77240000D01*
X139365000Y-78660000D02*
X139365000Y-77240000D01*
X140785000Y-77240000D02*
X140785000Y-78660000D01*
X140785000Y-78660000D02*
X139365000Y-78660000D01*
%TO.C,R11*%
X142530000Y-72130000D02*
X142530000Y-78670000D01*
X142530000Y-78670000D02*
X142860000Y-78670000D01*
X142860000Y-72130000D02*
X142530000Y-72130000D01*
X144940000Y-72130000D02*
X145270000Y-72130000D01*
X145270000Y-72130000D02*
X145270000Y-78670000D01*
X145270000Y-78670000D02*
X144940000Y-78670000D01*
%TO.C,RE1*%
X128180000Y-54880000D02*
X128180000Y-61420000D01*
X128180000Y-61420000D02*
X128510000Y-61420000D01*
X128510000Y-54880000D02*
X128180000Y-54880000D01*
X130590000Y-54880000D02*
X130920000Y-54880000D01*
X130920000Y-54880000D02*
X130920000Y-61420000D01*
X130920000Y-61420000D02*
X130590000Y-61420000D01*
%TO.C,Vd1*%
X131190000Y-50115000D02*
X132610000Y-50115000D01*
X131190000Y-51535000D02*
X131190000Y-50115000D01*
X132610000Y-50115000D02*
X132610000Y-51535000D01*
X132610000Y-51535000D02*
X131190000Y-51535000D01*
%TO.C,R10*%
X151750000Y-73880000D02*
X158290000Y-73880000D01*
X151750000Y-74210000D02*
X151750000Y-73880000D01*
X151750000Y-76290000D02*
X151750000Y-76620000D01*
X151750000Y-76620000D02*
X158290000Y-76620000D01*
X158290000Y-73880000D02*
X158290000Y-74210000D01*
X158290000Y-76620000D02*
X158290000Y-76290000D01*
%TO.C,R8*%
X173930000Y-76280000D02*
X174260000Y-76280000D01*
X173930000Y-82820000D02*
X173930000Y-76280000D01*
X174260000Y-82820000D02*
X173930000Y-82820000D01*
X176340000Y-82820000D02*
X176670000Y-82820000D01*
X176670000Y-76280000D02*
X176340000Y-76280000D01*
X176670000Y-82820000D02*
X176670000Y-76280000D01*
%TO.C,R21*%
X151460000Y-64290000D02*
X151460000Y-70830000D01*
X151460000Y-70830000D02*
X151790000Y-70830000D01*
X151790000Y-64290000D02*
X151460000Y-64290000D01*
X153870000Y-64290000D02*
X154200000Y-64290000D01*
X154200000Y-64290000D02*
X154200000Y-70830000D01*
X154200000Y-70830000D02*
X153870000Y-70830000D01*
%TO.C,J3*%
X189150000Y-89075000D02*
X189150000Y-91675000D01*
X186490000Y-91675000D02*
X189150000Y-91675000D01*
X186490000Y-89075000D02*
X189150000Y-89075000D01*
X186490000Y-89075000D02*
X186490000Y-91675000D01*
X186490000Y-87805000D02*
X186490000Y-86475000D01*
X186490000Y-86475000D02*
X187820000Y-86475000D01*
%TO.C,Rs1*%
X153470000Y-51280000D02*
X153470000Y-51610000D01*
X153470000Y-54020000D02*
X153470000Y-53690000D01*
X160010000Y-51280000D02*
X153470000Y-51280000D01*
X160010000Y-51610000D02*
X160010000Y-51280000D01*
X160010000Y-53690000D02*
X160010000Y-54020000D01*
X160010000Y-54020000D02*
X153470000Y-54020000D01*
%TO.C,R18*%
X145730000Y-70940000D02*
X146060000Y-70940000D01*
X145730000Y-77480000D02*
X145730000Y-70940000D01*
X146060000Y-77480000D02*
X145730000Y-77480000D01*
X148140000Y-77480000D02*
X148470000Y-77480000D01*
X148470000Y-70940000D02*
X148140000Y-70940000D01*
X148470000Y-77480000D02*
X148470000Y-70940000D01*
%TO.C,RE2*%
X131280000Y-54880000D02*
X131280000Y-61420000D01*
X131280000Y-61420000D02*
X131610000Y-61420000D01*
X131610000Y-54880000D02*
X131280000Y-54880000D01*
X133690000Y-54880000D02*
X134020000Y-54880000D01*
X134020000Y-54880000D02*
X134020000Y-61420000D01*
X134020000Y-61420000D02*
X133690000Y-61420000D01*
%TO.C,Q7*%
X134850000Y-48850000D02*
X134850000Y-52700000D01*
X134850000Y-48850000D02*
G75*
G02*
X135427955Y-48467369I1700000J-1940000D01*
G01*
X135437736Y-53092383D02*
G75*
G02*
X134850000Y-52700000I1112264J2302383D01*
G01*
X137648807Y-48433600D02*
G75*
G02*
X139150000Y-50790000I-1098807J-2356400D01*
G01*
X139150000Y-50790000D02*
G75*
G02*
X137648807Y-53146400I-2600000J0D01*
G01*
%TO.C,GND2*%
X185490000Y-58390000D02*
X186910000Y-58390000D01*
X185490000Y-59810000D02*
X185490000Y-58390000D01*
X186910000Y-58390000D02*
X186910000Y-59810000D01*
X186910000Y-59810000D02*
X185490000Y-59810000D01*
%TO.C,C4*%
X184810000Y-65634888D02*
X183281000Y-65634888D01*
X184810000Y-65674888D02*
X183285000Y-65674888D01*
X184810000Y-65714888D02*
X183289000Y-65714888D01*
X184810000Y-65754888D02*
X183294000Y-65754888D01*
X184810000Y-65794888D02*
X183300000Y-65794888D01*
X184810000Y-65834888D02*
X183307000Y-65834888D01*
X184810000Y-65874888D02*
X183314000Y-65874888D01*
X184810000Y-65914888D02*
X183322000Y-65914888D01*
X184810000Y-65954888D02*
X183330000Y-65954888D01*
X184810000Y-65994888D02*
X183339000Y-65994888D01*
X184810000Y-66034888D02*
X183349000Y-66034888D01*
X184810000Y-66074888D02*
X183359000Y-66074888D01*
X184810000Y-66115888D02*
X183370000Y-66115888D01*
X184810000Y-66155888D02*
X183382000Y-66155888D01*
X184810000Y-66195888D02*
X183395000Y-66195888D01*
X184810000Y-66235888D02*
X183408000Y-66235888D01*
X184810000Y-66275888D02*
X183422000Y-66275888D01*
X184810000Y-66315888D02*
X183436000Y-66315888D01*
X184810000Y-66355888D02*
X183452000Y-66355888D01*
X184810000Y-66395888D02*
X183468000Y-66395888D01*
X184810000Y-66435888D02*
X183485000Y-66435888D01*
X184810000Y-66475888D02*
X183502000Y-66475888D01*
X184810000Y-66515888D02*
X183521000Y-66515888D01*
X184810000Y-66555888D02*
X183540000Y-66555888D01*
X184810000Y-66595888D02*
X183560000Y-66595888D01*
X184810000Y-66635888D02*
X183582000Y-66635888D01*
X184810000Y-66675888D02*
X183603000Y-66675888D01*
X184810000Y-66715888D02*
X183626000Y-66715888D01*
X184810000Y-66755888D02*
X183650000Y-66755888D01*
X184810000Y-66795888D02*
X183675000Y-66795888D01*
X184810000Y-66835888D02*
X183701000Y-66835888D01*
X184810000Y-66875888D02*
X183728000Y-66875888D01*
X184810000Y-66915888D02*
X183755000Y-66915888D01*
X184810000Y-66955888D02*
X183785000Y-66955888D01*
X184810000Y-66995888D02*
X183815000Y-66995888D01*
X184810000Y-67035888D02*
X183846000Y-67035888D01*
X184810000Y-67075888D02*
X183879000Y-67075888D01*
X184810000Y-67115888D02*
X183913000Y-67115888D01*
X184810000Y-67155888D02*
X183949000Y-67155888D01*
X184810000Y-67195888D02*
X183986000Y-67195888D01*
X184810000Y-67235888D02*
X184024000Y-67235888D01*
X184810000Y-67275888D02*
X184065000Y-67275888D01*
X184810000Y-67315888D02*
X184107000Y-67315888D01*
X184810000Y-67355888D02*
X184151000Y-67355888D01*
X184810000Y-67395888D02*
X184197000Y-67395888D01*
X184810000Y-67435888D02*
X184245000Y-67435888D01*
X184810000Y-67475888D02*
X184296000Y-67475888D01*
X184810000Y-67515888D02*
X184350000Y-67515888D01*
X184810000Y-67555888D02*
X184407000Y-67555888D01*
X184810000Y-67595888D02*
X184467000Y-67595888D01*
X184810000Y-67635888D02*
X184531000Y-67635888D01*
X184810000Y-67675888D02*
X184599000Y-67675888D01*
X186134000Y-67995888D02*
X185566000Y-67995888D01*
X186368000Y-67955888D02*
X185332000Y-67955888D01*
X186527000Y-67915888D02*
X185173000Y-67915888D01*
X186655000Y-67875888D02*
X185045000Y-67875888D01*
X186765000Y-67835888D02*
X184935000Y-67835888D01*
X186861000Y-67795888D02*
X184839000Y-67795888D01*
X186948000Y-67755888D02*
X184752000Y-67755888D01*
X187028000Y-67715888D02*
X184672000Y-67715888D01*
X187101000Y-67675888D02*
X186890000Y-67675888D01*
X187169000Y-67635888D02*
X186890000Y-67635888D01*
X187233000Y-67595888D02*
X186890000Y-67595888D01*
X187293000Y-67555888D02*
X186890000Y-67555888D01*
X187325000Y-62590113D02*
X187325000Y-63090113D01*
X187350000Y-67515888D02*
X186890000Y-67515888D01*
X187404000Y-67475888D02*
X186890000Y-67475888D01*
X187455000Y-67435888D02*
X186890000Y-67435888D01*
X187503000Y-67395888D02*
X186890000Y-67395888D01*
X187549000Y-67355888D02*
X186890000Y-67355888D01*
X187575000Y-62840113D02*
X187075000Y-62840113D01*
X187593000Y-67315888D02*
X186890000Y-67315888D01*
X187635000Y-67275888D02*
X186890000Y-67275888D01*
X187676000Y-67235888D02*
X186890000Y-67235888D01*
X187714000Y-67195888D02*
X186890000Y-67195888D01*
X187751000Y-67155888D02*
X186890000Y-67155888D01*
X187787000Y-67115888D02*
X186890000Y-67115888D01*
X187821000Y-67075888D02*
X186890000Y-67075888D01*
X187854000Y-67035888D02*
X186890000Y-67035888D01*
X187885000Y-66995888D02*
X186890000Y-66995888D01*
X187915000Y-66955888D02*
X186890000Y-66955888D01*
X187945000Y-66915888D02*
X186890000Y-66915888D01*
X187972000Y-66875888D02*
X186890000Y-66875888D01*
X187999000Y-66835888D02*
X186890000Y-66835888D01*
X188025000Y-66795888D02*
X186890000Y-66795888D01*
X188050000Y-66755888D02*
X186890000Y-66755888D01*
X188074000Y-66715888D02*
X186890000Y-66715888D01*
X188097000Y-66675888D02*
X186890000Y-66675888D01*
X188118000Y-66635888D02*
X186890000Y-66635888D01*
X188140000Y-66595888D02*
X186890000Y-66595888D01*
X188160000Y-66555888D02*
X186890000Y-66555888D01*
X188179000Y-66515888D02*
X186890000Y-66515888D01*
X188198000Y-66475888D02*
X186890000Y-66475888D01*
X188215000Y-66435888D02*
X186890000Y-66435888D01*
X188232000Y-66395888D02*
X186890000Y-66395888D01*
X188248000Y-66355888D02*
X186890000Y-66355888D01*
X188264000Y-66315888D02*
X186890000Y-66315888D01*
X188278000Y-66275888D02*
X186890000Y-66275888D01*
X188292000Y-66235888D02*
X186890000Y-66235888D01*
X188305000Y-66195888D02*
X186890000Y-66195888D01*
X188318000Y-66155888D02*
X186890000Y-66155888D01*
X188330000Y-66115888D02*
X186890000Y-66115888D01*
X188341000Y-66074888D02*
X186890000Y-66074888D01*
X188351000Y-66034888D02*
X186890000Y-66034888D01*
X188361000Y-65994888D02*
X186890000Y-65994888D01*
X188370000Y-65954888D02*
X186890000Y-65954888D01*
X188378000Y-65914888D02*
X186890000Y-65914888D01*
X188386000Y-65874888D02*
X186890000Y-65874888D01*
X188393000Y-65834888D02*
X186890000Y-65834888D01*
X188400000Y-65794888D02*
X186890000Y-65794888D01*
X188406000Y-65754888D02*
X186890000Y-65754888D01*
X188411000Y-65714888D02*
X186890000Y-65714888D01*
X188415000Y-65674888D02*
X186890000Y-65674888D01*
X188419000Y-65634888D02*
X186890000Y-65634888D01*
X188423000Y-65594888D02*
X183277000Y-65594888D01*
X188426000Y-65554888D02*
X183274000Y-65554888D01*
X188428000Y-65514888D02*
X183272000Y-65514888D01*
X188429000Y-65474888D02*
X183271000Y-65474888D01*
X188430000Y-65394888D02*
X183270000Y-65394888D01*
X188430000Y-65434888D02*
X183270000Y-65434888D01*
X188470000Y-65394888D02*
G75*
G02*
X183230000Y-65394888I-2620000J0D01*
G01*
X183230000Y-65394888D02*
G75*
G02*
X188470000Y-65394888I2620000J0D01*
G01*
%TO.C,R16*%
X142380000Y-61540000D02*
X142380000Y-68080000D01*
X142380000Y-68080000D02*
X142710000Y-68080000D01*
X142710000Y-61540000D02*
X142380000Y-61540000D01*
X144790000Y-61540000D02*
X145120000Y-61540000D01*
X145120000Y-61540000D02*
X145120000Y-68080000D01*
X145120000Y-68080000D02*
X144790000Y-68080000D01*
%TO.C,R5*%
X175460000Y-64290000D02*
X175790000Y-64290000D01*
X175460000Y-70830000D02*
X175460000Y-64290000D01*
X175790000Y-70830000D02*
X175460000Y-70830000D01*
X177870000Y-70830000D02*
X178200000Y-70830000D01*
X178200000Y-64290000D02*
X177870000Y-64290000D01*
X178200000Y-70830000D02*
X178200000Y-64290000D01*
%TO.C,R2*%
X178960000Y-64290000D02*
X178960000Y-70830000D01*
X178960000Y-70830000D02*
X179290000Y-70830000D01*
X179290000Y-64290000D02*
X178960000Y-64290000D01*
X181370000Y-64290000D02*
X181700000Y-64290000D01*
X181700000Y-64290000D02*
X181700000Y-70830000D01*
X181700000Y-70830000D02*
X181370000Y-70830000D01*
%TO.C,R4*%
X166460000Y-76480000D02*
X166460000Y-83020000D01*
X166460000Y-83020000D02*
X166790000Y-83020000D01*
X166790000Y-76480000D02*
X166460000Y-76480000D01*
X168870000Y-76480000D02*
X169200000Y-76480000D01*
X169200000Y-76480000D02*
X169200000Y-83020000D01*
X169200000Y-83020000D02*
X168870000Y-83020000D01*
%TO.C,R1*%
X123280000Y-66855000D02*
X123280000Y-73395000D01*
X123280000Y-73395000D02*
X123610000Y-73395000D01*
X123610000Y-66855000D02*
X123280000Y-66855000D01*
X125690000Y-66855000D02*
X126020000Y-66855000D01*
X126020000Y-66855000D02*
X126020000Y-73395000D01*
X126020000Y-73395000D02*
X125690000Y-73395000D01*
%TO.C,C3*%
X139730000Y-70000000D02*
X139730000Y-73640000D01*
X139975000Y-70000000D02*
X139730000Y-70000000D01*
X139975000Y-73640000D02*
X139730000Y-73640000D01*
X142070000Y-70000000D02*
X141825000Y-70000000D01*
X142070000Y-70000000D02*
X142070000Y-73640000D01*
X142070000Y-73640000D02*
X141825000Y-73640000D01*
%TO.C,R13*%
X142060000Y-82880000D02*
X142390000Y-82880000D01*
X142060000Y-89420000D02*
X142060000Y-82880000D01*
X142390000Y-89420000D02*
X142060000Y-89420000D01*
X144470000Y-89420000D02*
X144800000Y-89420000D01*
X144800000Y-82880000D02*
X144470000Y-82880000D01*
X144800000Y-89420000D02*
X144800000Y-82880000D01*
%TO.C,R23*%
X166670000Y-53180000D02*
X166670000Y-59720000D01*
X166670000Y-59720000D02*
X167000000Y-59720000D01*
X167000000Y-53180000D02*
X166670000Y-53180000D01*
X169080000Y-53180000D02*
X169410000Y-53180000D01*
X169410000Y-53180000D02*
X169410000Y-59720000D01*
X169410000Y-59720000D02*
X169080000Y-59720000D01*
%TO.C,R7*%
X169960000Y-76290000D02*
X169960000Y-82830000D01*
X169960000Y-82830000D02*
X170290000Y-82830000D01*
X170290000Y-76290000D02*
X169960000Y-76290000D01*
X172370000Y-76290000D02*
X172700000Y-76290000D01*
X172700000Y-76290000D02*
X172700000Y-82830000D01*
X172700000Y-82830000D02*
X172370000Y-82830000D01*
%TO.C,Q6*%
X133500000Y-74180000D02*
X133500000Y-78030000D01*
X133500000Y-74180000D02*
G75*
G02*
X134077955Y-73797369I1700000J-1940000D01*
G01*
X134087736Y-78422383D02*
G75*
G02*
X133500000Y-78030000I1112264J2302383D01*
G01*
X136298807Y-73763600D02*
G75*
G02*
X137800000Y-76120000I-1098807J-2356400D01*
G01*
X137800000Y-76120000D02*
G75*
G02*
X136298807Y-78476400I-2600000J0D01*
G01*
%TO.C,C6*%
X184649000Y-83464000D02*
X184649000Y-82896000D01*
X184689000Y-83698000D02*
X184689000Y-82662000D01*
X184729000Y-83857000D02*
X184729000Y-82503000D01*
X184769000Y-83985000D02*
X184769000Y-82375000D01*
X184809000Y-84095000D02*
X184809000Y-82265000D01*
X184849000Y-84191000D02*
X184849000Y-82169000D01*
X184889000Y-84278000D02*
X184889000Y-82082000D01*
X184929000Y-84358000D02*
X184929000Y-82002000D01*
X184969000Y-82140000D02*
X184969000Y-81929000D01*
X184969000Y-84431000D02*
X184969000Y-84220000D01*
X185009000Y-82140000D02*
X185009000Y-81861000D01*
X185009000Y-84499000D02*
X185009000Y-84220000D01*
X185049000Y-82140000D02*
X185049000Y-81797000D01*
X185049000Y-84563000D02*
X185049000Y-84220000D01*
X185089000Y-82140000D02*
X185089000Y-81737000D01*
X185089000Y-84623000D02*
X185089000Y-84220000D01*
X185129000Y-82140000D02*
X185129000Y-81680000D01*
X185129000Y-84680000D02*
X185129000Y-84220000D01*
X185169000Y-82140000D02*
X185169000Y-81626000D01*
X185169000Y-84734000D02*
X185169000Y-84220000D01*
X185209000Y-82140000D02*
X185209000Y-81575000D01*
X185209000Y-84785000D02*
X185209000Y-84220000D01*
X185249000Y-82140000D02*
X185249000Y-81527000D01*
X185249000Y-84833000D02*
X185249000Y-84220000D01*
X185289000Y-82140000D02*
X185289000Y-81481000D01*
X185289000Y-84879000D02*
X185289000Y-84220000D01*
X185329000Y-82140000D02*
X185329000Y-81437000D01*
X185329000Y-84923000D02*
X185329000Y-84220000D01*
X185369000Y-82140000D02*
X185369000Y-81395000D01*
X185369000Y-84965000D02*
X185369000Y-84220000D01*
X185409000Y-82140000D02*
X185409000Y-81354000D01*
X185409000Y-85006000D02*
X185409000Y-84220000D01*
X185449000Y-82140000D02*
X185449000Y-81316000D01*
X185449000Y-85044000D02*
X185449000Y-84220000D01*
X185489000Y-82140000D02*
X185489000Y-81279000D01*
X185489000Y-85081000D02*
X185489000Y-84220000D01*
X185529000Y-82140000D02*
X185529000Y-81243000D01*
X185529000Y-85117000D02*
X185529000Y-84220000D01*
X185569000Y-82140000D02*
X185569000Y-81209000D01*
X185569000Y-85151000D02*
X185569000Y-84220000D01*
X185609000Y-82140000D02*
X185609000Y-81176000D01*
X185609000Y-85184000D02*
X185609000Y-84220000D01*
X185649000Y-82140000D02*
X185649000Y-81145000D01*
X185649000Y-85215000D02*
X185649000Y-84220000D01*
X185689000Y-82140000D02*
X185689000Y-81115000D01*
X185689000Y-85245000D02*
X185689000Y-84220000D01*
X185729000Y-82140000D02*
X185729000Y-81085000D01*
X185729000Y-85275000D02*
X185729000Y-84220000D01*
X185769000Y-82140000D02*
X185769000Y-81058000D01*
X185769000Y-85302000D02*
X185769000Y-84220000D01*
X185809000Y-82140000D02*
X185809000Y-81031000D01*
X185809000Y-85329000D02*
X185809000Y-84220000D01*
X185849000Y-82140000D02*
X185849000Y-81005000D01*
X185849000Y-85355000D02*
X185849000Y-84220000D01*
X185889000Y-82140000D02*
X185889000Y-80980000D01*
X185889000Y-85380000D02*
X185889000Y-84220000D01*
X185929000Y-82140000D02*
X185929000Y-80956000D01*
X185929000Y-85404000D02*
X185929000Y-84220000D01*
X185969000Y-82140000D02*
X185969000Y-80933000D01*
X185969000Y-85427000D02*
X185969000Y-84220000D01*
X186009000Y-82140000D02*
X186009000Y-80912000D01*
X186009000Y-85448000D02*
X186009000Y-84220000D01*
X186049000Y-82140000D02*
X186049000Y-80890000D01*
X186049000Y-85470000D02*
X186049000Y-84220000D01*
X186089000Y-82140000D02*
X186089000Y-80870000D01*
X186089000Y-85490000D02*
X186089000Y-84220000D01*
X186129000Y-82140000D02*
X186129000Y-80851000D01*
X186129000Y-85509000D02*
X186129000Y-84220000D01*
X186169000Y-82140000D02*
X186169000Y-80832000D01*
X186169000Y-85528000D02*
X186169000Y-84220000D01*
X186209000Y-82140000D02*
X186209000Y-80815000D01*
X186209000Y-85545000D02*
X186209000Y-84220000D01*
X186249000Y-82140000D02*
X186249000Y-80798000D01*
X186249000Y-85562000D02*
X186249000Y-84220000D01*
X186289000Y-82140000D02*
X186289000Y-80782000D01*
X186289000Y-85578000D02*
X186289000Y-84220000D01*
X186329000Y-82140000D02*
X186329000Y-80766000D01*
X186329000Y-85594000D02*
X186329000Y-84220000D01*
X186369000Y-82140000D02*
X186369000Y-80752000D01*
X186369000Y-85608000D02*
X186369000Y-84220000D01*
X186409000Y-82140000D02*
X186409000Y-80738000D01*
X186409000Y-85622000D02*
X186409000Y-84220000D01*
X186449000Y-82140000D02*
X186449000Y-80725000D01*
X186449000Y-85635000D02*
X186449000Y-84220000D01*
X186489000Y-82140000D02*
X186489000Y-80712000D01*
X186489000Y-85648000D02*
X186489000Y-84220000D01*
X186529000Y-82140000D02*
X186529000Y-80700000D01*
X186529000Y-85660000D02*
X186529000Y-84220000D01*
X186570000Y-82140000D02*
X186570000Y-80689000D01*
X186570000Y-85671000D02*
X186570000Y-84220000D01*
X186610000Y-82140000D02*
X186610000Y-80679000D01*
X186610000Y-85681000D02*
X186610000Y-84220000D01*
X186650000Y-82140000D02*
X186650000Y-80669000D01*
X186650000Y-85691000D02*
X186650000Y-84220000D01*
X186690000Y-82140000D02*
X186690000Y-80660000D01*
X186690000Y-85700000D02*
X186690000Y-84220000D01*
X186730000Y-82140000D02*
X186730000Y-80652000D01*
X186730000Y-85708000D02*
X186730000Y-84220000D01*
X186770000Y-82140000D02*
X186770000Y-80644000D01*
X186770000Y-85716000D02*
X186770000Y-84220000D01*
X186810000Y-82140000D02*
X186810000Y-80637000D01*
X186810000Y-85723000D02*
X186810000Y-84220000D01*
X186850000Y-82140000D02*
X186850000Y-80630000D01*
X186850000Y-85730000D02*
X186850000Y-84220000D01*
X186890000Y-82140000D02*
X186890000Y-80624000D01*
X186890000Y-85736000D02*
X186890000Y-84220000D01*
X186930000Y-82140000D02*
X186930000Y-80619000D01*
X186930000Y-85741000D02*
X186930000Y-84220000D01*
X186970000Y-82140000D02*
X186970000Y-80615000D01*
X186970000Y-85745000D02*
X186970000Y-84220000D01*
X187010000Y-82140000D02*
X187010000Y-80611000D01*
X187010000Y-85749000D02*
X187010000Y-84220000D01*
X187050000Y-85753000D02*
X187050000Y-80607000D01*
X187090000Y-85756000D02*
X187090000Y-80604000D01*
X187130000Y-85758000D02*
X187130000Y-80602000D01*
X187170000Y-85759000D02*
X187170000Y-80601000D01*
X187210000Y-85760000D02*
X187210000Y-80600000D01*
X187250000Y-85760000D02*
X187250000Y-80600000D01*
X189804775Y-84905000D02*
X189804775Y-84405000D01*
X190054775Y-84655000D02*
X189554775Y-84655000D01*
X189870000Y-83180000D02*
G75*
G02*
X184630000Y-83180000I-2620000J0D01*
G01*
X184630000Y-83180000D02*
G75*
G02*
X189870000Y-83180000I2620000J0D01*
G01*
%TO.C,C5*%
X184860000Y-71340000D02*
X183331000Y-71340000D01*
X184860000Y-71380000D02*
X183335000Y-71380000D01*
X184860000Y-71420000D02*
X183339000Y-71420000D01*
X184860000Y-71460000D02*
X183344000Y-71460000D01*
X184860000Y-71500000D02*
X183350000Y-71500000D01*
X184860000Y-71540000D02*
X183357000Y-71540000D01*
X184860000Y-71580000D02*
X183364000Y-71580000D01*
X184860000Y-71620000D02*
X183372000Y-71620000D01*
X184860000Y-71660000D02*
X183380000Y-71660000D01*
X184860000Y-71700000D02*
X183389000Y-71700000D01*
X184860000Y-71740000D02*
X183399000Y-71740000D01*
X184860000Y-71780000D02*
X183409000Y-71780000D01*
X184860000Y-71821000D02*
X183420000Y-71821000D01*
X184860000Y-71861000D02*
X183432000Y-71861000D01*
X184860000Y-71901000D02*
X183445000Y-71901000D01*
X184860000Y-71941000D02*
X183458000Y-71941000D01*
X184860000Y-71981000D02*
X183472000Y-71981000D01*
X184860000Y-72021000D02*
X183486000Y-72021000D01*
X184860000Y-72061000D02*
X183502000Y-72061000D01*
X184860000Y-72101000D02*
X183518000Y-72101000D01*
X184860000Y-72141000D02*
X183535000Y-72141000D01*
X184860000Y-72181000D02*
X183552000Y-72181000D01*
X184860000Y-72221000D02*
X183571000Y-72221000D01*
X184860000Y-72261000D02*
X183590000Y-72261000D01*
X184860000Y-72301000D02*
X183610000Y-72301000D01*
X184860000Y-72341000D02*
X183632000Y-72341000D01*
X184860000Y-72381000D02*
X183653000Y-72381000D01*
X184860000Y-72421000D02*
X183676000Y-72421000D01*
X184860000Y-72461000D02*
X183700000Y-72461000D01*
X184860000Y-72501000D02*
X183725000Y-72501000D01*
X184860000Y-72541000D02*
X183751000Y-72541000D01*
X184860000Y-72581000D02*
X183778000Y-72581000D01*
X184860000Y-72621000D02*
X183805000Y-72621000D01*
X184860000Y-72661000D02*
X183835000Y-72661000D01*
X184860000Y-72701000D02*
X183865000Y-72701000D01*
X184860000Y-72741000D02*
X183896000Y-72741000D01*
X184860000Y-72781000D02*
X183929000Y-72781000D01*
X184860000Y-72821000D02*
X183963000Y-72821000D01*
X184860000Y-72861000D02*
X183999000Y-72861000D01*
X184860000Y-72901000D02*
X184036000Y-72901000D01*
X184860000Y-72941000D02*
X184074000Y-72941000D01*
X184860000Y-72981000D02*
X184115000Y-72981000D01*
X184860000Y-73021000D02*
X184157000Y-73021000D01*
X184860000Y-73061000D02*
X184201000Y-73061000D01*
X184860000Y-73101000D02*
X184247000Y-73101000D01*
X184860000Y-73141000D02*
X184295000Y-73141000D01*
X184860000Y-73181000D02*
X184346000Y-73181000D01*
X184860000Y-73221000D02*
X184400000Y-73221000D01*
X184860000Y-73261000D02*
X184457000Y-73261000D01*
X184860000Y-73301000D02*
X184517000Y-73301000D01*
X184860000Y-73341000D02*
X184581000Y-73341000D01*
X184860000Y-73381000D02*
X184649000Y-73381000D01*
X186184000Y-73701000D02*
X185616000Y-73701000D01*
X186418000Y-73661000D02*
X185382000Y-73661000D01*
X186577000Y-73621000D02*
X185223000Y-73621000D01*
X186705000Y-73581000D02*
X185095000Y-73581000D01*
X186815000Y-73541000D02*
X184985000Y-73541000D01*
X186911000Y-73501000D02*
X184889000Y-73501000D01*
X186998000Y-73461000D02*
X184802000Y-73461000D01*
X187078000Y-73421000D02*
X184722000Y-73421000D01*
X187151000Y-73381000D02*
X186940000Y-73381000D01*
X187219000Y-73341000D02*
X186940000Y-73341000D01*
X187283000Y-73301000D02*
X186940000Y-73301000D01*
X187343000Y-73261000D02*
X186940000Y-73261000D01*
X187375000Y-68295225D02*
X187375000Y-68795225D01*
X187400000Y-73221000D02*
X186940000Y-73221000D01*
X187454000Y-73181000D02*
X186940000Y-73181000D01*
X187505000Y-73141000D02*
X186940000Y-73141000D01*
X187553000Y-73101000D02*
X186940000Y-73101000D01*
X187599000Y-73061000D02*
X186940000Y-73061000D01*
X187625000Y-68545225D02*
X187125000Y-68545225D01*
X187643000Y-73021000D02*
X186940000Y-73021000D01*
X187685000Y-72981000D02*
X186940000Y-72981000D01*
X187726000Y-72941000D02*
X186940000Y-72941000D01*
X187764000Y-72901000D02*
X186940000Y-72901000D01*
X187801000Y-72861000D02*
X186940000Y-72861000D01*
X187837000Y-72821000D02*
X186940000Y-72821000D01*
X187871000Y-72781000D02*
X186940000Y-72781000D01*
X187904000Y-72741000D02*
X186940000Y-72741000D01*
X187935000Y-72701000D02*
X186940000Y-72701000D01*
X187965000Y-72661000D02*
X186940000Y-72661000D01*
X187995000Y-72621000D02*
X186940000Y-72621000D01*
X188022000Y-72581000D02*
X186940000Y-72581000D01*
X188049000Y-72541000D02*
X186940000Y-72541000D01*
X188075000Y-72501000D02*
X186940000Y-72501000D01*
X188100000Y-72461000D02*
X186940000Y-72461000D01*
X188124000Y-72421000D02*
X186940000Y-72421000D01*
X188147000Y-72381000D02*
X186940000Y-72381000D01*
X188168000Y-72341000D02*
X186940000Y-72341000D01*
X188190000Y-72301000D02*
X186940000Y-72301000D01*
X188210000Y-72261000D02*
X186940000Y-72261000D01*
X188229000Y-72221000D02*
X186940000Y-72221000D01*
X188248000Y-72181000D02*
X186940000Y-72181000D01*
X188265000Y-72141000D02*
X186940000Y-72141000D01*
X188282000Y-72101000D02*
X186940000Y-72101000D01*
X188298000Y-72061000D02*
X186940000Y-72061000D01*
X188314000Y-72021000D02*
X186940000Y-72021000D01*
X188328000Y-71981000D02*
X186940000Y-71981000D01*
X188342000Y-71941000D02*
X186940000Y-71941000D01*
X188355000Y-71901000D02*
X186940000Y-71901000D01*
X188368000Y-71861000D02*
X186940000Y-71861000D01*
X188380000Y-71821000D02*
X186940000Y-71821000D01*
X188391000Y-71780000D02*
X186940000Y-71780000D01*
X188401000Y-71740000D02*
X186940000Y-71740000D01*
X188411000Y-71700000D02*
X186940000Y-71700000D01*
X188420000Y-71660000D02*
X186940000Y-71660000D01*
X188428000Y-71620000D02*
X186940000Y-71620000D01*
X188436000Y-71580000D02*
X186940000Y-71580000D01*
X188443000Y-71540000D02*
X186940000Y-71540000D01*
X188450000Y-71500000D02*
X186940000Y-71500000D01*
X188456000Y-71460000D02*
X186940000Y-71460000D01*
X188461000Y-71420000D02*
X186940000Y-71420000D01*
X188465000Y-71380000D02*
X186940000Y-71380000D01*
X188469000Y-71340000D02*
X186940000Y-71340000D01*
X188473000Y-71300000D02*
X183327000Y-71300000D01*
X188476000Y-71260000D02*
X183324000Y-71260000D01*
X188478000Y-71220000D02*
X183322000Y-71220000D01*
X188479000Y-71180000D02*
X183321000Y-71180000D01*
X188480000Y-71100000D02*
X183320000Y-71100000D01*
X188480000Y-71140000D02*
X183320000Y-71140000D01*
X188520000Y-71100000D02*
G75*
G02*
X183280000Y-71100000I-2620000J0D01*
G01*
X183280000Y-71100000D02*
G75*
G02*
X188520000Y-71100000I2620000J0D01*
G01*
%TO.C,R22*%
X161970000Y-53180000D02*
X161970000Y-59720000D01*
X161970000Y-59720000D02*
X162300000Y-59720000D01*
X162300000Y-53180000D02*
X161970000Y-53180000D01*
X164380000Y-53180000D02*
X164710000Y-53180000D01*
X164710000Y-53180000D02*
X164710000Y-59720000D01*
X164710000Y-59720000D02*
X164380000Y-59720000D01*
%TO.C,J2*%
X175190000Y-60460000D02*
X175190000Y-53340000D01*
X183010000Y-53340000D02*
X175190000Y-53340000D01*
X183010000Y-54900000D02*
X175190000Y-54900000D01*
X183010000Y-60460000D02*
X175190000Y-60460000D01*
X183010000Y-60460000D02*
X183010000Y-53340000D01*
X183250000Y-53100000D02*
X181750000Y-53100000D01*
X183250000Y-54840000D02*
X183250000Y-53100000D01*
X179417891Y-57607742D02*
G75*
G02*
X179418000Y-56392000I1432112J607743D01*
G01*
X180242413Y-55568615D02*
G75*
G02*
X180850000Y-55445000I607587J-1431385D01*
G01*
X180822989Y-55444507D02*
G75*
G02*
X181458000Y-55568000I27013J-1555481D01*
G01*
X181457742Y-58432109D02*
G75*
G02*
X180242000Y-58432000I-607742J1432109D01*
G01*
X182282109Y-56392258D02*
G75*
G02*
X182282000Y-57608000I-1432109J-607742D01*
G01*
X178905000Y-57000000D02*
G75*
G02*
X175795000Y-57000000I-1555000J0D01*
G01*
X175795000Y-57000000D02*
G75*
G02*
X178905000Y-57000000I1555000J0D01*
G01*
%TO.C,C10*%
X190000000Y-61890000D02*
X190000000Y-62135000D01*
X190000000Y-61890000D02*
X193640000Y-61890000D01*
X190000000Y-63985000D02*
X190000000Y-64230000D01*
X190000000Y-64230000D02*
X193640000Y-64230000D01*
X193640000Y-61890000D02*
X193640000Y-62135000D01*
X193640000Y-63985000D02*
X193640000Y-64230000D01*
%TO.C,R3*%
X160750000Y-85380000D02*
X160750000Y-85710000D01*
X160750000Y-88120000D02*
X160750000Y-87790000D01*
X167290000Y-85380000D02*
X160750000Y-85380000D01*
X167290000Y-85710000D02*
X167290000Y-85380000D01*
X167290000Y-87790000D02*
X167290000Y-88120000D01*
X167290000Y-88120000D02*
X160750000Y-88120000D01*
%TO.C,Q3*%
X132575000Y-87525000D02*
X132575000Y-91375000D01*
X132575000Y-87525000D02*
G75*
G02*
X133152955Y-87142369I1700000J-1940000D01*
G01*
X133162736Y-91767383D02*
G75*
G02*
X132575000Y-91375000I1112264J2302383D01*
G01*
X135373807Y-87108600D02*
G75*
G02*
X136875000Y-89465000I-1098807J-2356400D01*
G01*
X136875000Y-89465000D02*
G75*
G02*
X135373807Y-91821400I-2600000J0D01*
G01*
%TO.C,R14*%
X145530000Y-82850000D02*
X145530000Y-89390000D01*
X145530000Y-89390000D02*
X145860000Y-89390000D01*
X145860000Y-82850000D02*
X145530000Y-82850000D01*
X147940000Y-82850000D02*
X148270000Y-82850000D01*
X148270000Y-82850000D02*
X148270000Y-89390000D01*
X148270000Y-89390000D02*
X147940000Y-89390000D01*
%TO.C,R6*%
X161150000Y-74980000D02*
X161150000Y-81520000D01*
X161150000Y-81520000D02*
X161480000Y-81520000D01*
X161480000Y-74980000D02*
X161150000Y-74980000D01*
X163560000Y-74980000D02*
X163890000Y-74980000D01*
X163890000Y-74980000D02*
X163890000Y-81520000D01*
X163890000Y-81520000D02*
X163560000Y-81520000D01*
%TO.C,Q9*%
X140425000Y-54425000D02*
X140425000Y-58275000D01*
X140425000Y-54425000D02*
G75*
G02*
X141002955Y-54042369I1700000J-1940000D01*
G01*
X141012736Y-58667383D02*
G75*
G02*
X140425000Y-58275000I1112264J2302383D01*
G01*
X143223807Y-54008600D02*
G75*
G02*
X144725000Y-56365000I-1098807J-2356400D01*
G01*
X144725000Y-56365000D02*
G75*
G02*
X143223807Y-58721400I-2600000J0D01*
G01*
%TO.C,R9*%
X151750000Y-77380000D02*
X158290000Y-77380000D01*
X151750000Y-77710000D02*
X151750000Y-77380000D01*
X151750000Y-79790000D02*
X151750000Y-80120000D01*
X151750000Y-80120000D02*
X158290000Y-80120000D01*
X158290000Y-77380000D02*
X158290000Y-77710000D01*
X158290000Y-80120000D02*
X158290000Y-79790000D01*
%TO.C,R12*%
X138760000Y-82880000D02*
X138760000Y-89420000D01*
X138760000Y-89420000D02*
X139090000Y-89420000D01*
X139090000Y-82880000D02*
X138760000Y-82880000D01*
X141170000Y-82880000D02*
X141500000Y-82880000D01*
X141500000Y-82880000D02*
X141500000Y-89420000D01*
X141500000Y-89420000D02*
X141170000Y-89420000D01*
%TO.C,C9*%
X185380000Y-74945000D02*
X185380000Y-74700000D01*
X185380000Y-77040000D02*
X185380000Y-76795000D01*
X189020000Y-74700000D02*
X185380000Y-74700000D01*
X189020000Y-74945000D02*
X189020000Y-74700000D01*
X189020000Y-77040000D02*
X185380000Y-77040000D01*
X189020000Y-77040000D02*
X189020000Y-76795000D01*
%TO.C,U1*%
X156240000Y-62300000D02*
X156240000Y-72580000D01*
X156240000Y-72580000D02*
X174260000Y-72580000D01*
X156300000Y-64790000D02*
X156300000Y-66440000D01*
X156300000Y-68440000D02*
X156300000Y-70090000D01*
X156300000Y-70090000D02*
X174200000Y-70090000D01*
X174200000Y-64790000D02*
X156300000Y-64790000D01*
X174200000Y-70090000D02*
X174200000Y-64790000D01*
X174260000Y-62300000D02*
X156240000Y-62300000D01*
X174260000Y-72580000D02*
X174260000Y-62300000D01*
X156300000Y-66440000D02*
G75*
G02*
X156300000Y-68440000I0J-1000000D01*
G01*
%TO.C,Q1*%
X131975000Y-89465000D02*
G75*
G02*
X130473807Y-91821400I-2600000J0D01*
G01*
X130473807Y-87108600D02*
G75*
G02*
X131975000Y-89465000I-1098807J-2356400D01*
G01*
X128262736Y-91767383D02*
G75*
G02*
X127675000Y-91375000I1112264J2302383D01*
G01*
X127675000Y-87525000D02*
G75*
G02*
X128252955Y-87142369I1700000J-1940000D01*
G01*
X127675000Y-87525000D02*
X127675000Y-91375000D01*
%TO.C,R15*%
X150360000Y-87080000D02*
X156900000Y-87080000D01*
X150360000Y-87410000D02*
X150360000Y-87080000D01*
X150360000Y-89490000D02*
X150360000Y-89820000D01*
X150360000Y-89820000D02*
X156900000Y-89820000D01*
X156900000Y-87080000D02*
X156900000Y-87410000D01*
X156900000Y-89820000D02*
X156900000Y-89490000D01*
%TO.C,M1*%
X152410000Y-85800000D02*
X156260000Y-85800000D01*
X151993600Y-83001193D02*
G75*
G02*
X154350000Y-81500000I2356400J-1098807D01*
G01*
X152410000Y-85800000D02*
G75*
G02*
X152027369Y-85222045I1940000J1700000D01*
G01*
X154350000Y-81500000D02*
G75*
G02*
X156706400Y-83001193I0J-2600000D01*
G01*
X156652383Y-85212264D02*
G75*
G02*
X156260000Y-85800000I-2302383J1112264D01*
G01*
%TO.C,R19*%
X153480000Y-58380000D02*
X153480000Y-58710000D01*
X153480000Y-61120000D02*
X153480000Y-60790000D01*
X160020000Y-58380000D02*
X153480000Y-58380000D01*
X160020000Y-58710000D02*
X160020000Y-58380000D01*
X160020000Y-60790000D02*
X160020000Y-61120000D01*
X160020000Y-61120000D02*
X153480000Y-61120000D01*
%TO.C,Q2*%
X127800000Y-74070000D02*
X127800000Y-77920000D01*
X127800000Y-74070000D02*
G75*
G02*
X128377955Y-73687369I1700000J-1940000D01*
G01*
X128387736Y-78312383D02*
G75*
G02*
X127800000Y-77920000I1112264J2302383D01*
G01*
X130598807Y-73653600D02*
G75*
G02*
X132100000Y-76010000I-1098807J-2356400D01*
G01*
X132100000Y-76010000D02*
G75*
G02*
X130598807Y-78366400I-2600000J0D01*
G01*
%TO.C,Q5*%
X136900000Y-69080000D02*
X136900000Y-65230000D01*
X132600000Y-67140000D02*
G75*
G02*
X134101193Y-64783600I2600000J0D01*
G01*
X134101193Y-69496400D02*
G75*
G02*
X132600000Y-67140000I1098807J2356400D01*
G01*
X136312264Y-64837617D02*
G75*
G02*
X136900000Y-65230000I-1112264J-2302383D01*
G01*
X136900000Y-69080000D02*
G75*
G02*
X136322045Y-69462631I-1700000J1940000D01*
G01*
%TO.C,GND1*%
X123390000Y-56990000D02*
X124810000Y-56990000D01*
X123390000Y-58410000D02*
X123390000Y-56990000D01*
X124810000Y-56990000D02*
X124810000Y-58410000D01*
X124810000Y-58410000D02*
X123390000Y-58410000D01*
%TO.C,J1*%
X192390000Y-67250000D02*
X192390000Y-68750000D01*
X192630000Y-67490000D02*
X192630000Y-89310000D01*
X194130000Y-67250000D02*
X192390000Y-67250000D01*
X194190000Y-67490000D02*
X194190000Y-89310000D01*
X199750000Y-67490000D02*
X192630000Y-67490000D01*
X199750000Y-67490000D02*
X199750000Y-89310000D01*
X199750000Y-89310000D02*
X192630000Y-89310000D01*
X194734507Y-69677011D02*
G75*
G02*
X194858000Y-69042000I1555481J27013D01*
G01*
X194858615Y-70257587D02*
G75*
G02*
X194735000Y-69650000I1431385J607587D01*
G01*
X195682258Y-68217891D02*
G75*
G02*
X196898000Y-68218000I607742J-1432109D01*
G01*
X196897742Y-71082109D02*
G75*
G02*
X195682000Y-71082000I-607743J1432112D01*
G01*
X197722109Y-69042258D02*
G75*
G02*
X197722000Y-70258000I-1432109J-607742D01*
G01*
X197845000Y-73150000D02*
G75*
G02*
X194735000Y-73150000I-1555000J0D01*
G01*
X194735000Y-73150000D02*
G75*
G02*
X197845000Y-73150000I1555000J0D01*
G01*
X197845000Y-76650000D02*
G75*
G02*
X194735000Y-76650000I-1555000J0D01*
G01*
X194735000Y-76650000D02*
G75*
G02*
X197845000Y-76650000I1555000J0D01*
G01*
X197845000Y-80150000D02*
G75*
G02*
X194735000Y-80150000I-1555000J0D01*
G01*
X194735000Y-80150000D02*
G75*
G02*
X197845000Y-80150000I1555000J0D01*
G01*
X197845000Y-83650000D02*
G75*
G02*
X194735000Y-83650000I-1555000J0D01*
G01*
X194735000Y-83650000D02*
G75*
G02*
X197845000Y-83650000I1555000J0D01*
G01*
X197845000Y-87150000D02*
G75*
G02*
X194735000Y-87150000I-1555000J0D01*
G01*
X194735000Y-87150000D02*
G75*
G02*
X197845000Y-87150000I1555000J0D01*
G01*
%TO.C,R17*%
X145660000Y-58180000D02*
X145990000Y-58180000D01*
X145660000Y-64720000D02*
X145660000Y-58180000D01*
X145990000Y-64720000D02*
X145660000Y-64720000D01*
X148070000Y-64720000D02*
X148400000Y-64720000D01*
X148400000Y-58180000D02*
X148070000Y-58180000D01*
X148400000Y-64720000D02*
X148400000Y-58180000D01*
%TO.C,C2*%
X185420000Y-77815000D02*
X185420000Y-77570000D01*
X185420000Y-79910000D02*
X185420000Y-79665000D01*
X189060000Y-77570000D02*
X185420000Y-77570000D01*
X189060000Y-77815000D02*
X189060000Y-77570000D01*
X189060000Y-79910000D02*
X185420000Y-79910000D01*
X189060000Y-79910000D02*
X189060000Y-79665000D01*
%TO.C,Q8*%
X140130000Y-47375000D02*
X140130000Y-52016000D01*
X140130000Y-47375000D02*
X150370000Y-47375000D01*
X140130000Y-48885000D02*
X150370000Y-48885000D01*
X140130000Y-52016000D02*
X150370000Y-52016000D01*
X143400000Y-47375000D02*
X143400000Y-48885000D01*
X147101000Y-47375000D02*
X147101000Y-48885000D01*
X150370000Y-47375000D02*
X150370000Y-52016000D01*
%TO.C,C1*%
X137955000Y-65380000D02*
X137955000Y-65625000D01*
X137955000Y-65380000D02*
X141595000Y-65380000D01*
X137955000Y-67475000D02*
X137955000Y-67720000D01*
X137955000Y-67720000D02*
X141595000Y-67720000D01*
X141595000Y-65380000D02*
X141595000Y-65625000D01*
X141595000Y-67475000D02*
X141595000Y-67720000D01*
%TO.C,Rcp1*%
X137180000Y-56430000D02*
X137180000Y-62970000D01*
X137180000Y-62970000D02*
X137510000Y-62970000D01*
X137510000Y-56430000D02*
X137180000Y-56430000D01*
X139590000Y-56430000D02*
X139920000Y-56430000D01*
X139920000Y-56430000D02*
X139920000Y-62970000D01*
X139920000Y-62970000D02*
X139590000Y-62970000D01*
%TO.C,R24*%
X128080000Y-82955000D02*
X134620000Y-82955000D01*
X128080000Y-83285000D02*
X128080000Y-82955000D01*
X128080000Y-85365000D02*
X128080000Y-85695000D01*
X128080000Y-85695000D02*
X134620000Y-85695000D01*
X134620000Y-82955000D02*
X134620000Y-83285000D01*
X134620000Y-85695000D02*
X134620000Y-85365000D01*
%TD*%
M02*
