M48
; DRILL file {KiCad 8.0.5} date 2024-09-29T00:41:28-0300
; FORMAT={-:-/ absolute / inch / decimal}
; #@! TF.CreationDate,2024-09-29T00:41:28-03:00
; #@! TF.GenerationSoftware,Kicad,Pcbnew,8.0.5
; #@! TF.FileFunction,Plated,1,2,PTH
FMAT,2
INCH
; #@! TA.AperFunction,Plated,PTH,ComponentDrill
T1C0.0276
; #@! TA.AperFunction,Plated,PTH,ComponentDrill
T2C0.0315
; #@! TA.AperFunction,Plated,PTH,ComponentDrill
T3C0.0433
; #@! TA.AperFunction,Plated,PTH,ComponentDrill
T4C0.0472
%
G90
G05
T1
X5.0098Y-2.4213
X5.1457Y-2.185
X5.5276Y-3.0472
X5.8917Y-2.6732
X7.3307Y-2.3268
T2
X5.0Y-2.726
X5.0Y-3.026
X5.1339Y-2.3748
X5.1339Y-2.6748
X5.1417Y-3.4476
X5.1417Y-3.5476
X5.1417Y-3.6476
X5.1437Y-3.1362
X5.1437Y-3.2362
X5.1437Y-3.3362
X5.1811Y-2.8295
X5.1811Y-2.9295
X5.1811Y-3.0295
X5.2598Y-2.3756
X5.2598Y-2.6756
X5.3346Y-3.1386
X5.3346Y-3.2386
X5.3346Y-3.3386
X5.3346Y-3.4476
X5.3346Y-3.5476
X5.3346Y-3.6476
X5.3642Y-1.9626
X5.3642Y-2.0626
X5.3642Y-2.1626
X5.3701Y-2.8295
X5.3701Y-2.9295
X5.3701Y-3.0295
X5.4016Y-2.2984
X5.4016Y-2.5984
X5.4035Y-2.7126
X5.502Y-2.7126
X5.5169Y-3.2417
X5.5169Y-3.5417
X5.5472Y-2.8189
X5.5472Y-2.9173
X5.6024Y-2.1083
X5.6024Y-2.2083
X5.6024Y-2.3083
X5.6469Y-3.2417
X5.6469Y-3.5417
X5.6594Y-2.4016
X5.6594Y-2.7016
X5.6654Y-2.8185
X5.6654Y-3.1185
X5.7835Y-3.2406
X5.7835Y-3.5406
X5.7886Y-2.2693
X5.7886Y-2.5693
X5.7913Y-2.7717
X5.7913Y-3.0717
X5.8984Y-3.4823
X5.9531Y-2.9626
X5.9531Y-3.1004
X5.9768Y-3.311
X6.0169Y-2.5098
X6.0169Y-2.8098
X6.0205Y-2.2224
X6.0209Y-2.0728
X6.0213Y-2.3524
X6.0768Y-3.311
X6.1768Y-3.311
X6.1984Y-3.4823
X6.2059Y-2.5051
X6.2059Y-2.8051
X6.2531Y-2.9626
X6.2531Y-3.1004
X6.3059Y-2.5051
X6.3059Y-2.8051
X6.3075Y-3.4154
X6.3205Y-2.2224
X6.3209Y-2.0728
X6.3213Y-2.3524
X6.3984Y-2.9307
X6.3984Y-3.2307
X6.4059Y-2.5051
X6.4059Y-2.8051
X6.4307Y-2.0724
X6.4307Y-2.3724
X6.5059Y-2.5051
X6.5059Y-2.8051
X6.6059Y-2.5051
X6.6059Y-2.8051
X6.6075Y-2.9898
X6.6075Y-3.2898
X6.6075Y-3.4154
X6.6157Y-2.0724
X6.6157Y-2.3724
X6.7059Y-2.5051
X6.7059Y-2.8051
X6.7453Y-2.9823
X6.7453Y-3.2823
X6.8059Y-2.5051
X6.8059Y-2.8051
X6.9016Y-2.9819
X6.9016Y-3.2819
X6.9618Y-2.5098
X6.9618Y-2.8098
X7.0996Y-2.5098
X7.0996Y-2.8098
X7.315Y-2.9803
X7.315Y-3.0787
X7.315Y-3.1969
X7.315Y-3.2953
X7.315Y-3.4154
X7.315Y-3.5138
X7.3169Y-2.5254
X7.3169Y-2.6238
X7.3189Y-2.75
X7.3189Y-2.8484
T3
X5.6185Y-1.9939
X5.7185Y-1.9939
X5.8185Y-1.9939
T4
X6.9823Y-2.2441
X7.1201Y-2.2441
X7.6457Y-2.7244
X7.6457Y-2.8622
X7.6457Y-3.0
X7.6457Y-3.1378
X7.6457Y-3.2756
X7.6457Y-3.4134
M30
