M48
; DRILL file {KiCad 8.0.5} date 2024-10-01T13:10:09-0300
; FORMAT={-:-/ absolute / inch / decimal}
; #@! TF.CreationDate,2024-10-01T13:10:09-03:00
; #@! TF.GenerationSoftware,Kicad,Pcbnew,8.0.5
; #@! TF.FileFunction,Plated,1,2,PTH
FMAT,2
INCH
; #@! TA.AperFunction,Plated,PTH,ComponentDrill
T1C0.0276
; #@! TA.AperFunction,Plated,PTH,ComponentDrill
T2C0.0315
; #@! TA.AperFunction,Plated,PTH,ComponentDrill
T3C0.0394
; #@! TA.AperFunction,Plated,PTH,ComponentDrill
T4C0.0433
; #@! TA.AperFunction,Plated,PTH,ComponentDrill
T5C0.0472
%
G90
G05
T1
X4.8858Y-2.2717
X5.1929Y-2.001
X5.5148Y-3.0689
X5.8917Y-2.6732
X7.3307Y-2.3268
T2
X4.9075Y-2.6108
X4.9075Y-2.9108
X5.0213Y-3.2008
X5.0213Y-3.3199
X5.0935Y-3.4222
X5.0935Y-3.5222
X5.0935Y-3.6222
X5.0984Y-2.8925
X5.0984Y-2.9925
X5.0984Y-3.0925
X5.1004Y-2.1394
X5.1004Y-2.4394
X5.1014Y-2.5402
X5.1014Y-2.6402
X5.1014Y-2.7402
X5.2224Y-2.1394
X5.2224Y-2.4394
X5.2864Y-3.4222
X5.2864Y-3.5222
X5.2864Y-3.6222
X5.3213Y-3.2008
X5.3213Y-3.3199
X5.3228Y-2.5433
X5.3228Y-2.6433
X5.3228Y-2.7433
X5.3228Y-2.8969
X5.3228Y-2.9969
X5.3228Y-3.0969
X5.376Y-1.8996
X5.376Y-1.9996
X5.376Y-2.0996
X5.4537Y-2.6201
X5.4547Y-2.2004
X5.4547Y-2.5004
X5.5169Y-3.2417
X5.5169Y-3.5417
X5.5472Y-2.7783
X5.5472Y-2.8768
X5.5522Y-2.6201
X5.5955Y-2.1191
X5.5955Y-2.2191
X5.5955Y-2.3191
X5.6469Y-3.2417
X5.6469Y-3.5417
X5.6594Y-2.4016
X5.6594Y-2.7016
X5.6654Y-2.8185
X5.6654Y-3.1185
X5.7835Y-3.2406
X5.7835Y-3.5406
X5.7886Y-2.2693
X5.7886Y-2.5693
X5.7913Y-2.7717
X5.7913Y-3.0717
X5.8984Y-3.4823
X5.9531Y-2.9626
X5.9531Y-3.1004
X5.9768Y-3.311
X6.0169Y-2.5098
X6.0169Y-2.8098
X6.0205Y-2.2224
X6.0209Y-2.0728
X6.0213Y-2.3524
X6.0768Y-3.311
X6.1768Y-3.311
X6.1984Y-3.4823
X6.2059Y-2.5051
X6.2059Y-2.8051
X6.2531Y-2.9626
X6.2531Y-3.1004
X6.3059Y-2.5051
X6.3059Y-2.8051
X6.3075Y-3.4154
X6.3205Y-2.2224
X6.3209Y-2.0728
X6.3213Y-2.3524
X6.3984Y-2.9307
X6.3984Y-3.2307
X6.4059Y-2.5051
X6.4059Y-2.8051
X6.4307Y-2.0724
X6.4307Y-2.3724
X6.5059Y-2.5051
X6.5059Y-2.8051
X6.6059Y-2.5051
X6.6059Y-2.8051
X6.6075Y-2.9898
X6.6075Y-3.2898
X6.6075Y-3.4154
X6.6157Y-2.0724
X6.6157Y-2.3724
X6.7059Y-2.5051
X6.7059Y-2.8051
X6.7453Y-2.9823
X6.7453Y-3.2823
X6.8059Y-2.5051
X6.8059Y-2.8051
X6.9016Y-2.9819
X6.9016Y-3.2819
X6.9618Y-2.5098
X6.9618Y-2.8098
X7.0996Y-2.5098
X7.0996Y-2.8098
X7.3169Y-2.5254
X7.3169Y-2.6238
X7.3189Y-2.75
X7.3189Y-2.8484
X7.3209Y-2.987
X7.3224Y-3.1
X7.3228Y-3.2748
X7.4193Y-2.987
X7.4209Y-3.1
X7.4213Y-3.2748
X7.5028Y-2.4827
X7.6012Y-2.4827
T3
X7.3945Y-3.4569
X7.3945Y-3.5569
T4
X5.6185Y-1.9939
X5.7185Y-1.9939
X5.8185Y-1.9939
T5
X6.9823Y-2.2441
X7.1201Y-2.2441
X7.728Y-2.7421
X7.728Y-2.8799
X7.728Y-3.0177
X7.728Y-3.1555
X7.728Y-3.2933
X7.728Y-3.4311
M30
