%TF.GenerationSoftware,KiCad,Pcbnew,8.0.5*%
%TF.CreationDate,2024-09-29T00:41:08-03:00*%
%TF.ProjectId,dce-pcb-v1,6463652d-7063-4622-9d76-312e6b696361,rev?*%
%TF.SameCoordinates,Original*%
%TF.FileFunction,Copper,L2,Bot*%
%TF.FilePolarity,Positive*%
%FSLAX46Y46*%
G04 Gerber Fmt 4.6, Leading zero omitted, Abs format (unit mm)*
G04 Created by KiCad (PCBNEW 8.0.5) date 2024-09-29 00:41:08*
%MOMM*%
%LPD*%
G01*
G04 APERTURE LIST*
%ADD10C,0.150000*%
%TA.AperFunction,NonConductor*%
%ADD11C,0.150000*%
%TD*%
%ADD12C,0.175000*%
%TA.AperFunction,NonConductor*%
%ADD13C,0.175000*%
%TD*%
%TA.AperFunction,ComponentPad*%
%ADD14C,1.600000*%
%TD*%
%TA.AperFunction,ComponentPad*%
%ADD15O,1.600000X1.600000*%
%TD*%
%TA.AperFunction,ComponentPad*%
%ADD16R,1.300000X1.300000*%
%TD*%
%TA.AperFunction,ComponentPad*%
%ADD17R,1.500000X1.500000*%
%TD*%
%TA.AperFunction,ComponentPad*%
%ADD18C,1.500000*%
%TD*%
%TA.AperFunction,ComponentPad*%
%ADD19R,1.600000X1.600000*%
%TD*%
%TA.AperFunction,ComponentPad*%
%ADD20R,2.400000X2.400000*%
%TD*%
%TA.AperFunction,ComponentPad*%
%ADD21C,2.400000*%
%TD*%
%TA.AperFunction,ComponentPad*%
%ADD22R,1.905000X2.000000*%
%TD*%
%TA.AperFunction,ComponentPad*%
%ADD23O,1.905000X2.000000*%
%TD*%
%TA.AperFunction,Conductor*%
%ADD24C,0.750000*%
%TD*%
G04 APERTURE END LIST*
D10*
D11*
X186787030Y-49158628D02*
X187501316Y-49158628D01*
X187501316Y-49158628D02*
X187501316Y-47658628D01*
X186287030Y-49158628D02*
X186287030Y-47658628D01*
X186287030Y-47658628D02*
X185929887Y-47658628D01*
X185929887Y-47658628D02*
X185715601Y-47730057D01*
X185715601Y-47730057D02*
X185572744Y-47872914D01*
X185572744Y-47872914D02*
X185501315Y-48015771D01*
X185501315Y-48015771D02*
X185429887Y-48301485D01*
X185429887Y-48301485D02*
X185429887Y-48515771D01*
X185429887Y-48515771D02*
X185501315Y-48801485D01*
X185501315Y-48801485D02*
X185572744Y-48944342D01*
X185572744Y-48944342D02*
X185715601Y-49087200D01*
X185715601Y-49087200D02*
X185929887Y-49158628D01*
X185929887Y-49158628D02*
X186287030Y-49158628D01*
X184501315Y-47658628D02*
X184215601Y-47658628D01*
X184215601Y-47658628D02*
X184072744Y-47730057D01*
X184072744Y-47730057D02*
X183929887Y-47872914D01*
X183929887Y-47872914D02*
X183858458Y-48158628D01*
X183858458Y-48158628D02*
X183858458Y-48658628D01*
X183858458Y-48658628D02*
X183929887Y-48944342D01*
X183929887Y-48944342D02*
X184072744Y-49087200D01*
X184072744Y-49087200D02*
X184215601Y-49158628D01*
X184215601Y-49158628D02*
X184501315Y-49158628D01*
X184501315Y-49158628D02*
X184644173Y-49087200D01*
X184644173Y-49087200D02*
X184787030Y-48944342D01*
X184787030Y-48944342D02*
X184858458Y-48658628D01*
X184858458Y-48658628D02*
X184858458Y-48158628D01*
X184858458Y-48158628D02*
X184787030Y-47872914D01*
X184787030Y-47872914D02*
X184644173Y-47730057D01*
X184644173Y-47730057D02*
X184501315Y-47658628D01*
D12*
D13*
X196170583Y-49034639D02*
X196242011Y-49106068D01*
X196242011Y-49106068D02*
X196456297Y-49177496D01*
X196456297Y-49177496D02*
X196599154Y-49177496D01*
X196599154Y-49177496D02*
X196813440Y-49106068D01*
X196813440Y-49106068D02*
X196956297Y-48963210D01*
X196956297Y-48963210D02*
X197027726Y-48820353D01*
X197027726Y-48820353D02*
X197099154Y-48534639D01*
X197099154Y-48534639D02*
X197099154Y-48320353D01*
X197099154Y-48320353D02*
X197027726Y-48034639D01*
X197027726Y-48034639D02*
X196956297Y-47891782D01*
X196956297Y-47891782D02*
X196813440Y-47748925D01*
X196813440Y-47748925D02*
X196599154Y-47677496D01*
X196599154Y-47677496D02*
X196456297Y-47677496D01*
X196456297Y-47677496D02*
X196242011Y-47748925D01*
X196242011Y-47748925D02*
X196170583Y-47820353D01*
X195527726Y-49177496D02*
X195527726Y-48177496D01*
X195527726Y-47677496D02*
X195599154Y-47748925D01*
X195599154Y-47748925D02*
X195527726Y-47820353D01*
X195527726Y-47820353D02*
X195456297Y-47748925D01*
X195456297Y-47748925D02*
X195527726Y-47677496D01*
X195527726Y-47677496D02*
X195527726Y-47820353D01*
X194813440Y-49177496D02*
X194813440Y-48177496D01*
X194813440Y-48463210D02*
X194742011Y-48320353D01*
X194742011Y-48320353D02*
X194670583Y-48248925D01*
X194670583Y-48248925D02*
X194527725Y-48177496D01*
X194527725Y-48177496D02*
X194384868Y-48177496D01*
X193242012Y-49106068D02*
X193384869Y-49177496D01*
X193384869Y-49177496D02*
X193670583Y-49177496D01*
X193670583Y-49177496D02*
X193813440Y-49106068D01*
X193813440Y-49106068D02*
X193884869Y-49034639D01*
X193884869Y-49034639D02*
X193956297Y-48891782D01*
X193956297Y-48891782D02*
X193956297Y-48463210D01*
X193956297Y-48463210D02*
X193884869Y-48320353D01*
X193884869Y-48320353D02*
X193813440Y-48248925D01*
X193813440Y-48248925D02*
X193670583Y-48177496D01*
X193670583Y-48177496D02*
X193384869Y-48177496D01*
X193384869Y-48177496D02*
X193242012Y-48248925D01*
X191956298Y-48177496D02*
X191956298Y-49177496D01*
X192599155Y-48177496D02*
X192599155Y-48963210D01*
X192599155Y-48963210D02*
X192527726Y-49106068D01*
X192527726Y-49106068D02*
X192384869Y-49177496D01*
X192384869Y-49177496D02*
X192170583Y-49177496D01*
X192170583Y-49177496D02*
X192027726Y-49106068D01*
X192027726Y-49106068D02*
X191956298Y-49034639D01*
X191242012Y-49177496D02*
X191242012Y-48177496D01*
X191242012Y-47677496D02*
X191313440Y-47748925D01*
X191313440Y-47748925D02*
X191242012Y-47820353D01*
X191242012Y-47820353D02*
X191170583Y-47748925D01*
X191170583Y-47748925D02*
X191242012Y-47677496D01*
X191242012Y-47677496D02*
X191242012Y-47820353D01*
X190742011Y-48177496D02*
X190170583Y-48177496D01*
X190527726Y-47677496D02*
X190527726Y-48963210D01*
X190527726Y-48963210D02*
X190456297Y-49106068D01*
X190456297Y-49106068D02*
X190313440Y-49177496D01*
X190313440Y-49177496D02*
X190170583Y-49177496D01*
X189456297Y-49177496D02*
X189599154Y-49106068D01*
X189599154Y-49106068D02*
X189670583Y-49034639D01*
X189670583Y-49034639D02*
X189742011Y-48891782D01*
X189742011Y-48891782D02*
X189742011Y-48463210D01*
X189742011Y-48463210D02*
X189670583Y-48320353D01*
X189670583Y-48320353D02*
X189599154Y-48248925D01*
X189599154Y-48248925D02*
X189456297Y-48177496D01*
X189456297Y-48177496D02*
X189242011Y-48177496D01*
X189242011Y-48177496D02*
X189099154Y-48248925D01*
X189099154Y-48248925D02*
X189027726Y-48320353D01*
X189027726Y-48320353D02*
X188956297Y-48463210D01*
X188956297Y-48463210D02*
X188956297Y-48891782D01*
X188956297Y-48891782D02*
X189027726Y-49034639D01*
X189027726Y-49034639D02*
X189099154Y-49106068D01*
X189099154Y-49106068D02*
X189242011Y-49177496D01*
X189242011Y-49177496D02*
X189456297Y-49177496D01*
X197170583Y-50092412D02*
X196242011Y-50092412D01*
X196242011Y-50092412D02*
X196742011Y-50663841D01*
X196742011Y-50663841D02*
X196527726Y-50663841D01*
X196527726Y-50663841D02*
X196384869Y-50735269D01*
X196384869Y-50735269D02*
X196313440Y-50806698D01*
X196313440Y-50806698D02*
X196242011Y-50949555D01*
X196242011Y-50949555D02*
X196242011Y-51306698D01*
X196242011Y-51306698D02*
X196313440Y-51449555D01*
X196313440Y-51449555D02*
X196384869Y-51520984D01*
X196384869Y-51520984D02*
X196527726Y-51592412D01*
X196527726Y-51592412D02*
X196956297Y-51592412D01*
X196956297Y-51592412D02*
X197099154Y-51520984D01*
X197099154Y-51520984D02*
X197170583Y-51449555D01*
X195599155Y-51449555D02*
X195527726Y-51520984D01*
X195527726Y-51520984D02*
X195599155Y-51592412D01*
X195599155Y-51592412D02*
X195670583Y-51520984D01*
X195670583Y-51520984D02*
X195599155Y-51449555D01*
X195599155Y-51449555D02*
X195599155Y-51592412D01*
X195027726Y-50092412D02*
X194099154Y-50092412D01*
X194099154Y-50092412D02*
X194599154Y-50663841D01*
X194599154Y-50663841D02*
X194384869Y-50663841D01*
X194384869Y-50663841D02*
X194242012Y-50735269D01*
X194242012Y-50735269D02*
X194170583Y-50806698D01*
X194170583Y-50806698D02*
X194099154Y-50949555D01*
X194099154Y-50949555D02*
X194099154Y-51306698D01*
X194099154Y-51306698D02*
X194170583Y-51449555D01*
X194170583Y-51449555D02*
X194242012Y-51520984D01*
X194242012Y-51520984D02*
X194384869Y-51592412D01*
X194384869Y-51592412D02*
X194813440Y-51592412D01*
X194813440Y-51592412D02*
X194956297Y-51520984D01*
X194956297Y-51520984D02*
X195027726Y-51449555D01*
X193670583Y-50092412D02*
X193170583Y-51592412D01*
X193170583Y-51592412D02*
X192670583Y-50092412D01*
X191099155Y-50020984D02*
X192384869Y-51949555D01*
X189884869Y-50092412D02*
X190599155Y-50092412D01*
X190599155Y-50092412D02*
X190670583Y-50806698D01*
X190670583Y-50806698D02*
X190599155Y-50735269D01*
X190599155Y-50735269D02*
X190456298Y-50663841D01*
X190456298Y-50663841D02*
X190099155Y-50663841D01*
X190099155Y-50663841D02*
X189956298Y-50735269D01*
X189956298Y-50735269D02*
X189884869Y-50806698D01*
X189884869Y-50806698D02*
X189813440Y-50949555D01*
X189813440Y-50949555D02*
X189813440Y-51306698D01*
X189813440Y-51306698D02*
X189884869Y-51449555D01*
X189884869Y-51449555D02*
X189956298Y-51520984D01*
X189956298Y-51520984D02*
X190099155Y-51592412D01*
X190099155Y-51592412D02*
X190456298Y-51592412D01*
X190456298Y-51592412D02*
X190599155Y-51520984D01*
X190599155Y-51520984D02*
X190670583Y-51449555D01*
X189384869Y-50092412D02*
X188884869Y-51592412D01*
X188884869Y-51592412D02*
X188384869Y-50092412D01*
X196242011Y-52578757D02*
X196384869Y-52507328D01*
X196384869Y-52507328D02*
X196599154Y-52507328D01*
X196599154Y-52507328D02*
X196813440Y-52578757D01*
X196813440Y-52578757D02*
X196956297Y-52721614D01*
X196956297Y-52721614D02*
X197027726Y-52864471D01*
X197027726Y-52864471D02*
X197099154Y-53150185D01*
X197099154Y-53150185D02*
X197099154Y-53364471D01*
X197099154Y-53364471D02*
X197027726Y-53650185D01*
X197027726Y-53650185D02*
X196956297Y-53793042D01*
X196956297Y-53793042D02*
X196813440Y-53935900D01*
X196813440Y-53935900D02*
X196599154Y-54007328D01*
X196599154Y-54007328D02*
X196456297Y-54007328D01*
X196456297Y-54007328D02*
X196242011Y-53935900D01*
X196242011Y-53935900D02*
X196170583Y-53864471D01*
X196170583Y-53864471D02*
X196170583Y-53364471D01*
X196170583Y-53364471D02*
X196456297Y-53364471D01*
X195527726Y-54007328D02*
X195527726Y-53007328D01*
X195527726Y-53293042D02*
X195456297Y-53150185D01*
X195456297Y-53150185D02*
X195384869Y-53078757D01*
X195384869Y-53078757D02*
X195242011Y-53007328D01*
X195242011Y-53007328D02*
X195099154Y-53007328D01*
X193956298Y-53007328D02*
X193956298Y-54007328D01*
X194599155Y-53007328D02*
X194599155Y-53793042D01*
X194599155Y-53793042D02*
X194527726Y-53935900D01*
X194527726Y-53935900D02*
X194384869Y-54007328D01*
X194384869Y-54007328D02*
X194170583Y-54007328D01*
X194170583Y-54007328D02*
X194027726Y-53935900D01*
X194027726Y-53935900D02*
X193956298Y-53864471D01*
X193242012Y-53007328D02*
X193242012Y-54507328D01*
X193242012Y-53078757D02*
X193099155Y-53007328D01*
X193099155Y-53007328D02*
X192813440Y-53007328D01*
X192813440Y-53007328D02*
X192670583Y-53078757D01*
X192670583Y-53078757D02*
X192599155Y-53150185D01*
X192599155Y-53150185D02*
X192527726Y-53293042D01*
X192527726Y-53293042D02*
X192527726Y-53721614D01*
X192527726Y-53721614D02*
X192599155Y-53864471D01*
X192599155Y-53864471D02*
X192670583Y-53935900D01*
X192670583Y-53935900D02*
X192813440Y-54007328D01*
X192813440Y-54007328D02*
X193099155Y-54007328D01*
X193099155Y-54007328D02*
X193242012Y-53935900D01*
X191670583Y-54007328D02*
X191813440Y-53935900D01*
X191813440Y-53935900D02*
X191884869Y-53864471D01*
X191884869Y-53864471D02*
X191956297Y-53721614D01*
X191956297Y-53721614D02*
X191956297Y-53293042D01*
X191956297Y-53293042D02*
X191884869Y-53150185D01*
X191884869Y-53150185D02*
X191813440Y-53078757D01*
X191813440Y-53078757D02*
X191670583Y-53007328D01*
X191670583Y-53007328D02*
X191456297Y-53007328D01*
X191456297Y-53007328D02*
X191313440Y-53078757D01*
X191313440Y-53078757D02*
X191242012Y-53150185D01*
X191242012Y-53150185D02*
X191170583Y-53293042D01*
X191170583Y-53293042D02*
X191170583Y-53721614D01*
X191170583Y-53721614D02*
X191242012Y-53864471D01*
X191242012Y-53864471D02*
X191313440Y-53935900D01*
X191313440Y-53935900D02*
X191456297Y-54007328D01*
X191456297Y-54007328D02*
X191670583Y-54007328D01*
X188670583Y-52507328D02*
X189384869Y-52507328D01*
X189384869Y-52507328D02*
X189456297Y-53221614D01*
X189456297Y-53221614D02*
X189384869Y-53150185D01*
X189384869Y-53150185D02*
X189242012Y-53078757D01*
X189242012Y-53078757D02*
X188884869Y-53078757D01*
X188884869Y-53078757D02*
X188742012Y-53150185D01*
X188742012Y-53150185D02*
X188670583Y-53221614D01*
X188670583Y-53221614D02*
X188599154Y-53364471D01*
X188599154Y-53364471D02*
X188599154Y-53721614D01*
X188599154Y-53721614D02*
X188670583Y-53864471D01*
X188670583Y-53864471D02*
X188742012Y-53935900D01*
X188742012Y-53935900D02*
X188884869Y-54007328D01*
X188884869Y-54007328D02*
X189242012Y-54007328D01*
X189242012Y-54007328D02*
X189384869Y-53935900D01*
X189384869Y-53935900D02*
X189456297Y-53864471D01*
D14*
%TO.P,R20,1*%
%TO.N,Net-(Q7-E)*%
X152920000Y-56450000D03*
D15*
%TO.P,R20,2*%
%TO.N,Net-(U1D--)*%
X160540000Y-56450000D03*
%TD*%
D16*
%TO.P,Vop,1,1*%
%TO.N,Net-(R17-Pad1)*%
X149650000Y-67900000D03*
%TD*%
D17*
%TO.P,Q4,1,C*%
%TO.N,Net-(Q2-C)*%
X131600000Y-76950000D03*
D18*
%TO.P,Q4,2,B*%
X131600000Y-74410000D03*
%TO.P,Q4,3,E*%
%TO.N,Net-(Q4-E)*%
X131600000Y-71870000D03*
%TD*%
D16*
%TO.P,Vf,1,1*%
%TO.N,/Vf*%
X140400000Y-77400000D03*
%TD*%
D14*
%TO.P,R11,1*%
%TO.N,Net-(Q7-E)*%
X143900000Y-71590000D03*
D15*
%TO.P,R11,2*%
%TO.N,Net-(R11-Pad2)*%
X143900000Y-79210000D03*
%TD*%
D14*
%TO.P,RE1,1*%
%TO.N,/Vreg*%
X130400000Y-60320000D03*
D15*
%TO.P,RE1,2*%
%TO.N,Net-(Q4-E)*%
X130400000Y-67940000D03*
%TD*%
D16*
%TO.P,Vd,1,1*%
%TO.N,/Vlc*%
X130700000Y-55500000D03*
%TD*%
D14*
%TO.P,R10,1*%
%TO.N,/Sum*%
X151210000Y-75250000D03*
D15*
%TO.P,R10,2*%
%TO.N,Net-(U1A--)*%
X158830000Y-75250000D03*
%TD*%
D14*
%TO.P,R8,1*%
%TO.N,Net-(R7-Pad2)*%
X175300000Y-83360000D03*
D15*
%TO.P,R8,2*%
%TO.N,0*%
X175300000Y-75740000D03*
%TD*%
D14*
%TO.P,R21,1*%
%TO.N,Net-(R19-Pad2)*%
X152830000Y-63750000D03*
D15*
%TO.P,R21,2*%
%TO.N,/Sum*%
X152830000Y-71370000D03*
%TD*%
D14*
%TO.P,Rs1,1*%
%TO.N,/Vo*%
X160550000Y-52650000D03*
D15*
%TO.P,Rs1,2*%
%TO.N,Net-(Q7-E)*%
X152930000Y-52650000D03*
%TD*%
D14*
%TO.P,R18,1*%
%TO.N,/Sum*%
X147100000Y-78020000D03*
D15*
%TO.P,R18,2*%
%TO.N,Net-(R17-Pad1)*%
X147100000Y-70400000D03*
%TD*%
D14*
%TO.P,RE2,1*%
%TO.N,/Vreg*%
X133600000Y-60340000D03*
D15*
%TO.P,RE2,2*%
%TO.N,Net-(Q5-E)*%
X133600000Y-67960000D03*
%TD*%
D17*
%TO.P,Q7,1,C*%
%TO.N,Net-(Q7-C)*%
X136250000Y-49850000D03*
D18*
%TO.P,Q7,2,B*%
%TO.N,/Vlc*%
X136250000Y-52390000D03*
%TO.P,Q7,3,E*%
%TO.N,Net-(Q7-E)*%
X136250000Y-54930000D03*
%TD*%
D16*
%TO.P,GND,1,1*%
%TO.N,0*%
X186200000Y-59100000D03*
%TD*%
D19*
%TO.P,C4,1*%
%TO.N,/-VPOSA*%
X185850000Y-64144888D03*
D14*
%TO.P,C4,2*%
%TO.N,0*%
X185850000Y-66644888D03*
%TD*%
D19*
%TO.P,C7,1*%
%TO.N,/Vref*%
X185800000Y-81200000D03*
D14*
%TO.P,C7,2*%
%TO.N,0*%
X185800000Y-83700000D03*
%TD*%
%TO.P,Rcp1,1*%
%TO.N,/Vlc*%
X137200000Y-58380000D03*
D15*
%TO.P,Rcp1,2*%
%TO.N,Net-(C1-Pad1)*%
X137200000Y-66000000D03*
%TD*%
D14*
%TO.P,R16,1*%
%TO.N,Net-(Q9-E)*%
X143750000Y-61000000D03*
D15*
%TO.P,R16,2*%
%TO.N,0*%
X143750000Y-68620000D03*
%TD*%
D14*
%TO.P,R5,1*%
%TO.N,Net-(U1A-+)*%
X176830000Y-71370000D03*
D15*
%TO.P,R5,2*%
%TO.N,Net-(R2-Pad1)*%
X176830000Y-63750000D03*
%TD*%
D14*
%TO.P,R2,1*%
%TO.N,Net-(R2-Pad1)*%
X180330000Y-63750000D03*
D15*
%TO.P,R2,2*%
%TO.N,/Vref*%
X180330000Y-71370000D03*
%TD*%
D14*
%TO.P,R4,1*%
%TO.N,Net-(U1B-+)*%
X167830000Y-75940000D03*
D15*
%TO.P,R4,2*%
%TO.N,Net-(R3-Pad1)*%
X167830000Y-83560000D03*
%TD*%
D14*
%TO.P,R1,1*%
%TO.N,/Vreg*%
X127000000Y-69240000D03*
D15*
%TO.P,R1,2*%
%TO.N,Net-(Q1-B)*%
X127000000Y-76860000D03*
%TD*%
D14*
%TO.P,C3,1*%
%TO.N,Net-(Q7-E)*%
X140900000Y-71600000D03*
%TO.P,C3,2*%
%TO.N,/Vf*%
X140900000Y-74100000D03*
%TD*%
%TO.P,R13,1*%
%TO.N,/Vf*%
X143430000Y-89960000D03*
D15*
%TO.P,R13,2*%
%TO.N,Net-(M1-D)*%
X143430000Y-82340000D03*
%TD*%
D14*
%TO.P,R23,1*%
%TO.N,Net-(U1D-+)*%
X168040000Y-52640000D03*
D15*
%TO.P,R23,2*%
%TO.N,0*%
X168040000Y-60260000D03*
%TD*%
D14*
%TO.P,R7,1*%
%TO.N,Net-(U1B-+)*%
X171330000Y-75750000D03*
D15*
%TO.P,R7,2*%
%TO.N,Net-(R7-Pad2)*%
X171330000Y-83370000D03*
%TD*%
D14*
%TO.P,C1,1*%
%TO.N,Net-(C1-Pad1)*%
X137250000Y-68900000D03*
%TO.P,C1,2*%
%TO.N,/Vf*%
X139750000Y-68900000D03*
%TD*%
D17*
%TO.P,Q6,1,C*%
%TO.N,/Vlc*%
X135500000Y-79720000D03*
D18*
%TO.P,Q6,2,B*%
%TO.N,/Vf*%
X135500000Y-82260000D03*
%TO.P,Q6,3,E*%
%TO.N,Net-(Q2-E)*%
X135500000Y-84800000D03*
%TD*%
D19*
%TO.P,C6,1*%
%TO.N,/Vreg*%
X185800000Y-78200000D03*
D14*
%TO.P,C6,2*%
%TO.N,0*%
X185800000Y-75700000D03*
%TD*%
D19*
%TO.P,C5,1*%
%TO.N,/+VPOSA*%
X185900000Y-69850000D03*
D14*
%TO.P,C5,2*%
%TO.N,0*%
X185900000Y-72350000D03*
%TD*%
%TO.P,R22,1*%
%TO.N,/Vo*%
X163340000Y-52640000D03*
D15*
%TO.P,R22,2*%
%TO.N,Net-(U1D-+)*%
X163340000Y-60260000D03*
%TD*%
D20*
%TO.P,J2,1,Pin_1*%
%TO.N,/Vo*%
X180850000Y-57000000D03*
D21*
%TO.P,J2,2,Pin_2*%
%TO.N,0*%
X177350000Y-57000000D03*
%TD*%
D14*
%TO.P,R3,1*%
%TO.N,Net-(R3-Pad1)*%
X167830000Y-86750000D03*
D15*
%TO.P,R3,2*%
%TO.N,/Vf*%
X160210000Y-86750000D03*
%TD*%
D17*
%TO.P,Q3,1,C*%
%TO.N,Net-(Q2-E)*%
X135500000Y-87570000D03*
D18*
%TO.P,Q3,2,B*%
%TO.N,Net-(Q1-B)*%
X135500000Y-90110000D03*
%TO.P,Q3,3,E*%
%TO.N,0*%
X135500000Y-92650000D03*
%TD*%
D14*
%TO.P,R14,1*%
%TO.N,Net-(M1-D)*%
X146900000Y-82310000D03*
D15*
%TO.P,R14,2*%
%TO.N,Net-(R14-Pad2)*%
X146900000Y-89930000D03*
%TD*%
D14*
%TO.P,R6,1*%
%TO.N,Net-(U1A-+)*%
X162520000Y-74440000D03*
D15*
%TO.P,R6,2*%
%TO.N,0*%
X162520000Y-82060000D03*
%TD*%
D17*
%TO.P,Q9,1,C*%
%TO.N,/Vlc*%
X142300000Y-53550000D03*
D18*
%TO.P,Q9,2,B*%
%TO.N,Net-(Q9-B)*%
X142300000Y-56090000D03*
%TO.P,Q9,3,E*%
%TO.N,Net-(Q9-E)*%
X142300000Y-58630000D03*
%TD*%
D14*
%TO.P,R9,1*%
%TO.N,/Sum*%
X151210000Y-78750000D03*
D15*
%TO.P,R9,2*%
%TO.N,Net-(U1B--)*%
X158830000Y-78750000D03*
%TD*%
D14*
%TO.P,R12,1*%
%TO.N,Net-(R11-Pad2)*%
X140130000Y-82340000D03*
D15*
%TO.P,R12,2*%
%TO.N,/Vf*%
X140130000Y-89960000D03*
%TD*%
D19*
%TO.P,C8,1*%
%TO.N,/Vsel*%
X185800000Y-89250000D03*
D14*
%TO.P,C8,2*%
%TO.N,0*%
X185800000Y-86750000D03*
%TD*%
D19*
%TO.P,U1,1*%
%TO.N,Net-(U1A--)*%
X157630000Y-71250000D03*
D15*
%TO.P,U1,2,-*%
X160170000Y-71250000D03*
%TO.P,U1,3,+*%
%TO.N,Net-(U1A-+)*%
X162710000Y-71250000D03*
%TO.P,U1,4,V+*%
%TO.N,/+VPOSA*%
X165250000Y-71250000D03*
%TO.P,U1,5,+*%
%TO.N,Net-(U1B-+)*%
X167790000Y-71250000D03*
%TO.P,U1,6,-*%
%TO.N,Net-(U1B--)*%
X170330000Y-71250000D03*
%TO.P,U1,7*%
X172870000Y-71250000D03*
%TO.P,U1,8*%
%TO.N,Net-(R17-Pad1)*%
X172870000Y-63630000D03*
%TO.P,U1,9,-*%
%TO.N,/Sum*%
X170330000Y-63630000D03*
%TO.P,U1,10,+*%
%TO.N,0*%
X167790000Y-63630000D03*
%TO.P,U1,11,V-*%
%TO.N,/-VPOSA*%
X165250000Y-63630000D03*
%TO.P,U1,12,+*%
%TO.N,Net-(U1D-+)*%
X162710000Y-63630000D03*
%TO.P,U1,13,-*%
%TO.N,Net-(U1D--)*%
X160170000Y-63630000D03*
%TO.P,U1,14*%
%TO.N,Net-(R19-Pad2)*%
X157630000Y-63630000D03*
%TD*%
D17*
%TO.P,Q1,1,C*%
%TO.N,Net-(Q1-B)*%
X130600000Y-87570000D03*
D18*
%TO.P,Q1,2,B*%
X130600000Y-90110000D03*
%TO.P,Q1,3,E*%
%TO.N,0*%
X130600000Y-92650000D03*
%TD*%
D14*
%TO.P,R15,1*%
%TO.N,Net-(R14-Pad2)*%
X149820000Y-88450000D03*
D15*
%TO.P,R15,2*%
%TO.N,0*%
X157440000Y-88450000D03*
%TD*%
D17*
%TO.P,M1,1,D*%
%TO.N,Net-(M1-D)*%
X151810000Y-84100000D03*
D18*
%TO.P,M1,2,G*%
%TO.N,/Vsel*%
X154350000Y-84100000D03*
%TO.P,M1,3,S*%
%TO.N,0*%
X156890000Y-84100000D03*
%TD*%
D14*
%TO.P,R19,1*%
%TO.N,Net-(U1D--)*%
X160560000Y-59750000D03*
D15*
%TO.P,R19,2*%
%TO.N,Net-(R19-Pad2)*%
X152940000Y-59750000D03*
%TD*%
D17*
%TO.P,Q2,1,C*%
%TO.N,Net-(Q2-C)*%
X130650000Y-79660000D03*
D18*
%TO.P,Q2,2,B*%
%TO.N,/Vref*%
X130650000Y-82200000D03*
%TO.P,Q2,3,E*%
%TO.N,Net-(Q2-E)*%
X130650000Y-84740000D03*
%TD*%
D17*
%TO.P,Q5,1,C*%
%TO.N,/Vlc*%
X136400000Y-76950000D03*
D18*
%TO.P,Q5,2,B*%
%TO.N,Net-(Q2-C)*%
X136400000Y-74410000D03*
%TO.P,Q5,3,E*%
%TO.N,Net-(Q5-E)*%
X136400000Y-71870000D03*
%TD*%
D16*
%TO.P,GND,1,1*%
%TO.N,0*%
X127250000Y-61500000D03*
%TD*%
D20*
%TO.P,J1,1,Pin_1*%
%TO.N,0*%
X194200000Y-69200000D03*
D21*
%TO.P,J1,2,Pin_2*%
%TO.N,/-VPOSA*%
X194200000Y-72700000D03*
%TO.P,J1,3,Pin_3*%
%TO.N,/+VPOSA*%
X194200000Y-76200000D03*
%TO.P,J1,4,Pin_4*%
%TO.N,/Vreg*%
X194200000Y-79700000D03*
%TO.P,J1,5,Pin_5*%
%TO.N,/Vref*%
X194200000Y-83200000D03*
%TO.P,J1,6,Pin_6*%
%TO.N,/Vsel*%
X194200000Y-86700000D03*
%TD*%
D14*
%TO.P,R17,1*%
%TO.N,Net-(R17-Pad1)*%
X147030000Y-65260000D03*
D15*
%TO.P,R17,2*%
%TO.N,Net-(Q9-B)*%
X147030000Y-57640000D03*
%TD*%
D22*
%TO.P,Q8,1,C*%
%TO.N,Net-(Q7-E)*%
X142710000Y-50645000D03*
D23*
%TO.P,Q8,2,B*%
%TO.N,Net-(Q7-C)*%
X145250000Y-50645000D03*
%TO.P,Q8,3,E*%
%TO.N,/Vreg*%
X147790000Y-50645000D03*
%TD*%
D24*
%TO.N,/Vo*%
X160560000Y-52640000D02*
X160550000Y-52650000D01*
X163340000Y-52460000D02*
X163340000Y-52640000D01*
X179250000Y-53950000D02*
X172800000Y-53950000D01*
X163340000Y-52640000D02*
X160560000Y-52640000D01*
X180850000Y-57000000D02*
X180850000Y-55550000D01*
X172800000Y-53950000D02*
X169700000Y-50850000D01*
X164950000Y-50850000D02*
X163340000Y-52460000D01*
X180850000Y-55550000D02*
X179250000Y-53950000D01*
X169700000Y-50850000D02*
X164950000Y-50850000D01*
%TO.N,/Vref*%
X129750000Y-82200000D02*
X130650000Y-82200000D01*
X180330000Y-77170000D02*
X180330000Y-71370000D01*
X125200000Y-91100000D02*
X125200000Y-76150000D01*
X195200000Y-83200000D02*
X196500000Y-84500000D01*
X180330000Y-77170000D02*
X184360000Y-81200000D01*
X129000000Y-76400000D02*
X129000000Y-81450000D01*
X196500000Y-84500000D02*
X196500000Y-88000000D01*
X187200000Y-81200000D02*
X189200000Y-83200000D01*
X196500000Y-88000000D02*
X190850000Y-93650000D01*
X190850000Y-93650000D02*
X140000000Y-93650000D01*
X140000000Y-93650000D02*
X138500000Y-95150000D01*
X184360000Y-81200000D02*
X185800000Y-81200000D01*
X189200000Y-83200000D02*
X195200000Y-83200000D01*
X125200000Y-76150000D02*
X126100000Y-75250000D01*
X129000000Y-81450000D02*
X129750000Y-82200000D01*
X126100000Y-75250000D02*
X127850000Y-75250000D01*
X129250000Y-95150000D02*
X125200000Y-91100000D01*
X138500000Y-95150000D02*
X129250000Y-95150000D01*
X185800000Y-81200000D02*
X187200000Y-81200000D01*
X127850000Y-75250000D02*
X129000000Y-76400000D01*
%TO.N,/Vsel*%
X154350000Y-83000000D02*
X154350000Y-83550000D01*
X159550000Y-81950000D02*
X155400000Y-81950000D01*
X165500000Y-89200000D02*
X163700000Y-87400000D01*
X191100000Y-89200000D02*
X165500000Y-89200000D01*
X163700000Y-86100000D02*
X159550000Y-81950000D01*
X193600000Y-86700000D02*
X191100000Y-89200000D01*
X155400000Y-81950000D02*
X154350000Y-83000000D01*
X163700000Y-87400000D02*
X163700000Y-86100000D01*
%TO.N,/Vreg*%
X171150000Y-49000000D02*
X148850000Y-49000000D01*
X128300000Y-51700000D02*
X128300000Y-57700000D01*
X186300000Y-78200000D02*
X190700000Y-78200000D01*
X194800000Y-79700000D02*
X197000000Y-77500000D01*
X132150000Y-47850000D02*
X128300000Y-51700000D01*
X147790000Y-50645000D02*
X147790000Y-49390000D01*
X130400000Y-62700000D02*
X127000000Y-66100000D01*
X148850000Y-49000000D02*
X147790000Y-50060000D01*
X147790000Y-49390000D02*
X147225000Y-48825000D01*
X146250000Y-47850000D02*
X132150000Y-47850000D01*
X190700000Y-78200000D02*
X192200000Y-79700000D01*
X189000000Y-57500000D02*
X183600000Y-52100000D01*
X189000000Y-59500000D02*
X189000000Y-57500000D01*
X130400000Y-60320000D02*
X133580000Y-60320000D01*
X192200000Y-79700000D02*
X194800000Y-79700000D01*
X183600000Y-52100000D02*
X174250000Y-52100000D01*
X147225000Y-48825000D02*
X146250000Y-47850000D01*
X133580000Y-60320000D02*
X133600000Y-60340000D01*
X197000000Y-77500000D02*
X197000000Y-67500000D01*
X130400000Y-60320000D02*
X130400000Y-62700000D01*
X147790000Y-50060000D02*
X147790000Y-50645000D01*
X197000000Y-67500000D02*
X189000000Y-59500000D01*
X147400000Y-49000000D02*
X147225000Y-48825000D01*
X174250000Y-52100000D02*
X171150000Y-49000000D01*
X127000000Y-69240000D02*
X127000000Y-66100000D01*
X128300000Y-57700000D02*
X130800000Y-60200000D01*
X148850000Y-49000000D02*
X147400000Y-49000000D01*
%TO.N,Net-(M1-D)*%
X149740000Y-82760000D02*
X151080000Y-84100000D01*
X146900000Y-82310000D02*
X149290000Y-82310000D01*
X146870000Y-82340000D02*
X146900000Y-82310000D01*
X143430000Y-82340000D02*
X146870000Y-82340000D01*
X151080000Y-84100000D02*
X151810000Y-84100000D01*
X149290000Y-82310000D02*
X149740000Y-82760000D01*
%TO.N,Net-(C1-Pad1)*%
X137200000Y-66000000D02*
X137200000Y-68850000D01*
X137200000Y-68850000D02*
X137250000Y-68900000D01*
%TO.N,Net-(Q1-B)*%
X127000000Y-83970000D02*
X130600000Y-87570000D01*
X135500000Y-90110000D02*
X130600000Y-90110000D01*
X130600000Y-87570000D02*
X130600000Y-90110000D01*
X127000000Y-76860000D02*
X127000000Y-83970000D01*
%TO.N,Net-(Q2-E)*%
X130650000Y-84740000D02*
X135440000Y-84740000D01*
X135440000Y-84740000D02*
X135500000Y-84800000D01*
X135500000Y-87570000D02*
X135500000Y-84800000D01*
%TO.N,/Vlc*%
X135400000Y-64600000D02*
X135400000Y-69900000D01*
X132900000Y-52450000D02*
X136050000Y-52450000D01*
X135500000Y-78300000D02*
X136350000Y-77450000D01*
X135875000Y-70375000D02*
X137425000Y-70375000D01*
X137300000Y-76950000D02*
X136400000Y-76950000D01*
X139250000Y-54750000D02*
X140450000Y-53550000D01*
X130700000Y-55500000D02*
X130700000Y-54650000D01*
X138050000Y-71000000D02*
X138050000Y-76200000D01*
X137200000Y-62800000D02*
X135400000Y-64600000D01*
X135400000Y-69900000D02*
X135875000Y-70375000D01*
X136050000Y-52450000D02*
X136050000Y-52390000D01*
X140450000Y-53550000D02*
X142300000Y-53550000D01*
X137200000Y-58380000D02*
X137200000Y-62800000D01*
X139250000Y-56330000D02*
X139250000Y-54750000D01*
X137425000Y-70375000D02*
X138050000Y-71000000D01*
X138050000Y-76200000D02*
X137300000Y-76950000D01*
X130700000Y-55500000D02*
X133580000Y-58380000D01*
X133580000Y-58380000D02*
X137200000Y-58380000D01*
X137200000Y-58380000D02*
X139250000Y-56330000D01*
X130700000Y-54650000D02*
X132900000Y-52450000D01*
X135500000Y-80120000D02*
X135500000Y-78300000D01*
%TO.N,/-VPOSA*%
X165250000Y-63630000D02*
X165650000Y-63230000D01*
X182205112Y-60500000D02*
X185850000Y-64144888D01*
X173700000Y-57600000D02*
X176600000Y-60500000D01*
X176600000Y-60500000D02*
X182205112Y-60500000D01*
X190350000Y-67650000D02*
X190350000Y-69900000D01*
X165650000Y-58800000D02*
X166850000Y-57600000D01*
X193600000Y-72700000D02*
X193600000Y-72500000D01*
X193150000Y-72700000D02*
X194200000Y-72700000D01*
X190350000Y-69900000D02*
X193150000Y-72700000D01*
X166850000Y-57600000D02*
X173700000Y-57600000D01*
X165650000Y-63230000D02*
X165650000Y-58800000D01*
X185850000Y-64144888D02*
X186844888Y-64144888D01*
X186844888Y-64144888D02*
X190350000Y-67650000D01*
%TO.N,/Vf*%
X160210000Y-86750000D02*
X160210000Y-87881370D01*
X136990000Y-81390000D02*
X136990000Y-80810000D01*
X136200000Y-81600000D02*
X136375000Y-81425000D01*
X160230000Y-87901370D02*
X160230000Y-89450000D01*
X141050000Y-74200000D02*
X140950000Y-74100000D01*
X139100000Y-73700000D02*
X139500000Y-74100000D01*
X140130000Y-89150000D02*
X140130000Y-84530000D01*
X157880000Y-91800000D02*
X144980000Y-91800000D01*
X135500000Y-82260000D02*
X135540000Y-82260000D01*
X135540000Y-82260000D02*
X136200000Y-81600000D01*
X139700000Y-69750000D02*
X139100000Y-70350000D01*
X136200000Y-81600000D02*
X137100000Y-80700000D01*
X140400000Y-77400000D02*
X141050000Y-76750000D01*
X143430000Y-89150000D02*
X140130000Y-89150000D01*
X143430000Y-90250000D02*
X143430000Y-89150000D01*
X136955000Y-81425000D02*
X136990000Y-81390000D01*
X139700000Y-68950000D02*
X139700000Y-69750000D01*
X144980000Y-91800000D02*
X143430000Y-90250000D01*
X136990000Y-80810000D02*
X137100000Y-80700000D01*
X139100000Y-70350000D02*
X139100000Y-73700000D01*
X139750000Y-68900000D02*
X139700000Y-68950000D01*
X141050000Y-76750000D02*
X141050000Y-74200000D01*
X140130000Y-84530000D02*
X136990000Y-81390000D01*
X137100000Y-80700000D02*
X140400000Y-77400000D01*
X136375000Y-81425000D02*
X136955000Y-81425000D01*
X139500000Y-74100000D02*
X140700000Y-74100000D01*
X160210000Y-87881370D02*
X160230000Y-87901370D01*
X160230000Y-89450000D02*
X157880000Y-91800000D01*
%TO.N,/+VPOSA*%
X157700000Y-68200000D02*
X155400000Y-70500000D01*
X183800000Y-68200000D02*
X157700000Y-68200000D01*
X155400000Y-75800000D02*
X156600000Y-77000000D01*
X193600000Y-76200000D02*
X194200000Y-76200000D01*
X155400000Y-70500000D02*
X155400000Y-75800000D01*
X183800000Y-68200000D02*
X185450000Y-69850000D01*
X165250000Y-74550000D02*
X165250000Y-71250000D01*
X187250000Y-69850000D02*
X193600000Y-76200000D01*
X162800000Y-77000000D02*
X165250000Y-74550000D01*
X156600000Y-77000000D02*
X162800000Y-77000000D01*
X185900000Y-69850000D02*
X187250000Y-69850000D01*
X185450000Y-69850000D02*
X185900000Y-69850000D01*
%TO.N,Net-(Q2-C)*%
X136400000Y-74410000D02*
X131600000Y-74410000D01*
X130650000Y-79660000D02*
X130650000Y-77900000D01*
X130650000Y-77900000D02*
X131600000Y-76950000D01*
X131600000Y-76950000D02*
X131600000Y-74410000D01*
%TO.N,Net-(Q7-E)*%
X142710000Y-50645000D02*
X142710000Y-50960000D01*
X150665000Y-57165000D02*
X149740000Y-58090000D01*
X152930000Y-52650000D02*
X152930000Y-56440000D01*
X143630000Y-71640000D02*
X140470000Y-71640000D01*
X136720000Y-54930000D02*
X141005000Y-50645000D01*
X151380000Y-56450000D02*
X150665000Y-57165000D01*
X150665000Y-57165000D02*
X149950000Y-56450000D01*
X149740000Y-58090000D02*
X149740000Y-58140000D01*
X149950000Y-56450000D02*
X149900000Y-56450000D01*
X148200000Y-56450000D02*
X149900000Y-56450000D01*
X152920000Y-56450000D02*
X151380000Y-56450000D01*
X142710000Y-50645000D02*
X142710000Y-51060000D01*
X149900000Y-56450000D02*
X151380000Y-56450000D01*
X136250000Y-54930000D02*
X136720000Y-54930000D01*
X141005000Y-50645000D02*
X142710000Y-50645000D01*
X140470000Y-71640000D02*
X140430000Y-71600000D01*
X141400000Y-71150000D02*
X140950000Y-71600000D01*
X152930000Y-56440000D02*
X152920000Y-56450000D01*
X149740000Y-58140000D02*
X141400000Y-66480000D01*
X142710000Y-50960000D02*
X148200000Y-56450000D01*
X141400000Y-66480000D02*
X141400000Y-71150000D01*
%TO.N,Net-(Q4-E)*%
X130400000Y-69550000D02*
X130400000Y-67940000D01*
X131600000Y-70750000D02*
X130400000Y-69550000D01*
X131600000Y-71870000D02*
X131600000Y-70750000D01*
%TO.N,Net-(Q5-E)*%
X134820000Y-71870000D02*
X136400000Y-71870000D01*
X133600000Y-67960000D02*
X133600000Y-70650000D01*
X133600000Y-70650000D02*
X134820000Y-71870000D01*
%TO.N,Net-(Q7-C)*%
X144550000Y-48900000D02*
X145250000Y-49600000D01*
X145250000Y-49600000D02*
X145250000Y-50645000D01*
X137200000Y-48900000D02*
X144550000Y-48900000D01*
X136250000Y-49850000D02*
X137200000Y-48900000D01*
%TO.N,Net-(R14-Pad2)*%
X149820000Y-88450000D02*
X148380000Y-88450000D01*
X148380000Y-88450000D02*
X146900000Y-89930000D01*
%TO.N,Net-(Q9-B)*%
X147010000Y-57620000D02*
X147030000Y-57640000D01*
X147030000Y-57640000D02*
X145140000Y-57640000D01*
X145140000Y-57640000D02*
X143590000Y-56090000D01*
X143590000Y-56090000D02*
X142300000Y-56090000D01*
%TO.N,Net-(U1A--)*%
X160140000Y-71280000D02*
X160170000Y-71250000D01*
X157630000Y-74050000D02*
X158830000Y-75250000D01*
X158830000Y-71250000D02*
X157630000Y-71250000D01*
X157630000Y-71250000D02*
X157630000Y-74050000D01*
X160170000Y-71250000D02*
X158830000Y-71250000D01*
%TO.N,Net-(U1B--)*%
X170330000Y-71250000D02*
X172870000Y-71250000D01*
X172900000Y-74820000D02*
X172900000Y-77000000D01*
X172900000Y-77000000D02*
X171150000Y-78750000D01*
X170330000Y-71250000D02*
X170330000Y-72250000D01*
X170330000Y-72250000D02*
X172900000Y-74820000D01*
X171150000Y-78750000D02*
X158830000Y-78750000D01*
%TO.N,Net-(U1B-+)*%
X171140000Y-75940000D02*
X171330000Y-75750000D01*
X167830000Y-75940000D02*
X167830000Y-71290000D01*
X167830000Y-71290000D02*
X167790000Y-71250000D01*
X167830000Y-75940000D02*
X171140000Y-75940000D01*
%TO.N,Net-(U1A-+)*%
X163830000Y-69250000D02*
X174710000Y-69250000D01*
X174710000Y-69250000D02*
X176830000Y-71370000D01*
X162520000Y-74440000D02*
X162520000Y-71440000D01*
X162710000Y-70370000D02*
X163830000Y-69250000D01*
X162710000Y-71250000D02*
X162710000Y-70370000D01*
X162520000Y-71440000D02*
X162710000Y-71250000D01*
%TO.N,Net-(U1D-+)*%
X168040000Y-52640000D02*
X163740000Y-56940000D01*
X163330000Y-62350000D02*
X162710000Y-62970000D01*
X162710000Y-62970000D02*
X162710000Y-63630000D01*
X163740000Y-56940000D02*
X163450000Y-57230000D01*
X163330000Y-60960000D02*
X163330000Y-62350000D01*
X163340000Y-60260000D02*
X163340000Y-57340000D01*
X163340000Y-57340000D02*
X163740000Y-56940000D01*
%TO.N,Net-(Q9-E)*%
X143750000Y-61000000D02*
X143750000Y-60060000D01*
X142530000Y-58940000D02*
X142580000Y-58890000D01*
X142580000Y-58890000D02*
X143750000Y-60060000D01*
%TO.N,Net-(R2-Pad1)*%
X176830000Y-63750000D02*
X180330000Y-63750000D01*
%TO.N,Net-(R3-Pad1)*%
X167830000Y-86750000D02*
X167830000Y-83560000D01*
%TO.N,Net-(R7-Pad2)*%
X174840000Y-83360000D02*
X174830000Y-83370000D01*
X175300000Y-83360000D02*
X174840000Y-83360000D01*
X174830000Y-83370000D02*
X171330000Y-83370000D01*
%TO.N,/Sum*%
X152830000Y-69920000D02*
X155600000Y-67150000D01*
X150480000Y-78020000D02*
X150690000Y-78020000D01*
X175030000Y-63850000D02*
X175030000Y-62250000D01*
X174130000Y-61350000D02*
X172610000Y-61350000D01*
X152830000Y-71370000D02*
X152830000Y-69920000D01*
X150690000Y-78020000D02*
X151210000Y-77500000D01*
X175030000Y-62250000D02*
X174130000Y-61350000D01*
X151210000Y-78750000D02*
X151210000Y-77500000D01*
X147100000Y-78020000D02*
X150480000Y-78020000D01*
X155600000Y-67150000D02*
X171730000Y-67150000D01*
X151210000Y-75250000D02*
X151210000Y-72990000D01*
X150480000Y-78020000D02*
X151210000Y-78750000D01*
X171730000Y-67150000D02*
X175030000Y-63850000D01*
X151210000Y-77500000D02*
X151210000Y-75250000D01*
X151210000Y-72990000D02*
X152830000Y-71370000D01*
X172610000Y-61350000D02*
X170330000Y-63630000D01*
X151520000Y-74940000D02*
X151210000Y-75250000D01*
%TO.N,Net-(R11-Pad2)*%
X142090000Y-79260000D02*
X140130000Y-81220000D01*
X143680000Y-79210000D02*
X143630000Y-79260000D01*
X140130000Y-81220000D02*
X140130000Y-82340000D01*
X143900000Y-79210000D02*
X143680000Y-79210000D01*
X143630000Y-79260000D02*
X142090000Y-79260000D01*
%TO.N,Net-(R17-Pad1)*%
X147100000Y-70300000D02*
X149600000Y-67800000D01*
X147100000Y-70400000D02*
X147100000Y-70300000D01*
X149600000Y-66950000D02*
X150450000Y-66100000D01*
X170400000Y-66100000D02*
X172870000Y-63630000D01*
X150450000Y-66100000D02*
X170400000Y-66100000D01*
X147080000Y-70380000D02*
X147100000Y-70400000D01*
X150450000Y-66100000D02*
X149660000Y-66100000D01*
X148700000Y-65260000D02*
X147030000Y-65260000D01*
X149600000Y-66160000D02*
X148700000Y-65260000D01*
X149600000Y-67800000D02*
X149600000Y-66950000D01*
X149600000Y-66200000D02*
X149610000Y-66200000D01*
X149600000Y-66200000D02*
X149600000Y-66160000D01*
X149600000Y-66950000D02*
X149600000Y-66200000D01*
X149660000Y-66100000D02*
X149600000Y-66160000D01*
%TO.N,Net-(U1D--)*%
X160130000Y-62250000D02*
X160170000Y-62290000D01*
X160550000Y-60450000D02*
X160550000Y-57170000D01*
X160170000Y-62290000D02*
X160170000Y-63630000D01*
X160550000Y-61830000D02*
X160130000Y-62250000D01*
X160550000Y-57170000D02*
X160530000Y-57150000D01*
X160550000Y-60450000D02*
X160550000Y-61830000D01*
%TO.N,Net-(R19-Pad2)*%
X157630000Y-63630000D02*
X152950000Y-63630000D01*
X152930000Y-60450000D02*
X152930000Y-63650000D01*
X152950000Y-63630000D02*
X152830000Y-63750000D01*
X152930000Y-63650000D02*
X152830000Y-63750000D01*
%TD*%
%TA.AperFunction,Conductor*%
%TO.N,0*%
G36*
X196152562Y-46514806D02*
G01*
X196478973Y-46669187D01*
X196491857Y-46676073D01*
X196816018Y-46870368D01*
X196828148Y-46878473D01*
X197011987Y-47014817D01*
X197059935Y-47075230D01*
X197071252Y-47151524D01*
X197042906Y-47223254D01*
X196982493Y-47271202D01*
X196923228Y-47283495D01*
X187949757Y-47283495D01*
X187926532Y-47277272D01*
X187881816Y-47277272D01*
X183476633Y-47277272D01*
X183476633Y-49539984D01*
X187841868Y-49539984D01*
X187916368Y-49559946D01*
X187970906Y-49614484D01*
X187990868Y-49688984D01*
X187990868Y-54900328D01*
X197563583Y-54900328D01*
X197563583Y-47940249D01*
X197583545Y-47865749D01*
X197638083Y-47811211D01*
X197712583Y-47791249D01*
X197787083Y-47811211D01*
X197832259Y-47851488D01*
X197921521Y-47971844D01*
X197929634Y-47983985D01*
X198121766Y-48304538D01*
X198123920Y-48308131D01*
X198130812Y-48321026D01*
X198285194Y-48647437D01*
X198299500Y-48711143D01*
X198299500Y-67351000D01*
X198279538Y-67425500D01*
X198225000Y-67480038D01*
X198150500Y-67500000D01*
X197811015Y-67500000D01*
X197736515Y-67480038D01*
X197681977Y-67425500D01*
X197664878Y-67380070D01*
X197657131Y-67341127D01*
X197649540Y-67302964D01*
X197598620Y-67180031D01*
X197524695Y-67069394D01*
X197430606Y-66975305D01*
X189719141Y-59263840D01*
X189680577Y-59197045D01*
X189675500Y-59158481D01*
X189675500Y-57433473D01*
X189675499Y-57433465D01*
X189668254Y-57397045D01*
X189649540Y-57302964D01*
X189598620Y-57180031D01*
X189524695Y-57069394D01*
X189430606Y-56975305D01*
X184030606Y-51575305D01*
X183963666Y-51530577D01*
X183919973Y-51501382D01*
X183919964Y-51501377D01*
X183822494Y-51461004D01*
X183797036Y-51450459D01*
X183797034Y-51450458D01*
X183797033Y-51450458D01*
X183666531Y-51424500D01*
X174591519Y-51424500D01*
X174517019Y-51404538D01*
X174486160Y-51380859D01*
X171580609Y-48475308D01*
X171580606Y-48475305D01*
X171543727Y-48450663D01*
X171469973Y-48401382D01*
X171469964Y-48401377D01*
X171372494Y-48361004D01*
X171347036Y-48350459D01*
X171347034Y-48350458D01*
X171347033Y-48350458D01*
X171216531Y-48324500D01*
X148916531Y-48324500D01*
X147741519Y-48324500D01*
X147667019Y-48304538D01*
X147636160Y-48280859D01*
X146680609Y-47325308D01*
X146680606Y-47325305D01*
X146618033Y-47283495D01*
X146569973Y-47251382D01*
X146569964Y-47251377D01*
X146447038Y-47200460D01*
X146447036Y-47200459D01*
X146447034Y-47200458D01*
X146447033Y-47200458D01*
X146316531Y-47174500D01*
X132083469Y-47174500D01*
X132083465Y-47174500D01*
X131952964Y-47200459D01*
X131952962Y-47200460D01*
X131830039Y-47251376D01*
X131830033Y-47251378D01*
X131830031Y-47251380D01*
X131830028Y-47251381D01*
X131830026Y-47251383D01*
X131719395Y-47325304D01*
X131719390Y-47325308D01*
X127775308Y-51269390D01*
X127775304Y-51269395D01*
X127701382Y-51380026D01*
X127701377Y-51380035D01*
X127650459Y-51502964D01*
X127650458Y-51502966D01*
X127634202Y-51584694D01*
X127634202Y-51584695D01*
X127624500Y-51633465D01*
X127624500Y-57766531D01*
X127650458Y-57897033D01*
X127701377Y-58019964D01*
X127701382Y-58019973D01*
X127750050Y-58092809D01*
X127775305Y-58130606D01*
X127775308Y-58130609D01*
X129358775Y-59714076D01*
X129397339Y-59780871D01*
X129397339Y-59857999D01*
X129386797Y-59885845D01*
X129379063Y-59901380D01*
X129369416Y-59920754D01*
X129329555Y-60060852D01*
X129316372Y-60107187D01*
X129313602Y-60116921D01*
X129294785Y-60319995D01*
X129294785Y-60320004D01*
X129313602Y-60523078D01*
X129369416Y-60719245D01*
X129369417Y-60719247D01*
X129369418Y-60719250D01*
X129422227Y-60825305D01*
X129460328Y-60901823D01*
X129553114Y-61024691D01*
X129583236Y-61064579D01*
X129668509Y-61142315D01*
X129675880Y-61149034D01*
X129717488Y-61213976D01*
X129724500Y-61259147D01*
X129724500Y-62358481D01*
X129704538Y-62432981D01*
X129680859Y-62463840D01*
X126475308Y-65669390D01*
X126475304Y-65669395D01*
X126401382Y-65780026D01*
X126401377Y-65780035D01*
X126350458Y-65902966D01*
X126330568Y-66002963D01*
X126330568Y-66002964D01*
X126324500Y-66033465D01*
X126324500Y-68300852D01*
X126304538Y-68375352D01*
X126275881Y-68410964D01*
X126183234Y-68495423D01*
X126060328Y-68658176D01*
X125969416Y-68840754D01*
X125926172Y-68992741D01*
X125916852Y-69025500D01*
X125913602Y-69036921D01*
X125894785Y-69239995D01*
X125894785Y-69240004D01*
X125913602Y-69443078D01*
X125969416Y-69639245D01*
X125969417Y-69639247D01*
X125969418Y-69639250D01*
X126052628Y-69806360D01*
X126060328Y-69821823D01*
X126118512Y-69898871D01*
X126183236Y-69984579D01*
X126306596Y-70097036D01*
X126333958Y-70121980D01*
X126333963Y-70121984D01*
X126507356Y-70229344D01*
X126507367Y-70229350D01*
X126611008Y-70269500D01*
X126697544Y-70303024D01*
X126898024Y-70340500D01*
X126898027Y-70340500D01*
X127101973Y-70340500D01*
X127101976Y-70340500D01*
X127302456Y-70303024D01*
X127492637Y-70229348D01*
X127666041Y-70121981D01*
X127816764Y-69984579D01*
X127939673Y-69821821D01*
X128030582Y-69639250D01*
X128086397Y-69443083D01*
X128102417Y-69270199D01*
X128105215Y-69240004D01*
X128105215Y-69239995D01*
X128092528Y-69103083D01*
X128086397Y-69036917D01*
X128030582Y-68840750D01*
X127939673Y-68658179D01*
X127934881Y-68651834D01*
X127851805Y-68541823D01*
X127816764Y-68495421D01*
X127724119Y-68410964D01*
X127682511Y-68346021D01*
X127675500Y-68300852D01*
X127675500Y-67939995D01*
X129294785Y-67939995D01*
X129294785Y-67940004D01*
X129313602Y-68143078D01*
X129313602Y-68143080D01*
X129313603Y-68143083D01*
X129317114Y-68155421D01*
X129369416Y-68339245D01*
X129369417Y-68339247D01*
X129369418Y-68339250D01*
X129449835Y-68500750D01*
X129460328Y-68521823D01*
X129515487Y-68594865D01*
X129583236Y-68684579D01*
X129657650Y-68752416D01*
X129675880Y-68769034D01*
X129717488Y-68833976D01*
X129724500Y-68879147D01*
X129724500Y-69616531D01*
X129749657Y-69743008D01*
X129750459Y-69747036D01*
X129755461Y-69759111D01*
X129801377Y-69869964D01*
X129801382Y-69869973D01*
X129839662Y-69927263D01*
X129875305Y-69980606D01*
X129875308Y-69980609D01*
X130832337Y-70937638D01*
X130870901Y-71004433D01*
X130870901Y-71081561D01*
X130842157Y-71137521D01*
X130722317Y-71283547D01*
X130722310Y-71283557D01*
X130624768Y-71466044D01*
X130564700Y-71664062D01*
X130544417Y-71870000D01*
X130564700Y-72075937D01*
X130624768Y-72273955D01*
X130722310Y-72456442D01*
X130722313Y-72456446D01*
X130722315Y-72456450D01*
X130774091Y-72519540D01*
X130831382Y-72589350D01*
X130853590Y-72616410D01*
X131013550Y-72747685D01*
X131196046Y-72845232D01*
X131394063Y-72905299D01*
X131394066Y-72905300D01*
X131600000Y-72925583D01*
X131805934Y-72905300D01*
X132003954Y-72845232D01*
X132186450Y-72747685D01*
X132346410Y-72616410D01*
X132477685Y-72456450D01*
X132575232Y-72273954D01*
X132635300Y-72075934D01*
X132655583Y-71870000D01*
X132635300Y-71664066D01*
X132575232Y-71466046D01*
X132534234Y-71389344D01*
X132477689Y-71283557D01*
X132477687Y-71283555D01*
X132477685Y-71283550D01*
X132346410Y-71123590D01*
X132329973Y-71110100D01*
X132285049Y-71047405D01*
X132275500Y-70994923D01*
X132275500Y-70683473D01*
X132275499Y-70683465D01*
X132272458Y-70668179D01*
X132249540Y-70552964D01*
X132198620Y-70430031D01*
X132124695Y-70319394D01*
X132030606Y-70225305D01*
X131119141Y-69313840D01*
X131080577Y-69247045D01*
X131075500Y-69208481D01*
X131075500Y-68879147D01*
X131095462Y-68804647D01*
X131124120Y-68769034D01*
X131216764Y-68684579D01*
X131339673Y-68521821D01*
X131430582Y-68339250D01*
X131486397Y-68143083D01*
X131502665Y-67967517D01*
X131505215Y-67940004D01*
X131505215Y-67939995D01*
X131491208Y-67788839D01*
X131486397Y-67736917D01*
X131430582Y-67540750D01*
X131339673Y-67358179D01*
X131316409Y-67327373D01*
X131271698Y-67268166D01*
X131216764Y-67195421D01*
X131066041Y-67058019D01*
X131066036Y-67058015D01*
X130892643Y-66950655D01*
X130892632Y-66950649D01*
X130702462Y-66876978D01*
X130702458Y-66876977D01*
X130702456Y-66876976D01*
X130662360Y-66869480D01*
X130501980Y-66839500D01*
X130501976Y-66839500D01*
X130298024Y-66839500D01*
X130298019Y-66839500D01*
X130097544Y-66876976D01*
X130097537Y-66876978D01*
X129907367Y-66950649D01*
X129907356Y-66950655D01*
X129733963Y-67058015D01*
X129733958Y-67058019D01*
X129583234Y-67195423D01*
X129460328Y-67358176D01*
X129369416Y-67540754D01*
X129331133Y-67675305D01*
X129313819Y-67736160D01*
X129313602Y-67736921D01*
X129294785Y-67939995D01*
X127675500Y-67939995D01*
X127675500Y-66441519D01*
X127695462Y-66367019D01*
X127719141Y-66336160D01*
X129319997Y-64735304D01*
X130924695Y-63130606D01*
X130998620Y-63019969D01*
X131049540Y-62897036D01*
X131075500Y-62766531D01*
X131075500Y-62633469D01*
X131075500Y-61259147D01*
X131095462Y-61184647D01*
X131124120Y-61149034D01*
X131128699Y-61144860D01*
X131216764Y-61064579D01*
X131224218Y-61054707D01*
X131285044Y-61007285D01*
X131343123Y-60995500D01*
X132641774Y-60995500D01*
X132716274Y-61015462D01*
X132760677Y-61054706D01*
X132783236Y-61084579D01*
X132913229Y-61203083D01*
X132933958Y-61221980D01*
X132933963Y-61221984D01*
X133107356Y-61329344D01*
X133107367Y-61329350D01*
X133199147Y-61364905D01*
X133297544Y-61403024D01*
X133498024Y-61440500D01*
X133498027Y-61440500D01*
X133701973Y-61440500D01*
X133701976Y-61440500D01*
X133902456Y-61403024D01*
X134092637Y-61329348D01*
X134266041Y-61221981D01*
X134416764Y-61084579D01*
X134539673Y-60921821D01*
X134630582Y-60739250D01*
X134686397Y-60543083D01*
X134699040Y-60406645D01*
X134705215Y-60340004D01*
X134705215Y-60339995D01*
X134692922Y-60207339D01*
X134686397Y-60136917D01*
X134630582Y-59940750D01*
X134539673Y-59758179D01*
X134416764Y-59595421D01*
X134266041Y-59458019D01*
X134266036Y-59458015D01*
X134092643Y-59350655D01*
X134092641Y-59350654D01*
X134092638Y-59350653D01*
X134092637Y-59350652D01*
X134074013Y-59343437D01*
X134011758Y-59297912D01*
X133980604Y-59227356D01*
X133988902Y-59150675D01*
X134034429Y-59088417D01*
X134104985Y-59057263D01*
X134127841Y-59055500D01*
X136256877Y-59055500D01*
X136331377Y-59075462D01*
X136375781Y-59114707D01*
X136383236Y-59124579D01*
X136462728Y-59197045D01*
X136475880Y-59209034D01*
X136517488Y-59273976D01*
X136524500Y-59319147D01*
X136524500Y-62458481D01*
X136504538Y-62532981D01*
X136480859Y-62563840D01*
X134875308Y-64169390D01*
X134875304Y-64169395D01*
X134801382Y-64280026D01*
X134801377Y-64280035D01*
X134750459Y-64402964D01*
X134732236Y-64494578D01*
X134724500Y-64533465D01*
X134724500Y-67178373D01*
X134704538Y-67252873D01*
X134650000Y-67307411D01*
X134575500Y-67327373D01*
X134501000Y-67307411D01*
X134456596Y-67268166D01*
X134416766Y-67215424D01*
X134416764Y-67215421D01*
X134266041Y-67078019D01*
X134266036Y-67078015D01*
X134092643Y-66970655D01*
X134092632Y-66970649D01*
X133902462Y-66896978D01*
X133902458Y-66896977D01*
X133902456Y-66896976D01*
X133830200Y-66883469D01*
X133701980Y-66859500D01*
X133701976Y-66859500D01*
X133498024Y-66859500D01*
X133498019Y-66859500D01*
X133297544Y-66896976D01*
X133297537Y-66896978D01*
X133107367Y-66970649D01*
X133107356Y-66970655D01*
X132933963Y-67078015D01*
X132933958Y-67078019D01*
X132822057Y-67180031D01*
X132794522Y-67205133D01*
X132783234Y-67215423D01*
X132660328Y-67378176D01*
X132569416Y-67560754D01*
X132513602Y-67756921D01*
X132494785Y-67959995D01*
X132494785Y-67960004D01*
X132513602Y-68163078D01*
X132513602Y-68163080D01*
X132513603Y-68163083D01*
X132536245Y-68242662D01*
X132569416Y-68359245D01*
X132569417Y-68359247D01*
X132569418Y-68359250D01*
X132622377Y-68465606D01*
X132660328Y-68541823D01*
X132743405Y-68651834D01*
X132783236Y-68704579D01*
X132853940Y-68769034D01*
X132875880Y-68789034D01*
X132917488Y-68853976D01*
X132924500Y-68899147D01*
X132924500Y-70716531D01*
X132950137Y-70845421D01*
X132950459Y-70847036D01*
X132961004Y-70872494D01*
X133001377Y-70969964D01*
X133001382Y-70969973D01*
X133033593Y-71018179D01*
X133075305Y-71080606D01*
X134295305Y-72300606D01*
X134389394Y-72394695D01*
X134500031Y-72468620D01*
X134532285Y-72481979D01*
X134532287Y-72481981D01*
X134569847Y-72497538D01*
X134622964Y-72519541D01*
X134753469Y-72545500D01*
X134886531Y-72545500D01*
X135524924Y-72545500D01*
X135599424Y-72565462D01*
X135640103Y-72599976D01*
X135653590Y-72616410D01*
X135813550Y-72747685D01*
X135996046Y-72845232D01*
X136194063Y-72905299D01*
X136194066Y-72905300D01*
X136400000Y-72925583D01*
X136605934Y-72905300D01*
X136803954Y-72845232D01*
X136986450Y-72747685D01*
X137130976Y-72629075D01*
X137201229Y-72597245D01*
X137277986Y-72604805D01*
X137340679Y-72649731D01*
X137372510Y-72719984D01*
X137374500Y-72744255D01*
X137374500Y-73535744D01*
X137354538Y-73610244D01*
X137300000Y-73664782D01*
X137225500Y-73684744D01*
X137151000Y-73664782D01*
X137130976Y-73650923D01*
X136986452Y-73532317D01*
X136986450Y-73532315D01*
X136986446Y-73532313D01*
X136986442Y-73532310D01*
X136803955Y-73434768D01*
X136605936Y-73374700D01*
X136605937Y-73374700D01*
X136400000Y-73354417D01*
X136194062Y-73374700D01*
X135996044Y-73434768D01*
X135813557Y-73532310D01*
X135813547Y-73532317D01*
X135653590Y-73663589D01*
X135653589Y-73663590D01*
X135640103Y-73680024D01*
X135577410Y-73724950D01*
X135524924Y-73734500D01*
X132475076Y-73734500D01*
X132400576Y-73714538D01*
X132359897Y-73680024D01*
X132346410Y-73663590D01*
X132346409Y-73663589D01*
X132186452Y-73532317D01*
X132186450Y-73532315D01*
X132186446Y-73532313D01*
X132186442Y-73532310D01*
X132003955Y-73434768D01*
X131805936Y-73374700D01*
X131805937Y-73374700D01*
X131600000Y-73354417D01*
X131394062Y-73374700D01*
X131196044Y-73434768D01*
X131013557Y-73532310D01*
X131013547Y-73532317D01*
X130853590Y-73663589D01*
X130853589Y-73663590D01*
X130722317Y-73823547D01*
X130722310Y-73823557D01*
X130624768Y-74006044D01*
X130564700Y-74204062D01*
X130544417Y-74410000D01*
X130564700Y-74615937D01*
X130624768Y-74813955D01*
X130722310Y-74996442D01*
X130722313Y-74996446D01*
X130722315Y-74996450D01*
X130853590Y-75156410D01*
X130870020Y-75169894D01*
X130914948Y-75232584D01*
X130924500Y-75285075D01*
X130924500Y-75752938D01*
X130904538Y-75827438D01*
X130850000Y-75881976D01*
X130792671Y-75900945D01*
X130780014Y-75902413D01*
X130780007Y-75902415D01*
X130677235Y-75947793D01*
X130597793Y-76027235D01*
X130552416Y-76130005D01*
X130552415Y-76130008D01*
X130552415Y-76130009D01*
X130549500Y-76155135D01*
X130549500Y-76155136D01*
X130549500Y-76155140D01*
X130549500Y-76983480D01*
X130529538Y-77057980D01*
X130505859Y-77088839D01*
X130125308Y-77469390D01*
X130125304Y-77469395D01*
X130051382Y-77580026D01*
X130051377Y-77580035D01*
X130000458Y-77702966D01*
X129974500Y-77833468D01*
X129974500Y-78462938D01*
X129954538Y-78537438D01*
X129900000Y-78591976D01*
X129842669Y-78610946D01*
X129841669Y-78611062D01*
X129765365Y-78599817D01*
X129704906Y-78551926D01*
X129676492Y-78480223D01*
X129675500Y-78463054D01*
X129675500Y-76333470D01*
X129675500Y-76333469D01*
X129672700Y-76319394D01*
X129649541Y-76202964D01*
X129601416Y-76086783D01*
X129599439Y-76081257D01*
X129558562Y-76020080D01*
X129524695Y-75969394D01*
X129430606Y-75875305D01*
X128280606Y-74725305D01*
X128240663Y-74698616D01*
X128169973Y-74651382D01*
X128169964Y-74651377D01*
X128069737Y-74609862D01*
X128047036Y-74600459D01*
X128047034Y-74600458D01*
X128047033Y-74600458D01*
X127916531Y-74574500D01*
X126033469Y-74574500D01*
X126033465Y-74574500D01*
X125902964Y-74600459D01*
X125902962Y-74600460D01*
X125780031Y-74651379D01*
X125780028Y-74651380D01*
X125698458Y-74705885D01*
X125698457Y-74705886D01*
X125669395Y-74725304D01*
X125669393Y-74725305D01*
X124675308Y-75719390D01*
X124675304Y-75719395D01*
X124601382Y-75830026D01*
X124601377Y-75830035D01*
X124550459Y-75952964D01*
X124550458Y-75952966D01*
X124535686Y-76027234D01*
X124535686Y-76027235D01*
X124524500Y-76083465D01*
X124524500Y-91166531D01*
X124550458Y-91297033D01*
X124601377Y-91419964D01*
X124601382Y-91419973D01*
X124635409Y-91470897D01*
X124675305Y-91530606D01*
X128819394Y-95674695D01*
X128891692Y-95723003D01*
X128930026Y-95748617D01*
X128930035Y-95748622D01*
X128966039Y-95763535D01*
X129052964Y-95799541D01*
X129183469Y-95825500D01*
X138566531Y-95825500D01*
X138697036Y-95799541D01*
X138819969Y-95748620D01*
X138930606Y-95674695D01*
X140236160Y-94369141D01*
X140302955Y-94330577D01*
X140341519Y-94325500D01*
X190916531Y-94325500D01*
X191047036Y-94299541D01*
X191169969Y-94248620D01*
X191280606Y-94174695D01*
X197024695Y-88430606D01*
X197051831Y-88389994D01*
X197057837Y-88381006D01*
X197098614Y-88319978D01*
X197098614Y-88319977D01*
X197098620Y-88319969D01*
X197129466Y-88245500D01*
X197149541Y-88197036D01*
X197175500Y-88066531D01*
X197175500Y-87933469D01*
X197175500Y-84433469D01*
X197172815Y-84419969D01*
X197149541Y-84302964D01*
X197101416Y-84186783D01*
X197099439Y-84181257D01*
X197089935Y-84167033D01*
X197024695Y-84069394D01*
X196930606Y-83975305D01*
X195630606Y-82675305D01*
X195630604Y-82675304D01*
X195624947Y-82670661D01*
X195626651Y-82668583D01*
X195584441Y-82620423D01*
X195581644Y-82614413D01*
X195524174Y-82483394D01*
X195388162Y-82275212D01*
X195219743Y-82092261D01*
X195036966Y-81950000D01*
X195023509Y-81939526D01*
X195023508Y-81939525D01*
X195023505Y-81939523D01*
X194804815Y-81821174D01*
X194804811Y-81821172D01*
X194569613Y-81740428D01*
X194569609Y-81740427D01*
X194324335Y-81699500D01*
X194075665Y-81699500D01*
X194075664Y-81699500D01*
X193830390Y-81740427D01*
X193830386Y-81740428D01*
X193595188Y-81821172D01*
X193595184Y-81821174D01*
X193376494Y-81939523D01*
X193376489Y-81939527D01*
X193180256Y-82092261D01*
X193011840Y-82275210D01*
X193011838Y-82275212D01*
X193011836Y-82275215D01*
X192906455Y-82436513D01*
X192893073Y-82456996D01*
X192835613Y-82508446D01*
X192768335Y-82524500D01*
X189541519Y-82524500D01*
X189467019Y-82504538D01*
X189436160Y-82480859D01*
X187630609Y-80675308D01*
X187630606Y-80675305D01*
X187581905Y-80642764D01*
X187519973Y-80601382D01*
X187519964Y-80601377D01*
X187422494Y-80561004D01*
X187397036Y-80550459D01*
X187397034Y-80550458D01*
X187397033Y-80550458D01*
X187266531Y-80524500D01*
X187049499Y-80524500D01*
X186974999Y-80504538D01*
X186920461Y-80450000D01*
X186900499Y-80375500D01*
X186900499Y-80355133D01*
X186897585Y-80330010D01*
X186897584Y-80330007D01*
X186888970Y-80310499D01*
X186852206Y-80227235D01*
X186772765Y-80147794D01*
X186772764Y-80147793D01*
X186669994Y-80102416D01*
X186669991Y-80102415D01*
X186669982Y-80102414D01*
X186644865Y-80099500D01*
X186644859Y-80099500D01*
X184955133Y-80099500D01*
X184930010Y-80102414D01*
X184930007Y-80102415D01*
X184827235Y-80147793D01*
X184747795Y-80227233D01*
X184711521Y-80309384D01*
X184663166Y-80369472D01*
X184591246Y-80397333D01*
X184515031Y-80385502D01*
X184469858Y-80354557D01*
X181049141Y-76933840D01*
X181010577Y-76867045D01*
X181005500Y-76828481D01*
X181005500Y-72309147D01*
X181025462Y-72234647D01*
X181054120Y-72199034D01*
X181146764Y-72114579D01*
X181269673Y-71951821D01*
X181360582Y-71769250D01*
X181416397Y-71573083D01*
X181428956Y-71437551D01*
X181435215Y-71370004D01*
X181435215Y-71369995D01*
X181423209Y-71240428D01*
X181416397Y-71166917D01*
X181360582Y-70970750D01*
X181269673Y-70788179D01*
X181146764Y-70625421D01*
X180996041Y-70488019D01*
X180996036Y-70488015D01*
X180822643Y-70380655D01*
X180822632Y-70380649D01*
X180632462Y-70306978D01*
X180632458Y-70306977D01*
X180632456Y-70306976D01*
X180592360Y-70299480D01*
X180431980Y-70269500D01*
X180431976Y-70269500D01*
X180228024Y-70269500D01*
X180228019Y-70269500D01*
X180027544Y-70306976D01*
X180027537Y-70306978D01*
X179837367Y-70380649D01*
X179837356Y-70380655D01*
X179663963Y-70488015D01*
X179663958Y-70488019D01*
X179562886Y-70580159D01*
X179529422Y-70610666D01*
X179513234Y-70625423D01*
X179390328Y-70788176D01*
X179299416Y-70970754D01*
X179243602Y-71166921D01*
X179224785Y-71369995D01*
X179224785Y-71370004D01*
X179243602Y-71573078D01*
X179243602Y-71573080D01*
X179243603Y-71573083D01*
X179257353Y-71621409D01*
X179299416Y-71769245D01*
X179299417Y-71769247D01*
X179299418Y-71769250D01*
X179349585Y-71870000D01*
X179390328Y-71951823D01*
X179498344Y-72094859D01*
X179513236Y-72114579D01*
X179602119Y-72195606D01*
X179605880Y-72199034D01*
X179647488Y-72263976D01*
X179654500Y-72309147D01*
X179654500Y-77236531D01*
X179680458Y-77367033D01*
X179731377Y-77489964D01*
X179731382Y-77489973D01*
X179754580Y-77524691D01*
X179805305Y-77600606D01*
X183835305Y-81630606D01*
X183929394Y-81724695D01*
X183952942Y-81740429D01*
X184040026Y-81798617D01*
X184040028Y-81798618D01*
X184040031Y-81798620D01*
X184040036Y-81798622D01*
X184040038Y-81798623D01*
X184075852Y-81813458D01*
X184075853Y-81813458D01*
X184162964Y-81849541D01*
X184293469Y-81875500D01*
X184550501Y-81875500D01*
X184625001Y-81895462D01*
X184679539Y-81950000D01*
X184699501Y-82024500D01*
X184699501Y-82044866D01*
X184702414Y-82069989D01*
X184702415Y-82069992D01*
X184747793Y-82172764D01*
X184747794Y-82172765D01*
X184827235Y-82252206D01*
X184930009Y-82297585D01*
X184955135Y-82300500D01*
X185059645Y-82300499D01*
X185134142Y-82320461D01*
X185188680Y-82374998D01*
X185208643Y-82449498D01*
X185188681Y-82523998D01*
X185145107Y-82571552D01*
X185074527Y-82620973D01*
X185074527Y-82620974D01*
X185753553Y-83300000D01*
X185747339Y-83300000D01*
X185645606Y-83327259D01*
X185554394Y-83379920D01*
X185479920Y-83454394D01*
X185427259Y-83545606D01*
X185400000Y-83647339D01*
X185400000Y-83653553D01*
X184720974Y-82974527D01*
X184669865Y-83047517D01*
X184669862Y-83047522D01*
X184573733Y-83253674D01*
X184573732Y-83253676D01*
X184514859Y-83473393D01*
X184495034Y-83700000D01*
X184514859Y-83926606D01*
X184573732Y-84146323D01*
X184573733Y-84146325D01*
X184669866Y-84352483D01*
X184669872Y-84352492D01*
X184720973Y-84425471D01*
X185400000Y-83746444D01*
X185400000Y-83752661D01*
X185427259Y-83854394D01*
X185479920Y-83945606D01*
X185554394Y-84020080D01*
X185645606Y-84072741D01*
X185747339Y-84100000D01*
X185753553Y-84100000D01*
X185074526Y-84779025D01*
X185147509Y-84830129D01*
X185147515Y-84830132D01*
X185353674Y-84926266D01*
X185353676Y-84926267D01*
X185573394Y-84985140D01*
X185573393Y-84985140D01*
X185800000Y-85004965D01*
X186026606Y-84985140D01*
X186246323Y-84926267D01*
X186246325Y-84926266D01*
X186452478Y-84830136D01*
X186452484Y-84830132D01*
X186525471Y-84779024D01*
X185846447Y-84100000D01*
X185852661Y-84100000D01*
X185954394Y-84072741D01*
X186045606Y-84020080D01*
X186120080Y-83945606D01*
X186172741Y-83854394D01*
X186200000Y-83752661D01*
X186200000Y-83746447D01*
X186879024Y-84425471D01*
X186930132Y-84352484D01*
X186930136Y-84352478D01*
X187026266Y-84146325D01*
X187026267Y-84146323D01*
X187085140Y-83926606D01*
X187104965Y-83700000D01*
X187085140Y-83473393D01*
X187026267Y-83253676D01*
X187026266Y-83253674D01*
X186930132Y-83047515D01*
X186930129Y-83047509D01*
X186879025Y-82974526D01*
X186200000Y-83653551D01*
X186200000Y-83647339D01*
X186172741Y-83545606D01*
X186120080Y-83454394D01*
X186045606Y-83379920D01*
X185954394Y-83327259D01*
X185852661Y-83300000D01*
X185846445Y-83300000D01*
X186525471Y-82620973D01*
X186454891Y-82571553D01*
X186405314Y-82512469D01*
X186391921Y-82436513D01*
X186418300Y-82364036D01*
X186477384Y-82314459D01*
X186540353Y-82300499D01*
X186644864Y-82300499D01*
X186644867Y-82300499D01*
X186659940Y-82298750D01*
X186669991Y-82297585D01*
X186772765Y-82252206D01*
X186852206Y-82172765D01*
X186876226Y-82118365D01*
X186924579Y-82058276D01*
X186996499Y-82030414D01*
X187072714Y-82042245D01*
X187117889Y-82073190D01*
X188675305Y-83630606D01*
X188769394Y-83724695D01*
X188880031Y-83798620D01*
X189002964Y-83849540D01*
X189133469Y-83875500D01*
X192768335Y-83875500D01*
X192842835Y-83895462D01*
X192893072Y-83943003D01*
X193011836Y-84124785D01*
X193180256Y-84307738D01*
X193376491Y-84460474D01*
X193376492Y-84460474D01*
X193376494Y-84460476D01*
X193512477Y-84534066D01*
X193595190Y-84578828D01*
X193639577Y-84594066D01*
X193830386Y-84659571D01*
X193830390Y-84659572D01*
X193900359Y-84671247D01*
X194075665Y-84700500D01*
X194075667Y-84700500D01*
X194324333Y-84700500D01*
X194324335Y-84700500D01*
X194534750Y-84665388D01*
X194569609Y-84659572D01*
X194569610Y-84659571D01*
X194569614Y-84659571D01*
X194804810Y-84578828D01*
X195023509Y-84460474D01*
X195190525Y-84330479D01*
X195261577Y-84300474D01*
X195338113Y-84310014D01*
X195387402Y-84342703D01*
X195780859Y-84736160D01*
X195819423Y-84802955D01*
X195824500Y-84841519D01*
X195824500Y-85957455D01*
X195804538Y-86031955D01*
X195750000Y-86086493D01*
X195675500Y-86106455D01*
X195601000Y-86086493D01*
X195546462Y-86031955D01*
X195539050Y-86017308D01*
X195532157Y-86001594D01*
X195524173Y-85983393D01*
X195388164Y-85775215D01*
X195388163Y-85775214D01*
X195388162Y-85775212D01*
X195219743Y-85592261D01*
X195056057Y-85464859D01*
X195023509Y-85439526D01*
X195023508Y-85439525D01*
X195023505Y-85439523D01*
X194804815Y-85321174D01*
X194804811Y-85321172D01*
X194569613Y-85240428D01*
X194569609Y-85240427D01*
X194324335Y-85199500D01*
X194075665Y-85199500D01*
X194075664Y-85199500D01*
X193830390Y-85240427D01*
X193830386Y-85240428D01*
X193595188Y-85321172D01*
X193595184Y-85321174D01*
X193376494Y-85439523D01*
X193376489Y-85439527D01*
X193180256Y-85592261D01*
X193011837Y-85775212D01*
X192875827Y-85983392D01*
X192775937Y-86211117D01*
X192714891Y-86452183D01*
X192703353Y-86591422D01*
X192677306Y-86664019D01*
X192660221Y-86684476D01*
X190863840Y-88480859D01*
X190797045Y-88519423D01*
X190758481Y-88524500D01*
X187047061Y-88524500D01*
X186972561Y-88504538D01*
X186918023Y-88450000D01*
X186899053Y-88392665D01*
X186897585Y-88380009D01*
X186897584Y-88380007D01*
X186852206Y-88277235D01*
X186772764Y-88197793D01*
X186669994Y-88152416D01*
X186669991Y-88152415D01*
X186669982Y-88152414D01*
X186644865Y-88149500D01*
X186644859Y-88149500D01*
X186540355Y-88149500D01*
X186465855Y-88129538D01*
X186411317Y-88075000D01*
X186391355Y-88000500D01*
X186411317Y-87926000D01*
X186454891Y-87878447D01*
X186525471Y-87829024D01*
X185846447Y-87150000D01*
X185852661Y-87150000D01*
X185954394Y-87122741D01*
X186045606Y-87070080D01*
X186120080Y-86995606D01*
X186172741Y-86904394D01*
X186200000Y-86802661D01*
X186200000Y-86796447D01*
X186879024Y-87475471D01*
X186930132Y-87402484D01*
X186930136Y-87402478D01*
X187026266Y-87196325D01*
X187026267Y-87196323D01*
X187085140Y-86976606D01*
X187104965Y-86750000D01*
X187085140Y-86523393D01*
X187026267Y-86303676D01*
X187026266Y-86303674D01*
X186930132Y-86097515D01*
X186930129Y-86097509D01*
X186879025Y-86024526D01*
X186200000Y-86703551D01*
X186200000Y-86697339D01*
X186172741Y-86595606D01*
X186120080Y-86504394D01*
X186045606Y-86429920D01*
X185954394Y-86377259D01*
X185852661Y-86350000D01*
X185846445Y-86350000D01*
X186525472Y-85670973D01*
X186452492Y-85619872D01*
X186452483Y-85619866D01*
X186246325Y-85523733D01*
X186246323Y-85523732D01*
X186026605Y-85464859D01*
X186026606Y-85464859D01*
X185800000Y-85445034D01*
X185573393Y-85464859D01*
X185353676Y-85523732D01*
X185353674Y-85523733D01*
X185147522Y-85619862D01*
X185147517Y-85619865D01*
X185074527Y-85670974D01*
X185753553Y-86350000D01*
X185747339Y-86350000D01*
X185645606Y-86377259D01*
X185554394Y-86429920D01*
X185479920Y-86504394D01*
X185427259Y-86595606D01*
X185400000Y-86697339D01*
X185400000Y-86703553D01*
X184720974Y-86024527D01*
X184669865Y-86097517D01*
X184669862Y-86097522D01*
X184573733Y-86303674D01*
X184573732Y-86303676D01*
X184514859Y-86523393D01*
X184495034Y-86750000D01*
X184514859Y-86976606D01*
X184573732Y-87196323D01*
X184573733Y-87196325D01*
X184669866Y-87402483D01*
X184669872Y-87402492D01*
X184720973Y-87475471D01*
X185400000Y-86796444D01*
X185400000Y-86802661D01*
X185427259Y-86904394D01*
X185479920Y-86995606D01*
X185554394Y-87070080D01*
X185645606Y-87122741D01*
X185747339Y-87150000D01*
X185753553Y-87150000D01*
X185074526Y-87829025D01*
X185145108Y-87878447D01*
X185194684Y-87937531D01*
X185208077Y-88013487D01*
X185181697Y-88085964D01*
X185122613Y-88135540D01*
X185059645Y-88149500D01*
X184955133Y-88149500D01*
X184930010Y-88152414D01*
X184930007Y-88152415D01*
X184827235Y-88197793D01*
X184747793Y-88277235D01*
X184702416Y-88380005D01*
X184702415Y-88380008D01*
X184702415Y-88380009D01*
X184700946Y-88392670D01*
X184672534Y-88464371D01*
X184612075Y-88512262D01*
X184552939Y-88524500D01*
X165841519Y-88524500D01*
X165767019Y-88504538D01*
X165736160Y-88480859D01*
X164419141Y-87163840D01*
X164380577Y-87097045D01*
X164375500Y-87058481D01*
X164375500Y-86033473D01*
X164375499Y-86033465D01*
X164349540Y-85902964D01*
X164349539Y-85902962D01*
X164311386Y-85810852D01*
X164298620Y-85780031D01*
X164224695Y-85669394D01*
X164130606Y-85575305D01*
X162149816Y-83594515D01*
X162129884Y-83559991D01*
X166724785Y-83559991D01*
X166724785Y-83560004D01*
X166743602Y-83763078D01*
X166743602Y-83763080D01*
X166743603Y-83763083D01*
X166753715Y-83798623D01*
X166799416Y-83959245D01*
X166799417Y-83959247D01*
X166799418Y-83959250D01*
X166869249Y-84099490D01*
X166890328Y-84141823D01*
X166973515Y-84251980D01*
X167013236Y-84304579D01*
X167073317Y-84359350D01*
X167105880Y-84389034D01*
X167147488Y-84453976D01*
X167154500Y-84499147D01*
X167154500Y-85810852D01*
X167134538Y-85885352D01*
X167105881Y-85920964D01*
X167013234Y-86005423D01*
X166890328Y-86168176D01*
X166799416Y-86350754D01*
X166743602Y-86546921D01*
X166724785Y-86749995D01*
X166724785Y-86750004D01*
X166743602Y-86953078D01*
X166799416Y-87149245D01*
X166799417Y-87149247D01*
X166799418Y-87149250D01*
X166836506Y-87223733D01*
X166890328Y-87331823D01*
X166954354Y-87416607D01*
X167013236Y-87494579D01*
X167156068Y-87624787D01*
X167163958Y-87631980D01*
X167163963Y-87631984D01*
X167337356Y-87739344D01*
X167337367Y-87739350D01*
X167428101Y-87774500D01*
X167527544Y-87813024D01*
X167728024Y-87850500D01*
X167728027Y-87850500D01*
X167931973Y-87850500D01*
X167931976Y-87850500D01*
X168132456Y-87813024D01*
X168322637Y-87739348D01*
X168496041Y-87631981D01*
X168646764Y-87494579D01*
X168769673Y-87331821D01*
X168860582Y-87149250D01*
X168916397Y-86953083D01*
X168926851Y-86840259D01*
X168935215Y-86750004D01*
X168935215Y-86749995D01*
X168924760Y-86637176D01*
X168916397Y-86546917D01*
X168860582Y-86350750D01*
X168769673Y-86168179D01*
X168646764Y-86005421D01*
X168554119Y-85920964D01*
X168512511Y-85856021D01*
X168505500Y-85810852D01*
X168505500Y-84499147D01*
X168525462Y-84424647D01*
X168554120Y-84389034D01*
X168646764Y-84304579D01*
X168769673Y-84141821D01*
X168860582Y-83959250D01*
X168916397Y-83763083D01*
X168928673Y-83630606D01*
X168935215Y-83560004D01*
X168935215Y-83559991D01*
X168918397Y-83378505D01*
X168917609Y-83369995D01*
X170224785Y-83369995D01*
X170224785Y-83370004D01*
X170243602Y-83573078D01*
X170299416Y-83769245D01*
X170299417Y-83769247D01*
X170299418Y-83769250D01*
X170385348Y-83941821D01*
X170390328Y-83951823D01*
X170461070Y-84045500D01*
X170513236Y-84114579D01*
X170652990Y-84241981D01*
X170663958Y-84251980D01*
X170663963Y-84251984D01*
X170837356Y-84359344D01*
X170837367Y-84359350D01*
X170913992Y-84389034D01*
X171027544Y-84433024D01*
X171228024Y-84470500D01*
X171228027Y-84470500D01*
X171431973Y-84470500D01*
X171431976Y-84470500D01*
X171632456Y-84433024D01*
X171822637Y-84359348D01*
X171996041Y-84251981D01*
X172146764Y-84114579D01*
X172154218Y-84104707D01*
X172215044Y-84057285D01*
X172273123Y-84045500D01*
X174364429Y-84045500D01*
X174438929Y-84065462D01*
X174478021Y-84100013D01*
X174478596Y-84099490D01*
X174483231Y-84104574D01*
X174483234Y-84104577D01*
X174483236Y-84104579D01*
X174633958Y-84241980D01*
X174633963Y-84241984D01*
X174807356Y-84349344D01*
X174807367Y-84349350D01*
X174909805Y-84389034D01*
X174997544Y-84423024D01*
X175198024Y-84460500D01*
X175198027Y-84460500D01*
X175401973Y-84460500D01*
X175401976Y-84460500D01*
X175602456Y-84423024D01*
X175784545Y-84352483D01*
X175792632Y-84349350D01*
X175792632Y-84349349D01*
X175792637Y-84349348D01*
X175966041Y-84241981D01*
X176116764Y-84104579D01*
X176239673Y-83941821D01*
X176330582Y-83759250D01*
X176386397Y-83563083D01*
X176400542Y-83410428D01*
X176405215Y-83360004D01*
X176405215Y-83359995D01*
X176393654Y-83235231D01*
X176386397Y-83156917D01*
X176330582Y-82960750D01*
X176239673Y-82778179D01*
X176210271Y-82739245D01*
X176180635Y-82700000D01*
X176116764Y-82615421D01*
X175966041Y-82478019D01*
X175966036Y-82478015D01*
X175792643Y-82370655D01*
X175792632Y-82370649D01*
X175602462Y-82296978D01*
X175602458Y-82296977D01*
X175602456Y-82296976D01*
X175562360Y-82289480D01*
X175401980Y-82259500D01*
X175401976Y-82259500D01*
X175198024Y-82259500D01*
X175198019Y-82259500D01*
X174997544Y-82296976D01*
X174997537Y-82296978D01*
X174807367Y-82370649D01*
X174807356Y-82370655D01*
X174633963Y-82478015D01*
X174633958Y-82478019D01*
X174483237Y-82615419D01*
X174483234Y-82615422D01*
X174468229Y-82635293D01*
X174407402Y-82682715D01*
X174349325Y-82694500D01*
X172273123Y-82694500D01*
X172198623Y-82674538D01*
X172154218Y-82635292D01*
X172146764Y-82625421D01*
X171996041Y-82488019D01*
X171996036Y-82488015D01*
X171822643Y-82380655D01*
X171822632Y-82380649D01*
X171632462Y-82306978D01*
X171632458Y-82306977D01*
X171632456Y-82306976D01*
X171592360Y-82299480D01*
X171431980Y-82269500D01*
X171431976Y-82269500D01*
X171228024Y-82269500D01*
X171228019Y-82269500D01*
X171027544Y-82306976D01*
X171027537Y-82306978D01*
X170837367Y-82380649D01*
X170837356Y-82380655D01*
X170663963Y-82488015D01*
X170663958Y-82488019D01*
X170572326Y-82571553D01*
X170524205Y-82615422D01*
X170513234Y-82625423D01*
X170390328Y-82788176D01*
X170299416Y-82970754D01*
X170243603Y-83166917D01*
X170243602Y-83166921D01*
X170224785Y-83369995D01*
X168917609Y-83369995D01*
X168916397Y-83356917D01*
X168860582Y-83160750D01*
X168769673Y-82978179D01*
X168766914Y-82974526D01*
X168695425Y-82879859D01*
X168646764Y-82815421D01*
X168496041Y-82678019D01*
X168496036Y-82678015D01*
X168322643Y-82570655D01*
X168322632Y-82570649D01*
X168132462Y-82496978D01*
X168132458Y-82496977D01*
X168132456Y-82496976D01*
X168084519Y-82488015D01*
X167931980Y-82459500D01*
X167931976Y-82459500D01*
X167728024Y-82459500D01*
X167728019Y-82459500D01*
X167527544Y-82496976D01*
X167527537Y-82496978D01*
X167337367Y-82570649D01*
X167337356Y-82570655D01*
X167163963Y-82678015D01*
X167163958Y-82678019D01*
X167013234Y-82815423D01*
X166890328Y-82978176D01*
X166799416Y-83160754D01*
X166759797Y-83300000D01*
X166746928Y-83345233D01*
X166743602Y-83356921D01*
X166724785Y-83559991D01*
X162129884Y-83559991D01*
X162111252Y-83527720D01*
X162111252Y-83450592D01*
X162149816Y-83383797D01*
X162216611Y-83345233D01*
X162261710Y-83345233D01*
X162270000Y-83338871D01*
X162270000Y-82375686D01*
X162274394Y-82380080D01*
X162365606Y-82432741D01*
X162467339Y-82460000D01*
X162572661Y-82460000D01*
X162674394Y-82432741D01*
X162765606Y-82380080D01*
X162770000Y-82375686D01*
X162770000Y-83338872D01*
X162966323Y-83286267D01*
X162966325Y-83286266D01*
X163172477Y-83190137D01*
X163172482Y-83190134D01*
X163358817Y-83059660D01*
X163519660Y-82898817D01*
X163650134Y-82712482D01*
X163650137Y-82712477D01*
X163746266Y-82506325D01*
X163746267Y-82506323D01*
X163798872Y-82310000D01*
X162835686Y-82310000D01*
X162840080Y-82305606D01*
X162892741Y-82214394D01*
X162920000Y-82112661D01*
X162920000Y-82007339D01*
X162892741Y-81905606D01*
X162840080Y-81814394D01*
X162835686Y-81810000D01*
X163798872Y-81810000D01*
X163798872Y-81809999D01*
X163746267Y-81613676D01*
X163746266Y-81613674D01*
X163650137Y-81407522D01*
X163650134Y-81407517D01*
X163519660Y-81221182D01*
X163358817Y-81060339D01*
X163172482Y-80929865D01*
X163172477Y-80929862D01*
X162966325Y-80833733D01*
X162770000Y-80781127D01*
X162770000Y-81744314D01*
X162765606Y-81739920D01*
X162674394Y-81687259D01*
X162572661Y-81660000D01*
X162467339Y-81660000D01*
X162365606Y-81687259D01*
X162274394Y-81739920D01*
X162270000Y-81744314D01*
X162270000Y-80781127D01*
X162073674Y-80833733D01*
X161867522Y-80929862D01*
X161867517Y-80929865D01*
X161681182Y-81060339D01*
X161520339Y-81221182D01*
X161389865Y-81407517D01*
X161389862Y-81407522D01*
X161293733Y-81613674D01*
X161293732Y-81613676D01*
X161241127Y-81809999D01*
X161241128Y-81810000D01*
X162204314Y-81810000D01*
X162199920Y-81814394D01*
X162147259Y-81905606D01*
X162120000Y-82007339D01*
X162120000Y-82112661D01*
X162147259Y-82214394D01*
X162199920Y-82305606D01*
X162204314Y-82310000D01*
X161241128Y-82310000D01*
X161234766Y-82318291D01*
X161234766Y-82363390D01*
X161196201Y-82430184D01*
X161129405Y-82468747D01*
X161052277Y-82468747D01*
X160985484Y-82430183D01*
X159980609Y-81425308D01*
X159980606Y-81425305D01*
X159916267Y-81382315D01*
X159869973Y-81351382D01*
X159869964Y-81351377D01*
X159747038Y-81300460D01*
X159747036Y-81300459D01*
X159747034Y-81300458D01*
X159747033Y-81300458D01*
X159616531Y-81274500D01*
X155333469Y-81274500D01*
X155333465Y-81274500D01*
X155202964Y-81300459D01*
X155202962Y-81300460D01*
X155080039Y-81351376D01*
X155080033Y-81351378D01*
X155080031Y-81351380D01*
X155080028Y-81351381D01*
X155080026Y-81351383D01*
X154969395Y-81425304D01*
X154969390Y-81425308D01*
X153825308Y-82569390D01*
X153825304Y-82569395D01*
X153751382Y-82680026D01*
X153751377Y-82680035D01*
X153700458Y-82802966D01*
X153676817Y-82921820D01*
X153676817Y-82921821D01*
X153674500Y-82933465D01*
X153674500Y-83224923D01*
X153654538Y-83299423D01*
X153620027Y-83340100D01*
X153603589Y-83353590D01*
X153472317Y-83513547D01*
X153472310Y-83513557D01*
X153374768Y-83696044D01*
X153314700Y-83894062D01*
X153294417Y-84100000D01*
X153314700Y-84305937D01*
X153374768Y-84503955D01*
X153472310Y-84686442D01*
X153472313Y-84686446D01*
X153472315Y-84686450D01*
X153493288Y-84712006D01*
X153590228Y-84830129D01*
X153603590Y-84846410D01*
X153763550Y-84977685D01*
X153763555Y-84977687D01*
X153763557Y-84977689D01*
X153816405Y-85005937D01*
X153946046Y-85075232D01*
X154144063Y-85135299D01*
X154144066Y-85135300D01*
X154350000Y-85155583D01*
X154555934Y-85135300D01*
X154753954Y-85075232D01*
X154936450Y-84977685D01*
X155096410Y-84846410D01*
X155227685Y-84686450D01*
X155325232Y-84503954D01*
X155374964Y-84340007D01*
X155415691Y-84274511D01*
X155483712Y-84238153D01*
X155560798Y-84240676D01*
X155626296Y-84281404D01*
X155661470Y-84344695D01*
X155710897Y-84529158D01*
X155803330Y-84727382D01*
X155803332Y-84727387D01*
X155846874Y-84789570D01*
X156490000Y-84146444D01*
X156490000Y-84152661D01*
X156517259Y-84254394D01*
X156569920Y-84345606D01*
X156644394Y-84420080D01*
X156735606Y-84472741D01*
X156837339Y-84500000D01*
X156843553Y-84500000D01*
X156200427Y-85143125D01*
X156262604Y-85186662D01*
X156262617Y-85186669D01*
X156460841Y-85279102D01*
X156460843Y-85279103D01*
X156672110Y-85335711D01*
X156672109Y-85335711D01*
X156889999Y-85354775D01*
X156890001Y-85354775D01*
X157107890Y-85335711D01*
X157319156Y-85279103D01*
X157319158Y-85279102D01*
X157517383Y-85186668D01*
X157517393Y-85186662D01*
X157579570Y-85143125D01*
X156936447Y-84500000D01*
X156942661Y-84500000D01*
X157044394Y-84472741D01*
X157135606Y-84420080D01*
X157210080Y-84345606D01*
X157262741Y-84254394D01*
X157290000Y-84152661D01*
X157290000Y-84146445D01*
X157933125Y-84789570D01*
X157976662Y-84727393D01*
X157976668Y-84727383D01*
X158069102Y-84529158D01*
X158069103Y-84529156D01*
X158125711Y-84317890D01*
X158144775Y-84100000D01*
X158144775Y-84099999D01*
X158125711Y-83882109D01*
X158069103Y-83670843D01*
X158069102Y-83670841D01*
X157976670Y-83472618D01*
X157976667Y-83472613D01*
X157933124Y-83410428D01*
X157290000Y-84053552D01*
X157290000Y-84047339D01*
X157262741Y-83945606D01*
X157210080Y-83854394D01*
X157135606Y-83779920D01*
X157044394Y-83727259D01*
X156942661Y-83700000D01*
X156936444Y-83700000D01*
X157579570Y-83056874D01*
X157517387Y-83013332D01*
X157517382Y-83013330D01*
X157319158Y-82920897D01*
X157319156Y-82920896D01*
X157309924Y-82918423D01*
X157243129Y-82879859D01*
X157204565Y-82813064D01*
X157204565Y-82735936D01*
X157243129Y-82669141D01*
X157309924Y-82630577D01*
X157348488Y-82625500D01*
X159208481Y-82625500D01*
X159282981Y-82645462D01*
X159313840Y-82669141D01*
X162980859Y-86336160D01*
X163019423Y-86402955D01*
X163024500Y-86441519D01*
X163024500Y-87466531D01*
X163050458Y-87597033D01*
X163101377Y-87719964D01*
X163101382Y-87719973D01*
X163137816Y-87774500D01*
X163175305Y-87830606D01*
X164975305Y-89630606D01*
X165069394Y-89724695D01*
X165180031Y-89798620D01*
X165302964Y-89849540D01*
X165433469Y-89875500D01*
X184550501Y-89875500D01*
X184625001Y-89895462D01*
X184679539Y-89950000D01*
X184699501Y-90024500D01*
X184699501Y-90094866D01*
X184702414Y-90119989D01*
X184702415Y-90119992D01*
X184747793Y-90222764D01*
X184747794Y-90222765D01*
X184827235Y-90302206D01*
X184930009Y-90347585D01*
X184955135Y-90350500D01*
X186644864Y-90350499D01*
X186644866Y-90350499D01*
X186657427Y-90349042D01*
X186669991Y-90347585D01*
X186772765Y-90302206D01*
X186852206Y-90222765D01*
X186897585Y-90119991D01*
X186900500Y-90094865D01*
X186900500Y-90024500D01*
X186920462Y-89950000D01*
X186975000Y-89895462D01*
X187049500Y-89875500D01*
X191166531Y-89875500D01*
X191297036Y-89849541D01*
X191419969Y-89798620D01*
X191530606Y-89724695D01*
X193244942Y-88010357D01*
X193311735Y-87971795D01*
X193388863Y-87971795D01*
X193421209Y-87984674D01*
X193595190Y-88078828D01*
X193809541Y-88152415D01*
X193830386Y-88159571D01*
X193830390Y-88159572D01*
X193900359Y-88171247D01*
X194075665Y-88200500D01*
X194075667Y-88200500D01*
X194324333Y-88200500D01*
X194324335Y-88200500D01*
X194534750Y-88165388D01*
X194569609Y-88159572D01*
X194569610Y-88159571D01*
X194569614Y-88159571D01*
X194804810Y-88078828D01*
X195023509Y-87960474D01*
X195219744Y-87807738D01*
X195388164Y-87624785D01*
X195524173Y-87416607D01*
X195524174Y-87416606D01*
X195539050Y-87382692D01*
X195587256Y-87322485D01*
X195659108Y-87294448D01*
X195735352Y-87306094D01*
X195795559Y-87354300D01*
X195823596Y-87426152D01*
X195824500Y-87442544D01*
X195824500Y-87658481D01*
X195804538Y-87732981D01*
X195780859Y-87763840D01*
X190613840Y-92930859D01*
X190547045Y-92969423D01*
X190508481Y-92974500D01*
X139933465Y-92974500D01*
X139802964Y-93000459D01*
X139802962Y-93000460D01*
X139680039Y-93051376D01*
X139680033Y-93051378D01*
X139680031Y-93051380D01*
X139680028Y-93051381D01*
X139680026Y-93051383D01*
X139569395Y-93125304D01*
X139569390Y-93125308D01*
X138263840Y-94430859D01*
X138197045Y-94469423D01*
X138158481Y-94474500D01*
X129591519Y-94474500D01*
X129517019Y-94454538D01*
X129486160Y-94430859D01*
X125919141Y-90863840D01*
X125880577Y-90797045D01*
X125875500Y-90758481D01*
X125875500Y-77641626D01*
X125895462Y-77567126D01*
X125950000Y-77512588D01*
X126024500Y-77492626D01*
X126099000Y-77512588D01*
X126143404Y-77551833D01*
X126183236Y-77604579D01*
X126268724Y-77682511D01*
X126275880Y-77689034D01*
X126317488Y-77753976D01*
X126324500Y-77799147D01*
X126324500Y-84036531D01*
X126350458Y-84167033D01*
X126401377Y-84289964D01*
X126401382Y-84289973D01*
X126441057Y-84349350D01*
X126475305Y-84400606D01*
X126475308Y-84400609D01*
X129505859Y-87431160D01*
X129544423Y-87497955D01*
X129549500Y-87536519D01*
X129549500Y-88364866D01*
X129552414Y-88389989D01*
X129552415Y-88389992D01*
X129597793Y-88492764D01*
X129597794Y-88492765D01*
X129677235Y-88572206D01*
X129780009Y-88617585D01*
X129792670Y-88619053D01*
X129864371Y-88647466D01*
X129912262Y-88707925D01*
X129924500Y-88767061D01*
X129924500Y-89234923D01*
X129904538Y-89309423D01*
X129870027Y-89350100D01*
X129853589Y-89363590D01*
X129722317Y-89523547D01*
X129722310Y-89523557D01*
X129624768Y-89706044D01*
X129564700Y-89904062D01*
X129544417Y-90110000D01*
X129564700Y-90315937D01*
X129624768Y-90513955D01*
X129722310Y-90696442D01*
X129722313Y-90696446D01*
X129722315Y-90696450D01*
X129853590Y-90856410D01*
X130013550Y-90987685D01*
X130013555Y-90987687D01*
X130013557Y-90987689D01*
X130149774Y-91060499D01*
X130196046Y-91085232D01*
X130359992Y-91134964D01*
X130425488Y-91175691D01*
X130461846Y-91243712D01*
X130459323Y-91320799D01*
X130418595Y-91386296D01*
X130355304Y-91421470D01*
X130170841Y-91470897D01*
X129972614Y-91563332D01*
X129972611Y-91563333D01*
X129910428Y-91606873D01*
X129910428Y-91606874D01*
X130553554Y-92250000D01*
X130547339Y-92250000D01*
X130445606Y-92277259D01*
X130354394Y-92329920D01*
X130279920Y-92404394D01*
X130227259Y-92495606D01*
X130200000Y-92597339D01*
X130200000Y-92603554D01*
X129556874Y-91960428D01*
X129556873Y-91960428D01*
X129513333Y-92022611D01*
X129513332Y-92022614D01*
X129420897Y-92220841D01*
X129420896Y-92220843D01*
X129364288Y-92432109D01*
X129345225Y-92649999D01*
X129345225Y-92650000D01*
X129364288Y-92867890D01*
X129420896Y-93079156D01*
X129420897Y-93079158D01*
X129513330Y-93277382D01*
X129513332Y-93277387D01*
X129556874Y-93339570D01*
X130200000Y-92696444D01*
X130200000Y-92702661D01*
X130227259Y-92804394D01*
X130279920Y-92895606D01*
X130354394Y-92970080D01*
X130445606Y-93022741D01*
X130547339Y-93050000D01*
X130553553Y-93050000D01*
X129910427Y-93693125D01*
X129972604Y-93736662D01*
X129972617Y-93736669D01*
X130170841Y-93829102D01*
X130170843Y-93829103D01*
X130382110Y-93885711D01*
X130382109Y-93885711D01*
X130599999Y-93904775D01*
X130600001Y-93904775D01*
X130817890Y-93885711D01*
X131029156Y-93829103D01*
X131029158Y-93829102D01*
X131227383Y-93736668D01*
X131227393Y-93736662D01*
X131289570Y-93693125D01*
X130646447Y-93050000D01*
X130652661Y-93050000D01*
X130754394Y-93022741D01*
X130845606Y-92970080D01*
X130920080Y-92895606D01*
X130972741Y-92804394D01*
X131000000Y-92702661D01*
X131000000Y-92696445D01*
X131643125Y-93339570D01*
X131686662Y-93277393D01*
X131686668Y-93277383D01*
X131779102Y-93079158D01*
X131779103Y-93079156D01*
X131835711Y-92867890D01*
X131854775Y-92650000D01*
X131854775Y-92649999D01*
X131835711Y-92432109D01*
X131779103Y-92220843D01*
X131779102Y-92220841D01*
X131686670Y-92022618D01*
X131686667Y-92022613D01*
X131643124Y-91960428D01*
X131000000Y-92603552D01*
X131000000Y-92597339D01*
X130972741Y-92495606D01*
X130920080Y-92404394D01*
X130845606Y-92329920D01*
X130754394Y-92277259D01*
X130652661Y-92250000D01*
X130646444Y-92250000D01*
X131289570Y-91606874D01*
X131227387Y-91563332D01*
X131227382Y-91563330D01*
X131029158Y-91470897D01*
X130844695Y-91421470D01*
X130777901Y-91382906D01*
X130739337Y-91316111D01*
X130739337Y-91238982D01*
X130777901Y-91172188D01*
X130840007Y-91134964D01*
X131003954Y-91085232D01*
X131186450Y-90987685D01*
X131346410Y-90856410D01*
X131359897Y-90839976D01*
X131422590Y-90795050D01*
X131475076Y-90785500D01*
X134624924Y-90785500D01*
X134699424Y-90805462D01*
X134740103Y-90839976D01*
X134753590Y-90856410D01*
X134913550Y-90987685D01*
X134913555Y-90987687D01*
X134913557Y-90987689D01*
X135049774Y-91060499D01*
X135096046Y-91085232D01*
X135259992Y-91134964D01*
X135325488Y-91175691D01*
X135361846Y-91243712D01*
X135359323Y-91320799D01*
X135318595Y-91386296D01*
X135255304Y-91421470D01*
X135070841Y-91470897D01*
X134872614Y-91563332D01*
X134872611Y-91563333D01*
X134810428Y-91606873D01*
X134810428Y-91606874D01*
X135453554Y-92250000D01*
X135447339Y-92250000D01*
X135345606Y-92277259D01*
X135254394Y-92329920D01*
X135179920Y-92404394D01*
X135127259Y-92495606D01*
X135100000Y-92597339D01*
X135100000Y-92603554D01*
X134456874Y-91960428D01*
X134456873Y-91960428D01*
X134413333Y-92022611D01*
X134413332Y-92022614D01*
X134320897Y-92220841D01*
X134320896Y-92220843D01*
X134264288Y-92432109D01*
X134245225Y-92649999D01*
X134245225Y-92650000D01*
X134264288Y-92867890D01*
X134320896Y-93079156D01*
X134320897Y-93079158D01*
X134413330Y-93277382D01*
X134413332Y-93277387D01*
X134456874Y-93339570D01*
X135100000Y-92696444D01*
X135100000Y-92702661D01*
X135127259Y-92804394D01*
X135179920Y-92895606D01*
X135254394Y-92970080D01*
X135345606Y-93022741D01*
X135447339Y-93050000D01*
X135453553Y-93050000D01*
X134810427Y-93693125D01*
X134872604Y-93736662D01*
X134872617Y-93736669D01*
X135070841Y-93829102D01*
X135070843Y-93829103D01*
X135282110Y-93885711D01*
X135282109Y-93885711D01*
X135499999Y-93904775D01*
X135500001Y-93904775D01*
X135717890Y-93885711D01*
X135929156Y-93829103D01*
X135929158Y-93829102D01*
X136127383Y-93736668D01*
X136127393Y-93736662D01*
X136189570Y-93693125D01*
X135546447Y-93050000D01*
X135552661Y-93050000D01*
X135654394Y-93022741D01*
X135745606Y-92970080D01*
X135820080Y-92895606D01*
X135872741Y-92804394D01*
X135900000Y-92702661D01*
X135900000Y-92696445D01*
X136543125Y-93339570D01*
X136586662Y-93277393D01*
X136586668Y-93277383D01*
X136679102Y-93079158D01*
X136679103Y-93079156D01*
X136735711Y-92867890D01*
X136754775Y-92650000D01*
X136754775Y-92649999D01*
X136735711Y-92432109D01*
X136679103Y-92220843D01*
X136679102Y-92220841D01*
X136586670Y-92022618D01*
X136586667Y-92022613D01*
X136543124Y-91960428D01*
X135900000Y-92603552D01*
X135900000Y-92597339D01*
X135872741Y-92495606D01*
X135820080Y-92404394D01*
X135745606Y-92329920D01*
X135654394Y-92277259D01*
X135552661Y-92250000D01*
X135546444Y-92250000D01*
X136189570Y-91606874D01*
X136127387Y-91563332D01*
X136127382Y-91563330D01*
X135929158Y-91470897D01*
X135744695Y-91421470D01*
X135677901Y-91382906D01*
X135639337Y-91316111D01*
X135639337Y-91238982D01*
X135677901Y-91172188D01*
X135740007Y-91134964D01*
X135903954Y-91085232D01*
X136086450Y-90987685D01*
X136246410Y-90856410D01*
X136377685Y-90696450D01*
X136475232Y-90513954D01*
X136535300Y-90315934D01*
X136555583Y-90110000D01*
X136535300Y-89904066D01*
X136530551Y-89888412D01*
X136511468Y-89825500D01*
X136475232Y-89706046D01*
X136377685Y-89523550D01*
X136246410Y-89363590D01*
X136086450Y-89232315D01*
X136086446Y-89232313D01*
X136086442Y-89232310D01*
X135903955Y-89134768D01*
X135705936Y-89074700D01*
X135705937Y-89074700D01*
X135500000Y-89054417D01*
X135294062Y-89074700D01*
X135096044Y-89134768D01*
X134913557Y-89232310D01*
X134913547Y-89232317D01*
X134753590Y-89363589D01*
X134753589Y-89363590D01*
X134740103Y-89380024D01*
X134677410Y-89424950D01*
X134624924Y-89434500D01*
X131475076Y-89434500D01*
X131400576Y-89414538D01*
X131359897Y-89380024D01*
X131346410Y-89363590D01*
X131329973Y-89350100D01*
X131285049Y-89287405D01*
X131275500Y-89234923D01*
X131275500Y-88767061D01*
X131295462Y-88692561D01*
X131350000Y-88638023D01*
X131407335Y-88619053D01*
X131416213Y-88618023D01*
X131419991Y-88617585D01*
X131522765Y-88572206D01*
X131602206Y-88492765D01*
X131647585Y-88389991D01*
X131650500Y-88364865D01*
X131650499Y-86775136D01*
X131647585Y-86750009D01*
X131602206Y-86647235D01*
X131522765Y-86567794D01*
X131522764Y-86567793D01*
X131419994Y-86522416D01*
X131419991Y-86522415D01*
X131419974Y-86522413D01*
X131394865Y-86519500D01*
X131394859Y-86519500D01*
X130566519Y-86519500D01*
X130492019Y-86499538D01*
X130461160Y-86475859D01*
X128725301Y-84740000D01*
X129594417Y-84740000D01*
X129614700Y-84945937D01*
X129674768Y-85143955D01*
X129772310Y-85326442D01*
X129772313Y-85326446D01*
X129772315Y-85326450D01*
X129903590Y-85486410D01*
X130063550Y-85617685D01*
X130063555Y-85617687D01*
X130063557Y-85617689D01*
X130163244Y-85670973D01*
X130246046Y-85715232D01*
X130444063Y-85775299D01*
X130444066Y-85775300D01*
X130650000Y-85795583D01*
X130855934Y-85775300D01*
X131053954Y-85715232D01*
X131236450Y-85617685D01*
X131396410Y-85486410D01*
X131409897Y-85469976D01*
X131472590Y-85425050D01*
X131525076Y-85415500D01*
X134575684Y-85415500D01*
X134650184Y-85435462D01*
X134690862Y-85469975D01*
X134753590Y-85546410D01*
X134770020Y-85559894D01*
X134814948Y-85622584D01*
X134824500Y-85675075D01*
X134824500Y-86372938D01*
X134804538Y-86447438D01*
X134750000Y-86501976D01*
X134692671Y-86520945D01*
X134680014Y-86522413D01*
X134680007Y-86522415D01*
X134577235Y-86567793D01*
X134497793Y-86647235D01*
X134452416Y-86750005D01*
X134452415Y-86750008D01*
X134452415Y-86750009D01*
X134449500Y-86775135D01*
X134449500Y-86775136D01*
X134449500Y-86775140D01*
X134449500Y-88364866D01*
X134452414Y-88389989D01*
X134452415Y-88389992D01*
X134497793Y-88492764D01*
X134497794Y-88492765D01*
X134577235Y-88572206D01*
X134680009Y-88617585D01*
X134705135Y-88620500D01*
X136294864Y-88620499D01*
X136294866Y-88620499D01*
X136307427Y-88619042D01*
X136319991Y-88617585D01*
X136422765Y-88572206D01*
X136502206Y-88492765D01*
X136547585Y-88389991D01*
X136550500Y-88364865D01*
X136550499Y-86775136D01*
X136547585Y-86750009D01*
X136502206Y-86647235D01*
X136422765Y-86567794D01*
X136422764Y-86567793D01*
X136319994Y-86522416D01*
X136319986Y-86522413D01*
X136307326Y-86520945D01*
X136235624Y-86492529D01*
X136187735Y-86432069D01*
X136175500Y-86372938D01*
X136175500Y-85675075D01*
X136195462Y-85600575D01*
X136229978Y-85559894D01*
X136246410Y-85546410D01*
X136377685Y-85386450D01*
X136475232Y-85203954D01*
X136535300Y-85005934D01*
X136555583Y-84800000D01*
X136535300Y-84594066D01*
X136530677Y-84578827D01*
X136495684Y-84463467D01*
X136475232Y-84396046D01*
X136471484Y-84389034D01*
X136377689Y-84213557D01*
X136377687Y-84213555D01*
X136377685Y-84213550D01*
X136246410Y-84053590D01*
X136225623Y-84036531D01*
X136133176Y-83960662D01*
X136086450Y-83922315D01*
X136086446Y-83922313D01*
X136086442Y-83922310D01*
X135903955Y-83824768D01*
X135705936Y-83764700D01*
X135705937Y-83764700D01*
X135500000Y-83744417D01*
X135294062Y-83764700D01*
X135096044Y-83824768D01*
X134913557Y-83922310D01*
X134913547Y-83922317D01*
X134781507Y-84030679D01*
X134711254Y-84062510D01*
X134686983Y-84064500D01*
X131525076Y-84064500D01*
X131450576Y-84044538D01*
X131409897Y-84010024D01*
X131396410Y-83993590D01*
X131396409Y-83993589D01*
X131309561Y-83922315D01*
X131236450Y-83862315D01*
X131236446Y-83862313D01*
X131236442Y-83862310D01*
X131053955Y-83764768D01*
X130855936Y-83704700D01*
X130855937Y-83704700D01*
X130650000Y-83684417D01*
X130444062Y-83704700D01*
X130246044Y-83764768D01*
X130063557Y-83862310D01*
X130063547Y-83862317D01*
X129903590Y-83993589D01*
X129903589Y-83993590D01*
X129772317Y-84153547D01*
X129772310Y-84153557D01*
X129674768Y-84336044D01*
X129614700Y-84534062D01*
X129594417Y-84740000D01*
X128725301Y-84740000D01*
X127719141Y-83733840D01*
X127680577Y-83667045D01*
X127675500Y-83628481D01*
X127675500Y-77799147D01*
X127695462Y-77724647D01*
X127724120Y-77689034D01*
X127726378Y-77686976D01*
X127816764Y-77604579D01*
X127939673Y-77441821D01*
X128030582Y-77259250D01*
X128032188Y-77253607D01*
X128071775Y-77187414D01*
X128139156Y-77149883D01*
X128216275Y-77151070D01*
X128282468Y-77190657D01*
X128319999Y-77258038D01*
X128324500Y-77294382D01*
X128324500Y-81516531D01*
X128343994Y-81614538D01*
X128350459Y-81647036D01*
X128355829Y-81660000D01*
X128401377Y-81769964D01*
X128401382Y-81769973D01*
X128435594Y-81821174D01*
X128475305Y-81880606D01*
X129319394Y-82724695D01*
X129430031Y-82798620D01*
X129552964Y-82849540D01*
X129683469Y-82875500D01*
X129774924Y-82875500D01*
X129849424Y-82895462D01*
X129890103Y-82929976D01*
X129903590Y-82946410D01*
X130063550Y-83077685D01*
X130063555Y-83077687D01*
X130063557Y-83077689D01*
X130211781Y-83156917D01*
X130246046Y-83175232D01*
X130444063Y-83235299D01*
X130444066Y-83235300D01*
X130650000Y-83255583D01*
X130855934Y-83235300D01*
X131053954Y-83175232D01*
X131236450Y-83077685D01*
X131396410Y-82946410D01*
X131527685Y-82786450D01*
X131625232Y-82603954D01*
X131685300Y-82405934D01*
X131705583Y-82200000D01*
X131685300Y-81994066D01*
X131625232Y-81796046D01*
X131611296Y-81769973D01*
X131527689Y-81613557D01*
X131527687Y-81613555D01*
X131527685Y-81613550D01*
X131396410Y-81453590D01*
X131365251Y-81428019D01*
X131309561Y-81382315D01*
X131236450Y-81322315D01*
X131236446Y-81322313D01*
X131236442Y-81322310D01*
X131053955Y-81224768D01*
X130855936Y-81164700D01*
X130855937Y-81164700D01*
X130650000Y-81144417D01*
X130444062Y-81164700D01*
X130246044Y-81224768D01*
X130063552Y-81322313D01*
X130038353Y-81342993D01*
X129968099Y-81374822D01*
X129891342Y-81367261D01*
X129838472Y-81333171D01*
X129719141Y-81213840D01*
X129680577Y-81147045D01*
X129675500Y-81108481D01*
X129675500Y-80856945D01*
X129695462Y-80782445D01*
X129750000Y-80727907D01*
X129824500Y-80707945D01*
X129841671Y-80708938D01*
X129855135Y-80710500D01*
X131444864Y-80710499D01*
X131444866Y-80710499D01*
X131458324Y-80708938D01*
X131469991Y-80707585D01*
X131572765Y-80662206D01*
X131652206Y-80582765D01*
X131697585Y-80479991D01*
X131700500Y-80454865D01*
X131700499Y-78865136D01*
X131697585Y-78840009D01*
X131652206Y-78737235D01*
X131572765Y-78657794D01*
X131572764Y-78657793D01*
X131469994Y-78612416D01*
X131469986Y-78612413D01*
X131457326Y-78610945D01*
X131385624Y-78582529D01*
X131337735Y-78522069D01*
X131325500Y-78462938D01*
X131325500Y-78241518D01*
X131345462Y-78167018D01*
X131369138Y-78136162D01*
X131461160Y-78044139D01*
X131527955Y-78005576D01*
X131566519Y-78000499D01*
X132394867Y-78000499D01*
X132409940Y-77998750D01*
X132419991Y-77997585D01*
X132522765Y-77952206D01*
X132602206Y-77872765D01*
X132647585Y-77769991D01*
X132650500Y-77744865D01*
X132650499Y-76155136D01*
X132647585Y-76130009D01*
X132602206Y-76027235D01*
X132522765Y-75947794D01*
X132522764Y-75947793D01*
X132419994Y-75902416D01*
X132419986Y-75902413D01*
X132407326Y-75900945D01*
X132335624Y-75872529D01*
X132287735Y-75812069D01*
X132275500Y-75752938D01*
X132275500Y-75285075D01*
X132295462Y-75210575D01*
X132329978Y-75169894D01*
X132346410Y-75156410D01*
X132359897Y-75139976D01*
X132422590Y-75095050D01*
X132475076Y-75085500D01*
X135524924Y-75085500D01*
X135599424Y-75105462D01*
X135640103Y-75139976D01*
X135653590Y-75156410D01*
X135813550Y-75287685D01*
X135813555Y-75287687D01*
X135813557Y-75287689D01*
X135923483Y-75346446D01*
X135996046Y-75385232D01*
X136194063Y-75445299D01*
X136194066Y-75445300D01*
X136400000Y-75465583D01*
X136605934Y-75445300D01*
X136803954Y-75385232D01*
X136986450Y-75287685D01*
X137130976Y-75169075D01*
X137201229Y-75137245D01*
X137277986Y-75144805D01*
X137340679Y-75189731D01*
X137372510Y-75259984D01*
X137374500Y-75284255D01*
X137374500Y-75753054D01*
X137354538Y-75827554D01*
X137300000Y-75882092D01*
X137225500Y-75902054D01*
X137208337Y-75901062D01*
X137194866Y-75899500D01*
X135605133Y-75899500D01*
X135580010Y-75902414D01*
X135580007Y-75902415D01*
X135477235Y-75947793D01*
X135397793Y-76027235D01*
X135352416Y-76130005D01*
X135352415Y-76130008D01*
X135352415Y-76130009D01*
X135349500Y-76155135D01*
X135349500Y-76155136D01*
X135349500Y-76155140D01*
X135349500Y-77433480D01*
X135329538Y-77507980D01*
X135305859Y-77538839D01*
X134975308Y-77869390D01*
X134975304Y-77869395D01*
X134901382Y-77980026D01*
X134901377Y-77980035D01*
X134850459Y-78102963D01*
X134850458Y-78102965D01*
X134826629Y-78222766D01*
X134824500Y-78233468D01*
X134824500Y-78522938D01*
X134804538Y-78597438D01*
X134750000Y-78651976D01*
X134692671Y-78670945D01*
X134680014Y-78672413D01*
X134680007Y-78672415D01*
X134577235Y-78717793D01*
X134497793Y-78797235D01*
X134452416Y-78900005D01*
X134452415Y-78900008D01*
X134452415Y-78900009D01*
X134449500Y-78925135D01*
X134449500Y-78925136D01*
X134449500Y-78925140D01*
X134449500Y-80514866D01*
X134452414Y-80539989D01*
X134452415Y-80539992D01*
X134497793Y-80642764D01*
X134497794Y-80642765D01*
X134577235Y-80722206D01*
X134680009Y-80767585D01*
X134705135Y-80770500D01*
X135293110Y-80770499D01*
X135322180Y-80773362D01*
X135433469Y-80795500D01*
X135433473Y-80795500D01*
X135566527Y-80795500D01*
X135566531Y-80795500D01*
X135677820Y-80773361D01*
X135706890Y-80770499D01*
X135714482Y-80770499D01*
X135788982Y-80790461D01*
X135843520Y-80844999D01*
X135863482Y-80919499D01*
X135843520Y-80993999D01*
X135819841Y-81024858D01*
X135769394Y-81075305D01*
X135769393Y-81075305D01*
X135677534Y-81167163D01*
X135610739Y-81205727D01*
X135557573Y-81210087D01*
X135500001Y-81204417D01*
X135500000Y-81204417D01*
X135486700Y-81205727D01*
X135294062Y-81224700D01*
X135096044Y-81284768D01*
X134913557Y-81382310D01*
X134913547Y-81382317D01*
X134753590Y-81513589D01*
X134753589Y-81513590D01*
X134622317Y-81673547D01*
X134622310Y-81673557D01*
X134524768Y-81856044D01*
X134464700Y-82054062D01*
X134444417Y-82260000D01*
X134464700Y-82465937D01*
X134524768Y-82663955D01*
X134622310Y-82846442D01*
X134622313Y-82846446D01*
X134622315Y-82846450D01*
X134622317Y-82846452D01*
X134730421Y-82978179D01*
X134753590Y-83006410D01*
X134913550Y-83137685D01*
X134913555Y-83137687D01*
X134913557Y-83137689D01*
X135096044Y-83235231D01*
X135096046Y-83235232D01*
X135294063Y-83295299D01*
X135294066Y-83295300D01*
X135500000Y-83315583D01*
X135705934Y-83295300D01*
X135903954Y-83235232D01*
X136086450Y-83137685D01*
X136246410Y-83006410D01*
X136377685Y-82846450D01*
X136475232Y-82663954D01*
X136535300Y-82465934D01*
X136555583Y-82260000D01*
X136555582Y-82259993D01*
X136556005Y-82255703D01*
X136583174Y-82183518D01*
X136642794Y-82134588D01*
X136718892Y-82122024D01*
X136791077Y-82149193D01*
X136809647Y-82164948D01*
X139410859Y-84766160D01*
X139449423Y-84832955D01*
X139454500Y-84871519D01*
X139454500Y-89020852D01*
X139434538Y-89095352D01*
X139405880Y-89130964D01*
X139346145Y-89185421D01*
X139313234Y-89215423D01*
X139190328Y-89378176D01*
X139099416Y-89560754D01*
X139043602Y-89756921D01*
X139024785Y-89959995D01*
X139024785Y-89960004D01*
X139043602Y-90163078D01*
X139099416Y-90359245D01*
X139099417Y-90359247D01*
X139099418Y-90359250D01*
X139190327Y-90541821D01*
X139190328Y-90541823D01*
X139271174Y-90648880D01*
X139313236Y-90704579D01*
X139461760Y-90839976D01*
X139463958Y-90841980D01*
X139463963Y-90841984D01*
X139637356Y-90949344D01*
X139637367Y-90949350D01*
X139736315Y-90987682D01*
X139827544Y-91023024D01*
X140028024Y-91060500D01*
X140028027Y-91060500D01*
X140231973Y-91060500D01*
X140231976Y-91060500D01*
X140432456Y-91023024D01*
X140622637Y-90949348D01*
X140796041Y-90841981D01*
X140946764Y-90704579D01*
X141069673Y-90541821D01*
X141160582Y-90359250D01*
X141216397Y-90163083D01*
X141223984Y-90081198D01*
X141235146Y-89960752D01*
X141261897Y-89888412D01*
X141321234Y-89839139D01*
X141383510Y-89825500D01*
X142176490Y-89825500D01*
X142250990Y-89845462D01*
X142305528Y-89900000D01*
X142324854Y-89960752D01*
X142343602Y-90163078D01*
X142399416Y-90359245D01*
X142399417Y-90359247D01*
X142399418Y-90359250D01*
X142490327Y-90541821D01*
X142490328Y-90541823D01*
X142571174Y-90648880D01*
X142613236Y-90704579D01*
X142761760Y-90839976D01*
X142763958Y-90841980D01*
X142763963Y-90841984D01*
X142937356Y-90949344D01*
X142937367Y-90949350D01*
X143036315Y-90987682D01*
X143127544Y-91023024D01*
X143229998Y-91042175D01*
X143299560Y-91075486D01*
X143307978Y-91083279D01*
X144549394Y-92324695D01*
X144660031Y-92398620D01*
X144782964Y-92449540D01*
X144913469Y-92475500D01*
X144913473Y-92475500D01*
X157946531Y-92475500D01*
X158077036Y-92449541D01*
X158199969Y-92398620D01*
X158310606Y-92324695D01*
X160754695Y-89880606D01*
X160828620Y-89769969D01*
X160879541Y-89647036D01*
X160905500Y-89516531D01*
X160905500Y-89383469D01*
X160905500Y-87834839D01*
X160896238Y-87788280D01*
X160888363Y-87748687D01*
X160885500Y-87719618D01*
X160885500Y-87689147D01*
X160905462Y-87614647D01*
X160934120Y-87579034D01*
X160946203Y-87568019D01*
X161026764Y-87494579D01*
X161149673Y-87331821D01*
X161240582Y-87149250D01*
X161296397Y-86953083D01*
X161306851Y-86840259D01*
X161315215Y-86750004D01*
X161315215Y-86749995D01*
X161304760Y-86637176D01*
X161296397Y-86546917D01*
X161240582Y-86350750D01*
X161149673Y-86168179D01*
X161026764Y-86005421D01*
X160876041Y-85868019D01*
X160876036Y-85868015D01*
X160702643Y-85760655D01*
X160702632Y-85760649D01*
X160512462Y-85686978D01*
X160512458Y-85686977D01*
X160512456Y-85686976D01*
X160472360Y-85679480D01*
X160311980Y-85649500D01*
X160311976Y-85649500D01*
X160108024Y-85649500D01*
X160108019Y-85649500D01*
X159907544Y-85686976D01*
X159907537Y-85686978D01*
X159717367Y-85760649D01*
X159717356Y-85760655D01*
X159543963Y-85868015D01*
X159543958Y-85868019D01*
X159393234Y-86005423D01*
X159270328Y-86168176D01*
X159179416Y-86350754D01*
X159123602Y-86546921D01*
X159104785Y-86749995D01*
X159104785Y-86750004D01*
X159123602Y-86953078D01*
X159179416Y-87149245D01*
X159179417Y-87149247D01*
X159179418Y-87149250D01*
X159216506Y-87223733D01*
X159270328Y-87331823D01*
X159367618Y-87460655D01*
X159393236Y-87494579D01*
X159473792Y-87568015D01*
X159485880Y-87579034D01*
X159527488Y-87643976D01*
X159534500Y-87689147D01*
X159534500Y-87814839D01*
X159534500Y-87947901D01*
X159546924Y-88010359D01*
X159551637Y-88034053D01*
X159554500Y-88063122D01*
X159554500Y-89108481D01*
X159534538Y-89182981D01*
X159510859Y-89213840D01*
X157643840Y-91080859D01*
X157577045Y-91119423D01*
X157538481Y-91124500D01*
X147584986Y-91124500D01*
X147510486Y-91104538D01*
X147455948Y-91050000D01*
X147435986Y-90975500D01*
X147455948Y-90901000D01*
X147506548Y-90848818D01*
X147566036Y-90811984D01*
X147566035Y-90811984D01*
X147566041Y-90811981D01*
X147716764Y-90674579D01*
X147839673Y-90511821D01*
X147930582Y-90329250D01*
X147986397Y-90133083D01*
X147998158Y-90006156D01*
X148005215Y-89930003D01*
X148005215Y-89929997D01*
X147998955Y-89862447D01*
X148011957Y-89786423D01*
X148041957Y-89743342D01*
X148616160Y-89169141D01*
X148682955Y-89130577D01*
X148721519Y-89125500D01*
X148876877Y-89125500D01*
X148951377Y-89145462D01*
X148995781Y-89184707D01*
X149003236Y-89194579D01*
X149124797Y-89305396D01*
X149153958Y-89331980D01*
X149153963Y-89331984D01*
X149327356Y-89439344D01*
X149327367Y-89439350D01*
X149443332Y-89484274D01*
X149517544Y-89513024D01*
X149718024Y-89550500D01*
X149718027Y-89550500D01*
X149921973Y-89550500D01*
X149921976Y-89550500D01*
X150122456Y-89513024D01*
X150312637Y-89439348D01*
X150486041Y-89331981D01*
X150636764Y-89194579D01*
X150759673Y-89031821D01*
X150850582Y-88849250D01*
X150906397Y-88653083D01*
X150925215Y-88450000D01*
X150923418Y-88430609D01*
X150913166Y-88319969D01*
X150906397Y-88246917D01*
X150893048Y-88199999D01*
X156161127Y-88199999D01*
X156161128Y-88200000D01*
X157124314Y-88200000D01*
X157119920Y-88204394D01*
X157067259Y-88295606D01*
X157040000Y-88397339D01*
X157040000Y-88502661D01*
X157067259Y-88604394D01*
X157119920Y-88695606D01*
X157124314Y-88700000D01*
X156161128Y-88700000D01*
X156213732Y-88896323D01*
X156213733Y-88896325D01*
X156309862Y-89102477D01*
X156309865Y-89102482D01*
X156440339Y-89288817D01*
X156601182Y-89449660D01*
X156787517Y-89580134D01*
X156787522Y-89580137D01*
X156993674Y-89676266D01*
X156993676Y-89676267D01*
X157189999Y-89728872D01*
X157190000Y-89728871D01*
X157190000Y-88765686D01*
X157194394Y-88770080D01*
X157285606Y-88822741D01*
X157387339Y-88850000D01*
X157492661Y-88850000D01*
X157594394Y-88822741D01*
X157685606Y-88770080D01*
X157690000Y-88765686D01*
X157690000Y-89728872D01*
X157886323Y-89676267D01*
X157886325Y-89676266D01*
X158092477Y-89580137D01*
X158092482Y-89580134D01*
X158278817Y-89449660D01*
X158439660Y-89288817D01*
X158570134Y-89102482D01*
X158570137Y-89102477D01*
X158666266Y-88896325D01*
X158666267Y-88896323D01*
X158718872Y-88700000D01*
X157755686Y-88700000D01*
X157760080Y-88695606D01*
X157812741Y-88604394D01*
X157840000Y-88502661D01*
X157840000Y-88397339D01*
X157812741Y-88295606D01*
X157760080Y-88204394D01*
X157755686Y-88200000D01*
X158718872Y-88200000D01*
X158718872Y-88199999D01*
X158666267Y-88003676D01*
X158666266Y-88003674D01*
X158570137Y-87797522D01*
X158570134Y-87797517D01*
X158439660Y-87611182D01*
X158278817Y-87450339D01*
X158092482Y-87319865D01*
X158092477Y-87319862D01*
X157886325Y-87223733D01*
X157690000Y-87171127D01*
X157690000Y-88134314D01*
X157685606Y-88129920D01*
X157594394Y-88077259D01*
X157492661Y-88050000D01*
X157387339Y-88050000D01*
X157285606Y-88077259D01*
X157194394Y-88129920D01*
X157190000Y-88134314D01*
X157190000Y-87171127D01*
X156993674Y-87223733D01*
X156787522Y-87319862D01*
X156787517Y-87319865D01*
X156601182Y-87450339D01*
X156440339Y-87611182D01*
X156309865Y-87797517D01*
X156309862Y-87797522D01*
X156213733Y-88003674D01*
X156213732Y-88003676D01*
X156161127Y-88199999D01*
X150893048Y-88199999D01*
X150850582Y-88050750D01*
X150759673Y-87868179D01*
X150746322Y-87850500D01*
X150662381Y-87739344D01*
X150636764Y-87705421D01*
X150486041Y-87568019D01*
X150486036Y-87568015D01*
X150312643Y-87460655D01*
X150312632Y-87460649D01*
X150122462Y-87386978D01*
X150122458Y-87386977D01*
X150122456Y-87386976D01*
X150082360Y-87379480D01*
X149921980Y-87349500D01*
X149921976Y-87349500D01*
X149718024Y-87349500D01*
X149718019Y-87349500D01*
X149517544Y-87386976D01*
X149517537Y-87386978D01*
X149327367Y-87460649D01*
X149327356Y-87460655D01*
X149153963Y-87568015D01*
X149153958Y-87568019D01*
X149003234Y-87705423D01*
X148995782Y-87715292D01*
X148934956Y-87762715D01*
X148876877Y-87774500D01*
X148313465Y-87774500D01*
X148182964Y-87800459D01*
X148182962Y-87800460D01*
X148060039Y-87851376D01*
X148060033Y-87851378D01*
X148060031Y-87851380D01*
X148060028Y-87851381D01*
X148060026Y-87851383D01*
X147949395Y-87925304D01*
X147949390Y-87925308D01*
X147088839Y-88785859D01*
X147022044Y-88824423D01*
X146983480Y-88829500D01*
X146798019Y-88829500D01*
X146597544Y-88866976D01*
X146597537Y-88866978D01*
X146407367Y-88940649D01*
X146407356Y-88940655D01*
X146233963Y-89048015D01*
X146233958Y-89048019D01*
X146083234Y-89185423D01*
X145960328Y-89348176D01*
X145869416Y-89530754D01*
X145813602Y-89726921D01*
X145794785Y-89929995D01*
X145794785Y-89930004D01*
X145813602Y-90133078D01*
X145813602Y-90133080D01*
X145813603Y-90133083D01*
X145822139Y-90163083D01*
X145869416Y-90329245D01*
X145869417Y-90329247D01*
X145869418Y-90329250D01*
X145902018Y-90394720D01*
X145960328Y-90511823D01*
X145982982Y-90541821D01*
X146083236Y-90674579D01*
X146204911Y-90785500D01*
X146233958Y-90811980D01*
X146233963Y-90811984D01*
X146293452Y-90848818D01*
X146346285Y-90905009D01*
X146363943Y-90980088D01*
X146341696Y-91053938D01*
X146285505Y-91106771D01*
X146215014Y-91124500D01*
X145321519Y-91124500D01*
X145247019Y-91104538D01*
X145216160Y-91080859D01*
X144530021Y-90394720D01*
X144491457Y-90327925D01*
X144491457Y-90250797D01*
X144492045Y-90248667D01*
X144516397Y-90163083D01*
X144522719Y-90094859D01*
X144535215Y-89960004D01*
X144535215Y-89959995D01*
X144522752Y-89825500D01*
X144516397Y-89756917D01*
X144460582Y-89560750D01*
X144369673Y-89378179D01*
X144246764Y-89215421D01*
X144142469Y-89120343D01*
X144100863Y-89055403D01*
X144096714Y-89039302D01*
X144095226Y-89031823D01*
X144079540Y-88952964D01*
X144028620Y-88830031D01*
X143954695Y-88719394D01*
X143860606Y-88625305D01*
X143749969Y-88551380D01*
X143749962Y-88551377D01*
X143749960Y-88551376D01*
X143627037Y-88500460D01*
X143627035Y-88500459D01*
X143496534Y-88474500D01*
X143496531Y-88474500D01*
X140954500Y-88474500D01*
X140880000Y-88454538D01*
X140825462Y-88400000D01*
X140805500Y-88325500D01*
X140805500Y-84463467D01*
X140801226Y-84441981D01*
X140796870Y-84420080D01*
X140779541Y-84332964D01*
X140741854Y-84241981D01*
X140735027Y-84225499D01*
X140735027Y-84225498D01*
X140730080Y-84213557D01*
X140728620Y-84210031D01*
X140654695Y-84099394D01*
X140560606Y-84005305D01*
X140232877Y-83677576D01*
X140194313Y-83610781D01*
X140194313Y-83533653D01*
X140232877Y-83466858D01*
X140299672Y-83428294D01*
X140310846Y-83425756D01*
X140432456Y-83403024D01*
X140622637Y-83329348D01*
X140796041Y-83221981D01*
X140946764Y-83084579D01*
X141069673Y-82921821D01*
X141160582Y-82739250D01*
X141216397Y-82543083D01*
X141229105Y-82405937D01*
X141235215Y-82340004D01*
X141235215Y-82339995D01*
X142324785Y-82339995D01*
X142324785Y-82340004D01*
X142343602Y-82543078D01*
X142343602Y-82543080D01*
X142343603Y-82543083D01*
X142364186Y-82615423D01*
X142399416Y-82739245D01*
X142399417Y-82739247D01*
X142399418Y-82739250D01*
X142481223Y-82903538D01*
X142490328Y-82921823D01*
X142559431Y-83013330D01*
X142613236Y-83084579D01*
X142731051Y-83191981D01*
X142763958Y-83221980D01*
X142763963Y-83221984D01*
X142937356Y-83329344D01*
X142937367Y-83329350D01*
X143042286Y-83369995D01*
X143127544Y-83403024D01*
X143328024Y-83440500D01*
X143328027Y-83440500D01*
X143531973Y-83440500D01*
X143531976Y-83440500D01*
X143732456Y-83403024D01*
X143922637Y-83329348D01*
X144096041Y-83221981D01*
X144246764Y-83084579D01*
X144254218Y-83074707D01*
X144315044Y-83027285D01*
X144373123Y-83015500D01*
X145982646Y-83015500D01*
X146057146Y-83035462D01*
X146083027Y-83054388D01*
X146083234Y-83054577D01*
X146083236Y-83054579D01*
X146219305Y-83178622D01*
X146233958Y-83191980D01*
X146233963Y-83191984D01*
X146407356Y-83299344D01*
X146407367Y-83299350D01*
X146509384Y-83338871D01*
X146597544Y-83373024D01*
X146798024Y-83410500D01*
X146798027Y-83410500D01*
X147001973Y-83410500D01*
X147001976Y-83410500D01*
X147202456Y-83373024D01*
X147390954Y-83300000D01*
X147392632Y-83299350D01*
X147392632Y-83299349D01*
X147392637Y-83299348D01*
X147566041Y-83191981D01*
X147716764Y-83054579D01*
X147724218Y-83044707D01*
X147785044Y-82997285D01*
X147843123Y-82985500D01*
X148948481Y-82985500D01*
X149022981Y-83005462D01*
X149053840Y-83029141D01*
X149215305Y-83190606D01*
X150555305Y-84530606D01*
X150649394Y-84624695D01*
X150693281Y-84654019D01*
X150744134Y-84712006D01*
X150759500Y-84777906D01*
X150759500Y-84894867D01*
X150762414Y-84919989D01*
X150762415Y-84919992D01*
X150807793Y-85022764D01*
X150807794Y-85022765D01*
X150887235Y-85102206D01*
X150990009Y-85147585D01*
X151015135Y-85150500D01*
X152604864Y-85150499D01*
X152604866Y-85150499D01*
X152617427Y-85149042D01*
X152629991Y-85147585D01*
X152732765Y-85102206D01*
X152812206Y-85022765D01*
X152857585Y-84919991D01*
X152860500Y-84894865D01*
X152860499Y-83305136D01*
X152859903Y-83300000D01*
X152857585Y-83280010D01*
X152857584Y-83280007D01*
X152831964Y-83221984D01*
X152812206Y-83177235D01*
X152732765Y-83097794D01*
X152732764Y-83097793D01*
X152629994Y-83052416D01*
X152629991Y-83052415D01*
X152604865Y-83049500D01*
X152604859Y-83049500D01*
X151046519Y-83049500D01*
X150972019Y-83029538D01*
X150941160Y-83005859D01*
X149720609Y-81785308D01*
X149720606Y-81785305D01*
X149653441Y-81740427D01*
X149609973Y-81711382D01*
X149609964Y-81711377D01*
X149512494Y-81671004D01*
X149487036Y-81660459D01*
X149487034Y-81660458D01*
X149487033Y-81660458D01*
X149356531Y-81634500D01*
X147843123Y-81634500D01*
X147768623Y-81614538D01*
X147724218Y-81575292D01*
X147716764Y-81565421D01*
X147566041Y-81428019D01*
X147566036Y-81428015D01*
X147392643Y-81320655D01*
X147392632Y-81320649D01*
X147202462Y-81246978D01*
X147202458Y-81246977D01*
X147202456Y-81246976D01*
X147162360Y-81239480D01*
X147001980Y-81209500D01*
X147001976Y-81209500D01*
X146798024Y-81209500D01*
X146798019Y-81209500D01*
X146597544Y-81246976D01*
X146597537Y-81246978D01*
X146407367Y-81320649D01*
X146407356Y-81320655D01*
X146233963Y-81428015D01*
X146233958Y-81428019D01*
X146083237Y-81565419D01*
X146083236Y-81565420D01*
X146053127Y-81605292D01*
X145992300Y-81652715D01*
X145934222Y-81664500D01*
X144373123Y-81664500D01*
X144298623Y-81644538D01*
X144254218Y-81605292D01*
X144246764Y-81595421D01*
X144096041Y-81458019D01*
X144096036Y-81458015D01*
X143922643Y-81350655D01*
X143922632Y-81350649D01*
X143732462Y-81276978D01*
X143732458Y-81276977D01*
X143732456Y-81276976D01*
X143692360Y-81269480D01*
X143531980Y-81239500D01*
X143531976Y-81239500D01*
X143328024Y-81239500D01*
X143328019Y-81239500D01*
X143127544Y-81276976D01*
X143127537Y-81276978D01*
X142937367Y-81350649D01*
X142937356Y-81350655D01*
X142763963Y-81458015D01*
X142763958Y-81458019D01*
X142646147Y-81565419D01*
X142635317Y-81575292D01*
X142613234Y-81595423D01*
X142490328Y-81758176D01*
X142399416Y-81940754D01*
X142362646Y-82069989D01*
X142347841Y-82122024D01*
X142343602Y-82136921D01*
X142324785Y-82339995D01*
X141235215Y-82339995D01*
X141219719Y-82172765D01*
X141216397Y-82136917D01*
X141160582Y-81940750D01*
X141069673Y-81758179D01*
X141056268Y-81740427D01*
X140946762Y-81595418D01*
X140938163Y-81587579D01*
X140896557Y-81522635D01*
X140892998Y-81445589D01*
X140928438Y-81377086D01*
X140933165Y-81372134D01*
X142326160Y-79979141D01*
X142392955Y-79940577D01*
X142431519Y-79935500D01*
X143004584Y-79935500D01*
X143079084Y-79955462D01*
X143104964Y-79974387D01*
X143233959Y-80091981D01*
X143233961Y-80091982D01*
X143233963Y-80091984D01*
X143407356Y-80199344D01*
X143407367Y-80199350D01*
X143479343Y-80227233D01*
X143597544Y-80273024D01*
X143798024Y-80310500D01*
X143798027Y-80310500D01*
X144001973Y-80310500D01*
X144001976Y-80310500D01*
X144202456Y-80273024D01*
X144392637Y-80199348D01*
X144566041Y-80091981D01*
X144716764Y-79954579D01*
X144839673Y-79791821D01*
X144930582Y-79609250D01*
X144986397Y-79413083D01*
X145005215Y-79210000D01*
X144999585Y-79149245D01*
X144992242Y-79069992D01*
X144986397Y-79006917D01*
X144930582Y-78810750D01*
X144839673Y-78628179D01*
X144827769Y-78612416D01*
X144778307Y-78546917D01*
X144716764Y-78465421D01*
X144566041Y-78328019D01*
X144566036Y-78328015D01*
X144392643Y-78220655D01*
X144392632Y-78220649D01*
X144202462Y-78146978D01*
X144202458Y-78146977D01*
X144202456Y-78146976D01*
X144144590Y-78136159D01*
X144001980Y-78109500D01*
X144001976Y-78109500D01*
X143798024Y-78109500D01*
X143798019Y-78109500D01*
X143597544Y-78146976D01*
X143597537Y-78146978D01*
X143407367Y-78220649D01*
X143407356Y-78220655D01*
X143233963Y-78328015D01*
X143233958Y-78328019D01*
X143138193Y-78415321D01*
X143083236Y-78465421D01*
X143039802Y-78522938D01*
X143038024Y-78525292D01*
X142977198Y-78572715D01*
X142919119Y-78584500D01*
X142023469Y-78584500D01*
X141892965Y-78610458D01*
X141892963Y-78610459D01*
X141819775Y-78640774D01*
X141819776Y-78640775D01*
X141770033Y-78661379D01*
X141770026Y-78661383D01*
X141675274Y-78724693D01*
X141675273Y-78724695D01*
X141669957Y-78728246D01*
X141659393Y-78735305D01*
X139605308Y-80789390D01*
X139605304Y-80789395D01*
X139531382Y-80900026D01*
X139531377Y-80900035D01*
X139480458Y-81022966D01*
X139459162Y-81130031D01*
X139454500Y-81153468D01*
X139454500Y-81400852D01*
X139434538Y-81475352D01*
X139405880Y-81510964D01*
X139335317Y-81575292D01*
X139313234Y-81595423D01*
X139190328Y-81758176D01*
X139099416Y-81940754D01*
X139043602Y-82136920D01*
X139043089Y-82142458D01*
X139016336Y-82214798D01*
X138956997Y-82264069D01*
X138880973Y-82277070D01*
X138808633Y-82250317D01*
X138789366Y-82234065D01*
X137760659Y-81205358D01*
X137722095Y-81138563D01*
X137722095Y-81061435D01*
X137760656Y-80994644D01*
X140361160Y-78394139D01*
X140427955Y-78355576D01*
X140466519Y-78350499D01*
X141094867Y-78350499D01*
X141109940Y-78348750D01*
X141119991Y-78347585D01*
X141222765Y-78302206D01*
X141302206Y-78222765D01*
X141347585Y-78119991D01*
X141350500Y-78094865D01*
X141350499Y-77466518D01*
X141370461Y-77392019D01*
X141394140Y-77361160D01*
X141460918Y-77294382D01*
X141574695Y-77180606D01*
X141648620Y-77069969D01*
X141699541Y-76947036D01*
X141725500Y-76816531D01*
X141725500Y-76683469D01*
X141725500Y-74882949D01*
X141745462Y-74808449D01*
X141755596Y-74793156D01*
X141839673Y-74681821D01*
X141930582Y-74499250D01*
X141986397Y-74303083D01*
X142002478Y-74129538D01*
X142005215Y-74100004D01*
X142005215Y-74099995D01*
X141986397Y-73896921D01*
X141986397Y-73896917D01*
X141930582Y-73700750D01*
X141839673Y-73518179D01*
X141716764Y-73355421D01*
X141566041Y-73218019D01*
X141566036Y-73218015D01*
X141392643Y-73110655D01*
X141392632Y-73110649D01*
X141202462Y-73036978D01*
X141202458Y-73036977D01*
X141202456Y-73036976D01*
X141162360Y-73029480D01*
X141001980Y-72999500D01*
X141001976Y-72999500D01*
X140798024Y-72999500D01*
X140798019Y-72999500D01*
X140597544Y-73036976D01*
X140597537Y-73036978D01*
X140407367Y-73110649D01*
X140407356Y-73110655D01*
X140233963Y-73218015D01*
X140233958Y-73218019D01*
X140114636Y-73326796D01*
X140084338Y-73354417D01*
X140083234Y-73355423D01*
X140075782Y-73365292D01*
X140014956Y-73412715D01*
X139956877Y-73424500D01*
X139924500Y-73424500D01*
X139850000Y-73404538D01*
X139795462Y-73350000D01*
X139775500Y-73275500D01*
X139775500Y-72381626D01*
X139795462Y-72307126D01*
X139850000Y-72252588D01*
X139924500Y-72232626D01*
X139999000Y-72252588D01*
X140043404Y-72291833D01*
X140083236Y-72344579D01*
X140222990Y-72471981D01*
X140233957Y-72481979D01*
X140233963Y-72481984D01*
X140407356Y-72589344D01*
X140407367Y-72589350D01*
X140523332Y-72634274D01*
X140597544Y-72663024D01*
X140798024Y-72700500D01*
X140798027Y-72700500D01*
X141001973Y-72700500D01*
X141001976Y-72700500D01*
X141202456Y-72663024D01*
X141392637Y-72589348D01*
X141566041Y-72481981D01*
X141706004Y-72354387D01*
X141774509Y-72318950D01*
X141806385Y-72315500D01*
X143004584Y-72315500D01*
X143079084Y-72335462D01*
X143104964Y-72354387D01*
X143122593Y-72370458D01*
X143233959Y-72471981D01*
X143233961Y-72471982D01*
X143233963Y-72471984D01*
X143407356Y-72579344D01*
X143407367Y-72579350D01*
X143503029Y-72616409D01*
X143597544Y-72653024D01*
X143798024Y-72690500D01*
X143798027Y-72690500D01*
X144001973Y-72690500D01*
X144001976Y-72690500D01*
X144202456Y-72653024D01*
X144392637Y-72579348D01*
X144566041Y-72471981D01*
X144716764Y-72334579D01*
X144839673Y-72171821D01*
X144930582Y-71989250D01*
X144986397Y-71793083D01*
X145003189Y-71611868D01*
X145005215Y-71590004D01*
X145005215Y-71589995D01*
X144992528Y-71453083D01*
X144986397Y-71386917D01*
X144930582Y-71190750D01*
X144839673Y-71008179D01*
X144819768Y-70981821D01*
X144757980Y-70900000D01*
X144716764Y-70845421D01*
X144566041Y-70708019D01*
X144566036Y-70708015D01*
X144392643Y-70600655D01*
X144392632Y-70600649D01*
X144202462Y-70526978D01*
X144202458Y-70526977D01*
X144202456Y-70526976D01*
X144128991Y-70513243D01*
X144001980Y-70489500D01*
X144001976Y-70489500D01*
X143798024Y-70489500D01*
X143798019Y-70489500D01*
X143597544Y-70526976D01*
X143597537Y-70526978D01*
X143407367Y-70600649D01*
X143407356Y-70600655D01*
X143233963Y-70708015D01*
X143233958Y-70708019D01*
X143133889Y-70799245D01*
X143085504Y-70843354D01*
X143083234Y-70845423D01*
X143075684Y-70855421D01*
X143042022Y-70899998D01*
X143038024Y-70905292D01*
X142977198Y-70952715D01*
X142919119Y-70964500D01*
X142224500Y-70964500D01*
X142150000Y-70944538D01*
X142095462Y-70890000D01*
X142075500Y-70815500D01*
X142075500Y-68369999D01*
X142471127Y-68369999D01*
X142471128Y-68370000D01*
X143434314Y-68370000D01*
X143429920Y-68374394D01*
X143377259Y-68465606D01*
X143350000Y-68567339D01*
X143350000Y-68672661D01*
X143377259Y-68774394D01*
X143429920Y-68865606D01*
X143434314Y-68870000D01*
X142471128Y-68870000D01*
X142523732Y-69066323D01*
X142523733Y-69066325D01*
X142619862Y-69272477D01*
X142619865Y-69272482D01*
X142750339Y-69458817D01*
X142911182Y-69619660D01*
X143097517Y-69750134D01*
X143097522Y-69750137D01*
X143303674Y-69846266D01*
X143303676Y-69846267D01*
X143499999Y-69898872D01*
X143500000Y-69898871D01*
X143500000Y-68935686D01*
X143504394Y-68940080D01*
X143595606Y-68992741D01*
X143697339Y-69020000D01*
X143802661Y-69020000D01*
X143904394Y-68992741D01*
X143995606Y-68940080D01*
X144000000Y-68935686D01*
X144000000Y-69898872D01*
X144196323Y-69846267D01*
X144196325Y-69846266D01*
X144402477Y-69750137D01*
X144402482Y-69750134D01*
X144588817Y-69619660D01*
X144749660Y-69458817D01*
X144880134Y-69272482D01*
X144880137Y-69272477D01*
X144976266Y-69066325D01*
X144976267Y-69066323D01*
X145028872Y-68870000D01*
X144065686Y-68870000D01*
X144070080Y-68865606D01*
X144122741Y-68774394D01*
X144150000Y-68672661D01*
X144150000Y-68567339D01*
X144122741Y-68465606D01*
X144070080Y-68374394D01*
X144065686Y-68370000D01*
X145028872Y-68370000D01*
X145028872Y-68369999D01*
X144976267Y-68173676D01*
X144976266Y-68173674D01*
X144880137Y-67967522D01*
X144880134Y-67967517D01*
X144749660Y-67781182D01*
X144588817Y-67620339D01*
X144402482Y-67489865D01*
X144402477Y-67489862D01*
X144196325Y-67393733D01*
X144000000Y-67341127D01*
X144000000Y-68304314D01*
X143995606Y-68299920D01*
X143904394Y-68247259D01*
X143802661Y-68220000D01*
X143697339Y-68220000D01*
X143595606Y-68247259D01*
X143504394Y-68299920D01*
X143500000Y-68304314D01*
X143500000Y-67341127D01*
X143303674Y-67393733D01*
X143097522Y-67489862D01*
X143097517Y-67489865D01*
X142911182Y-67620339D01*
X142750339Y-67781182D01*
X142619865Y-67967517D01*
X142619862Y-67967522D01*
X142523733Y-68173674D01*
X142523732Y-68173676D01*
X142471127Y-68369999D01*
X142075500Y-68369999D01*
X142075500Y-66821519D01*
X142095462Y-66747019D01*
X142119141Y-66716160D01*
X143575306Y-65259995D01*
X145924785Y-65259995D01*
X145924785Y-65260004D01*
X145943602Y-65463078D01*
X145943602Y-65463080D01*
X145943603Y-65463083D01*
X145958785Y-65516440D01*
X145999416Y-65659245D01*
X145999417Y-65659247D01*
X145999418Y-65659250D01*
X146067968Y-65796917D01*
X146090328Y-65841823D01*
X146148922Y-65919414D01*
X146213236Y-66004579D01*
X146363958Y-66141980D01*
X146363963Y-66141984D01*
X146537356Y-66249344D01*
X146537367Y-66249350D01*
X146624139Y-66282965D01*
X146727544Y-66323024D01*
X146928024Y-66360500D01*
X146928027Y-66360500D01*
X147131973Y-66360500D01*
X147131976Y-66360500D01*
X147332456Y-66323024D01*
X147522637Y-66249348D01*
X147696041Y-66141981D01*
X147846764Y-66004579D01*
X147854218Y-65994707D01*
X147915044Y-65947285D01*
X147973123Y-65935500D01*
X148358481Y-65935500D01*
X148432981Y-65955462D01*
X148463840Y-65979141D01*
X148880859Y-66396160D01*
X148919423Y-66462955D01*
X148924500Y-66501519D01*
X148924500Y-66857759D01*
X148904538Y-66932259D01*
X148850000Y-66986797D01*
X148835693Y-66994059D01*
X148827235Y-66997794D01*
X148827233Y-66997795D01*
X148747793Y-67077235D01*
X148702416Y-67180005D01*
X148702415Y-67180008D01*
X148701929Y-67184196D01*
X148699500Y-67205135D01*
X148699500Y-67205136D01*
X148699500Y-67205140D01*
X148699500Y-67683480D01*
X148679538Y-67757980D01*
X148655859Y-67788839D01*
X147188840Y-69255859D01*
X147122045Y-69294423D01*
X147083481Y-69299500D01*
X146998019Y-69299500D01*
X146797544Y-69336976D01*
X146797537Y-69336978D01*
X146607367Y-69410649D01*
X146607356Y-69410655D01*
X146433963Y-69518015D01*
X146433958Y-69518019D01*
X146325896Y-69616531D01*
X146295133Y-69644576D01*
X146283234Y-69655423D01*
X146160328Y-69818176D01*
X146069416Y-70000754D01*
X146022712Y-70164902D01*
X146016432Y-70186976D01*
X146013602Y-70196921D01*
X145994785Y-70399995D01*
X145994785Y-70400004D01*
X146013602Y-70603078D01*
X146013602Y-70603080D01*
X146013603Y-70603083D01*
X146032124Y-70668176D01*
X146069416Y-70799245D01*
X146069417Y-70799247D01*
X146069418Y-70799250D01*
X146130346Y-70921611D01*
X146160328Y-70981823D01*
X146212191Y-71050500D01*
X146283236Y-71144579D01*
X146398882Y-71250004D01*
X146433958Y-71281980D01*
X146433963Y-71281984D01*
X146607356Y-71389344D01*
X146607367Y-71389350D01*
X146706862Y-71427894D01*
X146797544Y-71463024D01*
X146998024Y-71500500D01*
X146998027Y-71500500D01*
X147201973Y-71500500D01*
X147201976Y-71500500D01*
X147402456Y-71463024D01*
X147592637Y-71389348D01*
X147766041Y-71281981D01*
X147916764Y-71144579D01*
X148039673Y-70981821D01*
X148130582Y-70799250D01*
X148186397Y-70603083D01*
X148202432Y-70430039D01*
X148205215Y-70400004D01*
X148205215Y-70399995D01*
X148190475Y-70240926D01*
X148203478Y-70164902D01*
X148233477Y-70121822D01*
X149461160Y-68894140D01*
X149527955Y-68855576D01*
X149566519Y-68850499D01*
X150344867Y-68850499D01*
X150359940Y-68848750D01*
X150369991Y-68847585D01*
X150472765Y-68802206D01*
X150552206Y-68722765D01*
X150597585Y-68619991D01*
X150600500Y-68594865D01*
X150600499Y-67205136D01*
X150599372Y-67195421D01*
X150597588Y-67180039D01*
X150597585Y-67180009D01*
X150555409Y-67084489D01*
X150543578Y-67008274D01*
X150571440Y-66936354D01*
X150586355Y-66918946D01*
X150686161Y-66819141D01*
X150752956Y-66780577D01*
X150791519Y-66775500D01*
X154659481Y-66775500D01*
X154733981Y-66795462D01*
X154788519Y-66850000D01*
X154808481Y-66924500D01*
X154788519Y-66999000D01*
X154764840Y-67029859D01*
X152305308Y-69489390D01*
X152305304Y-69489395D01*
X152231382Y-69600026D01*
X152231377Y-69600035D01*
X152180459Y-69722963D01*
X152180458Y-69722965D01*
X152160102Y-69825305D01*
X152154500Y-69853468D01*
X152154500Y-70430852D01*
X152134538Y-70505352D01*
X152105880Y-70540964D01*
X152029422Y-70610666D01*
X152013234Y-70625423D01*
X151890328Y-70788176D01*
X151799416Y-70970754D01*
X151743602Y-71166921D01*
X151724785Y-71369995D01*
X151724785Y-71370003D01*
X151731044Y-71437551D01*
X151718041Y-71513575D01*
X151688039Y-71556658D01*
X150685308Y-72559390D01*
X150685304Y-72559395D01*
X150611382Y-72670026D01*
X150611377Y-72670035D01*
X150560458Y-72792966D01*
X150539758Y-72897035D01*
X150539758Y-72897036D01*
X150534500Y-72923465D01*
X150534500Y-74310852D01*
X150514538Y-74385352D01*
X150485880Y-74420964D01*
X150420454Y-74480609D01*
X150393234Y-74505423D01*
X150270328Y-74668176D01*
X150179416Y-74850754D01*
X150123602Y-75046921D01*
X150104785Y-75249995D01*
X150104785Y-75250004D01*
X150123602Y-75453078D01*
X150123602Y-75453080D01*
X150123603Y-75453083D01*
X150137812Y-75503021D01*
X150179416Y-75649245D01*
X150179417Y-75649247D01*
X150179418Y-75649250D01*
X150214346Y-75719395D01*
X150270328Y-75831823D01*
X150323636Y-75902414D01*
X150393236Y-75994579D01*
X150478976Y-76072741D01*
X150485880Y-76079034D01*
X150527488Y-76143976D01*
X150534500Y-76189147D01*
X150534500Y-77158481D01*
X150514538Y-77232981D01*
X150490859Y-77263840D01*
X150453840Y-77300859D01*
X150387045Y-77339423D01*
X150348481Y-77344500D01*
X148043123Y-77344500D01*
X147968623Y-77324538D01*
X147924218Y-77285292D01*
X147916764Y-77275421D01*
X147766041Y-77138019D01*
X147766036Y-77138015D01*
X147592643Y-77030655D01*
X147592632Y-77030649D01*
X147402462Y-76956978D01*
X147402458Y-76956977D01*
X147402456Y-76956976D01*
X147362360Y-76949480D01*
X147201980Y-76919500D01*
X147201976Y-76919500D01*
X146998024Y-76919500D01*
X146998019Y-76919500D01*
X146797544Y-76956976D01*
X146797537Y-76956978D01*
X146607367Y-77030649D01*
X146607356Y-77030655D01*
X146433963Y-77138015D01*
X146433958Y-77138019D01*
X146325896Y-77236531D01*
X146284033Y-77274695D01*
X146283234Y-77275423D01*
X146160328Y-77438176D01*
X146069416Y-77620754D01*
X146013602Y-77816921D01*
X145994785Y-78019995D01*
X145994785Y-78020004D01*
X146013602Y-78223078D01*
X146013602Y-78223080D01*
X146013603Y-78223083D01*
X146036116Y-78302206D01*
X146069416Y-78419245D01*
X146069417Y-78419247D01*
X146069418Y-78419250D01*
X146143174Y-78567373D01*
X146160328Y-78601823D01*
X146213637Y-78672415D01*
X146283236Y-78764579D01*
X146431794Y-78900007D01*
X146433958Y-78901980D01*
X146433963Y-78901984D01*
X146607356Y-79009344D01*
X146607367Y-79009350D01*
X146699046Y-79044866D01*
X146797544Y-79083024D01*
X146998024Y-79120500D01*
X146998027Y-79120500D01*
X147201973Y-79120500D01*
X147201976Y-79120500D01*
X147402456Y-79083024D01*
X147592637Y-79009348D01*
X147766041Y-78901981D01*
X147916764Y-78764579D01*
X147924218Y-78754707D01*
X147985044Y-78707285D01*
X148043123Y-78695500D01*
X149963903Y-78695500D01*
X150038403Y-78715462D01*
X150092941Y-78770000D01*
X150112267Y-78830752D01*
X150123602Y-78953078D01*
X150123602Y-78953080D01*
X150123603Y-78953083D01*
X150139355Y-79008446D01*
X150179416Y-79149245D01*
X150179417Y-79149247D01*
X150179418Y-79149250D01*
X150209668Y-79210000D01*
X150270328Y-79331823D01*
X150321467Y-79399541D01*
X150393236Y-79494579D01*
X150543958Y-79631980D01*
X150543963Y-79631984D01*
X150717356Y-79739344D01*
X150717367Y-79739350D01*
X150833332Y-79784274D01*
X150907544Y-79813024D01*
X151108024Y-79850500D01*
X151108027Y-79850500D01*
X151311973Y-79850500D01*
X151311976Y-79850500D01*
X151512456Y-79813024D01*
X151702637Y-79739348D01*
X151876041Y-79631981D01*
X152026764Y-79494579D01*
X152149673Y-79331821D01*
X152240582Y-79149250D01*
X152296397Y-78953083D01*
X152307732Y-78830752D01*
X152315215Y-78750004D01*
X152315215Y-78749995D01*
X152300599Y-78592262D01*
X152296397Y-78546917D01*
X152240582Y-78350750D01*
X152149673Y-78168179D01*
X152148796Y-78167018D01*
X152056003Y-78044140D01*
X152026764Y-78005421D01*
X151934119Y-77920964D01*
X151892511Y-77856021D01*
X151885500Y-77810852D01*
X151885500Y-76189147D01*
X151905462Y-76114647D01*
X151934120Y-76079034D01*
X152026764Y-75994579D01*
X152149673Y-75831821D01*
X152240582Y-75649250D01*
X152296397Y-75453083D01*
X152311723Y-75287685D01*
X152315215Y-75250004D01*
X152315215Y-75249995D01*
X152300599Y-75092262D01*
X152296397Y-75046917D01*
X152240582Y-74850750D01*
X152149673Y-74668179D01*
X152147454Y-74665240D01*
X152136534Y-74650779D01*
X152122502Y-74626258D01*
X152122071Y-74626489D01*
X152118620Y-74620033D01*
X152116277Y-74616526D01*
X152044695Y-74509394D01*
X151950606Y-74415305D01*
X151944945Y-74410659D01*
X151945933Y-74409454D01*
X151900858Y-74358045D01*
X151885500Y-74292159D01*
X151885500Y-73331518D01*
X151905462Y-73257018D01*
X151929137Y-73226163D01*
X152641159Y-72514140D01*
X152707954Y-72475577D01*
X152746518Y-72470500D01*
X152931973Y-72470500D01*
X152931976Y-72470500D01*
X153132456Y-72433024D01*
X153322637Y-72359348D01*
X153496041Y-72251981D01*
X153646764Y-72114579D01*
X153769673Y-71951821D01*
X153860582Y-71769250D01*
X153916397Y-71573083D01*
X153928956Y-71437551D01*
X153935215Y-71370004D01*
X153935215Y-71369995D01*
X153923209Y-71240428D01*
X153916397Y-71166917D01*
X153860582Y-70970750D01*
X153769673Y-70788179D01*
X153646764Y-70625421D01*
X153554119Y-70540964D01*
X153512511Y-70476021D01*
X153505500Y-70430852D01*
X153505500Y-70261519D01*
X153525462Y-70187019D01*
X153549141Y-70156160D01*
X155836160Y-67869141D01*
X155902955Y-67830577D01*
X155941519Y-67825500D01*
X156759481Y-67825500D01*
X156833981Y-67845462D01*
X156888519Y-67900000D01*
X156908481Y-67974500D01*
X156888519Y-68049000D01*
X156864840Y-68079859D01*
X154875308Y-70069390D01*
X154875304Y-70069395D01*
X154801382Y-70180026D01*
X154801377Y-70180035D01*
X154750458Y-70302966D01*
X154730883Y-70401379D01*
X154730883Y-70401380D01*
X154724500Y-70433465D01*
X154724500Y-75866531D01*
X154750458Y-75997033D01*
X154801377Y-76119964D01*
X154801382Y-76119973D01*
X154824880Y-76155140D01*
X154875305Y-76230606D01*
X156075305Y-77430606D01*
X156169394Y-77524695D01*
X156280031Y-77598620D01*
X156402964Y-77649540D01*
X156533469Y-77675500D01*
X157990529Y-77675500D01*
X158065029Y-77695462D01*
X158119567Y-77750000D01*
X158139529Y-77824500D01*
X158119567Y-77899000D01*
X158090910Y-77934612D01*
X158013234Y-78005423D01*
X157890328Y-78168176D01*
X157799416Y-78350754D01*
X157743602Y-78546921D01*
X157724785Y-78749995D01*
X157724785Y-78750004D01*
X157743602Y-78953078D01*
X157743602Y-78953080D01*
X157743603Y-78953083D01*
X157759355Y-79008446D01*
X157799416Y-79149245D01*
X157799417Y-79149247D01*
X157799418Y-79149250D01*
X157829668Y-79210000D01*
X157890328Y-79331823D01*
X157941467Y-79399541D01*
X158013236Y-79494579D01*
X158163958Y-79631980D01*
X158163963Y-79631984D01*
X158337356Y-79739344D01*
X158337367Y-79739350D01*
X158453332Y-79784274D01*
X158527544Y-79813024D01*
X158728024Y-79850500D01*
X158728027Y-79850500D01*
X158931973Y-79850500D01*
X158931976Y-79850500D01*
X159132456Y-79813024D01*
X159322637Y-79739348D01*
X159496041Y-79631981D01*
X159646764Y-79494579D01*
X159654218Y-79484707D01*
X159715044Y-79437285D01*
X159773123Y-79425500D01*
X171216531Y-79425500D01*
X171347036Y-79399541D01*
X171469969Y-79348620D01*
X171580606Y-79274695D01*
X173424695Y-77430606D01*
X173442396Y-77404114D01*
X173498620Y-77319969D01*
X173517373Y-77274695D01*
X173549541Y-77197036D01*
X173575500Y-77066531D01*
X173575500Y-76933469D01*
X173575500Y-75489999D01*
X174021127Y-75489999D01*
X174021128Y-75490000D01*
X174984314Y-75490000D01*
X174979920Y-75494394D01*
X174927259Y-75585606D01*
X174900000Y-75687339D01*
X174900000Y-75792661D01*
X174927259Y-75894394D01*
X174979920Y-75985606D01*
X174984314Y-75990000D01*
X174021128Y-75990000D01*
X174073732Y-76186323D01*
X174073733Y-76186325D01*
X174169862Y-76392477D01*
X174169865Y-76392482D01*
X174300339Y-76578817D01*
X174461182Y-76739660D01*
X174647517Y-76870134D01*
X174647522Y-76870137D01*
X174853674Y-76966266D01*
X174853676Y-76966267D01*
X175049999Y-77018872D01*
X175050000Y-77018871D01*
X175050000Y-76055686D01*
X175054394Y-76060080D01*
X175145606Y-76112741D01*
X175247339Y-76140000D01*
X175352661Y-76140000D01*
X175454394Y-76112741D01*
X175545606Y-76060080D01*
X175550000Y-76055686D01*
X175550000Y-77018872D01*
X175746323Y-76966267D01*
X175746325Y-76966266D01*
X175952477Y-76870137D01*
X175952482Y-76870134D01*
X176138817Y-76739660D01*
X176299660Y-76578817D01*
X176430134Y-76392482D01*
X176430137Y-76392477D01*
X176526266Y-76186325D01*
X176526267Y-76186323D01*
X176578872Y-75990000D01*
X175615686Y-75990000D01*
X175620080Y-75985606D01*
X175672741Y-75894394D01*
X175700000Y-75792661D01*
X175700000Y-75687339D01*
X175672741Y-75585606D01*
X175620080Y-75494394D01*
X175615686Y-75490000D01*
X176578872Y-75490000D01*
X176578872Y-75489999D01*
X176526267Y-75293676D01*
X176526266Y-75293674D01*
X176430137Y-75087522D01*
X176430134Y-75087517D01*
X176299660Y-74901182D01*
X176138817Y-74740339D01*
X175952482Y-74609865D01*
X175952477Y-74609862D01*
X175746325Y-74513733D01*
X175550000Y-74461127D01*
X175550000Y-75424314D01*
X175545606Y-75419920D01*
X175454394Y-75367259D01*
X175352661Y-75340000D01*
X175247339Y-75340000D01*
X175145606Y-75367259D01*
X175054394Y-75419920D01*
X175050000Y-75424314D01*
X175050000Y-74461127D01*
X174853674Y-74513733D01*
X174647522Y-74609862D01*
X174647517Y-74609865D01*
X174461182Y-74740339D01*
X174300339Y-74901182D01*
X174169865Y-75087517D01*
X174169862Y-75087522D01*
X174073733Y-75293674D01*
X174073732Y-75293676D01*
X174021127Y-75489999D01*
X173575500Y-75489999D01*
X173575500Y-74753469D01*
X173572906Y-74740429D01*
X173569898Y-74725308D01*
X173561223Y-74681696D01*
X173549541Y-74622964D01*
X173502499Y-74509395D01*
X173498622Y-74500035D01*
X173498617Y-74500026D01*
X173441710Y-74414859D01*
X173424695Y-74389394D01*
X171215160Y-72179859D01*
X171176596Y-72113064D01*
X171176596Y-72035936D01*
X171215160Y-71969141D01*
X171281955Y-71930577D01*
X171320519Y-71925500D01*
X171926877Y-71925500D01*
X172001377Y-71945462D01*
X172045781Y-71984707D01*
X172053236Y-71994579D01*
X172203957Y-72131979D01*
X172203958Y-72131980D01*
X172203963Y-72131984D01*
X172377356Y-72239344D01*
X172377367Y-72239350D01*
X172470226Y-72275323D01*
X172567544Y-72313024D01*
X172768024Y-72350500D01*
X172768027Y-72350500D01*
X172971973Y-72350500D01*
X172971976Y-72350500D01*
X173172456Y-72313024D01*
X173362637Y-72239348D01*
X173536041Y-72131981D01*
X173686764Y-71994579D01*
X173809673Y-71831821D01*
X173900582Y-71649250D01*
X173956397Y-71453083D01*
X173972106Y-71283550D01*
X173975215Y-71250004D01*
X173975215Y-71249995D01*
X173959519Y-71080609D01*
X173956397Y-71046917D01*
X173900582Y-70850750D01*
X173809673Y-70668179D01*
X173686764Y-70505421D01*
X173536041Y-70368019D01*
X173536036Y-70368015D01*
X173362643Y-70260655D01*
X173362632Y-70260649D01*
X173240764Y-70213438D01*
X173178506Y-70167912D01*
X173147352Y-70097355D01*
X173155651Y-70020675D01*
X173201177Y-69958417D01*
X173271734Y-69927263D01*
X173294589Y-69925500D01*
X174368481Y-69925500D01*
X174442981Y-69945462D01*
X174473840Y-69969141D01*
X175688039Y-71183340D01*
X175726603Y-71250135D01*
X175731044Y-71302446D01*
X175724785Y-71369995D01*
X175724785Y-71370004D01*
X175743602Y-71573078D01*
X175743602Y-71573080D01*
X175743603Y-71573083D01*
X175757353Y-71621409D01*
X175799416Y-71769245D01*
X175799417Y-71769247D01*
X175799418Y-71769250D01*
X175849585Y-71870000D01*
X175890328Y-71951823D01*
X175953848Y-72035936D01*
X176013236Y-72114579D01*
X176153133Y-72242112D01*
X176163958Y-72251980D01*
X176163963Y-72251984D01*
X176337356Y-72359344D01*
X176337367Y-72359350D01*
X176453332Y-72404274D01*
X176527544Y-72433024D01*
X176728024Y-72470500D01*
X176728027Y-72470500D01*
X176931973Y-72470500D01*
X176931976Y-72470500D01*
X177132456Y-72433024D01*
X177322637Y-72359348D01*
X177496041Y-72251981D01*
X177646764Y-72114579D01*
X177769673Y-71951821D01*
X177860582Y-71769250D01*
X177916397Y-71573083D01*
X177928956Y-71437551D01*
X177935215Y-71370004D01*
X177935215Y-71369995D01*
X177923209Y-71240428D01*
X177916397Y-71166917D01*
X177860582Y-70970750D01*
X177769673Y-70788179D01*
X177646764Y-70625421D01*
X177496041Y-70488019D01*
X177496036Y-70488015D01*
X177322643Y-70380655D01*
X177322632Y-70380649D01*
X177132462Y-70306978D01*
X177132458Y-70306977D01*
X177132456Y-70306976D01*
X177092360Y-70299480D01*
X176931980Y-70269500D01*
X176931976Y-70269500D01*
X176746519Y-70269500D01*
X176672019Y-70249538D01*
X176641160Y-70225859D01*
X175545160Y-69129859D01*
X175506596Y-69063064D01*
X175506596Y-68985936D01*
X175545160Y-68919141D01*
X175611955Y-68880577D01*
X175650519Y-68875500D01*
X183458481Y-68875500D01*
X183532981Y-68895462D01*
X183563840Y-68919141D01*
X184755859Y-70111160D01*
X184794423Y-70177955D01*
X184799500Y-70216519D01*
X184799500Y-70694866D01*
X184802414Y-70719989D01*
X184802415Y-70719992D01*
X184847793Y-70822764D01*
X184847794Y-70822765D01*
X184927235Y-70902206D01*
X185030009Y-70947585D01*
X185055135Y-70950500D01*
X185159645Y-70950499D01*
X185234142Y-70970461D01*
X185288680Y-71024998D01*
X185308643Y-71099498D01*
X185288681Y-71173998D01*
X185245107Y-71221552D01*
X185174527Y-71270973D01*
X185174527Y-71270974D01*
X185853553Y-71950000D01*
X185847339Y-71950000D01*
X185745606Y-71977259D01*
X185654394Y-72029920D01*
X185579920Y-72104394D01*
X185527259Y-72195606D01*
X185500000Y-72297339D01*
X185500000Y-72303553D01*
X184820974Y-71624527D01*
X184769865Y-71697517D01*
X184769862Y-71697522D01*
X184673733Y-71903674D01*
X184673732Y-71903676D01*
X184614859Y-72123393D01*
X184595034Y-72350000D01*
X184614859Y-72576606D01*
X184673732Y-72796323D01*
X184673733Y-72796325D01*
X184769866Y-73002483D01*
X184769872Y-73002492D01*
X184820973Y-73075471D01*
X185500000Y-72396444D01*
X185500000Y-72402661D01*
X185527259Y-72504394D01*
X185579920Y-72595606D01*
X185654394Y-72670080D01*
X185745606Y-72722741D01*
X185847339Y-72750000D01*
X185853553Y-72750000D01*
X185174526Y-73429025D01*
X185247509Y-73480129D01*
X185247515Y-73480132D01*
X185453674Y-73576266D01*
X185453676Y-73576267D01*
X185673394Y-73635140D01*
X185673393Y-73635140D01*
X185900000Y-73654965D01*
X186126606Y-73635140D01*
X186346323Y-73576267D01*
X186346325Y-73576266D01*
X186552478Y-73480136D01*
X186552484Y-73480132D01*
X186625471Y-73429024D01*
X185946447Y-72750000D01*
X185952661Y-72750000D01*
X186054394Y-72722741D01*
X186145606Y-72670080D01*
X186220080Y-72595606D01*
X186272741Y-72504394D01*
X186300000Y-72402661D01*
X186300000Y-72396447D01*
X186979024Y-73075471D01*
X187030132Y-73002484D01*
X187030136Y-73002478D01*
X187126266Y-72796325D01*
X187126267Y-72796323D01*
X187185140Y-72576606D01*
X187204965Y-72350000D01*
X187185140Y-72123393D01*
X187126267Y-71903676D01*
X187126266Y-71903674D01*
X187030132Y-71697515D01*
X187030129Y-71697509D01*
X186979025Y-71624526D01*
X186300000Y-72303551D01*
X186300000Y-72297339D01*
X186272741Y-72195606D01*
X186220080Y-72104394D01*
X186145606Y-72029920D01*
X186054394Y-71977259D01*
X185952661Y-71950000D01*
X185946445Y-71950000D01*
X186625471Y-71270973D01*
X186554891Y-71221553D01*
X186505314Y-71162469D01*
X186491921Y-71086513D01*
X186518300Y-71014036D01*
X186577384Y-70964459D01*
X186640353Y-70950499D01*
X186744864Y-70950499D01*
X186744867Y-70950499D01*
X186759940Y-70948750D01*
X186769991Y-70947585D01*
X186872765Y-70902206D01*
X186952206Y-70822765D01*
X186960912Y-70803047D01*
X187009264Y-70742961D01*
X187081183Y-70715099D01*
X187157399Y-70726929D01*
X187202574Y-70757875D01*
X192660221Y-76215522D01*
X192698785Y-76282317D01*
X192703353Y-76308576D01*
X192714891Y-76447816D01*
X192714891Y-76447819D01*
X192714892Y-76447821D01*
X192733632Y-76521823D01*
X192775937Y-76688882D01*
X192875827Y-76916607D01*
X193011837Y-77124787D01*
X193139844Y-77263839D01*
X193180256Y-77307738D01*
X193376491Y-77460474D01*
X193376492Y-77460474D01*
X193376494Y-77460476D01*
X193595184Y-77578825D01*
X193595190Y-77578828D01*
X193778114Y-77641626D01*
X193830386Y-77659571D01*
X193830390Y-77659572D01*
X193900359Y-77671247D01*
X194075665Y-77700500D01*
X194075667Y-77700500D01*
X194324333Y-77700500D01*
X194324335Y-77700500D01*
X194534750Y-77665388D01*
X194569609Y-77659572D01*
X194569610Y-77659571D01*
X194569614Y-77659571D01*
X194804810Y-77578828D01*
X195023509Y-77460474D01*
X195219744Y-77307738D01*
X195388164Y-77124785D01*
X195524173Y-76916607D01*
X195624063Y-76688881D01*
X195685108Y-76447821D01*
X195705643Y-76200000D01*
X195701925Y-76155136D01*
X195688825Y-75997036D01*
X195685108Y-75952179D01*
X195624063Y-75711119D01*
X195524173Y-75483393D01*
X195388164Y-75275215D01*
X195388163Y-75275214D01*
X195388162Y-75275212D01*
X195226286Y-75099369D01*
X195219744Y-75092262D01*
X195195511Y-75073401D01*
X195078055Y-74981981D01*
X195023509Y-74939526D01*
X195023508Y-74939525D01*
X195023505Y-74939523D01*
X194804815Y-74821174D01*
X194804811Y-74821172D01*
X194569613Y-74740428D01*
X194569609Y-74740427D01*
X194324335Y-74699500D01*
X194075665Y-74699500D01*
X194075664Y-74699500D01*
X193830390Y-74740427D01*
X193830386Y-74740428D01*
X193595191Y-74821171D01*
X193421215Y-74915322D01*
X193346193Y-74933223D01*
X193272271Y-74911216D01*
X193244940Y-74889639D01*
X187680609Y-69325308D01*
X187680606Y-69325305D01*
X187611292Y-69278991D01*
X187569973Y-69251382D01*
X187569964Y-69251377D01*
X187472494Y-69211004D01*
X187447036Y-69200459D01*
X187447034Y-69200458D01*
X187447033Y-69200458D01*
X187316531Y-69174500D01*
X187149499Y-69174500D01*
X187074999Y-69154538D01*
X187020461Y-69100000D01*
X187000499Y-69025500D01*
X187000499Y-69005133D01*
X186997585Y-68980010D01*
X186997584Y-68980007D01*
X186952206Y-68877235D01*
X186872764Y-68797793D01*
X186769994Y-68752416D01*
X186769991Y-68752415D01*
X186744865Y-68749500D01*
X186744859Y-68749500D01*
X185366519Y-68749500D01*
X185292019Y-68729538D01*
X185261160Y-68705859D01*
X184230609Y-67675308D01*
X184230606Y-67675305D01*
X184181972Y-67642809D01*
X184119973Y-67601382D01*
X184119964Y-67601377D01*
X184011970Y-67556645D01*
X183997036Y-67550459D01*
X183997034Y-67550458D01*
X183997033Y-67550458D01*
X183866531Y-67524500D01*
X172670519Y-67524500D01*
X172596019Y-67504538D01*
X172541481Y-67450000D01*
X172521519Y-67375500D01*
X172541481Y-67301000D01*
X172565160Y-67270141D01*
X174055275Y-65780026D01*
X175554695Y-64280606D01*
X175576067Y-64248620D01*
X175589655Y-64228283D01*
X175647644Y-64177431D01*
X175723290Y-64162385D01*
X175796324Y-64187179D01*
X175846921Y-64244651D01*
X175890325Y-64331819D01*
X175961070Y-64425500D01*
X176013236Y-64494579D01*
X176161413Y-64629660D01*
X176163958Y-64631980D01*
X176163963Y-64631984D01*
X176337356Y-64739344D01*
X176337367Y-64739350D01*
X176443700Y-64780543D01*
X176527544Y-64813024D01*
X176728024Y-64850500D01*
X176728027Y-64850500D01*
X176931973Y-64850500D01*
X176931976Y-64850500D01*
X177132456Y-64813024D01*
X177322637Y-64739348D01*
X177496041Y-64631981D01*
X177646764Y-64494579D01*
X177654218Y-64484707D01*
X177715044Y-64437285D01*
X177773123Y-64425500D01*
X179386877Y-64425500D01*
X179461377Y-64445462D01*
X179505781Y-64484707D01*
X179513236Y-64494579D01*
X179661413Y-64629660D01*
X179663958Y-64631980D01*
X179663963Y-64631984D01*
X179837356Y-64739344D01*
X179837367Y-64739350D01*
X179943700Y-64780543D01*
X180027544Y-64813024D01*
X180228024Y-64850500D01*
X180228027Y-64850500D01*
X180431973Y-64850500D01*
X180431976Y-64850500D01*
X180632456Y-64813024D01*
X180822637Y-64739348D01*
X180996041Y-64631981D01*
X181146764Y-64494579D01*
X181269673Y-64331821D01*
X181360582Y-64149250D01*
X181416397Y-63953083D01*
X181432114Y-63783469D01*
X181435215Y-63750004D01*
X181435215Y-63749995D01*
X181421903Y-63606340D01*
X181416397Y-63546917D01*
X181360582Y-63350750D01*
X181269673Y-63168179D01*
X181251810Y-63144525D01*
X181224178Y-63107934D01*
X181146764Y-63005421D01*
X180996041Y-62868019D01*
X180996036Y-62868015D01*
X180822643Y-62760655D01*
X180822632Y-62760649D01*
X180632462Y-62686978D01*
X180632458Y-62686977D01*
X180632456Y-62686976D01*
X180592360Y-62679480D01*
X180431980Y-62649500D01*
X180431976Y-62649500D01*
X180228024Y-62649500D01*
X180228019Y-62649500D01*
X180027544Y-62686976D01*
X180027537Y-62686978D01*
X179837367Y-62760649D01*
X179837356Y-62760655D01*
X179663963Y-62868015D01*
X179663958Y-62868019D01*
X179513234Y-63005423D01*
X179505782Y-63015292D01*
X179444956Y-63062715D01*
X179386877Y-63074500D01*
X177773123Y-63074500D01*
X177698623Y-63054538D01*
X177654218Y-63015292D01*
X177646766Y-63005424D01*
X177646764Y-63005421D01*
X177496041Y-62868019D01*
X177496036Y-62868015D01*
X177322643Y-62760655D01*
X177322632Y-62760649D01*
X177132462Y-62686978D01*
X177132458Y-62686977D01*
X177132456Y-62686976D01*
X177092360Y-62679480D01*
X176931980Y-62649500D01*
X176931976Y-62649500D01*
X176728024Y-62649500D01*
X176728019Y-62649500D01*
X176527544Y-62686976D01*
X176527537Y-62686978D01*
X176337367Y-62760649D01*
X176337356Y-62760655D01*
X176163963Y-62868015D01*
X176163958Y-62868019D01*
X176013233Y-63005424D01*
X175973404Y-63058166D01*
X175912577Y-63105588D01*
X175836189Y-63116244D01*
X175764707Y-63087277D01*
X175717285Y-63026450D01*
X175705500Y-62968373D01*
X175705500Y-62183473D01*
X175705499Y-62183468D01*
X175679540Y-62052964D01*
X175628620Y-61930031D01*
X175554695Y-61819394D01*
X175460606Y-61725305D01*
X174560606Y-60825305D01*
X174518120Y-60796917D01*
X174449973Y-60751382D01*
X174449964Y-60751377D01*
X174352494Y-60711004D01*
X174327036Y-60700459D01*
X174327034Y-60700458D01*
X174327033Y-60700458D01*
X174196531Y-60674500D01*
X172676531Y-60674500D01*
X172543469Y-60674500D01*
X172412966Y-60700458D01*
X172290035Y-60751377D01*
X172290026Y-60751382D01*
X172179395Y-60825304D01*
X172179390Y-60825308D01*
X170518839Y-62485859D01*
X170452044Y-62524423D01*
X170413480Y-62529500D01*
X170228019Y-62529500D01*
X170027544Y-62566976D01*
X170027537Y-62566978D01*
X169837367Y-62640649D01*
X169837356Y-62640655D01*
X169663963Y-62748015D01*
X169663958Y-62748019D01*
X169600905Y-62805500D01*
X169532330Y-62868015D01*
X169513234Y-62885423D01*
X169390325Y-63048180D01*
X169298964Y-63231661D01*
X169247888Y-63289453D01*
X169174758Y-63313963D01*
X169099170Y-63298625D01*
X169041378Y-63247549D01*
X169021662Y-63203810D01*
X169016267Y-63183676D01*
X169016266Y-63183674D01*
X168920137Y-62977522D01*
X168920134Y-62977517D01*
X168789660Y-62791182D01*
X168628817Y-62630339D01*
X168442482Y-62499865D01*
X168442477Y-62499862D01*
X168236325Y-62403733D01*
X168040000Y-62351127D01*
X168040000Y-63314314D01*
X168035606Y-63309920D01*
X167944394Y-63257259D01*
X167842661Y-63230000D01*
X167737339Y-63230000D01*
X167635606Y-63257259D01*
X167544394Y-63309920D01*
X167540000Y-63314314D01*
X167540000Y-62351127D01*
X167343674Y-62403733D01*
X167137522Y-62499862D01*
X167137517Y-62499865D01*
X166951182Y-62630339D01*
X166790339Y-62791182D01*
X166659865Y-62977517D01*
X166659862Y-62977522D01*
X166609540Y-63085441D01*
X166559963Y-63144525D01*
X166487486Y-63170904D01*
X166411530Y-63157511D01*
X166352446Y-63107934D01*
X166326067Y-63035457D01*
X166325500Y-63022471D01*
X166325500Y-60009999D01*
X166761127Y-60009999D01*
X166761128Y-60010000D01*
X167724314Y-60010000D01*
X167719920Y-60014394D01*
X167667259Y-60105606D01*
X167640000Y-60207339D01*
X167640000Y-60312661D01*
X167667259Y-60414394D01*
X167719920Y-60505606D01*
X167724314Y-60510000D01*
X166761128Y-60510000D01*
X166813732Y-60706323D01*
X166813733Y-60706325D01*
X166909862Y-60912477D01*
X166909865Y-60912482D01*
X167040339Y-61098817D01*
X167201182Y-61259660D01*
X167387517Y-61390134D01*
X167387522Y-61390137D01*
X167593674Y-61486266D01*
X167593676Y-61486267D01*
X167789999Y-61538872D01*
X167790000Y-61538871D01*
X167790000Y-60575686D01*
X167794394Y-60580080D01*
X167885606Y-60632741D01*
X167987339Y-60660000D01*
X168092661Y-60660000D01*
X168194394Y-60632741D01*
X168285606Y-60580080D01*
X168290000Y-60575686D01*
X168290000Y-61538872D01*
X168486323Y-61486267D01*
X168486325Y-61486266D01*
X168692477Y-61390137D01*
X168692482Y-61390134D01*
X168878817Y-61259660D01*
X169039660Y-61098817D01*
X169170134Y-60912482D01*
X169170137Y-60912477D01*
X169266266Y-60706325D01*
X169266267Y-60706323D01*
X169318872Y-60510000D01*
X168355686Y-60510000D01*
X168360080Y-60505606D01*
X168412741Y-60414394D01*
X168440000Y-60312661D01*
X168440000Y-60207339D01*
X168412741Y-60105606D01*
X168360080Y-60014394D01*
X168355686Y-60010000D01*
X169318872Y-60010000D01*
X169318872Y-60009999D01*
X169266267Y-59813676D01*
X169266266Y-59813674D01*
X169170137Y-59607522D01*
X169170134Y-59607517D01*
X169039660Y-59421182D01*
X168878817Y-59260339D01*
X168692482Y-59129865D01*
X168692477Y-59129862D01*
X168486325Y-59033733D01*
X168290000Y-58981127D01*
X168290000Y-59944314D01*
X168285606Y-59939920D01*
X168194394Y-59887259D01*
X168092661Y-59860000D01*
X167987339Y-59860000D01*
X167885606Y-59887259D01*
X167794394Y-59939920D01*
X167790000Y-59944314D01*
X167790000Y-58981127D01*
X167593674Y-59033733D01*
X167387522Y-59129862D01*
X167387517Y-59129865D01*
X167201182Y-59260339D01*
X167040339Y-59421182D01*
X166909865Y-59607517D01*
X166909862Y-59607522D01*
X166813733Y-59813674D01*
X166813732Y-59813676D01*
X166761127Y-60009999D01*
X166325500Y-60009999D01*
X166325500Y-59141519D01*
X166345462Y-59067019D01*
X166369141Y-59036160D01*
X167086160Y-58319141D01*
X167152955Y-58280577D01*
X167191519Y-58275500D01*
X173358481Y-58275500D01*
X173432981Y-58295462D01*
X173463840Y-58319141D01*
X176075305Y-60930606D01*
X176169394Y-61024695D01*
X176280031Y-61098620D01*
X176402964Y-61149540D01*
X176533469Y-61175500D01*
X181863593Y-61175500D01*
X181938093Y-61195462D01*
X181968952Y-61219141D01*
X184705859Y-63956048D01*
X184744423Y-64022843D01*
X184749500Y-64061407D01*
X184749500Y-64989754D01*
X184752414Y-65014877D01*
X184752415Y-65014880D01*
X184797793Y-65117652D01*
X184797794Y-65117653D01*
X184877235Y-65197094D01*
X184980009Y-65242473D01*
X185005135Y-65245388D01*
X185109645Y-65245387D01*
X185184142Y-65265349D01*
X185238680Y-65319886D01*
X185258643Y-65394386D01*
X185238681Y-65468886D01*
X185195107Y-65516440D01*
X185124527Y-65565861D01*
X185124527Y-65565862D01*
X185803553Y-66244888D01*
X185797339Y-66244888D01*
X185695606Y-66272147D01*
X185604394Y-66324808D01*
X185529920Y-66399282D01*
X185477259Y-66490494D01*
X185450000Y-66592227D01*
X185450000Y-66598441D01*
X184770974Y-65919415D01*
X184719865Y-65992405D01*
X184719862Y-65992410D01*
X184623733Y-66198562D01*
X184623732Y-66198564D01*
X184564859Y-66418281D01*
X184545034Y-66644888D01*
X184564859Y-66871494D01*
X184623732Y-67091211D01*
X184623733Y-67091213D01*
X184719866Y-67297371D01*
X184719872Y-67297380D01*
X184770973Y-67370359D01*
X185450000Y-66691332D01*
X185450000Y-66697549D01*
X185477259Y-66799282D01*
X185529920Y-66890494D01*
X185604394Y-66964968D01*
X185695606Y-67017629D01*
X185797339Y-67044888D01*
X185803553Y-67044888D01*
X185124526Y-67723913D01*
X185197509Y-67775017D01*
X185197515Y-67775020D01*
X185403674Y-67871154D01*
X185403676Y-67871155D01*
X185623394Y-67930028D01*
X185623393Y-67930028D01*
X185850000Y-67949853D01*
X186076606Y-67930028D01*
X186296323Y-67871155D01*
X186296325Y-67871154D01*
X186502478Y-67775024D01*
X186502484Y-67775020D01*
X186575471Y-67723912D01*
X185896447Y-67044888D01*
X185902661Y-67044888D01*
X186004394Y-67017629D01*
X186095606Y-66964968D01*
X186170080Y-66890494D01*
X186222741Y-66799282D01*
X186250000Y-66697549D01*
X186250000Y-66691335D01*
X186929024Y-67370359D01*
X186980132Y-67297372D01*
X186980136Y-67297366D01*
X187076266Y-67091213D01*
X187076267Y-67091211D01*
X187135140Y-66871494D01*
X187154965Y-66644888D01*
X187135140Y-66418281D01*
X187076267Y-66198564D01*
X187076266Y-66198562D01*
X186980132Y-65992403D01*
X186980129Y-65992397D01*
X186929025Y-65919414D01*
X186250000Y-66598439D01*
X186250000Y-66592227D01*
X186222741Y-66490494D01*
X186170080Y-66399282D01*
X186095606Y-66324808D01*
X186004394Y-66272147D01*
X185902661Y-66244888D01*
X185896445Y-66244888D01*
X186575471Y-65565861D01*
X186504891Y-65516441D01*
X186455314Y-65457357D01*
X186441921Y-65381401D01*
X186468300Y-65308924D01*
X186527384Y-65259347D01*
X186590353Y-65245387D01*
X186694864Y-65245387D01*
X186694867Y-65245387D01*
X186709940Y-65243638D01*
X186719991Y-65242473D01*
X186811964Y-65201862D01*
X186888179Y-65190032D01*
X186960099Y-65217894D01*
X186977507Y-65232808D01*
X189630859Y-67886160D01*
X189669423Y-67952955D01*
X189674500Y-67991519D01*
X189674500Y-69966531D01*
X189696075Y-70075000D01*
X189700459Y-70097036D01*
X189710725Y-70121819D01*
X189751377Y-70219964D01*
X189751382Y-70219973D01*
X189784475Y-70269500D01*
X189825305Y-70330606D01*
X192719394Y-73224695D01*
X192785416Y-73268809D01*
X192836269Y-73326796D01*
X192839079Y-73332832D01*
X192875827Y-73416607D01*
X192930867Y-73500852D01*
X193011837Y-73624787D01*
X193124384Y-73747045D01*
X193180256Y-73807738D01*
X193376491Y-73960474D01*
X193376492Y-73960474D01*
X193376494Y-73960476D01*
X193524835Y-74040754D01*
X193595190Y-74078828D01*
X193673929Y-74105859D01*
X193830386Y-74159571D01*
X193830390Y-74159572D01*
X193900359Y-74171247D01*
X194075665Y-74200500D01*
X194075667Y-74200500D01*
X194324333Y-74200500D01*
X194324335Y-74200500D01*
X194534750Y-74165388D01*
X194569609Y-74159572D01*
X194569610Y-74159571D01*
X194569614Y-74159571D01*
X194804810Y-74078828D01*
X195023509Y-73960474D01*
X195219744Y-73807738D01*
X195388164Y-73624785D01*
X195524173Y-73416607D01*
X195624063Y-73188881D01*
X195685108Y-72947821D01*
X195705643Y-72700000D01*
X195701750Y-72653024D01*
X195695646Y-72579350D01*
X195685108Y-72452179D01*
X195624063Y-72211119D01*
X195524173Y-71983393D01*
X195388164Y-71775215D01*
X195388163Y-71775214D01*
X195388162Y-71775212D01*
X195219743Y-71592261D01*
X195057579Y-71466044D01*
X195023509Y-71439526D01*
X195023508Y-71439525D01*
X195023505Y-71439523D01*
X194804815Y-71321174D01*
X194804811Y-71321172D01*
X194569613Y-71240428D01*
X194569609Y-71240427D01*
X194324335Y-71199500D01*
X194075665Y-71199500D01*
X194075664Y-71199500D01*
X193830390Y-71240427D01*
X193830386Y-71240428D01*
X193595188Y-71321172D01*
X193595184Y-71321174D01*
X193376494Y-71439523D01*
X193376482Y-71439531D01*
X193181357Y-71591403D01*
X193110305Y-71621409D01*
X193033769Y-71611868D01*
X192984481Y-71579180D01*
X191069141Y-69663840D01*
X191030577Y-69597045D01*
X191025500Y-69558481D01*
X191025500Y-67952177D01*
X192500000Y-67952177D01*
X192500000Y-68950000D01*
X193651518Y-68950000D01*
X193640889Y-68968409D01*
X193600000Y-69121009D01*
X193600000Y-69278991D01*
X193640889Y-69431591D01*
X193651518Y-69450000D01*
X192500000Y-69450000D01*
X192500000Y-70447822D01*
X192500001Y-70447842D01*
X192506401Y-70507377D01*
X192556645Y-70642084D01*
X192556650Y-70642094D01*
X192642809Y-70757187D01*
X192642812Y-70757190D01*
X192757905Y-70843349D01*
X192757915Y-70843354D01*
X192892623Y-70893598D01*
X192892621Y-70893598D01*
X192952157Y-70899998D01*
X192952177Y-70900000D01*
X193950000Y-70900000D01*
X193950000Y-69748482D01*
X193968409Y-69759111D01*
X194121009Y-69800000D01*
X194278991Y-69800000D01*
X194431591Y-69759111D01*
X194450000Y-69748482D01*
X194450000Y-70900000D01*
X195447823Y-70900000D01*
X195447842Y-70899998D01*
X195507377Y-70893598D01*
X195642084Y-70843354D01*
X195642094Y-70843349D01*
X195757187Y-70757190D01*
X195757190Y-70757187D01*
X195843349Y-70642094D01*
X195843354Y-70642084D01*
X195893598Y-70507377D01*
X195899998Y-70447842D01*
X195900000Y-70447822D01*
X195900000Y-69450000D01*
X194748482Y-69450000D01*
X194759111Y-69431591D01*
X194800000Y-69278991D01*
X194800000Y-69121009D01*
X194759111Y-68968409D01*
X194748482Y-68950000D01*
X195900000Y-68950000D01*
X195900000Y-67952177D01*
X195899998Y-67952157D01*
X195893598Y-67892622D01*
X195843354Y-67757915D01*
X195843349Y-67757905D01*
X195757190Y-67642812D01*
X195757187Y-67642809D01*
X195642094Y-67556650D01*
X195642084Y-67556645D01*
X195507376Y-67506401D01*
X195507378Y-67506401D01*
X195447842Y-67500001D01*
X195447823Y-67500000D01*
X194450000Y-67500000D01*
X194450000Y-68651517D01*
X194431591Y-68640889D01*
X194278991Y-68600000D01*
X194121009Y-68600000D01*
X193968409Y-68640889D01*
X193950000Y-68651517D01*
X193950000Y-67500000D01*
X192952177Y-67500000D01*
X192952157Y-67500001D01*
X192892622Y-67506401D01*
X192757915Y-67556645D01*
X192757905Y-67556650D01*
X192642812Y-67642809D01*
X192642809Y-67642812D01*
X192556650Y-67757905D01*
X192556645Y-67757915D01*
X192506401Y-67892622D01*
X192500001Y-67952157D01*
X192500000Y-67952177D01*
X191025500Y-67952177D01*
X191025500Y-67583468D01*
X190999541Y-67452966D01*
X190999541Y-67452964D01*
X190948620Y-67330031D01*
X190930534Y-67302964D01*
X190897065Y-67252873D01*
X190874695Y-67219394D01*
X187275494Y-63620193D01*
X187219801Y-63582980D01*
X187164861Y-63546270D01*
X187164855Y-63546267D01*
X187042478Y-63495576D01*
X186981289Y-63448623D01*
X186951774Y-63377365D01*
X186950499Y-63357918D01*
X186950499Y-63300021D01*
X186947585Y-63274898D01*
X186947584Y-63274895D01*
X186928494Y-63231661D01*
X186902206Y-63172123D01*
X186822765Y-63092682D01*
X186822764Y-63092681D01*
X186719994Y-63047304D01*
X186719991Y-63047303D01*
X186694865Y-63044388D01*
X186694859Y-63044388D01*
X185766519Y-63044388D01*
X185692019Y-63024426D01*
X185661160Y-63000747D01*
X182635721Y-59975308D01*
X182635718Y-59975305D01*
X182584003Y-59940750D01*
X182525085Y-59901382D01*
X182525076Y-59901377D01*
X182418849Y-59857377D01*
X182402148Y-59850459D01*
X182402146Y-59850458D01*
X182402145Y-59850458D01*
X182271643Y-59824500D01*
X176941519Y-59824500D01*
X176867019Y-59804538D01*
X176858267Y-59797822D01*
X185050000Y-59797822D01*
X185050001Y-59797842D01*
X185056401Y-59857377D01*
X185106645Y-59992084D01*
X185106650Y-59992094D01*
X185192809Y-60107187D01*
X185192812Y-60107190D01*
X185307905Y-60193349D01*
X185307915Y-60193354D01*
X185442623Y-60243598D01*
X185442621Y-60243598D01*
X185502157Y-60249998D01*
X185502177Y-60250000D01*
X185950000Y-60250000D01*
X186450000Y-60250000D01*
X186897823Y-60250000D01*
X186897842Y-60249998D01*
X186957377Y-60243598D01*
X187092084Y-60193354D01*
X187092094Y-60193349D01*
X187207187Y-60107190D01*
X187207190Y-60107187D01*
X187293349Y-59992094D01*
X187293354Y-59992084D01*
X187343598Y-59857377D01*
X187349998Y-59797842D01*
X187350000Y-59797822D01*
X187350000Y-59350000D01*
X186450000Y-59350000D01*
X186450000Y-60250000D01*
X185950000Y-60250000D01*
X185950000Y-59350000D01*
X185050000Y-59350000D01*
X185050000Y-59797822D01*
X176858267Y-59797822D01*
X176836160Y-59780859D01*
X176109223Y-59053922D01*
X185850000Y-59053922D01*
X185850000Y-59146078D01*
X185873852Y-59235095D01*
X185919930Y-59314905D01*
X185985095Y-59380070D01*
X186064905Y-59426148D01*
X186153922Y-59450000D01*
X186246078Y-59450000D01*
X186335095Y-59426148D01*
X186414905Y-59380070D01*
X186480070Y-59314905D01*
X186526148Y-59235095D01*
X186550000Y-59146078D01*
X186550000Y-59053922D01*
X186526148Y-58964905D01*
X186480070Y-58885095D01*
X186444975Y-58850000D01*
X186450000Y-58850000D01*
X187350000Y-58850000D01*
X187350000Y-58402177D01*
X187349998Y-58402157D01*
X187343598Y-58342622D01*
X187293354Y-58207915D01*
X187293349Y-58207905D01*
X187207190Y-58092812D01*
X187207187Y-58092809D01*
X187092094Y-58006650D01*
X187092084Y-58006645D01*
X186957376Y-57956401D01*
X186957378Y-57956401D01*
X186897842Y-57950001D01*
X186897823Y-57950000D01*
X186450000Y-57950000D01*
X186450000Y-58850000D01*
X186444975Y-58850000D01*
X186414905Y-58819930D01*
X186335095Y-58773852D01*
X186246078Y-58750000D01*
X186153922Y-58750000D01*
X186064905Y-58773852D01*
X185985095Y-58819930D01*
X185919930Y-58885095D01*
X185873852Y-58964905D01*
X185850000Y-59053922D01*
X176109223Y-59053922D01*
X174130609Y-57075308D01*
X174130607Y-57075306D01*
X174130606Y-57075305D01*
X174091482Y-57049163D01*
X174019973Y-57001382D01*
X174019964Y-57001377D01*
X174016628Y-56999995D01*
X175645233Y-56999995D01*
X175645233Y-57000004D01*
X175664272Y-57254070D01*
X175664275Y-57254092D01*
X175720968Y-57502481D01*
X175720970Y-57502488D01*
X175814056Y-57739666D01*
X175814058Y-57739671D01*
X175941454Y-57960327D01*
X175983453Y-58012991D01*
X176785386Y-57211057D01*
X176790889Y-57231591D01*
X176869881Y-57368408D01*
X176981592Y-57480119D01*
X177118409Y-57559111D01*
X177138940Y-57564612D01*
X176336814Y-58366738D01*
X176336814Y-58366739D01*
X176497618Y-58476372D01*
X176727169Y-58586918D01*
X176727190Y-58586926D01*
X176970648Y-58662023D01*
X176970652Y-58662024D01*
X177222599Y-58699999D01*
X177222606Y-58700000D01*
X177477394Y-58700000D01*
X177477400Y-58699999D01*
X177729347Y-58662024D01*
X177729351Y-58662023D01*
X177972812Y-58586925D01*
X177972816Y-58586924D01*
X178202381Y-58476372D01*
X178363184Y-58366738D01*
X177561059Y-57564612D01*
X177581591Y-57559111D01*
X177718408Y-57480119D01*
X177830119Y-57368408D01*
X177909111Y-57231591D01*
X177914612Y-57211058D01*
X178716546Y-58012991D01*
X178716547Y-58012991D01*
X178758538Y-57960337D01*
X178758546Y-57960325D01*
X178885941Y-57739671D01*
X178885943Y-57739666D01*
X178979029Y-57502488D01*
X178979031Y-57502481D01*
X179035724Y-57254092D01*
X179035727Y-57254069D01*
X179051917Y-57038029D01*
X179064385Y-57002394D01*
X179051917Y-56961970D01*
X179035727Y-56745930D01*
X179035724Y-56745907D01*
X178979031Y-56497518D01*
X178979029Y-56497511D01*
X178885943Y-56260333D01*
X178885941Y-56260328D01*
X178758543Y-56039668D01*
X178716547Y-55987007D01*
X178716546Y-55987007D01*
X177914612Y-56788939D01*
X177909111Y-56768409D01*
X177830119Y-56631592D01*
X177718408Y-56519881D01*
X177581591Y-56440889D01*
X177561057Y-56435386D01*
X178363184Y-55633260D01*
X178202379Y-55523625D01*
X177972816Y-55413075D01*
X177972812Y-55413074D01*
X177729351Y-55337976D01*
X177729347Y-55337975D01*
X177477400Y-55300000D01*
X177222599Y-55300000D01*
X176970652Y-55337975D01*
X176970648Y-55337976D01*
X176727190Y-55413073D01*
X176727175Y-55413079D01*
X176497615Y-55523628D01*
X176497611Y-55523631D01*
X176336814Y-55633259D01*
X176336814Y-55633260D01*
X177138941Y-56435387D01*
X177118409Y-56440889D01*
X176981592Y-56519881D01*
X176869881Y-56631592D01*
X176790889Y-56768409D01*
X176785387Y-56788941D01*
X175983453Y-55987007D01*
X175983452Y-55987007D01*
X175941459Y-56039665D01*
X175941454Y-56039673D01*
X175814058Y-56260328D01*
X175814056Y-56260333D01*
X175720970Y-56497511D01*
X175720968Y-56497518D01*
X175664275Y-56745907D01*
X175664272Y-56745929D01*
X175645233Y-56999995D01*
X174016628Y-56999995D01*
X173897038Y-56950460D01*
X173897036Y-56950459D01*
X173897034Y-56950458D01*
X173897033Y-56950458D01*
X173766531Y-56924500D01*
X166783469Y-56924500D01*
X166783465Y-56924500D01*
X166652964Y-56950459D01*
X166652962Y-56950460D01*
X166530031Y-57001379D01*
X166530028Y-57001380D01*
X166426177Y-57070773D01*
X166426174Y-57070775D01*
X166419395Y-57075304D01*
X166419393Y-57075306D01*
X165125308Y-58369390D01*
X165125304Y-58369395D01*
X165051382Y-58480026D01*
X165051377Y-58480035D01*
X165000458Y-58602966D01*
X164988180Y-58664695D01*
X164974500Y-58733468D01*
X164974500Y-62454465D01*
X164954538Y-62528965D01*
X164900000Y-62583503D01*
X164879325Y-62593403D01*
X164757368Y-62640649D01*
X164757356Y-62640655D01*
X164583963Y-62748015D01*
X164583958Y-62748019D01*
X164520905Y-62805500D01*
X164452330Y-62868015D01*
X164433234Y-62885423D01*
X164310328Y-63048176D01*
X164219416Y-63230754D01*
X164163602Y-63426921D01*
X164144785Y-63629995D01*
X164144785Y-63630004D01*
X164163602Y-63833078D01*
X164219416Y-64029245D01*
X164219417Y-64029247D01*
X164219418Y-64029250D01*
X164289487Y-64169969D01*
X164310328Y-64211823D01*
X164381070Y-64305500D01*
X164433236Y-64374579D01*
X164554042Y-64484708D01*
X164583958Y-64511980D01*
X164583963Y-64511984D01*
X164757356Y-64619344D01*
X164757367Y-64619350D01*
X164850874Y-64655574D01*
X164947544Y-64693024D01*
X165148024Y-64730500D01*
X165148027Y-64730500D01*
X165351973Y-64730500D01*
X165351976Y-64730500D01*
X165552456Y-64693024D01*
X165742637Y-64619348D01*
X165916041Y-64511981D01*
X166066764Y-64374579D01*
X166189673Y-64211821D01*
X166280582Y-64029250D01*
X166280584Y-64029242D01*
X166281034Y-64028339D01*
X166332111Y-63970547D01*
X166405240Y-63946036D01*
X166480828Y-63961373D01*
X166538620Y-64012450D01*
X166558336Y-64056185D01*
X166563732Y-64076322D01*
X166563733Y-64076325D01*
X166659862Y-64282477D01*
X166659865Y-64282482D01*
X166790339Y-64468817D01*
X166951182Y-64629660D01*
X167137517Y-64760134D01*
X167137522Y-64760137D01*
X167343674Y-64856266D01*
X167343676Y-64856267D01*
X167539999Y-64908872D01*
X167540000Y-64908871D01*
X167540000Y-63945686D01*
X167544394Y-63950080D01*
X167635606Y-64002741D01*
X167737339Y-64030000D01*
X167842661Y-64030000D01*
X167944394Y-64002741D01*
X168035606Y-63950080D01*
X168040000Y-63945686D01*
X168040000Y-64908872D01*
X168236323Y-64856267D01*
X168236325Y-64856266D01*
X168442477Y-64760137D01*
X168442482Y-64760134D01*
X168628817Y-64629660D01*
X168789660Y-64468817D01*
X168920134Y-64282482D01*
X168920137Y-64282477D01*
X169016266Y-64076325D01*
X169016268Y-64076321D01*
X169021662Y-64056190D01*
X169060225Y-63989395D01*
X169127020Y-63950830D01*
X169204148Y-63950830D01*
X169270943Y-63989393D01*
X169298965Y-64028339D01*
X169299417Y-64029247D01*
X169299418Y-64029250D01*
X169390327Y-64211821D01*
X169513236Y-64374579D01*
X169634042Y-64484708D01*
X169663958Y-64511980D01*
X169663963Y-64511984D01*
X169837356Y-64619344D01*
X169837367Y-64619350D01*
X169930874Y-64655574D01*
X170027544Y-64693024D01*
X170228024Y-64730500D01*
X170228027Y-64730500D01*
X170431973Y-64730500D01*
X170431976Y-64730500D01*
X170431978Y-64730499D01*
X170438837Y-64729864D01*
X170439016Y-64731806D01*
X170505983Y-64736964D01*
X170569619Y-64780543D01*
X170602939Y-64850102D01*
X170597016Y-64927003D01*
X170561839Y-64982859D01*
X170163840Y-65380859D01*
X170097045Y-65419423D01*
X170058481Y-65424500D01*
X149881519Y-65424500D01*
X149807019Y-65404538D01*
X149776160Y-65380859D01*
X149130609Y-64735308D01*
X149130606Y-64735305D01*
X149067328Y-64693024D01*
X149019973Y-64661382D01*
X149019964Y-64661377D01*
X148922494Y-64621004D01*
X148897036Y-64610459D01*
X148897034Y-64610458D01*
X148897033Y-64610458D01*
X148766531Y-64584500D01*
X147973123Y-64584500D01*
X147898623Y-64564538D01*
X147854218Y-64525292D01*
X147846764Y-64515421D01*
X147696041Y-64378019D01*
X147696036Y-64378015D01*
X147522643Y-64270655D01*
X147522632Y-64270649D01*
X147332462Y-64196978D01*
X147332458Y-64196977D01*
X147332456Y-64196976D01*
X147292360Y-64189480D01*
X147131980Y-64159500D01*
X147131976Y-64159500D01*
X146928024Y-64159500D01*
X146928019Y-64159500D01*
X146727544Y-64196976D01*
X146727537Y-64196978D01*
X146537367Y-64270649D01*
X146537356Y-64270655D01*
X146363963Y-64378015D01*
X146363958Y-64378019D01*
X146213234Y-64515423D01*
X146090328Y-64678176D01*
X145999416Y-64860754D01*
X145943602Y-65056921D01*
X145924785Y-65259995D01*
X143575306Y-65259995D01*
X145085306Y-63749995D01*
X151724785Y-63749995D01*
X151724785Y-63750004D01*
X151743602Y-63953078D01*
X151799416Y-64149245D01*
X151799417Y-64149247D01*
X151799418Y-64149250D01*
X151838772Y-64228284D01*
X151890328Y-64331823D01*
X151961070Y-64425500D01*
X152013236Y-64494579D01*
X152161413Y-64629660D01*
X152163958Y-64631980D01*
X152163963Y-64631984D01*
X152337356Y-64739344D01*
X152337367Y-64739350D01*
X152443700Y-64780543D01*
X152527544Y-64813024D01*
X152728024Y-64850500D01*
X152728027Y-64850500D01*
X152931973Y-64850500D01*
X152931976Y-64850500D01*
X153132456Y-64813024D01*
X153322637Y-64739348D01*
X153496041Y-64631981D01*
X153646764Y-64494579D01*
X153744839Y-64364705D01*
X153805665Y-64317285D01*
X153863743Y-64305500D01*
X156686877Y-64305500D01*
X156761377Y-64325462D01*
X156805781Y-64364707D01*
X156813236Y-64374579D01*
X156934042Y-64484708D01*
X156963958Y-64511980D01*
X156963963Y-64511984D01*
X157137356Y-64619344D01*
X157137367Y-64619350D01*
X157230874Y-64655574D01*
X157327544Y-64693024D01*
X157528024Y-64730500D01*
X157528027Y-64730500D01*
X157731973Y-64730500D01*
X157731976Y-64730500D01*
X157932456Y-64693024D01*
X158122637Y-64619348D01*
X158296041Y-64511981D01*
X158446764Y-64374579D01*
X158569673Y-64211821D01*
X158660582Y-64029250D01*
X158716397Y-63833083D01*
X158726851Y-63720259D01*
X158735215Y-63630004D01*
X158735215Y-63629995D01*
X159064785Y-63629995D01*
X159064785Y-63630004D01*
X159083602Y-63833078D01*
X159139416Y-64029245D01*
X159139417Y-64029247D01*
X159139418Y-64029250D01*
X159209487Y-64169969D01*
X159230328Y-64211823D01*
X159301070Y-64305500D01*
X159353236Y-64374579D01*
X159474042Y-64484708D01*
X159503958Y-64511980D01*
X159503963Y-64511984D01*
X159677356Y-64619344D01*
X159677367Y-64619350D01*
X159770874Y-64655574D01*
X159867544Y-64693024D01*
X160068024Y-64730500D01*
X160068027Y-64730500D01*
X160271973Y-64730500D01*
X160271976Y-64730500D01*
X160472456Y-64693024D01*
X160662637Y-64619348D01*
X160836041Y-64511981D01*
X160986764Y-64374579D01*
X161109673Y-64211821D01*
X161200582Y-64029250D01*
X161256397Y-63833083D01*
X161266851Y-63720259D01*
X161275215Y-63630004D01*
X161275215Y-63629995D01*
X161261053Y-63477161D01*
X161256397Y-63426917D01*
X161200582Y-63230750D01*
X161109673Y-63048179D01*
X161109011Y-63047303D01*
X160994218Y-62895292D01*
X160986764Y-62885421D01*
X160894119Y-62800964D01*
X160852511Y-62736021D01*
X160845500Y-62690852D01*
X160845500Y-62551519D01*
X160865462Y-62477019D01*
X160889141Y-62446160D01*
X160976820Y-62358481D01*
X161074695Y-62260606D01*
X161099509Y-62223469D01*
X161148620Y-62149969D01*
X161172232Y-62092964D01*
X161199541Y-62027036D01*
X161225500Y-61896531D01*
X161225500Y-61763469D01*
X161225500Y-60698263D01*
X161245462Y-60623763D01*
X161274116Y-60588154D01*
X161376764Y-60494579D01*
X161499673Y-60331821D01*
X161590582Y-60149250D01*
X161646397Y-59953083D01*
X161659315Y-59813674D01*
X161665215Y-59750004D01*
X161665215Y-59749995D01*
X161652012Y-59607517D01*
X161646397Y-59546917D01*
X161590582Y-59350750D01*
X161499673Y-59168179D01*
X161492349Y-59158481D01*
X161457611Y-59112480D01*
X161376764Y-59005421D01*
X161274118Y-58911847D01*
X161232512Y-58846905D01*
X161225500Y-58801736D01*
X161225500Y-57380031D01*
X161245462Y-57305531D01*
X161274120Y-57269918D01*
X161356764Y-57194579D01*
X161479673Y-57031821D01*
X161570582Y-56849250D01*
X161626397Y-56653083D01*
X161645215Y-56450000D01*
X161644991Y-56447585D01*
X161629939Y-56285141D01*
X161626397Y-56246917D01*
X161570582Y-56050750D01*
X161479673Y-55868179D01*
X161356764Y-55705421D01*
X161206041Y-55568019D01*
X161206036Y-55568015D01*
X161032643Y-55460655D01*
X161032632Y-55460649D01*
X160842462Y-55386978D01*
X160842458Y-55386977D01*
X160842456Y-55386976D01*
X160802360Y-55379480D01*
X160641980Y-55349500D01*
X160641976Y-55349500D01*
X160438024Y-55349500D01*
X160438019Y-55349500D01*
X160237544Y-55386976D01*
X160237537Y-55386978D01*
X160047367Y-55460649D01*
X160047356Y-55460655D01*
X159873963Y-55568015D01*
X159873958Y-55568019D01*
X159723234Y-55705423D01*
X159600328Y-55868176D01*
X159509416Y-56050754D01*
X159453602Y-56246921D01*
X159434785Y-56449995D01*
X159434785Y-56450004D01*
X159453602Y-56653078D01*
X159453602Y-56653080D01*
X159453603Y-56653083D01*
X159460252Y-56676450D01*
X159509416Y-56849245D01*
X159509417Y-56849247D01*
X159509418Y-56849250D01*
X159568390Y-56967682D01*
X159600328Y-57031823D01*
X159633165Y-57075306D01*
X159723236Y-57194579D01*
X159825881Y-57288153D01*
X159867488Y-57353093D01*
X159874500Y-57398263D01*
X159874500Y-58819968D01*
X159854538Y-58894468D01*
X159825880Y-58930080D01*
X159751365Y-58998011D01*
X159743234Y-59005423D01*
X159620328Y-59168176D01*
X159529416Y-59350754D01*
X159473602Y-59546921D01*
X159454785Y-59749995D01*
X159454785Y-59750004D01*
X159473602Y-59953078D01*
X159473602Y-59953080D01*
X159473603Y-59953083D01*
X159491048Y-60014394D01*
X159529416Y-60149245D01*
X159529417Y-60149247D01*
X159529418Y-60149250D01*
X159579584Y-60249998D01*
X159620328Y-60331823D01*
X159719451Y-60463083D01*
X159743236Y-60494579D01*
X159796437Y-60543078D01*
X159825880Y-60569918D01*
X159867488Y-60634860D01*
X159874500Y-60680031D01*
X159874500Y-61488481D01*
X159854538Y-61562981D01*
X159830859Y-61593840D01*
X159605308Y-61819390D01*
X159605304Y-61819395D01*
X159531382Y-61930026D01*
X159531377Y-61930035D01*
X159480458Y-62052966D01*
X159454500Y-62183468D01*
X159454500Y-62316531D01*
X159480458Y-62447034D01*
X159480459Y-62447037D01*
X159483156Y-62453547D01*
X159494500Y-62510571D01*
X159494500Y-62690852D01*
X159474538Y-62765352D01*
X159445880Y-62800964D01*
X159372330Y-62868015D01*
X159353234Y-62885423D01*
X159230328Y-63048176D01*
X159139416Y-63230754D01*
X159083602Y-63426921D01*
X159064785Y-63629995D01*
X158735215Y-63629995D01*
X158721053Y-63477161D01*
X158716397Y-63426917D01*
X158660582Y-63230750D01*
X158569673Y-63048179D01*
X158569011Y-63047303D01*
X158454218Y-62895292D01*
X158446764Y-62885421D01*
X158296041Y-62748019D01*
X158296036Y-62748015D01*
X158122643Y-62640655D01*
X158122632Y-62640649D01*
X157932462Y-62566978D01*
X157932458Y-62566977D01*
X157932456Y-62566976D01*
X157892360Y-62559480D01*
X157731980Y-62529500D01*
X157731976Y-62529500D01*
X157528024Y-62529500D01*
X157528019Y-62529500D01*
X157327544Y-62566976D01*
X157327537Y-62566978D01*
X157137367Y-62640649D01*
X157137356Y-62640655D01*
X156963963Y-62748015D01*
X156963958Y-62748019D01*
X156900905Y-62805500D01*
X156832330Y-62868015D01*
X156813234Y-62885423D01*
X156805782Y-62895292D01*
X156744956Y-62942715D01*
X156686877Y-62954500D01*
X153754500Y-62954500D01*
X153680000Y-62934538D01*
X153625462Y-62880000D01*
X153605500Y-62805500D01*
X153605500Y-60698263D01*
X153625462Y-60623763D01*
X153654116Y-60588154D01*
X153756764Y-60494579D01*
X153879673Y-60331821D01*
X153970582Y-60149250D01*
X154026397Y-59953083D01*
X154039315Y-59813674D01*
X154045215Y-59750004D01*
X154045215Y-59749995D01*
X154032012Y-59607517D01*
X154026397Y-59546917D01*
X153970582Y-59350750D01*
X153879673Y-59168179D01*
X153872349Y-59158481D01*
X153837611Y-59112480D01*
X153756764Y-59005421D01*
X153606041Y-58868019D01*
X153606036Y-58868015D01*
X153432643Y-58760655D01*
X153432632Y-58760649D01*
X153242462Y-58686978D01*
X153242458Y-58686977D01*
X153242456Y-58686976D01*
X153202360Y-58679480D01*
X153041980Y-58649500D01*
X153041976Y-58649500D01*
X152838024Y-58649500D01*
X152838019Y-58649500D01*
X152637544Y-58686976D01*
X152637537Y-58686978D01*
X152447367Y-58760649D01*
X152447356Y-58760655D01*
X152273963Y-58868015D01*
X152273958Y-58868019D01*
X152205881Y-58930080D01*
X152131365Y-58998011D01*
X152123234Y-59005423D01*
X152000328Y-59168176D01*
X151909416Y-59350754D01*
X151853602Y-59546921D01*
X151834785Y-59749995D01*
X151834785Y-59750004D01*
X151853602Y-59953078D01*
X151853602Y-59953080D01*
X151853603Y-59953083D01*
X151871048Y-60014394D01*
X151909416Y-60149245D01*
X151909417Y-60149247D01*
X151909418Y-60149250D01*
X151959584Y-60249998D01*
X152000328Y-60331823D01*
X152099451Y-60463083D01*
X152123236Y-60494579D01*
X152176437Y-60543078D01*
X152205880Y-60569918D01*
X152247488Y-60634860D01*
X152254500Y-60680031D01*
X152254500Y-62728965D01*
X152234538Y-62803465D01*
X152183940Y-62855646D01*
X152163962Y-62868015D01*
X152013234Y-63005423D01*
X151890328Y-63168176D01*
X151799416Y-63350754D01*
X151743602Y-63546921D01*
X151724785Y-63749995D01*
X145085306Y-63749995D01*
X146191703Y-62643598D01*
X150264695Y-58570606D01*
X150338620Y-58459969D01*
X150338621Y-58459964D01*
X150342072Y-58453511D01*
X150343594Y-58454324D01*
X150368971Y-58416328D01*
X151189695Y-57595606D01*
X151616160Y-57169141D01*
X151682955Y-57130577D01*
X151721519Y-57125500D01*
X151976877Y-57125500D01*
X152051377Y-57145462D01*
X152095781Y-57184707D01*
X152103236Y-57194579D01*
X152253958Y-57331980D01*
X152253963Y-57331984D01*
X152427356Y-57439344D01*
X152427367Y-57439350D01*
X152532606Y-57480119D01*
X152617544Y-57513024D01*
X152818024Y-57550500D01*
X152818027Y-57550500D01*
X153021973Y-57550500D01*
X153021976Y-57550500D01*
X153222456Y-57513024D01*
X153412637Y-57439348D01*
X153586041Y-57331981D01*
X153736764Y-57194579D01*
X153859673Y-57031821D01*
X153950582Y-56849250D01*
X154006397Y-56653083D01*
X154025215Y-56450000D01*
X154024991Y-56447585D01*
X154009939Y-56285141D01*
X154006397Y-56246917D01*
X153950582Y-56050750D01*
X153859673Y-55868179D01*
X153736764Y-55705421D01*
X153654119Y-55630080D01*
X153612511Y-55565137D01*
X153605500Y-55519968D01*
X153605500Y-53589147D01*
X153625462Y-53514647D01*
X153654120Y-53479034D01*
X153746764Y-53394579D01*
X153869673Y-53231821D01*
X153960582Y-53049250D01*
X154016397Y-52853083D01*
X154035215Y-52650000D01*
X154035215Y-52649995D01*
X159444785Y-52649995D01*
X159444785Y-52650004D01*
X159463602Y-52853078D01*
X159519416Y-53049245D01*
X159519417Y-53049247D01*
X159519418Y-53049250D01*
X159567326Y-53145462D01*
X159610328Y-53231823D01*
X159662159Y-53300458D01*
X159733236Y-53394579D01*
X159872990Y-53521981D01*
X159883958Y-53531980D01*
X159883963Y-53531984D01*
X160057356Y-53639344D01*
X160057367Y-53639350D01*
X160173332Y-53684274D01*
X160247544Y-53713024D01*
X160448024Y-53750500D01*
X160448027Y-53750500D01*
X160651973Y-53750500D01*
X160651976Y-53750500D01*
X160852456Y-53713024D01*
X161042637Y-53639348D01*
X161216041Y-53531981D01*
X161366764Y-53394579D01*
X161381771Y-53374707D01*
X161442598Y-53327285D01*
X161500675Y-53315500D01*
X162396877Y-53315500D01*
X162471377Y-53335462D01*
X162515781Y-53374707D01*
X162523236Y-53384579D01*
X162665914Y-53514647D01*
X162673958Y-53521980D01*
X162673963Y-53521984D01*
X162847356Y-53629344D01*
X162847367Y-53629350D01*
X162963332Y-53674274D01*
X163037544Y-53703024D01*
X163238024Y-53740500D01*
X163238027Y-53740500D01*
X163441973Y-53740500D01*
X163441976Y-53740500D01*
X163642456Y-53703024D01*
X163832637Y-53629348D01*
X164006041Y-53521981D01*
X164156764Y-53384579D01*
X164279673Y-53221821D01*
X164370582Y-53039250D01*
X164426397Y-52843083D01*
X164444288Y-52650004D01*
X164445215Y-52640004D01*
X164445215Y-52639995D01*
X164426398Y-52436926D01*
X164426397Y-52436921D01*
X164426397Y-52436917D01*
X164426395Y-52436910D01*
X164425131Y-52430147D01*
X164426324Y-52429923D01*
X164425246Y-52359928D01*
X164462777Y-52292547D01*
X164464317Y-52290982D01*
X165186160Y-51569141D01*
X165252955Y-51530577D01*
X165291519Y-51525500D01*
X167244407Y-51525500D01*
X167318907Y-51545462D01*
X167373445Y-51600000D01*
X167393407Y-51674500D01*
X167373445Y-51749000D01*
X167344788Y-51784611D01*
X167327405Y-51800459D01*
X167223234Y-51895423D01*
X167100328Y-52058176D01*
X167009416Y-52240754D01*
X166953602Y-52436921D01*
X166934785Y-52639995D01*
X166934785Y-52640003D01*
X166941044Y-52707551D01*
X166928041Y-52783575D01*
X166898039Y-52826658D01*
X163309394Y-56415305D01*
X162815308Y-56909390D01*
X162815304Y-56909395D01*
X162741382Y-57020026D01*
X162741377Y-57020035D01*
X162690459Y-57142963D01*
X162690458Y-57142965D01*
X162671008Y-57240750D01*
X162664500Y-57273468D01*
X162664500Y-59320852D01*
X162644538Y-59395352D01*
X162615880Y-59430964D01*
X162586208Y-59458015D01*
X162523234Y-59515423D01*
X162400328Y-59678176D01*
X162309416Y-59860754D01*
X162253602Y-60056921D01*
X162234785Y-60259995D01*
X162234785Y-60260004D01*
X162253602Y-60463078D01*
X162253602Y-60463080D01*
X162253603Y-60463083D01*
X162265702Y-60505606D01*
X162309416Y-60659245D01*
X162309417Y-60659247D01*
X162309418Y-60659250D01*
X162349251Y-60739245D01*
X162400328Y-60841823D01*
X162467374Y-60930606D01*
X162523236Y-61004579D01*
X162589053Y-61064579D01*
X162605880Y-61079918D01*
X162647488Y-61144860D01*
X162654500Y-61190031D01*
X162654500Y-62008481D01*
X162634538Y-62082981D01*
X162610859Y-62113840D01*
X162185308Y-62539390D01*
X162185304Y-62539395D01*
X162111382Y-62650026D01*
X162111378Y-62650034D01*
X162098427Y-62681300D01*
X162051473Y-62742488D01*
X162049226Y-62744040D01*
X162043962Y-62748015D01*
X161893234Y-62885423D01*
X161770328Y-63048176D01*
X161679416Y-63230754D01*
X161623602Y-63426921D01*
X161604785Y-63629995D01*
X161604785Y-63630004D01*
X161623602Y-63833078D01*
X161679416Y-64029245D01*
X161679417Y-64029247D01*
X161679418Y-64029250D01*
X161749487Y-64169969D01*
X161770328Y-64211823D01*
X161841070Y-64305500D01*
X161893236Y-64374579D01*
X162014042Y-64484708D01*
X162043958Y-64511980D01*
X162043963Y-64511984D01*
X162217356Y-64619344D01*
X162217367Y-64619350D01*
X162310874Y-64655574D01*
X162407544Y-64693024D01*
X162608024Y-64730500D01*
X162608027Y-64730500D01*
X162811973Y-64730500D01*
X162811976Y-64730500D01*
X163012456Y-64693024D01*
X163202637Y-64619348D01*
X163376041Y-64511981D01*
X163526764Y-64374579D01*
X163649673Y-64211821D01*
X163740582Y-64029250D01*
X163796397Y-63833083D01*
X163806851Y-63720259D01*
X163815215Y-63630004D01*
X163815215Y-63629995D01*
X163801053Y-63477161D01*
X163796397Y-63426917D01*
X163740582Y-63230750D01*
X163676664Y-63102385D01*
X163661328Y-63026800D01*
X163685838Y-62953670D01*
X163704686Y-62930614D01*
X163738265Y-62897035D01*
X163854695Y-62780606D01*
X163859801Y-62772964D01*
X163891399Y-62725674D01*
X163928619Y-62669971D01*
X163928620Y-62669968D01*
X163936877Y-62650034D01*
X163979540Y-62547036D01*
X164005500Y-62416531D01*
X164005500Y-61208263D01*
X164025462Y-61133763D01*
X164054116Y-61098154D01*
X164156764Y-61004579D01*
X164279673Y-60841821D01*
X164370582Y-60659250D01*
X164426397Y-60463083D01*
X164439656Y-60319995D01*
X164445215Y-60260004D01*
X164445215Y-60259995D01*
X164430947Y-60106021D01*
X164426397Y-60056917D01*
X164370582Y-59860750D01*
X164279673Y-59678179D01*
X164269946Y-59665299D01*
X164195360Y-59566531D01*
X164156764Y-59515421D01*
X164064119Y-59430964D01*
X164022511Y-59366021D01*
X164015500Y-59320852D01*
X164015500Y-57681519D01*
X164035462Y-57607019D01*
X164059141Y-57576160D01*
X164264695Y-57370606D01*
X166049543Y-55585758D01*
X167851159Y-53784140D01*
X167917954Y-53745577D01*
X167956518Y-53740500D01*
X168141973Y-53740500D01*
X168141976Y-53740500D01*
X168342456Y-53703024D01*
X168532637Y-53629348D01*
X168706041Y-53521981D01*
X168856764Y-53384579D01*
X168979673Y-53221821D01*
X169070582Y-53039250D01*
X169126397Y-52843083D01*
X169144288Y-52650004D01*
X169145215Y-52640004D01*
X169145215Y-52639995D01*
X169132196Y-52499500D01*
X169126397Y-52436917D01*
X169070582Y-52240750D01*
X168979673Y-52058179D01*
X168856764Y-51895421D01*
X168735211Y-51784611D01*
X168693605Y-51719669D01*
X168690043Y-51642624D01*
X168725481Y-51574119D01*
X168790424Y-51532512D01*
X168835593Y-51525500D01*
X169358481Y-51525500D01*
X169432981Y-51545462D01*
X169463840Y-51569141D01*
X172369394Y-54474695D01*
X172480031Y-54548620D01*
X172602964Y-54599540D01*
X172733469Y-54625500D01*
X172866531Y-54625500D01*
X178908481Y-54625500D01*
X178982981Y-54645462D01*
X179013840Y-54669141D01*
X179611494Y-55266795D01*
X179650058Y-55333590D01*
X179650058Y-55410718D01*
X179611494Y-55477513D01*
X179566321Y-55508458D01*
X179497516Y-55538839D01*
X179477238Y-55547793D01*
X179477233Y-55547795D01*
X179397793Y-55627235D01*
X179352416Y-55730005D01*
X179352415Y-55730008D01*
X179352415Y-55730009D01*
X179349500Y-55755135D01*
X179349500Y-55755136D01*
X179349500Y-55755140D01*
X179349500Y-56950836D01*
X179337380Y-56996066D01*
X179349500Y-57049163D01*
X179349500Y-58244866D01*
X179352414Y-58269989D01*
X179352415Y-58269992D01*
X179397793Y-58372764D01*
X179397794Y-58372765D01*
X179477235Y-58452206D01*
X179580009Y-58497585D01*
X179605135Y-58500500D01*
X182094864Y-58500499D01*
X182094866Y-58500499D01*
X182107427Y-58499042D01*
X182119991Y-58497585D01*
X182222765Y-58452206D01*
X182272794Y-58402177D01*
X185050000Y-58402177D01*
X185050000Y-58850000D01*
X185950000Y-58850000D01*
X185950000Y-57950000D01*
X185502177Y-57950000D01*
X185502157Y-57950001D01*
X185442622Y-57956401D01*
X185307915Y-58006645D01*
X185307905Y-58006650D01*
X185192812Y-58092809D01*
X185192809Y-58092812D01*
X185106650Y-58207905D01*
X185106645Y-58207915D01*
X185056401Y-58342622D01*
X185050001Y-58402157D01*
X185050000Y-58402177D01*
X182272794Y-58402177D01*
X182302206Y-58372765D01*
X182347585Y-58269991D01*
X182350500Y-58244865D01*
X182350499Y-55755136D01*
X182347585Y-55730009D01*
X182302206Y-55627235D01*
X182222765Y-55547794D01*
X182222764Y-55547793D01*
X182119994Y-55502416D01*
X182119991Y-55502415D01*
X182094865Y-55499500D01*
X182094859Y-55499500D01*
X181650970Y-55499500D01*
X181576470Y-55479538D01*
X181521932Y-55425000D01*
X181504833Y-55379569D01*
X181499541Y-55352965D01*
X181499541Y-55352964D01*
X181461784Y-55261811D01*
X181448620Y-55230031D01*
X181374695Y-55119394D01*
X181280606Y-55025305D01*
X179680606Y-53425305D01*
X179604882Y-53374708D01*
X179569973Y-53351382D01*
X179569964Y-53351377D01*
X179472494Y-53311004D01*
X179447036Y-53300459D01*
X179447034Y-53300458D01*
X179447033Y-53300458D01*
X179316531Y-53274500D01*
X173141519Y-53274500D01*
X173067019Y-53254538D01*
X173036160Y-53230859D01*
X170130609Y-50325308D01*
X170130606Y-50325305D01*
X170093727Y-50300663D01*
X170019973Y-50251382D01*
X170019964Y-50251377D01*
X169922494Y-50211004D01*
X169897036Y-50200459D01*
X169897034Y-50200458D01*
X169897033Y-50200458D01*
X169766531Y-50174500D01*
X165016531Y-50174500D01*
X164883469Y-50174500D01*
X164752966Y-50200458D01*
X164630035Y-50251377D01*
X164630026Y-50251382D01*
X164519395Y-50325304D01*
X164519390Y-50325308D01*
X163348840Y-51495859D01*
X163282045Y-51534423D01*
X163243481Y-51539500D01*
X163238019Y-51539500D01*
X163037544Y-51576976D01*
X163037537Y-51576978D01*
X162847367Y-51650649D01*
X162847356Y-51650655D01*
X162673963Y-51758015D01*
X162673958Y-51758019D01*
X162523234Y-51895423D01*
X162515782Y-51905292D01*
X162454956Y-51952715D01*
X162396877Y-51964500D01*
X161485571Y-51964500D01*
X161411071Y-51944538D01*
X161371978Y-51909986D01*
X161371404Y-51910510D01*
X161366768Y-51905425D01*
X161357752Y-51897206D01*
X161216041Y-51768019D01*
X161216036Y-51768015D01*
X161042643Y-51660655D01*
X161042632Y-51660649D01*
X160852462Y-51586978D01*
X160852458Y-51586977D01*
X160852456Y-51586976D01*
X160798971Y-51576978D01*
X160651980Y-51549500D01*
X160651976Y-51549500D01*
X160448024Y-51549500D01*
X160448019Y-51549500D01*
X160247544Y-51586976D01*
X160247537Y-51586978D01*
X160057367Y-51660649D01*
X160057356Y-51660655D01*
X159883963Y-51768015D01*
X159883958Y-51768019D01*
X159792516Y-51851380D01*
X159742248Y-51897206D01*
X159733234Y-51905423D01*
X159610328Y-52068176D01*
X159519416Y-52250754D01*
X159463602Y-52446921D01*
X159444785Y-52649995D01*
X154035215Y-52649995D01*
X154034288Y-52640000D01*
X154024760Y-52537176D01*
X154016397Y-52446917D01*
X153960582Y-52250750D01*
X153869673Y-52068179D01*
X153862121Y-52058179D01*
X153827611Y-52012480D01*
X153746764Y-51905421D01*
X153596041Y-51768019D01*
X153596036Y-51768015D01*
X153422643Y-51660655D01*
X153422632Y-51660649D01*
X153232462Y-51586978D01*
X153232458Y-51586977D01*
X153232456Y-51586976D01*
X153178971Y-51576978D01*
X153031980Y-51549500D01*
X153031976Y-51549500D01*
X152828024Y-51549500D01*
X152828019Y-51549500D01*
X152627544Y-51586976D01*
X152627537Y-51586978D01*
X152437367Y-51660649D01*
X152437356Y-51660655D01*
X152263963Y-51768015D01*
X152263958Y-51768019D01*
X152172516Y-51851380D01*
X152122248Y-51897206D01*
X152113234Y-51905423D01*
X151990328Y-52068176D01*
X151899416Y-52250754D01*
X151843602Y-52446921D01*
X151824785Y-52649995D01*
X151824785Y-52650004D01*
X151843602Y-52853078D01*
X151899416Y-53049245D01*
X151899417Y-53049247D01*
X151899418Y-53049250D01*
X151947326Y-53145462D01*
X151990328Y-53231823D01*
X152042159Y-53300458D01*
X152113236Y-53394579D01*
X152146944Y-53425308D01*
X152205880Y-53479034D01*
X152247488Y-53543976D01*
X152254500Y-53589147D01*
X152254500Y-55501736D01*
X152234538Y-55576236D01*
X152205881Y-55611847D01*
X152124490Y-55686046D01*
X152103234Y-55705423D01*
X152095782Y-55715292D01*
X152034956Y-55762715D01*
X151976877Y-55774500D01*
X148541519Y-55774500D01*
X148467019Y-55754538D01*
X148436160Y-55730859D01*
X144880856Y-52175555D01*
X144842292Y-52108760D01*
X144842292Y-52031632D01*
X144880856Y-51964837D01*
X144947651Y-51926273D01*
X145009518Y-51923030D01*
X145151387Y-51945500D01*
X145151392Y-51945500D01*
X145348609Y-51945500D01*
X145348613Y-51945500D01*
X145543412Y-51914647D01*
X145543413Y-51914646D01*
X145543417Y-51914646D01*
X145543417Y-51914645D01*
X145730985Y-51853701D01*
X145906715Y-51764162D01*
X146066275Y-51648235D01*
X146205735Y-51508775D01*
X146321662Y-51349215D01*
X146387240Y-51220510D01*
X146438849Y-51163193D01*
X146512202Y-51139359D01*
X146587644Y-51155395D01*
X146644962Y-51207004D01*
X146652759Y-51220510D01*
X146718338Y-51349215D01*
X146765965Y-51414768D01*
X146830044Y-51502966D01*
X146834265Y-51508775D01*
X146973725Y-51648235D01*
X147133285Y-51764162D01*
X147309015Y-51853701D01*
X147468206Y-51905425D01*
X147496582Y-51914645D01*
X147496582Y-51914646D01*
X147496587Y-51914646D01*
X147496588Y-51914647D01*
X147691387Y-51945500D01*
X147691391Y-51945500D01*
X147888609Y-51945500D01*
X147888613Y-51945500D01*
X148083412Y-51914647D01*
X148083413Y-51914646D01*
X148083417Y-51914646D01*
X148083417Y-51914645D01*
X148270985Y-51853701D01*
X148446715Y-51764162D01*
X148606275Y-51648235D01*
X148745735Y-51508775D01*
X148861662Y-51349215D01*
X148951201Y-51173485D01*
X149012145Y-50985917D01*
X149012146Y-50985917D01*
X149012147Y-50985912D01*
X149043000Y-50791113D01*
X149043000Y-50498887D01*
X149012147Y-50304088D01*
X149012146Y-50304087D01*
X149012146Y-50304082D01*
X148970041Y-50174500D01*
X148951201Y-50116515D01*
X148911770Y-50039128D01*
X148895735Y-49963689D01*
X148919569Y-49890336D01*
X148939167Y-49866132D01*
X149086161Y-49719140D01*
X149152956Y-49680577D01*
X149191519Y-49675500D01*
X170808481Y-49675500D01*
X170882981Y-49695462D01*
X170913839Y-49719140D01*
X173819394Y-52624695D01*
X173930031Y-52698620D01*
X174052964Y-52749540D01*
X174183469Y-52775500D01*
X174316531Y-52775500D01*
X183258481Y-52775500D01*
X183332981Y-52795462D01*
X183363840Y-52819141D01*
X188280859Y-57736160D01*
X188319423Y-57802955D01*
X188324500Y-57841519D01*
X188324500Y-59566531D01*
X188350458Y-59697033D01*
X188401377Y-59819964D01*
X188401382Y-59819973D01*
X188445399Y-59885848D01*
X188475305Y-59930606D01*
X188475308Y-59930609D01*
X196280859Y-67736160D01*
X196319423Y-67802955D01*
X196324500Y-67841519D01*
X196324500Y-77158480D01*
X196304538Y-77232980D01*
X196280859Y-77263839D01*
X195155058Y-78389639D01*
X195088263Y-78428203D01*
X195011135Y-78428203D01*
X194978783Y-78415321D01*
X194804815Y-78321174D01*
X194804811Y-78321172D01*
X194569613Y-78240428D01*
X194569609Y-78240427D01*
X194324335Y-78199500D01*
X194075665Y-78199500D01*
X194075664Y-78199500D01*
X193830390Y-78240427D01*
X193830386Y-78240428D01*
X193595188Y-78321172D01*
X193595184Y-78321174D01*
X193376494Y-78439523D01*
X193376489Y-78439527D01*
X193180256Y-78592261D01*
X193011840Y-78775210D01*
X193011838Y-78775212D01*
X193011836Y-78775215D01*
X192897644Y-78950000D01*
X192893073Y-78956996D01*
X192835613Y-79008446D01*
X192768335Y-79024500D01*
X192541519Y-79024500D01*
X192467019Y-79004538D01*
X192436160Y-78980859D01*
X191130609Y-77675308D01*
X191130606Y-77675305D01*
X191092044Y-77649539D01*
X191019973Y-77601382D01*
X191019964Y-77601377D01*
X190922494Y-77561004D01*
X190897036Y-77550459D01*
X190897034Y-77550458D01*
X190897033Y-77550458D01*
X190766531Y-77524500D01*
X187049499Y-77524500D01*
X186974999Y-77504538D01*
X186920461Y-77450000D01*
X186900499Y-77375500D01*
X186900499Y-77355133D01*
X186898313Y-77336290D01*
X186897585Y-77330009D01*
X186852206Y-77227235D01*
X186772765Y-77147794D01*
X186772764Y-77147793D01*
X186669994Y-77102416D01*
X186669991Y-77102415D01*
X186669982Y-77102414D01*
X186644865Y-77099500D01*
X186644859Y-77099500D01*
X186540355Y-77099500D01*
X186465855Y-77079538D01*
X186411317Y-77025000D01*
X186391355Y-76950500D01*
X186411317Y-76876000D01*
X186454891Y-76828447D01*
X186525471Y-76779024D01*
X185846447Y-76100000D01*
X185852661Y-76100000D01*
X185954394Y-76072741D01*
X186045606Y-76020080D01*
X186120080Y-75945606D01*
X186172741Y-75854394D01*
X186200000Y-75752661D01*
X186200000Y-75746447D01*
X186879024Y-76425471D01*
X186930132Y-76352484D01*
X186930136Y-76352478D01*
X187026266Y-76146325D01*
X187026267Y-76146323D01*
X187085140Y-75926606D01*
X187104965Y-75700000D01*
X187085140Y-75473393D01*
X187026267Y-75253676D01*
X187026266Y-75253674D01*
X186930132Y-75047515D01*
X186930129Y-75047509D01*
X186879025Y-74974526D01*
X186200000Y-75653551D01*
X186200000Y-75647339D01*
X186172741Y-75545606D01*
X186120080Y-75454394D01*
X186045606Y-75379920D01*
X185954394Y-75327259D01*
X185852661Y-75300000D01*
X185846445Y-75300000D01*
X186525472Y-74620973D01*
X186452492Y-74569872D01*
X186452483Y-74569866D01*
X186246325Y-74473733D01*
X186246323Y-74473732D01*
X186026605Y-74414859D01*
X186026606Y-74414859D01*
X185800000Y-74395034D01*
X185573393Y-74414859D01*
X185353676Y-74473732D01*
X185353674Y-74473733D01*
X185147522Y-74569862D01*
X185147517Y-74569865D01*
X185074527Y-74620974D01*
X185753553Y-75300000D01*
X185747339Y-75300000D01*
X185645606Y-75327259D01*
X185554394Y-75379920D01*
X185479920Y-75454394D01*
X185427259Y-75545606D01*
X185400000Y-75647339D01*
X185400000Y-75653553D01*
X184720974Y-74974527D01*
X184669865Y-75047517D01*
X184669862Y-75047522D01*
X184573733Y-75253674D01*
X184573732Y-75253676D01*
X184514859Y-75473393D01*
X184495034Y-75700000D01*
X184514859Y-75926606D01*
X184573732Y-76146323D01*
X184573733Y-76146325D01*
X184669866Y-76352483D01*
X184669872Y-76352492D01*
X184720973Y-76425471D01*
X185400000Y-75746444D01*
X185400000Y-75752661D01*
X185427259Y-75854394D01*
X185479920Y-75945606D01*
X185554394Y-76020080D01*
X185645606Y-76072741D01*
X185747339Y-76100000D01*
X185753553Y-76100000D01*
X185074526Y-76779025D01*
X185145108Y-76828447D01*
X185194684Y-76887531D01*
X185208077Y-76963487D01*
X185181697Y-77035964D01*
X185122613Y-77085540D01*
X185059645Y-77099500D01*
X184955133Y-77099500D01*
X184930010Y-77102414D01*
X184930007Y-77102415D01*
X184827235Y-77147793D01*
X184747793Y-77227235D01*
X184702416Y-77330005D01*
X184702415Y-77330008D01*
X184702415Y-77330009D01*
X184699500Y-77355135D01*
X184699500Y-77355136D01*
X184699500Y-77355140D01*
X184699500Y-79044866D01*
X184702414Y-79069989D01*
X184702415Y-79069992D01*
X184747793Y-79172764D01*
X184747794Y-79172765D01*
X184827235Y-79252206D01*
X184930009Y-79297585D01*
X184955135Y-79300500D01*
X186644864Y-79300499D01*
X186644866Y-79300499D01*
X186657427Y-79299042D01*
X186669991Y-79297585D01*
X186772765Y-79252206D01*
X186852206Y-79172765D01*
X186897585Y-79069991D01*
X186900500Y-79044865D01*
X186900500Y-79024500D01*
X186920462Y-78950000D01*
X186975000Y-78895462D01*
X187049500Y-78875500D01*
X190358481Y-78875500D01*
X190432981Y-78895462D01*
X190463840Y-78919141D01*
X191675305Y-80130606D01*
X191769394Y-80224695D01*
X191880031Y-80298620D01*
X192002964Y-80349540D01*
X192133469Y-80375500D01*
X192768335Y-80375500D01*
X192842835Y-80395462D01*
X192893072Y-80443003D01*
X193011836Y-80624785D01*
X193180256Y-80807738D01*
X193376491Y-80960474D01*
X193376492Y-80960474D01*
X193376494Y-80960476D01*
X193588680Y-81075305D01*
X193595190Y-81078828D01*
X193744339Y-81130031D01*
X193830386Y-81159571D01*
X193830390Y-81159572D01*
X193875883Y-81167163D01*
X194075665Y-81200500D01*
X194075667Y-81200500D01*
X194324333Y-81200500D01*
X194324335Y-81200500D01*
X194538877Y-81164700D01*
X194569609Y-81159572D01*
X194569610Y-81159571D01*
X194569614Y-81159571D01*
X194804810Y-81078828D01*
X195023509Y-80960474D01*
X195219744Y-80807738D01*
X195388164Y-80624785D01*
X195524173Y-80416607D01*
X195624063Y-80188881D01*
X195685108Y-79947821D01*
X195696645Y-79808575D01*
X195722691Y-79735980D01*
X195739771Y-79715528D01*
X197524695Y-77930606D01*
X197598620Y-77819969D01*
X197610214Y-77791979D01*
X197657167Y-77730790D01*
X197728425Y-77701275D01*
X197747872Y-77700000D01*
X198150500Y-77700000D01*
X198225000Y-77719962D01*
X198279538Y-77774500D01*
X198299500Y-77849000D01*
X198299500Y-94388856D01*
X198285194Y-94452562D01*
X198130812Y-94778973D01*
X198123920Y-94791868D01*
X197929640Y-95116004D01*
X197921521Y-95128155D01*
X197696402Y-95431692D01*
X197687126Y-95442995D01*
X197433343Y-95723003D01*
X197423003Y-95733343D01*
X197142995Y-95987126D01*
X197131692Y-95996402D01*
X196828155Y-96221521D01*
X196816004Y-96229640D01*
X196613768Y-96350855D01*
X196491868Y-96423920D01*
X196478973Y-96430812D01*
X196152562Y-96585194D01*
X196088856Y-96599500D01*
X126311144Y-96599500D01*
X126247438Y-96585194D01*
X125921026Y-96430812D01*
X125908131Y-96423920D01*
X125583985Y-96229634D01*
X125571844Y-96221521D01*
X125268307Y-95996402D01*
X125257004Y-95987126D01*
X125050035Y-95799541D01*
X124976986Y-95733333D01*
X124966666Y-95723013D01*
X124826163Y-95567991D01*
X124712873Y-95442995D01*
X124703597Y-95431692D01*
X124478478Y-95128155D01*
X124470368Y-95116018D01*
X124276073Y-94791857D01*
X124269187Y-94778973D01*
X124114806Y-94452562D01*
X124100500Y-94388856D01*
X124100500Y-62197822D01*
X126100000Y-62197822D01*
X126100001Y-62197842D01*
X126106401Y-62257377D01*
X126156645Y-62392084D01*
X126156650Y-62392094D01*
X126242809Y-62507187D01*
X126242812Y-62507190D01*
X126357905Y-62593349D01*
X126357915Y-62593354D01*
X126492623Y-62643598D01*
X126492621Y-62643598D01*
X126552157Y-62649998D01*
X126552177Y-62650000D01*
X127000000Y-62650000D01*
X127500000Y-62650000D01*
X127947823Y-62650000D01*
X127947842Y-62649998D01*
X128007377Y-62643598D01*
X128142084Y-62593354D01*
X128142094Y-62593349D01*
X128257187Y-62507190D01*
X128257190Y-62507187D01*
X128343349Y-62392094D01*
X128343354Y-62392084D01*
X128393598Y-62257377D01*
X128399998Y-62197842D01*
X128400000Y-62197822D01*
X128400000Y-61750000D01*
X127500000Y-61750000D01*
X127500000Y-62650000D01*
X127000000Y-62650000D01*
X127000000Y-61750000D01*
X126100000Y-61750000D01*
X126100000Y-62197822D01*
X124100500Y-62197822D01*
X124100500Y-61453922D01*
X126900000Y-61453922D01*
X126900000Y-61546078D01*
X126923852Y-61635095D01*
X126969930Y-61714905D01*
X127035095Y-61780070D01*
X127114905Y-61826148D01*
X127203922Y-61850000D01*
X127296078Y-61850000D01*
X127385095Y-61826148D01*
X127464905Y-61780070D01*
X127530070Y-61714905D01*
X127576148Y-61635095D01*
X127600000Y-61546078D01*
X127600000Y-61453922D01*
X127576148Y-61364905D01*
X127530070Y-61285095D01*
X127494975Y-61250000D01*
X127500000Y-61250000D01*
X128400000Y-61250000D01*
X128400000Y-60802177D01*
X128399998Y-60802157D01*
X128393598Y-60742622D01*
X128343354Y-60607915D01*
X128343349Y-60607905D01*
X128257190Y-60492812D01*
X128257187Y-60492809D01*
X128142094Y-60406650D01*
X128142084Y-60406645D01*
X128007376Y-60356401D01*
X128007378Y-60356401D01*
X127947842Y-60350001D01*
X127947823Y-60350000D01*
X127500000Y-60350000D01*
X127500000Y-61250000D01*
X127494975Y-61250000D01*
X127464905Y-61219930D01*
X127385095Y-61173852D01*
X127296078Y-61150000D01*
X127203922Y-61150000D01*
X127114905Y-61173852D01*
X127035095Y-61219930D01*
X126969930Y-61285095D01*
X126923852Y-61364905D01*
X126900000Y-61453922D01*
X124100500Y-61453922D01*
X124100500Y-60802177D01*
X126100000Y-60802177D01*
X126100000Y-61250000D01*
X127000000Y-61250000D01*
X127000000Y-60350000D01*
X126552177Y-60350000D01*
X126552157Y-60350001D01*
X126492622Y-60356401D01*
X126357915Y-60406645D01*
X126357905Y-60406650D01*
X126242812Y-60492809D01*
X126242809Y-60492812D01*
X126156650Y-60607905D01*
X126156645Y-60607915D01*
X126106401Y-60742622D01*
X126100001Y-60802157D01*
X126100000Y-60802177D01*
X124100500Y-60802177D01*
X124100500Y-48711143D01*
X124114806Y-48647437D01*
X124151838Y-48569141D01*
X124269189Y-48321021D01*
X124276068Y-48308150D01*
X124470374Y-47983971D01*
X124478467Y-47971860D01*
X124703598Y-47668305D01*
X124712873Y-47657004D01*
X124966676Y-47376975D01*
X124976975Y-47366676D01*
X125257005Y-47112871D01*
X125268307Y-47103597D01*
X125571860Y-46878467D01*
X125583971Y-46870374D01*
X125908150Y-46676068D01*
X125921021Y-46669189D01*
X126247438Y-46514806D01*
X126311144Y-46500500D01*
X196088856Y-46500500D01*
X196152562Y-46514806D01*
G37*
%TD.AperFunction*%
%TA.AperFunction,Conductor*%
G36*
X156506012Y-82645462D02*
G01*
X156560550Y-82700000D01*
X156580512Y-82774500D01*
X156560550Y-82849000D01*
X156506012Y-82903538D01*
X156470076Y-82918423D01*
X156460843Y-82920896D01*
X156460841Y-82920897D01*
X156262614Y-83013332D01*
X156262611Y-83013333D01*
X156200428Y-83056873D01*
X156200428Y-83056874D01*
X156843554Y-83700000D01*
X156837339Y-83700000D01*
X156735606Y-83727259D01*
X156644394Y-83779920D01*
X156569920Y-83854394D01*
X156517259Y-83945606D01*
X156490000Y-84047339D01*
X156490000Y-84053554D01*
X155846874Y-83410428D01*
X155846873Y-83410428D01*
X155803333Y-83472611D01*
X155803332Y-83472614D01*
X155710897Y-83670841D01*
X155661470Y-83855304D01*
X155622905Y-83922098D01*
X155556110Y-83960662D01*
X155478982Y-83960662D01*
X155412188Y-83922097D01*
X155374964Y-83859992D01*
X155325232Y-83696046D01*
X155319016Y-83684417D01*
X155227689Y-83513557D01*
X155227687Y-83513555D01*
X155227685Y-83513550D01*
X155167734Y-83440499D01*
X155116858Y-83378505D01*
X155085027Y-83308251D01*
X155092587Y-83231495D01*
X155126676Y-83178624D01*
X155636160Y-82669141D01*
X155702955Y-82630577D01*
X155741519Y-82625500D01*
X156431512Y-82625500D01*
X156506012Y-82645462D01*
G37*
%TD.AperFunction*%
%TD*%
M02*
